<svg xmlns="http://www.w3.org/2000/svg" width="2064" height="690" viewBox="0 0 2064 690">
<rect width="2064" height="690" fill="#ffffff"/>
<text x="224" y="38" font-size="16" fill="#1d1d1f" text-anchor="middle" font-weight="600" font-family="Inter, 'Segoe UI', Roboto, Arial, sans-serif">CRS, página 1 (sem segmento)</text>
<g transform="translate(44,68) scale(1.5)">
<clipPath id="clip-crs1"><rect width="240" height="400"/></clipPath>
<g clip-path="url(#clip-crs1)">
<rect x="0" y="0" width="240" height="400" fill="#f4f5f0"/>
<rect x="0" y="0" width="240" height="20" fill="#16181a"/>
<text x="4" y="15" font-size="13" fill="#f4f5f0" text-anchor="start" font-weight="700" font-family="'DejaVu Sans Mono', Consolas, 'Courier New', monospace">07:42</text>
<text x="52" y="15" font-size="11" fill="#2e9d4a" text-anchor="start" font-weight="700" font-family="'DejaVu Sans Mono', Consolas, 'Courier New', monospace">GPS</text>
<text x="80" y="15" font-size="11" fill="#2aa3b5" text-anchor="start" font-weight="700" font-family="'DejaVu Sans Mono', Consolas, 'Courier New', monospace">ANT+</text>
<text x="114" y="15" font-size="11" fill="#2aa3b5" text-anchor="start" font-weight="700" font-family="'DejaVu Sans Mono', Consolas, 'Courier New', monospace">BLE</text>
<circle cx="146" cy="10" r="4" fill="#c8323c"/>
<circle cx="166" cy="10" r="3.2" fill="#d9a900"/>
<line x1="170.8" y1="10" x2="173" y2="10" stroke="#d9a900" stroke-width="1.2"/>
<line x1="169.39" y1="13.39" x2="170.95" y2="14.95" stroke="#d9a900" stroke-width="1.2"/>
<line x1="166" y1="14.8" x2="166" y2="17" stroke="#d9a900" stroke-width="1.2"/>
<line x1="162.61" y1="13.39" x2="161.05" y2="14.95" stroke="#d9a900" stroke-width="1.2"/>
<line x1="161.2" y1="10" x2="159" y2="10" stroke="#d9a900" stroke-width="1.2"/>
<line x1="162.61" y1="6.61" x2="161.05" y2="5.05" stroke="#d9a900" stroke-width="1.2"/>
<line x1="166" y1="5.2" x2="166" y2="3" stroke="#d9a900" stroke-width="1.2"/>
<line x1="169.39" y1="6.61" x2="170.95" y2="5.05" stroke="#d9a900" stroke-width="1.2"/>
<rect x="182" y="5" width="30" height="10" fill="#16181a" stroke="#f4f5f0" stroke-width="1.2"/>
<rect x="212" y="8" width="2.5" height="4" fill="#f4f5f0"/>
<rect x="184" y="7" width="23.66" height="6" fill="#2e9d4a"/>
<text x="236" y="15" font-size="11" fill="#f4f5f0" text-anchor="end" font-weight="700" font-family="'DejaVu Sans Mono', Consolas, 'Courier New', monospace">91</text>
<rect x="0" y="20" width="120" height="54.29" fill="#f4f5f0" stroke="#16181a" stroke-width="1"/>
<text x="4" y="32" font-size="10" fill="#16181a" text-anchor="start" font-weight="400" font-family="'DejaVu Sans Mono', Consolas, 'Courier New', monospace">Dist</text>
<text x="116" y="32" font-size="10" fill="#16181a" text-anchor="end" font-weight="400" font-family="'DejaVu Sans Mono', Consolas, 'Courier New', monospace">km</text>
<text x="60" y="65.29" font-size="28" fill="#16181a" text-anchor="middle" font-weight="700" font-family="'DejaVu Sans Mono', Consolas, 'Courier New', monospace">18.2</text>
<rect x="120" y="20" width="120" height="54.29" fill="#f4f5f0" stroke="#16181a" stroke-width="1"/>
<text x="124" y="32" font-size="10" fill="#16181a" text-anchor="start" font-weight="400" font-family="'DejaVu Sans Mono', Consolas, 'Courier New', monospace">Pot</text>
<text x="236" y="32" font-size="10" fill="#16181a" text-anchor="end" font-weight="400" font-family="'DejaVu Sans Mono', Consolas, 'Courier New', monospace">W</text>
<text x="180" y="65.29" font-size="28" fill="#16181a" text-anchor="middle" font-weight="700" font-family="'DejaVu Sans Mono', Consolas, 'Courier New', monospace">222</text>
<rect x="0" y="74.29" width="120" height="54.29" fill="#f4f5f0" stroke="#16181a" stroke-width="1"/>
<text x="4" y="86.29" font-size="10" fill="#16181a" text-anchor="start" font-weight="400" font-family="'DejaVu Sans Mono', Consolas, 'Courier New', monospace">Vel</text>
<text x="116" y="86.29" font-size="10" fill="#16181a" text-anchor="end" font-weight="400" font-family="'DejaVu Sans Mono', Consolas, 'Courier New', monospace">km/h</text>
<text x="60" y="119.57" font-size="28" fill="#16181a" text-anchor="middle" font-weight="700" font-family="'DejaVu Sans Mono', Consolas, 'Courier New', monospace">20.0</text>
<rect x="120" y="74.29" width="120" height="54.29" fill="#f4f5f0" stroke="#16181a" stroke-width="1"/>
<text x="124" y="86.29" font-size="10" fill="#16181a" text-anchor="start" font-weight="400" font-family="'DejaVu Sans Mono', Consolas, 'Courier New', monospace">Subida</text>
<text x="236" y="86.29" font-size="10" fill="#16181a" text-anchor="end" font-weight="400" font-family="'DejaVu Sans Mono', Consolas, 'Courier New', monospace">m</text>
<text x="180" y="119.57" font-size="28" fill="#16181a" text-anchor="middle" font-weight="700" font-family="'DejaVu Sans Mono', Consolas, 'Courier New', monospace">575</text>
<rect x="0" y="128.57" width="120" height="54.29" fill="#f4f5f0" stroke="#16181a" stroke-width="1"/>
<text x="4" y="140.57" font-size="10" fill="#16181a" text-anchor="start" font-weight="400" font-family="'DejaVu Sans Mono', Consolas, 'Courier New', monospace">Cad</text>
<text x="116" y="140.57" font-size="10" fill="#16181a" text-anchor="end" font-weight="400" font-family="'DejaVu Sans Mono', Consolas, 'Courier New', monospace">rpm</text>
<text x="60" y="173.86" font-size="28" fill="#16181a" text-anchor="middle" font-weight="700" font-family="'DejaVu Sans Mono', Consolas, 'Courier New', monospace">88</text>
<rect x="120" y="128.57" width="120" height="54.29" fill="#f4f5f0" stroke="#16181a" stroke-width="1"/>
<text x="124" y="140.57" font-size="10" fill="#16181a" text-anchor="start" font-weight="400" font-family="'DejaVu Sans Mono', Consolas, 'Courier New', monospace">FC</text>
<text x="236" y="140.57" font-size="10" fill="#16181a" text-anchor="end" font-weight="400" font-family="'DejaVu Sans Mono', Consolas, 'Courier New', monospace">bpm</text>
<text x="180" y="173.86" font-size="28" fill="#16181a" text-anchor="middle" font-weight="700" font-family="'DejaVu Sans Mono', Consolas, 'Courier New', monospace">147</text>
<rect x="0" y="182.86" width="120" height="54.29" fill="#f4f5f0" stroke="#16181a" stroke-width="1"/>
<text x="4" y="194.86" font-size="10" fill="#16181a" text-anchor="start" font-weight="400" font-family="'DejaVu Sans Mono', Consolas, 'Courier New', monospace">Incl</text>
<text x="116" y="194.86" font-size="10" fill="#16181a" text-anchor="end" font-weight="400" font-family="'DejaVu Sans Mono', Consolas, 'Courier New', monospace">%</text>
<text x="60" y="228.14" font-size="28" fill="#16181a" text-anchor="middle" font-weight="700" font-family="'DejaVu Sans Mono', Consolas, 'Courier New', monospace">4</text>
<rect x="120" y="182.86" width="120" height="54.29" fill="#f4f5f0" stroke="#16181a" stroke-width="1"/>
<text x="124" y="194.86" font-size="10" fill="#16181a" text-anchor="start" font-weight="400" font-family="'DejaVu Sans Mono', Consolas, 'Courier New', monospace">VA</text>
<text x="236" y="194.86" font-size="10" fill="#16181a" text-anchor="end" font-weight="400" font-family="'DejaVu Sans Mono', Consolas, 'Courier New', monospace">m/s</text>
<text x="180" y="228.14" font-size="28" fill="#16181a" text-anchor="middle" font-weight="700" font-family="'DejaVu Sans Mono', Consolas, 'Courier New', monospace">0.21</text>
<rect x="0" y="237.14" width="240" height="54.29" fill="#f4f5f0" stroke="#16181a" stroke-width="1"/>
<text x="4" y="249.14" font-size="10" fill="#a83a95" text-anchor="start" font-weight="400" font-family="'DejaVu Sans Mono', Consolas, 'Courier New', monospace">Próx. segmento</text>
<text x="236" y="249.14" font-size="10" fill="#16181a" text-anchor="end" font-weight="400" font-family="'DejaVu Sans Mono', Consolas, 'Courier New', monospace">m</text>
<text x="120" y="282.43" font-size="32" fill="#16181a" text-anchor="middle" font-weight="700" font-family="'DejaVu Sans Mono', Consolas, 'Courier New', monospace">875</text>
<rect x="0" y="291.43" width="120" height="54.29" fill="#f4f5f0" stroke="#16181a" stroke-width="1"/>
<text x="4" y="303.43" font-size="10" fill="#16181a" text-anchor="start" font-weight="400" font-family="'DejaVu Sans Mono', Consolas, 'Courier New', monospace">Média</text>
<text x="116" y="303.43" font-size="10" fill="#16181a" text-anchor="end" font-weight="400" font-family="'DejaVu Sans Mono', Consolas, 'Courier New', monospace">km/h</text>
<text x="60" y="336.71" font-size="28" fill="#16181a" text-anchor="middle" font-weight="700" font-family="'DejaVu Sans Mono', Consolas, 'Courier New', monospace">23.4</text>
<rect x="120" y="291.43" width="120" height="54.29" fill="#f4f5f0" stroke="#16181a" stroke-width="1"/>
<text x="124" y="303.43" font-size="10" fill="#16181a" text-anchor="start" font-weight="400" font-family="'DejaVu Sans Mono', Consolas, 'Courier New', monospace">Score</text>
<text x="236" y="303.43" font-size="10" fill="#16181a" text-anchor="end" font-weight="400" font-family="'DejaVu Sans Mono', Consolas, 'Courier New', monospace"></text>
<text x="180" y="336.71" font-size="28" fill="#16181a" text-anchor="middle" font-weight="700" font-family="'DejaVu Sans Mono', Consolas, 'Courier New', monospace">0.2</text>
<rect x="0" y="345.71" width="120" height="54.29" fill="#f4f5f0" stroke="#16181a" stroke-width="1"/>
<text x="4" y="357.71" font-size="10" fill="#16181a" text-anchor="start" font-weight="400" font-family="'DejaVu Sans Mono', Consolas, 'Courier New', monospace">Solar</text>
<text x="116" y="357.71" font-size="10" fill="#16181a" text-anchor="end" font-weight="400" font-family="'DejaVu Sans Mono', Consolas, 'Courier New', monospace">mW</text>
<text x="60" y="391" font-size="28" fill="#2e9d4a" text-anchor="middle" font-weight="700" font-family="'DejaVu Sans Mono', Consolas, 'Courier New', monospace">18</text>
<rect x="120" y="345.71" width="120" height="54.29" fill="#f4f5f0" stroke="#16181a" stroke-width="1"/>
<text x="124" y="357.71" font-size="10" fill="#16181a" text-anchor="start" font-weight="400" font-family="'DejaVu Sans Mono', Consolas, 'Courier New', monospace">Bat</text>
<text x="236" y="357.71" font-size="10" fill="#16181a" text-anchor="end" font-weight="400" font-family="'DejaVu Sans Mono', Consolas, 'Courier New', monospace">%</text>
<text x="180" y="391" font-size="28" fill="#16181a" text-anchor="middle" font-weight="700" font-family="'DejaVu Sans Mono', Consolas, 'Courier New', monospace">91</text>
</g>
<rect width="240" height="400" fill="none" stroke="#1d1d1f" stroke-width="2"/>
</g>
<text x="628" y="38" font-size="16" fill="#1d1d1f" text-anchor="middle" font-weight="600" font-family="Inter, 'Segoe UI', Roboto, Arial, sans-serif">CRS, página 1 (1 segmento)</text>
<g transform="translate(448,68) scale(1.5)">
<clipPath id="clip-crs1_seg"><rect width="240" height="400"/></clipPath>
<g clip-path="url(#clip-crs1_seg)">
<rect x="0" y="0" width="240" height="400" fill="#f4f5f0"/>
<rect x="0" y="0" width="240" height="20" fill="#16181a"/>
<text x="4" y="15" font-size="13" fill="#f4f5f0" text-anchor="start" font-weight="700" font-family="'DejaVu Sans Mono', Consolas, 'Courier New', monospace">07:42</text>
<text x="52" y="15" font-size="11" fill="#2e9d4a" text-anchor="start" font-weight="700" font-family="'DejaVu Sans Mono', Consolas, 'Courier New', monospace">GPS</text>
<text x="80" y="15" font-size="11" fill="#2aa3b5" text-anchor="start" font-weight="700" font-family="'DejaVu Sans Mono', Consolas, 'Courier New', monospace">ANT+</text>
<text x="114" y="15" font-size="11" fill="#2aa3b5" text-anchor="start" font-weight="700" font-family="'DejaVu Sans Mono', Consolas, 'Courier New', monospace">BLE</text>
<circle cx="146" cy="10" r="4" fill="#c8323c"/>
<circle cx="166" cy="10" r="3.2" fill="#d9a900"/>
<line x1="170.8" y1="10" x2="173" y2="10" stroke="#d9a900" stroke-width="1.2"/>
<line x1="169.39" y1="13.39" x2="170.95" y2="14.95" stroke="#d9a900" stroke-width="1.2"/>
<line x1="166" y1="14.8" x2="166" y2="17" stroke="#d9a900" stroke-width="1.2"/>
<line x1="162.61" y1="13.39" x2="161.05" y2="14.95" stroke="#d9a900" stroke-width="1.2"/>
<line x1="161.2" y1="10" x2="159" y2="10" stroke="#d9a900" stroke-width="1.2"/>
<line x1="162.61" y1="6.61" x2="161.05" y2="5.05" stroke="#d9a900" stroke-width="1.2"/>
<line x1="166" y1="5.2" x2="166" y2="3" stroke="#d9a900" stroke-width="1.2"/>
<line x1="169.39" y1="6.61" x2="170.95" y2="5.05" stroke="#d9a900" stroke-width="1.2"/>
<rect x="182" y="5" width="30" height="10" fill="#16181a" stroke="#f4f5f0" stroke-width="1.2"/>
<rect x="212" y="8" width="2.5" height="4" fill="#f4f5f0"/>
<rect x="184" y="7" width="23.66" height="6" fill="#2e9d4a"/>
<text x="236" y="15" font-size="11" fill="#f4f5f0" text-anchor="end" font-weight="700" font-family="'DejaVu Sans Mono', Consolas, 'Courier New', monospace">91</text>
<rect x="0" y="20" width="120" height="54.29" fill="#f4f5f0" stroke="#16181a" stroke-width="1"/>
<text x="4" y="32" font-size="10" fill="#16181a" text-anchor="start" font-weight="400" font-family="'DejaVu Sans Mono', Consolas, 'Courier New', monospace">Dist</text>
<text x="116" y="32" font-size="10" fill="#16181a" text-anchor="end" font-weight="400" font-family="'DejaVu Sans Mono', Consolas, 'Courier New', monospace">km</text>
<text x="60" y="65.29" font-size="28" fill="#16181a" text-anchor="middle" font-weight="700" font-family="'DejaVu Sans Mono', Consolas, 'Courier New', monospace">18.2</text>
<rect x="120" y="20" width="120" height="54.29" fill="#f4f5f0" stroke="#16181a" stroke-width="1"/>
<text x="124" y="32" font-size="10" fill="#16181a" text-anchor="start" font-weight="400" font-family="'DejaVu Sans Mono', Consolas, 'Courier New', monospace">Pot</text>
<text x="236" y="32" font-size="10" fill="#16181a" text-anchor="end" font-weight="400" font-family="'DejaVu Sans Mono', Consolas, 'Courier New', monospace">W</text>
<text x="180" y="65.29" font-size="28" fill="#16181a" text-anchor="middle" font-weight="700" font-family="'DejaVu Sans Mono', Consolas, 'Courier New', monospace">222</text>
<rect x="0" y="74.29" width="120" height="54.29" fill="#f4f5f0" stroke="#16181a" stroke-width="1"/>
<text x="4" y="86.29" font-size="10" fill="#16181a" text-anchor="start" font-weight="400" font-family="'DejaVu Sans Mono', Consolas, 'Courier New', monospace">Vel</text>
<text x="116" y="86.29" font-size="10" fill="#16181a" text-anchor="end" font-weight="400" font-family="'DejaVu Sans Mono', Consolas, 'Courier New', monospace">km/h</text>
<text x="60" y="119.57" font-size="28" fill="#16181a" text-anchor="middle" font-weight="700" font-family="'DejaVu Sans Mono', Consolas, 'Courier New', monospace">20.0</text>
<rect x="120" y="74.29" width="120" height="54.29" fill="#f4f5f0" stroke="#16181a" stroke-width="1"/>
<text x="124" y="86.29" font-size="10" fill="#16181a" text-anchor="start" font-weight="400" font-family="'DejaVu Sans Mono', Consolas, 'Courier New', monospace">Subida</text>
<text x="236" y="86.29" font-size="10" fill="#16181a" text-anchor="end" font-weight="400" font-family="'DejaVu Sans Mono', Consolas, 'Courier New', monospace">m</text>
<text x="180" y="119.57" font-size="28" fill="#16181a" text-anchor="middle" font-weight="700" font-family="'DejaVu Sans Mono', Consolas, 'Courier New', monospace">575</text>
<rect x="0" y="128.57" width="120" height="54.29" fill="#f4f5f0" stroke="#16181a" stroke-width="1"/>
<text x="4" y="140.57" font-size="10" fill="#16181a" text-anchor="start" font-weight="400" font-family="'DejaVu Sans Mono', Consolas, 'Courier New', monospace">Cad</text>
<text x="116" y="140.57" font-size="10" fill="#16181a" text-anchor="end" font-weight="400" font-family="'DejaVu Sans Mono', Consolas, 'Courier New', monospace">rpm</text>
<text x="60" y="173.86" font-size="28" fill="#16181a" text-anchor="middle" font-weight="700" font-family="'DejaVu Sans Mono', Consolas, 'Courier New', monospace">88</text>
<rect x="120" y="128.57" width="120" height="54.29" fill="#f4f5f0" stroke="#16181a" stroke-width="1"/>
<text x="124" y="140.57" font-size="10" fill="#16181a" text-anchor="start" font-weight="400" font-family="'DejaVu Sans Mono', Consolas, 'Courier New', monospace">FC</text>
<text x="236" y="140.57" font-size="10" fill="#16181a" text-anchor="end" font-weight="400" font-family="'DejaVu Sans Mono', Consolas, 'Courier New', monospace">bpm</text>
<text x="180" y="173.86" font-size="28" fill="#16181a" text-anchor="middle" font-weight="700" font-family="'DejaVu Sans Mono', Consolas, 'Courier New', monospace">147</text>
<rect x="0" y="182.86" width="120" height="54.29" fill="#f4f5f0" stroke="#16181a" stroke-width="1"/>
<text x="4" y="194.86" font-size="10" fill="#16181a" text-anchor="start" font-weight="400" font-family="'DejaVu Sans Mono', Consolas, 'Courier New', monospace">Incl</text>
<text x="116" y="194.86" font-size="10" fill="#16181a" text-anchor="end" font-weight="400" font-family="'DejaVu Sans Mono', Consolas, 'Courier New', monospace">%</text>
<text x="60" y="228.14" font-size="28" fill="#16181a" text-anchor="middle" font-weight="700" font-family="'DejaVu Sans Mono', Consolas, 'Courier New', monospace">7</text>
<rect x="120" y="182.86" width="120" height="54.29" fill="#f4f5f0" stroke="#16181a" stroke-width="1"/>
<text x="124" y="194.86" font-size="10" fill="#16181a" text-anchor="start" font-weight="400" font-family="'DejaVu Sans Mono', Consolas, 'Courier New', monospace">VA</text>
<text x="236" y="194.86" font-size="10" fill="#16181a" text-anchor="end" font-weight="400" font-family="'DejaVu Sans Mono', Consolas, 'Courier New', monospace">m/s</text>
<text x="180" y="228.14" font-size="28" fill="#16181a" text-anchor="middle" font-weight="700" font-family="'DejaVu Sans Mono', Consolas, 'Courier New', monospace">0.34</text>
<rect x="0" y="237.14" width="240" height="108.57" fill="#f4f5f0" stroke="#16181a" stroke-width="1"/>
<polyline points="18,257.14 46,269.14 70,267.14 96,287.14 124,295.14 150,307.14 180,309.14 204,325.14 222,331.14" fill="none" stroke="#a83a95" stroke-width="3" stroke-linejoin="round" stroke-linecap="round"/>
<circle cx="222" cy="331.14" r="5" fill="none" stroke="#16181a" stroke-width="1.5"/>
<polygon points="116,301.14 133,294.14 120,287.14" fill="#16181a"/>
<text x="8" y="255.14" font-size="14" fill="#16181a" text-anchor="start" font-weight="700" font-family="'DejaVu Sans Mono', Consolas, 'Courier New', monospace">45%</text>
<text x="150" y="335.71" font-size="18" fill="#2e9d4a" text-anchor="middle" font-weight="700" font-family="'DejaVu Sans Mono', Consolas, 'Courier New', monospace">+12.4 s</text>
<rect x="0" y="345.71" width="240" height="54.29" fill="#f4f5f0" stroke="#16181a" stroke-width="1"/>
<line x1="20" y1="368.86" x2="220" y2="368.86" stroke="#16181a" stroke-width="3"/>
<line x1="20" y1="363.86" x2="20" y2="373.86" stroke="#16181a" stroke-width="2"/>
<line x1="70" y1="363.86" x2="70" y2="373.86" stroke="#16181a" stroke-width="2"/>
<line x1="120" y1="363.86" x2="120" y2="373.86" stroke="#16181a" stroke-width="2"/>
<line x1="170" y1="363.86" x2="170" y2="373.86" stroke="#16181a" stroke-width="2"/>
<line x1="220" y1="363.86" x2="220" y2="373.86" stroke="#16181a" stroke-width="2"/>
<polygon points="144,365.86 135,352.86 153,352.86" fill="#2e9d4a"/>
<text x="144" y="388.86" font-size="13" fill="#2e9d4a" text-anchor="middle" font-weight="700" font-family="'DejaVu Sans Mono', Consolas, 'Courier New', monospace">+6 %</text>
</g>
<rect width="240" height="400" fill="none" stroke="#1d1d1f" stroke-width="2"/>
</g>
<text x="1032" y="38" font-size="16" fill="#1d1d1f" text-anchor="middle" font-weight="600" font-family="Inter, 'Segoe UI', Roboto, Arial, sans-serif">CRS, página 1 (2 segmentos)</text>
<g transform="translate(852,68) scale(1.5)">
<clipPath id="clip-crs1_2seg"><rect width="240" height="400"/></clipPath>
<g clip-path="url(#clip-crs1_2seg)">
<rect x="0" y="0" width="240" height="400" fill="#f4f5f0"/>
<rect x="0" y="0" width="240" height="20" fill="#16181a"/>
<text x="4" y="15" font-size="13" fill="#f4f5f0" text-anchor="start" font-weight="700" font-family="'DejaVu Sans Mono', Consolas, 'Courier New', monospace">07:42</text>
<text x="52" y="15" font-size="11" fill="#2e9d4a" text-anchor="start" font-weight="700" font-family="'DejaVu Sans Mono', Consolas, 'Courier New', monospace">GPS</text>
<text x="80" y="15" font-size="11" fill="#2aa3b5" text-anchor="start" font-weight="700" font-family="'DejaVu Sans Mono', Consolas, 'Courier New', monospace">ANT+</text>
<text x="114" y="15" font-size="11" fill="#2aa3b5" text-anchor="start" font-weight="700" font-family="'DejaVu Sans Mono', Consolas, 'Courier New', monospace">BLE</text>
<circle cx="146" cy="10" r="4" fill="#c8323c"/>
<circle cx="166" cy="10" r="3.2" fill="#d9a900"/>
<line x1="170.8" y1="10" x2="173" y2="10" stroke="#d9a900" stroke-width="1.2"/>
<line x1="169.39" y1="13.39" x2="170.95" y2="14.95" stroke="#d9a900" stroke-width="1.2"/>
<line x1="166" y1="14.8" x2="166" y2="17" stroke="#d9a900" stroke-width="1.2"/>
<line x1="162.61" y1="13.39" x2="161.05" y2="14.95" stroke="#d9a900" stroke-width="1.2"/>
<line x1="161.2" y1="10" x2="159" y2="10" stroke="#d9a900" stroke-width="1.2"/>
<line x1="162.61" y1="6.61" x2="161.05" y2="5.05" stroke="#d9a900" stroke-width="1.2"/>
<line x1="166" y1="5.2" x2="166" y2="3" stroke="#d9a900" stroke-width="1.2"/>
<line x1="169.39" y1="6.61" x2="170.95" y2="5.05" stroke="#d9a900" stroke-width="1.2"/>
<rect x="182" y="5" width="30" height="10" fill="#16181a" stroke="#f4f5f0" stroke-width="1.2"/>
<rect x="212" y="8" width="2.5" height="4" fill="#f4f5f0"/>
<rect x="184" y="7" width="23.66" height="6" fill="#2e9d4a"/>
<text x="236" y="15" font-size="11" fill="#f4f5f0" text-anchor="end" font-weight="700" font-family="'DejaVu Sans Mono', Consolas, 'Courier New', monospace">91</text>
<rect x="0" y="20" width="120" height="54.29" fill="#f4f5f0" stroke="#16181a" stroke-width="1"/>
<text x="4" y="32" font-size="10" fill="#16181a" text-anchor="start" font-weight="400" font-family="'DejaVu Sans Mono', Consolas, 'Courier New', monospace">VA</text>
<text x="116" y="32" font-size="10" fill="#16181a" text-anchor="end" font-weight="400" font-family="'DejaVu Sans Mono', Consolas, 'Courier New', monospace">m/s</text>
<text x="60" y="65.29" font-size="28" fill="#16181a" text-anchor="middle" font-weight="700" font-family="'DejaVu Sans Mono', Consolas, 'Courier New', monospace">0.0</text>
<rect x="120" y="20" width="120" height="54.29" fill="#f4f5f0" stroke="#16181a" stroke-width="1"/>
<text x="124" y="32" font-size="10" fill="#16181a" text-anchor="start" font-weight="400" font-family="'DejaVu Sans Mono', Consolas, 'Courier New', monospace">FC</text>
<text x="236" y="32" font-size="10" fill="#16181a" text-anchor="end" font-weight="400" font-family="'DejaVu Sans Mono', Consolas, 'Courier New', monospace">bpm</text>
<text x="180" y="65.29" font-size="28" fill="#16181a" text-anchor="middle" font-weight="700" font-family="'DejaVu Sans Mono', Consolas, 'Courier New', monospace">152</text>
<rect x="0" y="74.29" width="240" height="108.57" fill="#f4f5f0" stroke="#16181a" stroke-width="1"/>
<polyline points="18,94.29 46,106.29 70,104.29 96,124.29 124,132.29 150,144.29 180,146.29 204,162.29 222,168.29" fill="none" stroke="#a83a95" stroke-width="3" stroke-linejoin="round" stroke-linecap="round"/>
<circle cx="222" cy="168.29" r="5" fill="none" stroke="#16181a" stroke-width="1.5"/>
<polygon points="116,138.29 133,131.29 120,124.29" fill="#16181a"/>
<text x="8" y="92.29" font-size="14" fill="#16181a" text-anchor="start" font-weight="700" font-family="'DejaVu Sans Mono', Consolas, 'Courier New', monospace">45%</text>
<text x="150" y="172.86" font-size="18" fill="#c8323c" text-anchor="middle" font-weight="700" font-family="'DejaVu Sans Mono', Consolas, 'Courier New', monospace">-72.2 s</text>
<rect x="0" y="182.86" width="240" height="54.29" fill="#f4f5f0" stroke="#16181a" stroke-width="1"/>
<line x1="20" y1="206" x2="220" y2="206" stroke="#16181a" stroke-width="3"/>
<line x1="20" y1="201" x2="20" y2="211" stroke="#16181a" stroke-width="2"/>
<line x1="70" y1="201" x2="70" y2="211" stroke="#16181a" stroke-width="2"/>
<line x1="120" y1="201" x2="120" y2="211" stroke="#16181a" stroke-width="2"/>
<line x1="170" y1="201" x2="170" y2="211" stroke="#16181a" stroke-width="2"/>
<line x1="220" y1="201" x2="220" y2="211" stroke="#16181a" stroke-width="2"/>
<polygon points="40,203 31,190 49,190" fill="#c8323c"/>
<text x="40" y="226" font-size="13" fill="#c8323c" text-anchor="middle" font-weight="700" font-family="'DejaVu Sans Mono', Consolas, 'Courier New', monospace">-20 %</text>
<rect x="0" y="237.14" width="240" height="108.57" fill="#f4f5f0" stroke="#16181a" stroke-width="1"/>
<polyline points="18,257.14 46,269.14 70,267.14 96,287.14 124,295.14 150,307.14 180,309.14 204,325.14 222,331.14" fill="none" stroke="#a83a95" stroke-width="3" stroke-linejoin="round" stroke-linecap="round"/>
<circle cx="222" cy="331.14" r="5" fill="none" stroke="#16181a" stroke-width="1.5"/>
<polygon points="116,301.14 133,294.14 120,287.14" fill="#16181a"/>
<text x="8" y="255.14" font-size="14" fill="#16181a" text-anchor="start" font-weight="700" font-family="'DejaVu Sans Mono', Consolas, 'Courier New', monospace">35%</text>
<text x="150" y="335.71" font-size="18" fill="#2e9d4a" text-anchor="middle" font-weight="700" font-family="'DejaVu Sans Mono', Consolas, 'Courier New', monospace">+0.9 s</text>
<rect x="0" y="345.71" width="240" height="54.29" fill="#f4f5f0" stroke="#16181a" stroke-width="1"/>
<line x1="20" y1="368.86" x2="220" y2="368.86" stroke="#16181a" stroke-width="3"/>
<line x1="20" y1="363.86" x2="20" y2="373.86" stroke="#16181a" stroke-width="2"/>
<line x1="70" y1="363.86" x2="70" y2="373.86" stroke="#16181a" stroke-width="2"/>
<line x1="120" y1="363.86" x2="120" y2="373.86" stroke="#16181a" stroke-width="2"/>
<line x1="170" y1="363.86" x2="170" y2="373.86" stroke="#16181a" stroke-width="2"/>
<line x1="220" y1="363.86" x2="220" y2="373.86" stroke="#16181a" stroke-width="2"/>
<polygon points="124,365.86 115,352.86 133,352.86" fill="#2e9d4a"/>
<text x="124" y="388.86" font-size="13" fill="#2e9d4a" text-anchor="middle" font-weight="700" font-family="'DejaVu Sans Mono', Consolas, 'Courier New', monospace">+1 %</text>
</g>
<rect width="240" height="400" fill="none" stroke="#1d1d1f" stroke-width="2"/>
</g>
<text x="1436" y="38" font-size="16" fill="#1d1d1f" text-anchor="middle" font-weight="600" font-family="Inter, 'Segoe UI', Roboto, Arial, sans-serif">CRS, página 2 (navegação e RR)</text>
<g transform="translate(1256,68) scale(1.5)">
<clipPath id="clip-crs2"><rect width="240" height="400"/></clipPath>
<g clip-path="url(#clip-crs2)">
<rect x="0" y="0" width="240" height="400" fill="#f4f5f0"/>
<rect x="0" y="0" width="240" height="20" fill="#16181a"/>
<text x="4" y="15" font-size="13" fill="#f4f5f0" text-anchor="start" font-weight="700" font-family="'DejaVu Sans Mono', Consolas, 'Courier New', monospace">07:42</text>
<text x="52" y="15" font-size="11" fill="#2e9d4a" text-anchor="start" font-weight="700" font-family="'DejaVu Sans Mono', Consolas, 'Courier New', monospace">GPS</text>
<text x="80" y="15" font-size="11" fill="#2aa3b5" text-anchor="start" font-weight="700" font-family="'DejaVu Sans Mono', Consolas, 'Courier New', monospace">ANT+</text>
<text x="114" y="15" font-size="11" fill="#2aa3b5" text-anchor="start" font-weight="700" font-family="'DejaVu Sans Mono', Consolas, 'Courier New', monospace">BLE</text>
<circle cx="146" cy="10" r="4" fill="#c8323c"/>
<circle cx="166" cy="10" r="3.2" fill="#d9a900"/>
<line x1="170.8" y1="10" x2="173" y2="10" stroke="#d9a900" stroke-width="1.2"/>
<line x1="169.39" y1="13.39" x2="170.95" y2="14.95" stroke="#d9a900" stroke-width="1.2"/>
<line x1="166" y1="14.8" x2="166" y2="17" stroke="#d9a900" stroke-width="1.2"/>
<line x1="162.61" y1="13.39" x2="161.05" y2="14.95" stroke="#d9a900" stroke-width="1.2"/>
<line x1="161.2" y1="10" x2="159" y2="10" stroke="#d9a900" stroke-width="1.2"/>
<line x1="162.61" y1="6.61" x2="161.05" y2="5.05" stroke="#d9a900" stroke-width="1.2"/>
<line x1="166" y1="5.2" x2="166" y2="3" stroke="#d9a900" stroke-width="1.2"/>
<line x1="169.39" y1="6.61" x2="170.95" y2="5.05" stroke="#d9a900" stroke-width="1.2"/>
<rect x="182" y="5" width="30" height="10" fill="#16181a" stroke="#f4f5f0" stroke-width="1.2"/>
<rect x="212" y="8" width="2.5" height="4" fill="#f4f5f0"/>
<rect x="184" y="7" width="23.66" height="6" fill="#2e9d4a"/>
<text x="236" y="15" font-size="11" fill="#f4f5f0" text-anchor="end" font-weight="700" font-family="'DejaVu Sans Mono', Consolas, 'Courier New', monospace">91</text>
<rect x="0" y="20" width="120" height="54.29" fill="#f4f5f0" stroke="#16181a" stroke-width="1"/>
<text x="4" y="32" font-size="10" fill="#16181a" text-anchor="start" font-weight="400" font-family="'DejaVu Sans Mono', Consolas, 'Courier New', monospace">Dist</text>
<text x="116" y="32" font-size="10" fill="#16181a" text-anchor="end" font-weight="400" font-family="'DejaVu Sans Mono', Consolas, 'Courier New', monospace">km</text>
<text x="60" y="65.29" font-size="28" fill="#16181a" text-anchor="middle" font-weight="700" font-family="'DejaVu Sans Mono', Consolas, 'Courier New', monospace">18.2</text>
<rect x="120" y="20" width="120" height="54.29" fill="#f4f5f0" stroke="#16181a" stroke-width="1"/>
<text x="124" y="32" font-size="10" fill="#16181a" text-anchor="start" font-weight="400" font-family="'DejaVu Sans Mono', Consolas, 'Courier New', monospace">Vel</text>
<text x="236" y="32" font-size="10" fill="#16181a" text-anchor="end" font-weight="400" font-family="'DejaVu Sans Mono', Consolas, 'Courier New', monospace">km/h</text>
<text x="180" y="65.29" font-size="28" fill="#16181a" text-anchor="middle" font-weight="700" font-family="'DejaVu Sans Mono', Consolas, 'Courier New', monospace">20.0</text>
<rect x="0" y="74.29" width="240" height="54.29" fill="#f4f5f0" stroke="#16181a" stroke-width="1"/>
<text x="4" y="86.29" font-size="10" fill="#2f5fb8" text-anchor="start" font-weight="400" font-family="'DejaVu Sans Mono', Consolas, 'Courier New', monospace">Próxima curva</text>
<text x="236" y="86.29" font-size="10" fill="#16181a" text-anchor="end" font-weight="400" font-family="'DejaVu Sans Mono', Consolas, 'Courier New', monospace">m</text>
<text x="120" y="119.57" font-size="32" fill="#16181a" text-anchor="middle" font-weight="700" font-family="'DejaVu Sans Mono', Consolas, 'Courier New', monospace">350</text>
<rect x="0" y="128.57" width="240" height="162.86" fill="#f4f5f0" stroke="#16181a" stroke-width="1"/>
<polygon points="100,264 100,206 138,206 138,186 172,218 138,250 138,230 124,230 124,264" fill="#2f5fb8"/>
<text x="120" y="146.57" font-size="13" fill="#16181a" text-anchor="middle" font-weight="700" font-family="'DejaVu Sans Mono', Consolas, 'Courier New', monospace">Rua das Flores</text>
<rect x="0" y="291.43" width="240" height="108.57" fill="#f4f5f0" stroke="#16181a" stroke-width="1"/>
<text x="6" y="305.43" font-size="10" fill="#16181a" text-anchor="start" font-weight="400" font-family="'DejaVu Sans Mono', Consolas, 'Courier New', monospace">RR por zona (ms)</text>
<rect x="20" y="318.8" width="28" height="67.2" fill="#2f5fb8"/>
<text x="34" y="397" font-size="10" fill="#16181a" text-anchor="middle" font-weight="400" font-family="'DejaVu Sans Mono', Consolas, 'Courier New', monospace">Z1</text>
<rect x="62" y="325.2" width="28" height="60.8" fill="#2e9d4a"/>
<text x="76" y="397" font-size="10" fill="#16181a" text-anchor="middle" font-weight="400" font-family="'DejaVu Sans Mono', Consolas, 'Courier New', monospace">Z2</text>
<rect x="104" y="336.4" width="28" height="49.6" fill="#d9a900"/>
<text x="118" y="397" font-size="10" fill="#16181a" text-anchor="middle" font-weight="400" font-family="'DejaVu Sans Mono', Consolas, 'Courier New', monospace">Z3</text>
<rect x="146" y="347.6" width="28" height="38.4" fill="#a83a95"/>
<text x="160" y="397" font-size="10" fill="#16181a" text-anchor="middle" font-weight="400" font-family="'DejaVu Sans Mono', Consolas, 'Courier New', monospace">Z4</text>
<rect x="188" y="357.2" width="28" height="28.8" fill="#c8323c"/>
<text x="202" y="397" font-size="10" fill="#16181a" text-anchor="middle" font-weight="400" font-family="'DejaVu Sans Mono', Consolas, 'Courier New', monospace">Z5</text>
<text x="118" y="332.4" font-size="14" fill="#16181a" text-anchor="middle" font-weight="700" font-family="'DejaVu Sans Mono', Consolas, 'Courier New', monospace">></text>
</g>
<rect width="240" height="400" fill="none" stroke="#1d1d1f" stroke-width="2"/>
</g>
<text x="1840" y="38" font-size="16" fill="#1d1d1f" text-anchor="middle" font-weight="600" font-family="Inter, 'Segoe UI', Roboto, Arial, sans-serif">CRS, página 3 (inclinação, bússola, rugosidade)</text>
<g transform="translate(1660,68) scale(1.5)">
<clipPath id="clip-crs3"><rect width="240" height="400"/></clipPath>
<g clip-path="url(#clip-crs3)">
<rect x="0" y="0" width="240" height="400" fill="#f4f5f0"/>
<rect x="0" y="0" width="240" height="20" fill="#16181a"/>
<text x="4" y="15" font-size="13" fill="#f4f5f0" text-anchor="start" font-weight="700" font-family="'DejaVu Sans Mono', Consolas, 'Courier New', monospace">07:42</text>
<text x="52" y="15" font-size="11" fill="#2e9d4a" text-anchor="start" font-weight="700" font-family="'DejaVu Sans Mono', Consolas, 'Courier New', monospace">GPS</text>
<text x="80" y="15" font-size="11" fill="#2aa3b5" text-anchor="start" font-weight="700" font-family="'DejaVu Sans Mono', Consolas, 'Courier New', monospace">ANT+</text>
<text x="114" y="15" font-size="11" fill="#2aa3b5" text-anchor="start" font-weight="700" font-family="'DejaVu Sans Mono', Consolas, 'Courier New', monospace">BLE</text>
<circle cx="146" cy="10" r="4" fill="#c8323c"/>
<circle cx="166" cy="10" r="3.2" fill="#d9a900"/>
<line x1="170.8" y1="10" x2="173" y2="10" stroke="#d9a900" stroke-width="1.2"/>
<line x1="169.39" y1="13.39" x2="170.95" y2="14.95" stroke="#d9a900" stroke-width="1.2"/>
<line x1="166" y1="14.8" x2="166" y2="17" stroke="#d9a900" stroke-width="1.2"/>
<line x1="162.61" y1="13.39" x2="161.05" y2="14.95" stroke="#d9a900" stroke-width="1.2"/>
<line x1="161.2" y1="10" x2="159" y2="10" stroke="#d9a900" stroke-width="1.2"/>
<line x1="162.61" y1="6.61" x2="161.05" y2="5.05" stroke="#d9a900" stroke-width="1.2"/>
<line x1="166" y1="5.2" x2="166" y2="3" stroke="#d9a900" stroke-width="1.2"/>
<line x1="169.39" y1="6.61" x2="170.95" y2="5.05" stroke="#d9a900" stroke-width="1.2"/>
<rect x="182" y="5" width="30" height="10" fill="#16181a" stroke="#f4f5f0" stroke-width="1.2"/>
<rect x="212" y="8" width="2.5" height="4" fill="#f4f5f0"/>
<rect x="184" y="7" width="23.66" height="6" fill="#2e9d4a"/>
<text x="236" y="15" font-size="11" fill="#f4f5f0" text-anchor="end" font-weight="700" font-family="'DejaVu Sans Mono', Consolas, 'Courier New', monospace">91</text>
<rect x="0" y="20" width="240" height="108.57" fill="#f4f5f0" stroke="#16181a" stroke-width="1"/>
<text x="6" y="34" font-size="10" fill="#16181a" text-anchor="start" font-weight="400" font-family="'DejaVu Sans Mono', Consolas, 'Courier New', monospace">Inclinação</text>
<text x="120" y="80" font-size="34" fill="#16181a" text-anchor="middle" font-weight="700" font-family="'DejaVu Sans Mono', Consolas, 'Courier New', monospace">7.2 %</text>
<rect x="20" y="106.57" width="200" height="10" fill="#f4f5f0" stroke="#16181a" stroke-width="1"/>
<rect x="120" y="106.57" width="36" height="10" fill="#c8323c"/>
<rect x="0" y="128.57" width="240" height="108.57" fill="#f4f5f0" stroke="#16181a" stroke-width="1"/>
<text x="6" y="142.57" font-size="10" fill="#16181a" text-anchor="start" font-weight="400" font-family="'DejaVu Sans Mono', Consolas, 'Courier New', monospace">Histograma da inclinação</text>
<line x1="10" y1="190.86" x2="230" y2="190.86" stroke="#16181a" stroke-width="1" stroke-dasharray="4 3"/>
<rect x="12" y="190.86" width="4" height="10.57" fill="#2e9d4a"/>
<rect x="18" y="190.86" width="4" height="18.57" fill="#2e9d4a"/>
<rect x="24" y="177.13" width="4" height="13.73" fill="#c8323c"/>
<rect x="30" y="190.86" width="4" height="18.88" fill="#2e9d4a"/>
<rect x="36" y="180.1" width="4" height="10.76" fill="#c8323c"/>
<rect x="42" y="188.82" width="4" height="2.04" fill="#c8323c"/>
<rect x="48" y="190.86" width="4" height="15.34" fill="#2e9d4a"/>
<rect x="54" y="178.59" width="4" height="12.27" fill="#c8323c"/>
<rect x="60" y="190.86" width="4" height="15.76" fill="#2e9d4a"/>
<rect x="66" y="183.15" width="4" height="7.7" fill="#c8323c"/>
<rect x="72" y="190.86" width="4" height="14.9" fill="#2e9d4a"/>
<rect x="78" y="190.86" width="4" height="14.86" fill="#2e9d4a"/>
<rect x="84" y="187.28" width="4" height="3.58" fill="#c8323c"/>
<rect x="90" y="165.06" width="4" height="25.8" fill="#c8323c"/>
<rect x="96" y="190.86" width="4" height="18.55" fill="#2e9d4a"/>
<rect x="102" y="190.86" width="4" height="14.91" fill="#2e9d4a"/>
<rect x="108" y="183.91" width="4" height="6.95" fill="#c8323c"/>
<rect x="114" y="167.06" width="4" height="23.8" fill="#c8323c"/>
<rect x="120" y="190.86" width="4" height="0.68" fill="#2e9d4a"/>
<rect x="126" y="190.86" width="4" height="13.54" fill="#2e9d4a"/>
<rect x="132" y="171.36" width="4" height="19.49" fill="#c8323c"/>
<rect x="138" y="190.86" width="4" height="37.66" fill="#2e9d4a"/>
<rect x="144" y="180.77" width="4" height="10.09" fill="#c8323c"/>
<rect x="150" y="190.86" width="4" height="24.55" fill="#2e9d4a"/>
<rect x="156" y="190.86" width="4" height="33.3" fill="#2e9d4a"/>
<rect x="162" y="190.86" width="4" height="34.44" fill="#2e9d4a"/>
<rect x="168" y="190.86" width="4" height="22.09" fill="#2e9d4a"/>
<rect x="174" y="181.16" width="4" height="9.69" fill="#c8323c"/>
<rect x="180" y="190.86" width="4" height="26.73" fill="#2e9d4a"/>
<rect x="186" y="190.86" width="4" height="0.68" fill="#2e9d4a"/>
<rect x="192" y="185.88" width="4" height="4.98" fill="#c8323c"/>
<rect x="198" y="190.86" width="4" height="8.65" fill="#2e9d4a"/>
<rect x="204" y="186.59" width="4" height="4.26" fill="#c8323c"/>
<rect x="210" y="190.86" width="4" height="22.49" fill="#2e9d4a"/>
<rect x="216" y="190.86" width="4" height="20.49" fill="#2e9d4a"/>
<rect x="222" y="190.86" width="4" height="9.76" fill="#2e9d4a"/>
<rect x="0" y="237.14" width="240" height="108.57" fill="#f4f5f0" stroke="#16181a" stroke-width="1"/>
<circle cx="70" cy="295.43" r="40" fill="none" stroke="#16181a" stroke-width="2"/>
<text x="70" y="269.43" font-size="12" fill="#c8323c" text-anchor="middle" font-weight="700" font-family="'DejaVu Sans Mono', Consolas, 'Courier New', monospace">N</text>
<polygon points="88.35,269.22 76.55,300.02 63.45,290.84" fill="#16181a"/>
<text x="175" y="283.43" font-size="10" fill="#16181a" text-anchor="middle" font-weight="400" font-family="'DejaVu Sans Mono', Consolas, 'Courier New', monospace">Rumo</text>
<text x="175" y="311.43" font-size="22" fill="#16181a" text-anchor="middle" font-weight="700" font-family="'DejaVu Sans Mono', Consolas, 'Courier New', monospace">035°</text>
<rect x="0" y="345.71" width="240" height="54.29" fill="#f4f5f0" stroke="#16181a" stroke-width="1"/>
<text x="6" y="359.71" font-size="10" fill="#16181a" text-anchor="start" font-weight="400" font-family="'DejaVu Sans Mono', Consolas, 'Courier New', monospace">Rugosidade</text>
<rect x="110" y="370.4" width="28" height="21.6" fill="#2e9d4a"/>
<rect x="150" y="381.2" width="28" height="10.8" fill="#d9a900"/>
<rect x="190" y="388.4" width="28" height="3.6" fill="#c8323c"/>
</g>
<rect width="240" height="400" fill="none" stroke="#1d1d1f" stroke-width="2"/>
</g>
</svg>
