0
SECTION
2
HEADER
9
$ACADVER
1
AC1009
9
$INSUNITS
70
4
9
$MEASUREMENT
70
1
9
$EXTMIN
10
0.0
20
0.0
30
0.0
9
$EXTMAX
10
50.0000
20
86.0000
30
0.0
0
ENDSEC
0
SECTION
2
TABLES
0
TABLE
2
LAYER
70
1
0
LAYER
2
BOARD_OUTLINE
70
0
62
7
6
CONTINUOUS
0
ENDTAB
0
ENDSEC
0
SECTION
2
ENTITIES
0
LINE
8
BOARD_OUTLINE
10
4.0000
20
0.0000
30
0.0
11
46.0000
21
0.0000
31
0.0
0
LINE
8
BOARD_OUTLINE
10
50.0000
20
4.0000
30
0.0
11
50.0000
21
82.0000
31
0.0
0
LINE
8
BOARD_OUTLINE
10
46.0000
20
86.0000
30
0.0
11
4.0000
21
86.0000
31
0.0
0
LINE
8
BOARD_OUTLINE
10
0.0000
20
82.0000
30
0.0
11
0.0000
21
4.0000
31
0.0
0
ARC
8
BOARD_OUTLINE
10
46.0000
20
4.0000
30
0.0
40
4.0000
50
270.0000
51
360.0000
0
ARC
8
BOARD_OUTLINE
10
46.0000
20
82.0000
30
0.0
40
4.0000
50
0.0000
51
90.0000
0
ARC
8
BOARD_OUTLINE
10
4.0000
20
82.0000
30
0.0
40
4.0000
50
90.0000
51
180.0000
0
ARC
8
BOARD_OUTLINE
10
4.0000
20
4.0000
30
0.0
40
4.0000
50
180.0000
51
270.0000
0
ENDSEC
0
EOF
