0
SECTION
2
HEADER
9
$ACADVER
1
AC1009
9
$INSUNITS
70
4
9
$MEASUREMENT
70
1
9
$EXTMIN
10
0.0
20
0.0
30
0.0
9
$EXTMAX
10
34.0000
20
90.0000
30
0.0
0
ENDSEC
0
SECTION
2
TABLES
0
TABLE
2
LAYER
70
18
0
LAYER
2
BOARD_OUTLINE_REFERENCIA
70
0
62
8
6
CONTINUOUS
0
LAYER
2
FURO_M2_CENTRO
70
0
62
5
6
CONTINUOUS
0
LAYER
2
FURO_M2_D2-2_CONFERIR
70
0
62
5
6
CONTINUOUS
0
LAYER
2
KEEPOUT_ANTENA_GNSS
70
0
62
1
6
CONTINUOUS
0
LAYER
2
KEEPOUT_ANTENA_MODULO
70
0
62
1
6
CONTINUOUS
0
LAYER
2
RECORTE_ANTENA_MODULO
70
0
62
2
6
CONTINUOUS
0
LAYER
2
ZONA_GNSS_MAX-F10S
70
0
62
3
6
CONTINUOUS
0
LAYER
2
ZONA_LUZ_AMBIENTE_OPT3001
70
0
62
3
6
CONTINUOUS
0
LAYER
2
ZONA_LED_RGB
70
0
62
3
6
CONTINUOUS
0
LAYER
2
ZONA_FLASH_MX25R6435F
70
0
62
3
6
CONTINUOUS
0
LAYER
2
ZONA_IMU_MAGNETOMETRO
70
0
62
3
6
CONTINUOUS
0
LAYER
2
ZONA_ENERGIA
70
0
62
3
6
CONTINUOUS
0
LAYER
2
ZONA_FPC_DISPLAY_J401
70
0
62
3
6
CONTINUOUS
0
LAYER
2
ZONA_BUZZER
70
0
62
3
6
CONTINUOUS
0
LAYER
2
ZONA_BAROMETRO_BMP585
70
0
62
3
6
CONTINUOUS
0
LAYER
2
ZONA_BOTOES
70
0
62
3
6
CONTINUOUS
0
LAYER
2
ZONA_USB_C
70
0
62
3
6
CONTINUOUS
0
LAYER
2
ZONA_MODULO_ME54BS13
70
0
62
3
6
CONTINUOUS
0
ENDTAB
0
ENDSEC
0
SECTION
2
ENTITIES
0
LINE
8
BOARD_OUTLINE_REFERENCIA
10
3.0000
20
0.0000
30
0.0
11
31.0000
21
0.0000
31
0.0
0
LINE
8
BOARD_OUTLINE_REFERENCIA
10
34.0000
20
3.0000
30
0.0
11
34.0000
21
87.0000
31
0.0
0
LINE
8
BOARD_OUTLINE_REFERENCIA
10
31.0000
20
90.0000
30
0.0
11
3.0000
21
90.0000
31
0.0
0
LINE
8
BOARD_OUTLINE_REFERENCIA
10
0.0000
20
87.0000
30
0.0
11
0.0000
21
3.0000
31
0.0
0
ARC
8
BOARD_OUTLINE_REFERENCIA
10
31.0000
20
3.0000
30
0.0
40
3.0000
50
270.0000
51
360.0000
0
ARC
8
BOARD_OUTLINE_REFERENCIA
10
31.0000
20
87.0000
30
0.0
40
3.0000
50
0.0000
51
90.0000
0
ARC
8
BOARD_OUTLINE_REFERENCIA
10
3.0000
20
87.0000
30
0.0
40
3.0000
50
90.0000
51
180.0000
0
ARC
8
BOARD_OUTLINE_REFERENCIA
10
3.0000
20
3.0000
30
0.0
40
3.0000
50
180.0000
51
270.0000
0
LINE
8
FURO_M2_CENTRO
10
1.7000
20
45.0000
30
0.0
11
4.7000
21
45.0000
31
0.0
0
LINE
8
FURO_M2_CENTRO
10
3.2000
20
43.5000
30
0.0
11
3.2000
21
46.5000
31
0.0
0
CIRCLE
8
FURO_M2_D2-2_CONFERIR
10
3.2000
20
45.0000
30
0.0
40
1.1000
0
LINE
8
KEEPOUT_ANTENA_GNSS
10
3.2100
20
80.1200
30
0.0
11
23.2900
21
80.1200
31
0.0
0
LINE
8
KEEPOUT_ANTENA_GNSS
10
23.2900
20
80.1200
30
0.0
11
23.2900
21
90.0000
31
0.0
0
LINE
8
KEEPOUT_ANTENA_GNSS
10
23.2900
20
90.0000
30
0.0
11
3.2100
21
90.0000
31
0.0
0
LINE
8
KEEPOUT_ANTENA_GNSS
10
3.2100
20
90.0000
30
0.0
11
3.2100
21
80.1200
31
0.0
0
LINE
8
KEEPOUT_ANTENA_MODULO
10
29.3000
20
0.0000
30
0.0
11
34.0000
21
0.0000
31
0.0
0
LINE
8
KEEPOUT_ANTENA_MODULO
10
34.0000
20
0.0000
30
0.0
11
34.0000
21
22.0000
31
0.0
0
LINE
8
KEEPOUT_ANTENA_MODULO
10
34.0000
20
22.0000
30
0.0
11
29.3000
21
22.0000
31
0.0
0
LINE
8
KEEPOUT_ANTENA_MODULO
10
29.3000
20
22.0000
30
0.0
11
29.3000
21
0.0000
31
0.0
0
LINE
8
RECORTE_ANTENA_MODULO
10
29.7000
20
7.4000
30
0.0
11
34.0000
21
7.4000
31
0.0
0
LINE
8
RECORTE_ANTENA_MODULO
10
34.0000
20
7.4000
30
0.0
11
34.0000
21
17.6000
31
0.0
0
LINE
8
RECORTE_ANTENA_MODULO
10
34.0000
20
17.6000
30
0.0
11
29.7000
21
17.6000
31
0.0
0
LINE
8
RECORTE_ANTENA_MODULO
10
29.7000
20
17.6000
30
0.0
11
29.7000
21
7.4000
31
0.0
0
LINE
8
ZONA_GNSS_MAX-F10S
10
3.0000
20
68.0000
30
0.0
11
25.0000
21
68.0000
31
0.0
0
LINE
8
ZONA_GNSS_MAX-F10S
10
25.0000
20
68.0000
30
0.0
11
25.0000
21
79.5000
31
0.0
0
LINE
8
ZONA_GNSS_MAX-F10S
10
25.0000
20
79.5000
30
0.0
11
3.0000
21
79.5000
31
0.0
0
LINE
8
ZONA_GNSS_MAX-F10S
10
3.0000
20
79.5000
30
0.0
11
3.0000
21
68.0000
31
0.0
0
LINE
8
ZONA_LUZ_AMBIENTE_OPT3001
10
1.2000
20
76.5000
30
0.0
11
3.8000
21
76.5000
31
0.0
0
LINE
8
ZONA_LUZ_AMBIENTE_OPT3001
10
3.8000
20
76.5000
30
0.0
11
3.8000
21
79.5000
31
0.0
0
LINE
8
ZONA_LUZ_AMBIENTE_OPT3001
10
3.8000
20
79.5000
30
0.0
11
1.2000
21
79.5000
31
0.0
0
LINE
8
ZONA_LUZ_AMBIENTE_OPT3001
10
1.2000
20
79.5000
30
0.0
11
1.2000
21
76.5000
31
0.0
0
LINE
8
ZONA_LED_RGB
10
28.4000
20
78.2000
30
0.0
11
33.8000
21
78.2000
31
0.0
0
LINE
8
ZONA_LED_RGB
10
33.8000
20
78.2000
30
0.0
11
33.8000
21
81.9000
31
0.0
0
LINE
8
ZONA_LED_RGB
10
33.8000
20
81.9000
30
0.0
11
28.4000
21
81.9000
31
0.0
0
LINE
8
ZONA_LED_RGB
10
28.4000
20
81.9000
30
0.0
11
28.4000
21
78.2000
31
0.0
0
LINE
8
ZONA_FLASH_MX25R6435F
10
2.5000
20
58.0000
30
0.0
11
15.5000
21
58.0000
31
0.0
0
LINE
8
ZONA_FLASH_MX25R6435F
10
15.5000
20
58.0000
30
0.0
11
15.5000
21
69.0000
31
0.0
0
LINE
8
ZONA_FLASH_MX25R6435F
10
15.5000
20
69.0000
30
0.0
11
2.5000
21
69.0000
31
0.0
0
LINE
8
ZONA_FLASH_MX25R6435F
10
2.5000
20
69.0000
30
0.0
11
2.5000
21
58.0000
31
0.0
0
LINE
8
ZONA_IMU_MAGNETOMETRO
10
18.5000
20
58.0000
30
0.0
11
31.5000
21
58.0000
31
0.0
0
LINE
8
ZONA_IMU_MAGNETOMETRO
10
31.5000
20
58.0000
30
0.0
11
31.5000
21
69.0000
31
0.0
0
LINE
8
ZONA_IMU_MAGNETOMETRO
10
31.5000
20
69.0000
30
0.0
11
18.5000
21
69.0000
31
0.0
0
LINE
8
ZONA_IMU_MAGNETOMETRO
10
18.5000
20
69.0000
30
0.0
11
18.5000
21
58.0000
31
0.0
0
LINE
8
ZONA_ENERGIA
10
2.0000
20
35.0000
30
0.0
11
32.0000
21
35.0000
31
0.0
0
LINE
8
ZONA_ENERGIA
10
32.0000
20
35.0000
30
0.0
11
32.0000
21
57.0000
31
0.0
0
LINE
8
ZONA_ENERGIA
10
32.0000
20
57.0000
30
0.0
11
2.0000
21
57.0000
31
0.0
0
LINE
8
ZONA_ENERGIA
10
2.0000
20
57.0000
30
0.0
11
2.0000
21
35.0000
31
0.0
0
LINE
8
ZONA_FPC_DISPLAY_J401
10
0.8000
20
24.0000
30
0.0
11
9.0000
21
24.0000
31
0.0
0
LINE
8
ZONA_FPC_DISPLAY_J401
10
9.0000
20
24.0000
30
0.0
11
9.0000
21
34.0000
31
0.0
0
LINE
8
ZONA_FPC_DISPLAY_J401
10
9.0000
20
34.0000
30
0.0
11
0.8000
21
34.0000
31
0.0
0
LINE
8
ZONA_FPC_DISPLAY_J401
10
0.8000
20
34.0000
30
0.0
11
0.8000
21
24.0000
31
0.0
0
LINE
8
ZONA_BUZZER
10
1.0000
20
17.0000
30
0.0
11
33.0000
21
17.0000
31
0.0
0
LINE
8
ZONA_BUZZER
10
33.0000
20
17.0000
30
0.0
11
33.0000
21
28.0000
31
0.0
0
LINE
8
ZONA_BUZZER
10
33.0000
20
28.0000
30
0.0
11
1.0000
21
28.0000
31
0.0
0
LINE
8
ZONA_BUZZER
10
1.0000
20
28.0000
30
0.0
11
1.0000
21
17.0000
31
0.0
0
LINE
8
ZONA_BAROMETRO_BMP585
10
2.0000
20
19.0000
30
0.0
11
6.0000
21
19.0000
31
0.0
0
LINE
8
ZONA_BAROMETRO_BMP585
10
6.0000
20
19.0000
30
0.0
11
6.0000
21
23.0000
31
0.0
0
LINE
8
ZONA_BAROMETRO_BMP585
10
6.0000
20
23.0000
30
0.0
11
2.0000
21
23.0000
31
0.0
0
LINE
8
ZONA_BAROMETRO_BMP585
10
2.0000
20
23.0000
30
0.0
11
2.0000
21
19.0000
31
0.0
0
LINE
8
ZONA_BOTOES
10
1.5000
20
15.0000
30
0.0
11
28.0000
21
15.0000
31
0.0
0
LINE
8
ZONA_BOTOES
10
28.0000
20
15.0000
30
0.0
11
28.0000
21
23.0000
31
0.0
0
LINE
8
ZONA_BOTOES
10
28.0000
20
23.0000
30
0.0
11
1.5000
21
23.0000
31
0.0
0
LINE
8
ZONA_BOTOES
10
1.5000
20
23.0000
30
0.0
11
1.5000
21
15.0000
31
0.0
0
LINE
8
ZONA_USB_C
10
1.5000
20
0.0000
30
0.0
11
12.5000
21
0.0000
31
0.0
0
LINE
8
ZONA_USB_C
10
12.5000
20
0.0000
30
0.0
11
12.5000
21
9.5000
31
0.0
0
LINE
8
ZONA_USB_C
10
12.5000
20
9.5000
30
0.0
11
1.5000
21
9.5000
31
0.0
0
LINE
8
ZONA_USB_C
10
1.5000
20
9.5000
30
0.0
11
1.5000
21
0.0000
31
0.0
0
LINE
8
ZONA_MODULO_ME54BS13
10
17.0000
20
0.0000
30
0.0
11
34.0000
21
0.0000
31
0.0
0
LINE
8
ZONA_MODULO_ME54BS13
10
34.0000
20
0.0000
30
0.0
11
34.0000
21
13.5000
31
0.0
0
LINE
8
ZONA_MODULO_ME54BS13
10
34.0000
20
13.5000
30
0.0
11
17.0000
21
13.5000
31
0.0
0
LINE
8
ZONA_MODULO_ME54BS13
10
17.0000
20
13.5000
30
0.0
11
17.0000
21
0.0000
31
0.0
0
ENDSEC
0
EOF
