0
SECTION
2
HEADER
9
$ACADVER
1
AC1009
9
$INSUNITS
70
4
9
$MEASUREMENT
70
1
9
$EXTMIN
10
0.0
20
0.0
30
0.0
9
$EXTMAX
10
34.0000
20
95.0000
30
0.0
0
ENDSEC
0
SECTION
2
TABLES
0
TABLE
2
LAYER
70
22
0
LAYER
2
BOARD_OUTLINE_REFERENCIA
70
0
62
8
6
CONTINUOUS
0
LAYER
2
FURO_M2_CENTRO
70
0
62
5
6
CONTINUOUS
0
LAYER
2
FURO_M2_D2-2_CONFERIR
70
0
62
5
6
CONTINUOUS
0
LAYER
2
KEEPOUT_ANTENA_GNSS
70
0
62
1
6
CONTINUOUS
0
LAYER
2
KEEPOUT_ANTENA_MODULO
70
0
62
1
6
CONTINUOUS
0
LAYER
2
RECORTE_ANTENA_MODULO
70
0
62
2
6
CONTINUOUS
0
LAYER
2
ZONA_GNSS_MAX-F10S
70
0
62
3
6
CONTINUOUS
0
LAYER
2
ZONA_LUZ_AMBIENTE_OPT3001
70
0
62
3
6
CONTINUOUS
0
LAYER
2
ZONA_LED_RGB
70
0
62
3
6
CONTINUOUS
0
LAYER
2
ZONA_FLASH_MX25R6435F
70
0
62
3
6
CONTINUOUS
0
LAYER
2
ZONA_IMU_MAGNETOMETRO
70
0
62
3
6
CONTINUOUS
0
LAYER
2
ZONA_ENERGIA
70
0
62
3
6
CONTINUOUS
0
LAYER
2
ZONA_FPC_DISPLAY_J401
70
0
62
3
6
CONTINUOUS
0
LAYER
2
ZONA_BUZZER
70
0
62
3
6
CONTINUOUS
0
LAYER
2
ZONA_BAROMETRO_BMP585
70
0
62
3
6
CONTINUOUS
0
LAYER
2
ZONA_BOTOES
70
0
62
3
6
CONTINUOUS
0
LAYER
2
ZONA_USB_C
70
0
62
3
6
CONTINUOUS
0
LAYER
2
ZONA_MODULO_ME54BS13
70
0
62
3
6
CONTINUOUS
0
LAYER
2
SOMBRA_DISPLAY_JDI_MAX_2-6MM
70
0
62
4
6
CONTINUOUS
0
LAYER
2
SOMBRA_BATERIA_MAX_1-2MM
70
0
62
4
6
CONTINUOUS
0
LAYER
2
CONFLITO_DISPLAY_SOBRE_ANTENA_GNSS
70
0
62
1
6
CONTINUOUS
0
LAYER
2
CONFLITO_CELULA_NA_ANTENA_DO_MODULO
70
0
62
1
6
CONTINUOUS
0
ENDTAB
0
ENDSEC
0
SECTION
2
ENTITIES
0
LINE
8
BOARD_OUTLINE_REFERENCIA
10
3.0000
20
0.0000
30
0.0
11
31.0000
21
0.0000
31
0.0
0
LINE
8
BOARD_OUTLINE_REFERENCIA
10
34.0000
20
3.0000
30
0.0
11
34.0000
21
92.0000
31
0.0
0
LINE
8
BOARD_OUTLINE_REFERENCIA
10
31.0000
20
95.0000
30
0.0
11
3.0000
21
95.0000
31
0.0
0
LINE
8
BOARD_OUTLINE_REFERENCIA
10
0.0000
20
92.0000
30
0.0
11
0.0000
21
3.0000
31
0.0
0
ARC
8
BOARD_OUTLINE_REFERENCIA
10
31.0000
20
3.0000
30
0.0
40
3.0000
50
270.0000
51
360.0000
0
ARC
8
BOARD_OUTLINE_REFERENCIA
10
31.0000
20
92.0000
30
0.0
40
3.0000
50
0.0000
51
90.0000
0
ARC
8
BOARD_OUTLINE_REFERENCIA
10
3.0000
20
92.0000
30
0.0
40
3.0000
50
90.0000
51
180.0000
0
ARC
8
BOARD_OUTLINE_REFERENCIA
10
3.0000
20
3.0000
30
0.0
40
3.0000
50
180.0000
51
270.0000
0
LINE
8
FURO_M2_CENTRO
10
1.7000
20
88.0000
30
0.0
11
4.7000
21
88.0000
31
0.0
0
LINE
8
FURO_M2_CENTRO
10
3.2000
20
86.5000
30
0.0
11
3.2000
21
89.5000
31
0.0
0
CIRCLE
8
FURO_M2_D2-2_CONFERIR
10
3.2000
20
88.0000
30
0.0
40
1.1000
0
LINE
8
FURO_M2_CENTRO
10
2.5000
20
19.2500
30
0.0
11
5.5000
21
19.2500
31
0.0
0
LINE
8
FURO_M2_CENTRO
10
4.0000
20
17.7500
30
0.0
11
4.0000
21
20.7500
31
0.0
0
CIRCLE
8
FURO_M2_D2-2_CONFERIR
10
4.0000
20
19.2500
30
0.0
40
1.1000
0
LINE
8
KEEPOUT_ANTENA_GNSS
10
8.2900
20
85.1200
30
0.0
11
23.2900
21
85.1200
31
0.0
0
LINE
8
KEEPOUT_ANTENA_GNSS
10
23.2900
20
85.1200
30
0.0
11
23.2900
21
95.0000
31
0.0
0
LINE
8
KEEPOUT_ANTENA_GNSS
10
23.2900
20
95.0000
30
0.0
11
8.2900
21
95.0000
31
0.0
0
LINE
8
KEEPOUT_ANTENA_GNSS
10
8.2900
20
95.0000
30
0.0
11
8.2900
21
85.1200
31
0.0
0
LINE
8
KEEPOUT_ANTENA_MODULO
10
29.3000
20
0.0000
30
0.0
11
34.0000
21
0.0000
31
0.0
0
LINE
8
KEEPOUT_ANTENA_MODULO
10
34.0000
20
0.0000
30
0.0
11
34.0000
21
22.0000
31
0.0
0
LINE
8
KEEPOUT_ANTENA_MODULO
10
34.0000
20
22.0000
30
0.0
11
29.3000
21
22.0000
31
0.0
0
LINE
8
KEEPOUT_ANTENA_MODULO
10
29.3000
20
22.0000
30
0.0
11
29.3000
21
0.0000
31
0.0
0
LINE
8
RECORTE_ANTENA_MODULO
10
29.7000
20
7.4000
30
0.0
11
34.0000
21
7.4000
31
0.0
0
LINE
8
RECORTE_ANTENA_MODULO
10
34.0000
20
7.4000
30
0.0
11
34.0000
21
17.6000
31
0.0
0
LINE
8
RECORTE_ANTENA_MODULO
10
34.0000
20
17.6000
30
0.0
11
29.7000
21
17.6000
31
0.0
0
LINE
8
RECORTE_ANTENA_MODULO
10
29.7000
20
17.6000
30
0.0
11
29.7000
21
7.4000
31
0.0
0
LINE
8
ZONA_GNSS_MAX-F10S
10
3.0000
20
73.0000
30
0.0
11
25.0000
21
73.0000
31
0.0
0
LINE
8
ZONA_GNSS_MAX-F10S
10
25.0000
20
73.0000
30
0.0
11
25.0000
21
84.5000
31
0.0
0
LINE
8
ZONA_GNSS_MAX-F10S
10
25.0000
20
84.5000
30
0.0
11
3.0000
21
84.5000
31
0.0
0
LINE
8
ZONA_GNSS_MAX-F10S
10
3.0000
20
84.5000
30
0.0
11
3.0000
21
73.0000
31
0.0
0
LINE
8
ZONA_LUZ_AMBIENTE_OPT3001
10
2.0000
20
22.5000
30
0.0
11
5.0000
21
22.5000
31
0.0
0
LINE
8
ZONA_LUZ_AMBIENTE_OPT3001
10
5.0000
20
22.5000
30
0.0
11
5.0000
21
25.5000
31
0.0
0
LINE
8
ZONA_LUZ_AMBIENTE_OPT3001
10
5.0000
20
25.5000
30
0.0
11
2.0000
21
25.5000
31
0.0
0
LINE
8
ZONA_LUZ_AMBIENTE_OPT3001
10
2.0000
20
25.5000
30
0.0
11
2.0000
21
22.5000
31
0.0
0
LINE
8
ZONA_LED_RGB
10
21.0000
20
27.0000
30
0.0
11
26.5000
21
27.0000
31
0.0
0
LINE
8
ZONA_LED_RGB
10
26.5000
20
27.0000
30
0.0
11
26.5000
21
31.0000
31
0.0
0
LINE
8
ZONA_LED_RGB
10
26.5000
20
31.0000
30
0.0
11
21.0000
21
31.0000
31
0.0
0
LINE
8
ZONA_LED_RGB
10
21.0000
20
31.0000
30
0.0
11
21.0000
21
27.0000
31
0.0
0
LINE
8
ZONA_FLASH_MX25R6435F
10
2.5000
20
63.0000
30
0.0
11
15.5000
21
63.0000
31
0.0
0
LINE
8
ZONA_FLASH_MX25R6435F
10
15.5000
20
63.0000
30
0.0
11
15.5000
21
74.0000
31
0.0
0
LINE
8
ZONA_FLASH_MX25R6435F
10
15.5000
20
74.0000
30
0.0
11
2.5000
21
74.0000
31
0.0
0
LINE
8
ZONA_FLASH_MX25R6435F
10
2.5000
20
74.0000
30
0.0
11
2.5000
21
63.0000
31
0.0
0
LINE
8
ZONA_IMU_MAGNETOMETRO
10
18.5000
20
63.0000
30
0.0
11
31.5000
21
63.0000
31
0.0
0
LINE
8
ZONA_IMU_MAGNETOMETRO
10
31.5000
20
63.0000
30
0.0
11
31.5000
21
74.0000
31
0.0
0
LINE
8
ZONA_IMU_MAGNETOMETRO
10
31.5000
20
74.0000
30
0.0
11
18.5000
21
74.0000
31
0.0
0
LINE
8
ZONA_IMU_MAGNETOMETRO
10
18.5000
20
74.0000
30
0.0
11
18.5000
21
63.0000
31
0.0
0
LINE
8
ZONA_ENERGIA
10
2.0000
20
35.0000
30
0.0
11
32.0000
21
35.0000
31
0.0
0
LINE
8
ZONA_ENERGIA
10
32.0000
20
35.0000
30
0.0
11
32.0000
21
62.0000
31
0.0
0
LINE
8
ZONA_ENERGIA
10
32.0000
20
62.0000
30
0.0
11
2.0000
21
62.0000
31
0.0
0
LINE
8
ZONA_ENERGIA
10
2.0000
20
62.0000
30
0.0
11
2.0000
21
35.0000
31
0.0
0
LINE
8
ZONA_FPC_DISPLAY_J401
10
0.8000
20
24.0000
30
0.0
11
9.0000
21
24.0000
31
0.0
0
LINE
8
ZONA_FPC_DISPLAY_J401
10
9.0000
20
24.0000
30
0.0
11
9.0000
21
34.0000
31
0.0
0
LINE
8
ZONA_FPC_DISPLAY_J401
10
9.0000
20
34.0000
30
0.0
11
0.8000
21
34.0000
31
0.0
0
LINE
8
ZONA_FPC_DISPLAY_J401
10
0.8000
20
34.0000
30
0.0
11
0.8000
21
24.0000
31
0.0
0
LINE
8
ZONA_BUZZER
10
1.0000
20
12.0000
30
0.0
11
33.0000
21
12.0000
31
0.0
0
LINE
8
ZONA_BUZZER
10
33.0000
20
12.0000
30
0.0
11
33.0000
21
23.0000
31
0.0
0
LINE
8
ZONA_BUZZER
10
33.0000
20
23.0000
30
0.0
11
1.0000
21
23.0000
31
0.0
0
LINE
8
ZONA_BUZZER
10
1.0000
20
23.0000
30
0.0
11
1.0000
21
12.0000
31
0.0
0
LINE
8
ZONA_BAROMETRO_BMP585
10
6.0000
20
20.5000
30
0.0
11
11.0000
21
20.5000
31
0.0
0
LINE
8
ZONA_BAROMETRO_BMP585
10
11.0000
20
20.5000
30
0.0
11
11.0000
21
25.1000
31
0.0
0
LINE
8
ZONA_BAROMETRO_BMP585
10
11.0000
20
25.1000
30
0.0
11
6.0000
21
25.1000
31
0.0
0
LINE
8
ZONA_BAROMETRO_BMP585
10
6.0000
20
25.1000
30
0.0
11
6.0000
21
20.5000
31
0.0
0
LINE
8
ZONA_BOTOES
10
1.5000
20
15.0000
30
0.0
11
28.0000
21
15.0000
31
0.0
0
LINE
8
ZONA_BOTOES
10
28.0000
20
15.0000
30
0.0
11
28.0000
21
23.0000
31
0.0
0
LINE
8
ZONA_BOTOES
10
28.0000
20
23.0000
30
0.0
11
1.5000
21
23.0000
31
0.0
0
LINE
8
ZONA_BOTOES
10
1.5000
20
23.0000
30
0.0
11
1.5000
21
15.0000
31
0.0
0
LINE
8
ZONA_USB_C
10
1.5000
20
0.0000
30
0.0
11
12.5000
21
0.0000
31
0.0
0
LINE
8
ZONA_USB_C
10
12.5000
20
0.0000
30
0.0
11
12.5000
21
9.5000
31
0.0
0
LINE
8
ZONA_USB_C
10
12.5000
20
9.5000
30
0.0
11
1.5000
21
9.5000
31
0.0
0
LINE
8
ZONA_USB_C
10
1.5000
20
9.5000
30
0.0
11
1.5000
21
0.0000
31
0.0
0
LINE
8
ZONA_MODULO_ME54BS13
10
17.0000
20
0.0000
30
0.0
11
34.0000
21
0.0000
31
0.0
0
LINE
8
ZONA_MODULO_ME54BS13
10
34.0000
20
0.0000
30
0.0
11
34.0000
21
13.5000
31
0.0
0
LINE
8
ZONA_MODULO_ME54BS13
10
34.0000
20
13.5000
30
0.0
11
17.0000
21
13.5000
31
0.0
0
LINE
8
ZONA_MODULO_ME54BS13
10
17.0000
20
13.5000
30
0.0
11
17.0000
21
0.0000
31
0.0
0
LINE
8
SOMBRA_DISPLAY_JDI_MAX_2-6MM
10
0.0000
20
30.5000
30
0.0
11
34.0000
21
30.5000
31
0.0
0
LINE
8
SOMBRA_DISPLAY_JDI_MAX_2-6MM
10
34.0000
20
30.5000
30
0.0
11
34.0000
21
92.3000
31
0.0
0
LINE
8
SOMBRA_DISPLAY_JDI_MAX_2-6MM
10
34.0000
20
92.3000
30
0.0
11
0.0000
21
92.3000
31
0.0
0
LINE
8
SOMBRA_DISPLAY_JDI_MAX_2-6MM
10
0.0000
20
92.3000
30
0.0
11
0.0000
21
30.5000
31
0.0
0
LINE
8
SOMBRA_BATERIA_MAX_1-2MM
10
0.0000
20
25.1000
30
0.0
11
34.0000
21
25.1000
31
0.0
0
LINE
8
SOMBRA_BATERIA_MAX_1-2MM
10
34.0000
20
25.1000
30
0.0
11
34.0000
21
85.1000
31
0.0
0
LINE
8
SOMBRA_BATERIA_MAX_1-2MM
10
34.0000
20
85.1000
30
0.0
11
0.0000
21
85.1000
31
0.0
0
LINE
8
SOMBRA_BATERIA_MAX_1-2MM
10
0.0000
20
85.1000
30
0.0
11
0.0000
21
25.1000
31
0.0
0
LINE
8
CONFLITO_DISPLAY_SOBRE_ANTENA_GNSS
10
8.2900
20
85.1200
30
0.0
11
23.2900
21
85.1200
31
0.0
0
LINE
8
CONFLITO_DISPLAY_SOBRE_ANTENA_GNSS
10
23.2900
20
85.1200
30
0.0
11
23.2900
21
92.3000
31
0.0
0
LINE
8
CONFLITO_DISPLAY_SOBRE_ANTENA_GNSS
10
23.2900
20
92.3000
30
0.0
11
8.2900
21
92.3000
31
0.0
0
LINE
8
CONFLITO_DISPLAY_SOBRE_ANTENA_GNSS
10
8.2900
20
92.3000
30
0.0
11
8.2900
21
85.1200
31
0.0
0
LINE
8
CONFLITO_CELULA_NA_ANTENA_DO_MODULO
10
29.3000
20
25.1000
30
0.0
11
34.0000
21
25.1000
31
0.0
0
LINE
8
CONFLITO_CELULA_NA_ANTENA_DO_MODULO
10
34.0000
20
25.1000
30
0.0
11
34.0000
21
22.0000
31
0.0
0
LINE
8
CONFLITO_CELULA_NA_ANTENA_DO_MODULO
10
34.0000
20
22.0000
30
0.0
11
29.3000
21
22.0000
31
0.0
0
LINE
8
CONFLITO_CELULA_NA_ANTENA_DO_MODULO
10
29.3000
20
22.0000
30
0.0
11
29.3000
21
25.1000
31
0.0
0
ENDSEC
0
EOF
