0
SECTION
2
HEADER
9
$ACADVER
1
AC1009
9
$INSUNITS
70
4
9
$MEASUREMENT
70
1
9
$EXTMIN
10
0.0
20
0.0
30
0.0
9
$EXTMAX
10
50.0000
20
86.0000
30
0.0
0
ENDSEC
0
SECTION
2
TABLES
0
TABLE
2
LAYER
70
25
0
LAYER
2
BOARD_OUTLINE_REFERENCIA
70
0
62
8
6
CONTINUOUS
0
LAYER
2
FURO_M2_CENTRO
70
0
62
5
6
CONTINUOUS
0
LAYER
2
FURO_M2_D2-2_CONFERIR
70
0
62
5
6
CONTINUOUS
0
LAYER
2
KEEPOUT_ANTENA_GNSS
70
0
62
1
6
CONTINUOUS
0
LAYER
2
KEEPOUT_ANTENA_MODULO
70
0
62
1
6
CONTINUOUS
0
LAYER
2
RECORTE_ANTENA_MODULO
70
0
62
2
6
CONTINUOUS
0
LAYER
2
SOMBRA_BATERIA_MAX_1-2MM
70
0
62
30
6
CONTINUOUS
0
LAYER
2
SOMBRA_DISPLAY_JDI_MAX_2-6MM
70
0
62
30
6
CONTINUOUS
0
LAYER
2
DISPLAY_AREA_ATIVA
70
0
62
8
6
CONTINUOUS
0
LAYER
2
ZONA_GNSS_MAX-F10S
70
0
62
3
6
CONTINUOUS
0
LAYER
2
ZONA_LED_RGB
70
0
62
3
6
CONTINUOUS
0
LAYER
2
ZONA_FLASH_MX25R6435F
70
0
62
3
6
CONTINUOUS
0
LAYER
2
ZONA_IMU_MAGNETOMETRO
70
0
62
3
6
CONTINUOUS
0
LAYER
2
ZONA_FPC_DISPLAY_J401
70
0
62
3
6
CONTINUOUS
0
LAYER
2
ZONA_BUZZER
70
0
62
3
6
CONTINUOUS
0
LAYER
2
ZONA_ENERGIA
70
0
62
3
6
CONTINUOUS
0
LAYER
2
ZONA_BAROMETRO_BMP585
70
0
62
3
6
CONTINUOUS
0
LAYER
2
ZONA_BOTOES
70
0
62
3
6
CONTINUOUS
0
LAYER
2
ZONA_MODULO_ME54BS13
70
0
62
3
6
CONTINUOUS
0
LAYER
2
ZONA_USB_C
70
0
62
3
6
CONTINUOUS
0
LAYER
2
ZONA_LUZ_AMBIENTE_OPT3001
70
0
62
3
6
CONTINUOUS
0
LAYER
2
CONFLITO_GNSS_NA_ZONA_DA_ANTENA
70
0
62
2
6
CONTINUOUS
0
LAYER
2
CONFLITO_LED_NA_ZONA_DA_ANTENA
70
0
62
2
6
CONTINUOUS
0
LAYER
2
CONFLITO_BOTAO_NA_ZONA_DO_MODULO
70
0
62
2
6
CONTINUOUS
0
LAYER
2
CONFLITO_MODULO_NA_SOMBRA_DA_BATERIA
70
0
62
2
6
CONTINUOUS
0
ENDTAB
0
ENDSEC
0
SECTION
2
ENTITIES
0
LINE
8
BOARD_OUTLINE_REFERENCIA
10
3.0000
20
0.0000
30
0.0
11
47.0000
21
0.0000
31
0.0
0
LINE
8
BOARD_OUTLINE_REFERENCIA
10
50.0000
20
3.0000
30
0.0
11
50.0000
21
83.0000
31
0.0
0
LINE
8
BOARD_OUTLINE_REFERENCIA
10
47.0000
20
86.0000
30
0.0
11
3.0000
21
86.0000
31
0.0
0
LINE
8
BOARD_OUTLINE_REFERENCIA
10
0.0000
20
83.0000
30
0.0
11
0.0000
21
3.0000
31
0.0
0
ARC
8
BOARD_OUTLINE_REFERENCIA
10
47.0000
20
3.0000
30
0.0
40
3.0000
50
270.0000
51
360.0000
0
ARC
8
BOARD_OUTLINE_REFERENCIA
10
47.0000
20
83.0000
30
0.0
40
3.0000
50
0.0000
51
90.0000
0
ARC
8
BOARD_OUTLINE_REFERENCIA
10
3.0000
20
83.0000
30
0.0
40
3.0000
50
90.0000
51
180.0000
0
ARC
8
BOARD_OUTLINE_REFERENCIA
10
3.0000
20
3.0000
30
0.0
40
3.0000
50
180.0000
51
270.0000
0
LINE
8
FURO_M2_CENTRO
10
1.7000
20
43.0000
30
0.0
11
4.7000
21
43.0000
31
0.0
0
LINE
8
FURO_M2_CENTRO
10
3.2000
20
41.5000
30
0.0
11
3.2000
21
44.5000
31
0.0
0
CIRCLE
8
FURO_M2_D2-2_CONFERIR
10
3.2000
20
43.0000
30
0.0
40
1.1000
0
LINE
8
KEEPOUT_ANTENA_GNSS
10
0.0000
20
78.0000
30
0.0
11
50.0000
21
78.0000
31
0.0
0
LINE
8
KEEPOUT_ANTENA_GNSS
10
50.0000
20
78.0000
30
0.0
11
50.0000
21
86.0000
31
0.0
0
LINE
8
KEEPOUT_ANTENA_GNSS
10
50.0000
20
86.0000
30
0.0
11
0.0000
21
86.0000
31
0.0
0
LINE
8
KEEPOUT_ANTENA_GNSS
10
0.0000
20
86.0000
30
0.0
11
0.0000
21
78.0000
31
0.0
0
LINE
8
KEEPOUT_ANTENA_MODULO
10
45.3000
20
0.0000
30
0.0
11
50.0000
21
0.0000
31
0.0
0
LINE
8
KEEPOUT_ANTENA_MODULO
10
50.0000
20
0.0000
30
0.0
11
50.0000
21
19.1000
31
0.0
0
LINE
8
KEEPOUT_ANTENA_MODULO
10
50.0000
20
19.1000
30
0.0
11
45.3000
21
19.1000
31
0.0
0
LINE
8
KEEPOUT_ANTENA_MODULO
10
45.3000
20
19.1000
30
0.0
11
45.3000
21
0.0000
31
0.0
0
LINE
8
RECORTE_ANTENA_MODULO
10
45.7000
20
5.9000
30
0.0
11
50.0000
21
5.9000
31
0.0
0
LINE
8
RECORTE_ANTENA_MODULO
10
50.0000
20
5.9000
30
0.0
11
50.0000
21
17.1000
31
0.0
0
LINE
8
RECORTE_ANTENA_MODULO
10
50.0000
20
17.1000
30
0.0
11
45.7000
21
17.1000
31
0.0
0
LINE
8
RECORTE_ANTENA_MODULO
10
45.7000
20
17.1000
30
0.0
11
45.7000
21
5.9000
31
0.0
0
LINE
8
SOMBRA_BATERIA_MAX_1-2MM
10
7.0000
20
8.0000
30
0.0
11
43.0000
21
8.0000
31
0.0
0
LINE
8
SOMBRA_BATERIA_MAX_1-2MM
10
43.0000
20
8.0000
30
0.0
11
43.0000
21
68.0000
31
0.0
0
LINE
8
SOMBRA_BATERIA_MAX_1-2MM
10
43.0000
20
68.0000
30
0.0
11
7.0000
21
68.0000
31
0.0
0
LINE
8
SOMBRA_BATERIA_MAX_1-2MM
10
7.0000
20
68.0000
30
0.0
11
7.0000
21
8.0000
31
0.0
0
LINE
8
SOMBRA_DISPLAY_JDI_MAX_2-6MM
10
8.9000
20
19.1000
30
0.0
11
48.9800
21
19.1000
31
0.0
0
LINE
8
SOMBRA_DISPLAY_JDI_MAX_2-6MM
10
48.9800
20
19.1000
30
0.0
11
48.9800
21
80.9000
31
0.0
0
LINE
8
SOMBRA_DISPLAY_JDI_MAX_2-6MM
10
48.9800
20
80.9000
30
0.0
11
8.9000
21
80.9000
31
0.0
0
LINE
8
SOMBRA_DISPLAY_JDI_MAX_2-6MM
10
8.9000
20
80.9000
30
0.0
11
8.9000
21
19.1000
31
0.0
0
LINE
8
DISPLAY_AREA_ATIVA
10
11.3000
20
20.6000
30
0.0
11
46.5800
21
20.6000
31
0.0
0
LINE
8
DISPLAY_AREA_ATIVA
10
46.5800
20
20.6000
30
0.0
11
46.5800
21
79.4000
31
0.0
0
LINE
8
DISPLAY_AREA_ATIVA
10
46.5800
20
79.4000
30
0.0
11
11.3000
21
79.4000
31
0.0
0
LINE
8
DISPLAY_AREA_ATIVA
10
11.3000
20
79.4000
30
0.0
11
11.3000
21
20.6000
31
0.0
0
LINE
8
ZONA_GNSS_MAX-F10S
10
17.0000
20
66.0000
30
0.0
11
33.0000
21
66.0000
31
0.0
0
LINE
8
ZONA_GNSS_MAX-F10S
10
33.0000
20
66.0000
30
0.0
11
33.0000
21
77.5000
31
0.0
0
LINE
8
ZONA_GNSS_MAX-F10S
10
33.0000
20
77.5000
30
0.0
11
17.0000
21
77.5000
31
0.0
0
LINE
8
ZONA_GNSS_MAX-F10S
10
17.0000
20
77.5000
30
0.0
11
17.0000
21
66.0000
31
0.0
0
LINE
8
ZONA_LED_RGB
10
44.0000
20
74.0000
30
0.0
11
48.0000
21
74.0000
31
0.0
0
LINE
8
ZONA_LED_RGB
10
48.0000
20
74.0000
30
0.0
11
48.0000
21
77.5000
31
0.0
0
LINE
8
ZONA_LED_RGB
10
48.0000
20
77.5000
30
0.0
11
44.0000
21
77.5000
31
0.0
0
LINE
8
ZONA_LED_RGB
10
44.0000
20
77.5000
30
0.0
11
44.0000
21
74.0000
31
0.0
0
LINE
8
ZONA_FLASH_MX25R6435F
10
3.0000
20
53.0000
30
0.0
11
19.0000
21
53.0000
31
0.0
0
LINE
8
ZONA_FLASH_MX25R6435F
10
19.0000
20
53.0000
30
0.0
11
19.0000
21
65.0000
31
0.0
0
LINE
8
ZONA_FLASH_MX25R6435F
10
19.0000
20
65.0000
30
0.0
11
3.0000
21
65.0000
31
0.0
0
LINE
8
ZONA_FLASH_MX25R6435F
10
3.0000
20
65.0000
30
0.0
11
3.0000
21
53.0000
31
0.0
0
LINE
8
ZONA_IMU_MAGNETOMETRO
10
23.0000
20
53.0000
30
0.0
11
39.0000
21
53.0000
31
0.0
0
LINE
8
ZONA_IMU_MAGNETOMETRO
10
39.0000
20
53.0000
30
0.0
11
39.0000
21
65.0000
31
0.0
0
LINE
8
ZONA_IMU_MAGNETOMETRO
10
39.0000
20
65.0000
30
0.0
11
23.0000
21
65.0000
31
0.0
0
LINE
8
ZONA_IMU_MAGNETOMETRO
10
23.0000
20
65.0000
30
0.0
11
23.0000
21
53.0000
31
0.0
0
LINE
8
ZONA_FPC_DISPLAY_J401
10
0.8000
20
46.0000
30
0.0
11
9.0000
21
46.0000
31
0.0
0
LINE
8
ZONA_FPC_DISPLAY_J401
10
9.0000
20
46.0000
30
0.0
11
9.0000
21
57.0000
31
0.0
0
LINE
8
ZONA_FPC_DISPLAY_J401
10
9.0000
20
57.0000
30
0.0
11
0.8000
21
57.0000
31
0.0
0
LINE
8
ZONA_FPC_DISPLAY_J401
10
0.8000
20
57.0000
30
0.0
11
0.8000
21
46.0000
31
0.0
0
LINE
8
ZONA_BUZZER
10
29.0000
20
39.0000
30
0.0
11
41.0000
21
39.0000
31
0.0
0
LINE
8
ZONA_BUZZER
10
41.0000
20
39.0000
30
0.0
11
41.0000
21
50.0000
31
0.0
0
LINE
8
ZONA_BUZZER
10
41.0000
20
50.0000
30
0.0
11
29.0000
21
50.0000
31
0.0
0
LINE
8
ZONA_BUZZER
10
29.0000
20
50.0000
30
0.0
11
29.0000
21
39.0000
31
0.0
0
LINE
8
ZONA_ENERGIA
10
3.0000
20
20.0000
30
0.0
11
44.0000
21
20.0000
31
0.0
0
LINE
8
ZONA_ENERGIA
10
44.0000
20
20.0000
30
0.0
11
44.0000
21
40.0000
31
0.0
0
LINE
8
ZONA_ENERGIA
10
44.0000
20
40.0000
30
0.0
11
3.0000
21
40.0000
31
0.0
0
LINE
8
ZONA_ENERGIA
10
3.0000
20
40.0000
30
0.0
11
3.0000
21
20.0000
31
0.0
0
LINE
8
ZONA_BAROMETRO_BMP585
10
4.0000
20
15.0000
30
0.0
11
8.0000
21
15.0000
31
0.0
0
LINE
8
ZONA_BAROMETRO_BMP585
10
8.0000
20
15.0000
30
0.0
11
8.0000
21
19.0000
31
0.0
0
LINE
8
ZONA_BAROMETRO_BMP585
10
8.0000
20
19.0000
30
0.0
11
4.0000
21
19.0000
31
0.0
0
LINE
8
ZONA_BAROMETRO_BMP585
10
4.0000
20
19.0000
30
0.0
11
4.0000
21
15.0000
31
0.0
0
LINE
8
ZONA_BOTOES
10
2.0000
20
10.5000
30
0.0
11
32.0000
21
10.5000
31
0.0
0
LINE
8
ZONA_BOTOES
10
32.0000
20
10.5000
30
0.0
11
32.0000
21
18.5000
31
0.0
0
LINE
8
ZONA_BOTOES
10
32.0000
20
18.5000
30
0.0
11
2.0000
21
18.5000
31
0.0
0
LINE
8
ZONA_BOTOES
10
2.0000
20
18.5000
30
0.0
11
2.0000
21
10.5000
31
0.0
0
LINE
8
ZONA_MODULO_ME54BS13
10
33.0000
20
4.7500
30
0.0
11
50.0000
21
4.7500
31
0.0
0
LINE
8
ZONA_MODULO_ME54BS13
10
50.0000
20
4.7500
30
0.0
11
50.0000
21
18.2500
31
0.0
0
LINE
8
ZONA_MODULO_ME54BS13
10
50.0000
20
18.2500
30
0.0
11
33.0000
21
18.2500
31
0.0
0
LINE
8
ZONA_MODULO_ME54BS13
10
33.0000
20
18.2500
30
0.0
11
33.0000
21
4.7500
31
0.0
0
LINE
8
ZONA_USB_C
10
10.0000
20
0.0000
30
0.0
11
22.0000
21
0.0000
31
0.0
0
LINE
8
ZONA_USB_C
10
22.0000
20
0.0000
30
0.0
11
22.0000
21
9.0000
31
0.0
0
LINE
8
ZONA_USB_C
10
22.0000
20
9.0000
30
0.0
11
10.0000
21
9.0000
31
0.0
0
LINE
8
ZONA_USB_C
10
10.0000
20
9.0000
30
0.0
11
10.0000
21
0.0000
31
0.0
0
LINE
8
ZONA_LUZ_AMBIENTE_OPT3001
10
0.4000
20
6.0000
30
0.0
11
2.4000
21
6.0000
31
0.0
0
LINE
8
ZONA_LUZ_AMBIENTE_OPT3001
10
2.4000
20
6.0000
30
0.0
11
2.4000
21
8.0000
31
0.0
0
LINE
8
ZONA_LUZ_AMBIENTE_OPT3001
10
2.4000
20
8.0000
30
0.0
11
0.4000
21
8.0000
31
0.0
0
LINE
8
ZONA_LUZ_AMBIENTE_OPT3001
10
0.4000
20
8.0000
30
0.0
11
0.4000
21
6.0000
31
0.0
0
LINE
8
CONFLITO_GNSS_NA_ZONA_DA_ANTENA
10
20.0000
20
78.0000
30
0.0
11
35.0000
21
78.0000
31
0.0
0
LINE
8
CONFLITO_GNSS_NA_ZONA_DA_ANTENA
10
35.0000
20
78.0000
30
0.0
11
35.0000
21
84.0000
31
0.0
0
LINE
8
CONFLITO_GNSS_NA_ZONA_DA_ANTENA
10
35.0000
20
84.0000
30
0.0
11
20.0000
21
84.0000
31
0.0
0
LINE
8
CONFLITO_GNSS_NA_ZONA_DA_ANTENA
10
20.0000
20
84.0000
30
0.0
11
20.0000
21
78.0000
31
0.0
0
LINE
8
CONFLITO_LED_NA_ZONA_DA_ANTENA
10
50.0000
20
83.0000
30
0.0
11
53.0000
21
83.0000
31
0.0
0
LINE
8
CONFLITO_LED_NA_ZONA_DA_ANTENA
10
53.0000
20
83.0000
30
0.0
11
53.0000
21
86.0000
31
0.0
0
LINE
8
CONFLITO_LED_NA_ZONA_DA_ANTENA
10
53.0000
20
86.0000
30
0.0
11
50.0000
21
86.0000
31
0.0
0
LINE
8
CONFLITO_LED_NA_ZONA_DA_ANTENA
10
50.0000
20
86.0000
30
0.0
11
50.0000
21
83.0000
31
0.0
0
LINE
8
CONFLITO_BOTAO_NA_ZONA_DO_MODULO
10
45.5000
20
10.0000
30
0.0
11
49.0000
21
10.0000
31
0.0
0
LINE
8
CONFLITO_BOTAO_NA_ZONA_DO_MODULO
10
49.0000
20
10.0000
30
0.0
11
49.0000
21
10.7000
31
0.0
0
LINE
8
CONFLITO_BOTAO_NA_ZONA_DO_MODULO
10
49.0000
20
10.7000
30
0.0
11
45.5000
21
10.7000
31
0.0
0
LINE
8
CONFLITO_BOTAO_NA_ZONA_DO_MODULO
10
45.5000
20
10.7000
30
0.0
11
45.5000
21
10.0000
31
0.0
0
LINE
8
CONFLITO_MODULO_NA_SOMBRA_DA_BATERIA
10
37.2000
20
14.6000
30
0.0
11
45.5000
21
14.6000
31
0.0
0
LINE
8
CONFLITO_MODULO_NA_SOMBRA_DA_BATERIA
10
45.5000
20
14.6000
30
0.0
11
45.5000
21
27.3000
31
0.0
0
LINE
8
CONFLITO_MODULO_NA_SOMBRA_DA_BATERIA
10
45.5000
20
27.3000
30
0.0
11
37.2000
21
27.3000
31
0.0
0
LINE
8
CONFLITO_MODULO_NA_SOMBRA_DA_BATERIA
10
37.2000
20
27.3000
30
0.0
11
37.2000
21
14.6000
31
0.0
0
ENDSEC
0
EOF
