0
SECTION
2
HEADER
9
$ACADVER
1
AC1009
9
$INSUNITS
70
4
9
$MEASUREMENT
70
1
9
$EXTMIN
10
0.0
20
0.0
30
0.0
9
$EXTMAX
10
55.0000
20
97.0000
30
0.0
0
ENDSEC
0
SECTION
2
TABLES
0
TABLE
2
LAYER
70
25
0
LAYER
2
BOARD_OUTLINE_REFERENCIA
70
0
62
8
6
CONTINUOUS
0
LAYER
2
FURO_M2_CENTRO
70
0
62
5
6
CONTINUOUS
0
LAYER
2
FURO_M2_D2-2_CONFERIR
70
0
62
5
6
CONTINUOUS
0
LAYER
2
KEEPOUT_ANTENA_GNSS
70
0
62
1
6
CONTINUOUS
0
LAYER
2
KEEPOUT_ANTENA_MODULO
70
0
62
1
6
CONTINUOUS
0
LAYER
2
RECORTE_ANTENA_MODULO
70
0
62
2
6
CONTINUOUS
0
LAYER
2
SOMBRA_BATERIA_MAX_1-2MM
70
0
62
30
6
CONTINUOUS
0
LAYER
2
SOMBRA_DISPLAY_JDI_MAX_2-6MM
70
0
62
30
6
CONTINUOUS
0
LAYER
2
DISPLAY_AREA_ATIVA
70
0
62
8
6
CONTINUOUS
0
LAYER
2
ZONA_GNSS_MAX-F10S
70
0
62
3
6
CONTINUOUS
0
LAYER
2
ZONA_LED_RGB
70
0
62
3
6
CONTINUOUS
0
LAYER
2
ZONA_FLASH_MX25R6435F
70
0
62
3
6
CONTINUOUS
0
LAYER
2
ZONA_IMU_MAGNETOMETRO
70
0
62
3
6
CONTINUOUS
0
LAYER
2
ZONA_FPC_DISPLAY_J401
70
0
62
3
6
CONTINUOUS
0
LAYER
2
ZONA_BUZZER
70
0
62
3
6
CONTINUOUS
0
LAYER
2
ZONA_ENERGIA
70
0
62
3
6
CONTINUOUS
0
LAYER
2
ZONA_BAROMETRO_BMP585
70
0
62
3
6
CONTINUOUS
0
LAYER
2
ZONA_BOTOES
70
0
62
3
6
CONTINUOUS
0
LAYER
2
ZONA_MODULO_ME54BS13
70
0
62
3
6
CONTINUOUS
0
LAYER
2
ZONA_USB_C
70
0
62
3
6
CONTINUOUS
0
LAYER
2
ZONA_LUZ_AMBIENTE_OPT3001
70
0
62
3
6
CONTINUOUS
0
LAYER
2
CONFLITO_GNSS_NA_ZONA_DA_ANTENA
70
0
62
2
6
CONTINUOUS
0
LAYER
2
CONFLITO_LED_NA_ZONA_DA_ANTENA
70
0
62
2
6
CONTINUOUS
0
LAYER
2
CONFLITO_BOTAO_NA_ZONA_DO_MODULO
70
0
62
2
6
CONTINUOUS
0
LAYER
2
CONFLITO_MODULO_NA_SOMBRA_DA_BATERIA
70
0
62
2
6
CONTINUOUS
0
ENDTAB
0
ENDSEC
0
SECTION
2
ENTITIES
0
LINE
8
BOARD_OUTLINE_REFERENCIA
10
3.0000
20
0.0000
30
0.0
11
52.0000
21
0.0000
31
0.0
0
LINE
8
BOARD_OUTLINE_REFERENCIA
10
55.0000
20
3.0000
30
0.0
11
55.0000
21
94.0000
31
0.0
0
LINE
8
BOARD_OUTLINE_REFERENCIA
10
52.0000
20
97.0000
30
0.0
11
3.0000
21
97.0000
31
0.0
0
LINE
8
BOARD_OUTLINE_REFERENCIA
10
0.0000
20
94.0000
30
0.0
11
0.0000
21
3.0000
31
0.0
0
ARC
8
BOARD_OUTLINE_REFERENCIA
10
52.0000
20
3.0000
30
0.0
40
3.0000
50
270.0000
51
360.0000
0
ARC
8
BOARD_OUTLINE_REFERENCIA
10
52.0000
20
94.0000
30
0.0
40
3.0000
50
0.0000
51
90.0000
0
ARC
8
BOARD_OUTLINE_REFERENCIA
10
3.0000
20
94.0000
30
0.0
40
3.0000
50
90.0000
51
180.0000
0
ARC
8
BOARD_OUTLINE_REFERENCIA
10
3.0000
20
3.0000
30
0.0
40
3.0000
50
180.0000
51
270.0000
0
LINE
8
FURO_M2_CENTRO
10
1.7000
20
49.0000
30
0.0
11
4.7000
21
49.0000
31
0.0
0
LINE
8
FURO_M2_CENTRO
10
3.2000
20
47.5000
30
0.0
11
3.2000
21
50.5000
31
0.0
0
CIRCLE
8
FURO_M2_D2-2_CONFERIR
10
3.2000
20
49.0000
30
0.0
40
1.1000
0
LINE
8
KEEPOUT_ANTENA_GNSS
10
0.0000
20
89.0000
30
0.0
11
55.0000
21
89.0000
31
0.0
0
LINE
8
KEEPOUT_ANTENA_GNSS
10
55.0000
20
89.0000
30
0.0
11
55.0000
21
97.0000
31
0.0
0
LINE
8
KEEPOUT_ANTENA_GNSS
10
55.0000
20
97.0000
30
0.0
11
0.0000
21
97.0000
31
0.0
0
LINE
8
KEEPOUT_ANTENA_GNSS
10
0.0000
20
97.0000
30
0.0
11
0.0000
21
89.0000
31
0.0
0
LINE
8
KEEPOUT_ANTENA_MODULO
10
50.3000
20
0.0000
30
0.0
11
55.0000
21
0.0000
31
0.0
0
LINE
8
KEEPOUT_ANTENA_MODULO
10
55.0000
20
0.0000
30
0.0
11
55.0000
21
22.0000
31
0.0
0
LINE
8
KEEPOUT_ANTENA_MODULO
10
55.0000
20
22.0000
30
0.0
11
50.3000
21
22.0000
31
0.0
0
LINE
8
KEEPOUT_ANTENA_MODULO
10
50.3000
20
22.0000
30
0.0
11
50.3000
21
0.0000
31
0.0
0
LINE
8
RECORTE_ANTENA_MODULO
10
50.7000
20
7.4000
30
0.0
11
55.0000
21
7.4000
31
0.0
0
LINE
8
RECORTE_ANTENA_MODULO
10
55.0000
20
7.4000
30
0.0
11
55.0000
21
17.6000
31
0.0
0
LINE
8
RECORTE_ANTENA_MODULO
10
55.0000
20
17.6000
30
0.0
11
50.7000
21
17.6000
31
0.0
0
LINE
8
RECORTE_ANTENA_MODULO
10
50.7000
20
17.6000
30
0.0
11
50.7000
21
7.4000
31
0.0
0
LINE
8
SOMBRA_BATERIA_MAX_1-2MM
10
11.0000
20
17.0000
30
0.0
11
47.0000
21
17.0000
31
0.0
0
LINE
8
SOMBRA_BATERIA_MAX_1-2MM
10
47.0000
20
17.0000
30
0.0
11
47.0000
21
77.0000
31
0.0
0
LINE
8
SOMBRA_BATERIA_MAX_1-2MM
10
47.0000
20
77.0000
30
0.0
11
11.0000
21
77.0000
31
0.0
0
LINE
8
SOMBRA_BATERIA_MAX_1-2MM
10
11.0000
20
77.0000
30
0.0
11
11.0000
21
17.0000
31
0.0
0
LINE
8
SOMBRA_DISPLAY_JDI_MAX_2-6MM
10
9.0000
20
30.1000
30
0.0
11
49.0800
21
30.1000
31
0.0
0
LINE
8
SOMBRA_DISPLAY_JDI_MAX_2-6MM
10
49.0800
20
30.1000
30
0.0
11
49.0800
21
91.9000
31
0.0
0
LINE
8
SOMBRA_DISPLAY_JDI_MAX_2-6MM
10
49.0800
20
91.9000
30
0.0
11
9.0000
21
91.9000
31
0.0
0
LINE
8
SOMBRA_DISPLAY_JDI_MAX_2-6MM
10
9.0000
20
91.9000
30
0.0
11
9.0000
21
30.1000
31
0.0
0
LINE
8
DISPLAY_AREA_ATIVA
10
11.4000
20
31.6000
30
0.0
11
46.6800
21
31.6000
31
0.0
0
LINE
8
DISPLAY_AREA_ATIVA
10
46.6800
20
31.6000
30
0.0
11
46.6800
21
90.4000
31
0.0
0
LINE
8
DISPLAY_AREA_ATIVA
10
46.6800
20
90.4000
30
0.0
11
11.4000
21
90.4000
31
0.0
0
LINE
8
DISPLAY_AREA_ATIVA
10
11.4000
20
90.4000
30
0.0
11
11.4000
21
31.6000
31
0.0
0
LINE
8
ZONA_GNSS_MAX-F10S
10
19.5000
20
77.0000
30
0.0
11
35.5000
21
77.0000
31
0.0
0
LINE
8
ZONA_GNSS_MAX-F10S
10
35.5000
20
77.0000
30
0.0
11
35.5000
21
88.5000
31
0.0
0
LINE
8
ZONA_GNSS_MAX-F10S
10
35.5000
20
88.5000
30
0.0
11
19.5000
21
88.5000
31
0.0
0
LINE
8
ZONA_GNSS_MAX-F10S
10
19.5000
20
88.5000
30
0.0
11
19.5000
21
77.0000
31
0.0
0
LINE
8
ZONA_LED_RGB
10
49.0000
20
85.0000
30
0.0
11
53.0000
21
85.0000
31
0.0
0
LINE
8
ZONA_LED_RGB
10
53.0000
20
85.0000
30
0.0
11
53.0000
21
88.5000
31
0.0
0
LINE
8
ZONA_LED_RGB
10
53.0000
20
88.5000
30
0.0
11
49.0000
21
88.5000
31
0.0
0
LINE
8
ZONA_LED_RGB
10
49.0000
20
88.5000
30
0.0
11
49.0000
21
85.0000
31
0.0
0
LINE
8
ZONA_FLASH_MX25R6435F
10
4.0000
20
63.0000
30
0.0
11
20.0000
21
63.0000
31
0.0
0
LINE
8
ZONA_FLASH_MX25R6435F
10
20.0000
20
63.0000
30
0.0
11
20.0000
21
75.0000
31
0.0
0
LINE
8
ZONA_FLASH_MX25R6435F
10
20.0000
20
75.0000
30
0.0
11
4.0000
21
75.0000
31
0.0
0
LINE
8
ZONA_FLASH_MX25R6435F
10
4.0000
20
75.0000
30
0.0
11
4.0000
21
63.0000
31
0.0
0
LINE
8
ZONA_IMU_MAGNETOMETRO
10
26.0000
20
63.0000
30
0.0
11
42.0000
21
63.0000
31
0.0
0
LINE
8
ZONA_IMU_MAGNETOMETRO
10
42.0000
20
63.0000
30
0.0
11
42.0000
21
75.0000
31
0.0
0
LINE
8
ZONA_IMU_MAGNETOMETRO
10
42.0000
20
75.0000
30
0.0
11
26.0000
21
75.0000
31
0.0
0
LINE
8
ZONA_IMU_MAGNETOMETRO
10
26.0000
20
75.0000
30
0.0
11
26.0000
21
63.0000
31
0.0
0
LINE
8
ZONA_FPC_DISPLAY_J401
10
0.8000
20
56.0000
30
0.0
11
9.0000
21
56.0000
31
0.0
0
LINE
8
ZONA_FPC_DISPLAY_J401
10
9.0000
20
56.0000
30
0.0
11
9.0000
21
67.0000
31
0.0
0
LINE
8
ZONA_FPC_DISPLAY_J401
10
9.0000
20
67.0000
30
0.0
11
0.8000
21
67.0000
31
0.0
0
LINE
8
ZONA_FPC_DISPLAY_J401
10
0.8000
20
67.0000
30
0.0
11
0.8000
21
56.0000
31
0.0
0
LINE
8
ZONA_BUZZER
10
32.0000
20
46.0000
30
0.0
11
44.0000
21
46.0000
31
0.0
0
LINE
8
ZONA_BUZZER
10
44.0000
20
46.0000
30
0.0
11
44.0000
21
57.0000
31
0.0
0
LINE
8
ZONA_BUZZER
10
44.0000
20
57.0000
30
0.0
11
32.0000
21
57.0000
31
0.0
0
LINE
8
ZONA_BUZZER
10
32.0000
20
57.0000
30
0.0
11
32.0000
21
46.0000
31
0.0
0
LINE
8
ZONA_ENERGIA
10
3.0000
20
23.0000
30
0.0
11
48.0000
21
23.0000
31
0.0
0
LINE
8
ZONA_ENERGIA
10
48.0000
20
23.0000
30
0.0
11
48.0000
21
45.0000
31
0.0
0
LINE
8
ZONA_ENERGIA
10
48.0000
20
45.0000
30
0.0
11
3.0000
21
45.0000
31
0.0
0
LINE
8
ZONA_ENERGIA
10
3.0000
20
45.0000
30
0.0
11
3.0000
21
23.0000
31
0.0
0
LINE
8
ZONA_BAROMETRO_BMP585
10
4.0000
20
17.0000
30
0.0
11
8.0000
21
17.0000
31
0.0
0
LINE
8
ZONA_BAROMETRO_BMP585
10
8.0000
20
17.0000
30
0.0
11
8.0000
21
21.0000
31
0.0
0
LINE
8
ZONA_BAROMETRO_BMP585
10
8.0000
20
21.0000
30
0.0
11
4.0000
21
21.0000
31
0.0
0
LINE
8
ZONA_BAROMETRO_BMP585
10
4.0000
20
21.0000
30
0.0
11
4.0000
21
17.0000
31
0.0
0
LINE
8
ZONA_BOTOES
10
2.0000
20
12.0000
30
0.0
11
36.0000
21
12.0000
31
0.0
0
LINE
8
ZONA_BOTOES
10
36.0000
20
12.0000
30
0.0
11
36.0000
21
21.0000
31
0.0
0
LINE
8
ZONA_BOTOES
10
36.0000
20
21.0000
30
0.0
11
2.0000
21
21.0000
31
0.0
0
LINE
8
ZONA_BOTOES
10
2.0000
20
21.0000
30
0.0
11
2.0000
21
12.0000
31
0.0
0
LINE
8
ZONA_MODULO_ME54BS13
10
38.0000
20
5.7500
30
0.0
11
55.0000
21
5.7500
31
0.0
0
LINE
8
ZONA_MODULO_ME54BS13
10
55.0000
20
5.7500
30
0.0
11
55.0000
21
19.2500
31
0.0
0
LINE
8
ZONA_MODULO_ME54BS13
10
55.0000
20
19.2500
30
0.0
11
38.0000
21
19.2500
31
0.0
0
LINE
8
ZONA_MODULO_ME54BS13
10
38.0000
20
19.2500
30
0.0
11
38.0000
21
5.7500
31
0.0
0
LINE
8
ZONA_USB_C
10
12.0000
20
0.0000
30
0.0
11
24.0000
21
0.0000
31
0.0
0
LINE
8
ZONA_USB_C
10
24.0000
20
0.0000
30
0.0
11
24.0000
21
9.0000
31
0.0
0
LINE
8
ZONA_USB_C
10
24.0000
20
9.0000
30
0.0
11
12.0000
21
9.0000
31
0.0
0
LINE
8
ZONA_USB_C
10
12.0000
20
9.0000
30
0.0
11
12.0000
21
0.0000
31
0.0
0
LINE
8
ZONA_LUZ_AMBIENTE_OPT3001
10
1.2000
20
83.5000
30
0.0
11
3.8000
21
83.5000
31
0.0
0
LINE
8
ZONA_LUZ_AMBIENTE_OPT3001
10
3.8000
20
83.5000
30
0.0
11
3.8000
21
86.5000
31
0.0
0
LINE
8
ZONA_LUZ_AMBIENTE_OPT3001
10
3.8000
20
86.5000
30
0.0
11
1.2000
21
86.5000
31
0.0
0
LINE
8
ZONA_LUZ_AMBIENTE_OPT3001
10
1.2000
20
86.5000
30
0.0
11
1.2000
21
83.5000
31
0.0
0
LINE
8
CONFLITO_GNSS_NA_ZONA_DA_ANTENA
10
20.0000
20
89.0000
30
0.0
11
35.0000
21
89.0000
31
0.0
0
LINE
8
CONFLITO_GNSS_NA_ZONA_DA_ANTENA
10
35.0000
20
89.0000
30
0.0
11
35.0000
21
95.0000
31
0.0
0
LINE
8
CONFLITO_GNSS_NA_ZONA_DA_ANTENA
10
35.0000
20
95.0000
30
0.0
11
20.0000
21
95.0000
31
0.0
0
LINE
8
CONFLITO_GNSS_NA_ZONA_DA_ANTENA
10
20.0000
20
95.0000
30
0.0
11
20.0000
21
89.0000
31
0.0
0
LINE
8
CONFLITO_LED_NA_ZONA_DA_ANTENA
10
50.0000
20
94.0000
30
0.0
11
53.0000
21
94.0000
31
0.0
0
LINE
8
CONFLITO_LED_NA_ZONA_DA_ANTENA
10
53.0000
20
94.0000
30
0.0
11
53.0000
21
97.0000
31
0.0
0
LINE
8
CONFLITO_LED_NA_ZONA_DA_ANTENA
10
53.0000
20
97.0000
30
0.0
11
50.0000
21
97.0000
31
0.0
0
LINE
8
CONFLITO_LED_NA_ZONA_DA_ANTENA
10
50.0000
20
97.0000
30
0.0
11
50.0000
21
94.0000
31
0.0
0
LINE
8
CONFLITO_BOTAO_NA_ZONA_DO_MODULO
10
45.5000
20
21.0000
30
0.0
11
49.0000
21
21.0000
31
0.0
0
LINE
8
CONFLITO_BOTAO_NA_ZONA_DO_MODULO
10
49.0000
20
21.0000
30
0.0
11
49.0000
21
21.7000
31
0.0
0
LINE
8
CONFLITO_BOTAO_NA_ZONA_DO_MODULO
10
49.0000
20
21.7000
30
0.0
11
45.5000
21
21.7000
31
0.0
0
LINE
8
CONFLITO_BOTAO_NA_ZONA_DO_MODULO
10
45.5000
20
21.7000
30
0.0
11
45.5000
21
21.0000
31
0.0
0
LINE
8
CONFLITO_MODULO_NA_SOMBRA_DA_BATERIA
10
37.2000
20
25.6000
30
0.0
11
45.5000
21
25.6000
31
0.0
0
LINE
8
CONFLITO_MODULO_NA_SOMBRA_DA_BATERIA
10
45.5000
20
25.6000
30
0.0
11
45.5000
21
38.3000
31
0.0
0
LINE
8
CONFLITO_MODULO_NA_SOMBRA_DA_BATERIA
10
45.5000
20
38.3000
30
0.0
11
37.2000
21
38.3000
31
0.0
0
LINE
8
CONFLITO_MODULO_NA_SOMBRA_DA_BATERIA
10
37.2000
20
38.3000
30
0.0
11
37.2000
21
25.6000
31
0.0
0
ENDSEC
0
EOF
