#VRML V2.0 utf8
# caixa do encapsulamento, nao o modelo do fabricante
Shape {
  appearance Appearance { material Material { diffuseColor 0.13 0.13 0.14 } }
  geometry IndexedFaceSet {
    coord Coordinate { point [
      -0.3937 -0.3937 0.0000,
      0.3937 -0.3937 0.0000,
      0.3937 0.3937 0.0000,
      -0.3937 0.3937 0.0000,
      -0.3937 -0.3937 0.2559,
      0.3937 -0.3937 0.2559,
      0.3937 0.3937 0.2559,
      -0.3937 0.3937 0.2559 ] }
    coordIndex [
      0 3 2 1 -1,
      4 5 6 7 -1,
      0 1 5 4 -1,
      1 2 6 5 -1,
      2 3 7 6 -1,
      3 0 4 7 -1 ]
  }
}
