G75*
%MOIN*%
%OFA0B0*%
%FSLAX25Y25*%
%IPPOS*%
%LPD*%
%AMOC8*
5,1,8,0,0,1.08239X$1,22.5*
%
%ADD10C,0.00600*%
%ADD11C,0.00500*%
%ADD12C,0.00200*%
%ADD13C,0.00100*%
%ADD14C,0.00197*%
%ADD15C,0.00000*%
%ADD16C,0.00300*%
D10*
X0064100Y0090800D02*
X0064100Y0116300D01*
X0039100Y0116300D01*
X0039100Y0231500D01*
X0048100Y0233500D01*
X0048000Y0279400D01*
X0039000Y0280900D01*
X0039100Y0391300D01*
X0039102Y0391433D01*
X0039108Y0391567D01*
X0039118Y0391700D01*
X0039132Y0391832D01*
X0039149Y0391964D01*
X0039171Y0392096D01*
X0039196Y0392227D01*
X0039226Y0392357D01*
X0039259Y0392486D01*
X0039296Y0392614D01*
X0039337Y0392741D01*
X0039382Y0392867D01*
X0039430Y0392991D01*
X0039482Y0393114D01*
X0039537Y0393235D01*
X0039597Y0393355D01*
X0039659Y0393473D01*
X0039725Y0393588D01*
X0039795Y0393702D01*
X0039868Y0393814D01*
X0039944Y0393923D01*
X0040023Y0394031D01*
X0040106Y0394135D01*
X0040191Y0394238D01*
X0040280Y0394337D01*
X0040371Y0394434D01*
X0040466Y0394529D01*
X0040563Y0394620D01*
X0040662Y0394709D01*
X0040765Y0394794D01*
X0040869Y0394877D01*
X0040977Y0394956D01*
X0041086Y0395032D01*
X0041198Y0395105D01*
X0041312Y0395175D01*
X0041427Y0395241D01*
X0041545Y0395303D01*
X0041665Y0395363D01*
X0041786Y0395418D01*
X0041909Y0395470D01*
X0042033Y0395518D01*
X0042159Y0395563D01*
X0042286Y0395604D01*
X0042414Y0395641D01*
X0042543Y0395674D01*
X0042673Y0395704D01*
X0042804Y0395729D01*
X0042936Y0395751D01*
X0043068Y0395768D01*
X0043200Y0395782D01*
X0043333Y0395792D01*
X0043467Y0395798D01*
X0043600Y0395800D01*
X0087600Y0395800D01*
X0087600Y0379300D01*
X0118100Y0379300D01*
X0118100Y0395800D01*
X0239600Y0395800D01*
X0239746Y0395798D01*
X0239893Y0395792D01*
X0240039Y0395782D01*
X0240185Y0395769D01*
X0240330Y0395751D01*
X0240475Y0395730D01*
X0240619Y0395705D01*
X0240763Y0395676D01*
X0240905Y0395643D01*
X0241047Y0395606D01*
X0241188Y0395566D01*
X0241327Y0395522D01*
X0241466Y0395474D01*
X0241603Y0395422D01*
X0241739Y0395367D01*
X0241873Y0395308D01*
X0242005Y0395246D01*
X0242136Y0395180D01*
X0242265Y0395111D01*
X0242392Y0395039D01*
X0242517Y0394963D01*
X0242640Y0394883D01*
X0242761Y0394801D01*
X0242880Y0394715D01*
X0242996Y0394626D01*
X0243110Y0394534D01*
X0243222Y0394439D01*
X0243331Y0394341D01*
X0243437Y0394241D01*
X0243541Y0394137D01*
X0243641Y0394031D01*
X0243739Y0393922D01*
X0243834Y0393810D01*
X0243926Y0393696D01*
X0244015Y0393580D01*
X0244101Y0393461D01*
X0244183Y0393340D01*
X0244263Y0393217D01*
X0244339Y0393092D01*
X0244411Y0392965D01*
X0244480Y0392836D01*
X0244546Y0392705D01*
X0244608Y0392573D01*
X0244667Y0392439D01*
X0244722Y0392303D01*
X0244774Y0392166D01*
X0244822Y0392027D01*
X0244866Y0391888D01*
X0244906Y0391747D01*
X0244943Y0391605D01*
X0244976Y0391463D01*
X0245005Y0391319D01*
X0245030Y0391175D01*
X0245051Y0391030D01*
X0245069Y0390885D01*
X0245082Y0390739D01*
X0245092Y0390593D01*
X0245098Y0390446D01*
X0245100Y0390300D01*
X0245100Y0115800D01*
X0220100Y0115800D01*
X0220100Y0090800D01*
X0064100Y0090800D01*
X0227700Y0348600D02*
X0228500Y0348600D01*
X0232400Y0350800D02*
X0232400Y0354000D01*
X0230300Y0354000D01*
X0225900Y0354000D02*
X0223800Y0354000D01*
X0223800Y0350800D01*
X0225000Y0351200D02*
X0225005Y0351266D01*
X0225006Y0351333D01*
X0225003Y0351400D01*
X0224997Y0351466D01*
X0224987Y0351532D01*
X0224973Y0351597D01*
X0224955Y0351661D01*
X0224934Y0351724D01*
X0224910Y0351786D01*
X0224882Y0351847D01*
X0224850Y0351905D01*
X0224815Y0351962D01*
X0224777Y0352017D01*
X0224737Y0352070D01*
X0224693Y0352120D01*
X0224646Y0352168D01*
X0224597Y0352213D01*
X0224545Y0352255D01*
X0224491Y0352294D01*
X0224435Y0352330D01*
X0224377Y0352363D01*
X0224318Y0352392D01*
X0224256Y0352418D01*
X0224194Y0352441D01*
X0224130Y0352460D01*
X0224065Y0352475D01*
X0223999Y0352487D01*
X0223933Y0352495D01*
X0223867Y0352499D01*
X0223800Y0352500D01*
D11*
X0224301Y0364457D02*
X0220757Y0364457D01*
X0218002Y0367607D01*
X0219576Y0369182D01*
X0220757Y0368001D01*
X0224301Y0364457D01*
X0240443Y0364457D01*
X0240443Y0384143D01*
X0220757Y0384143D01*
X0220757Y0368001D01*
X0220757Y0364457D01*
X0211730Y0372426D02*
X0072754Y0372426D01*
X0072754Y0140930D01*
X0211730Y0140930D01*
X0211730Y0372426D01*
X0219604Y0380300D02*
X0051100Y0380300D01*
X0051100Y0256678D01*
X0061050Y0256678D01*
X0063732Y0256678D02*
X0064273Y0256678D01*
X0066955Y0256678D02*
X0076905Y0256678D01*
X0079588Y0256678D02*
X0080128Y0256678D01*
X0082811Y0256678D02*
X0092761Y0256678D01*
X0095443Y0256678D02*
X0095984Y0256678D01*
X0098666Y0256678D02*
X0108616Y0256678D01*
X0111299Y0256678D02*
X0111839Y0256678D01*
X0114522Y0256678D02*
X0124472Y0256678D01*
X0127154Y0256678D02*
X0127695Y0256678D01*
X0130377Y0256678D02*
X0140327Y0256678D01*
X0143009Y0256678D02*
X0143550Y0256678D01*
X0146232Y0256678D02*
X0156182Y0256678D01*
X0158865Y0256678D02*
X0159405Y0256678D01*
X0162088Y0256678D02*
X0172038Y0256678D01*
X0174720Y0256678D02*
X0175261Y0256678D01*
X0177943Y0256678D02*
X0187893Y0256678D01*
X0190576Y0256678D02*
X0191116Y0256678D01*
X0193799Y0256678D02*
X0203749Y0256678D01*
X0206431Y0256678D02*
X0206972Y0256678D01*
X0209654Y0256678D02*
X0219604Y0256678D01*
X0219604Y0380300D01*
X0223827Y0374300D02*
X0223829Y0374466D01*
X0223835Y0374632D01*
X0223845Y0374798D01*
X0223860Y0374964D01*
X0223878Y0375129D01*
X0223900Y0375294D01*
X0223927Y0375458D01*
X0223957Y0375621D01*
X0223992Y0375784D01*
X0224030Y0375946D01*
X0224072Y0376106D01*
X0224119Y0376266D01*
X0224169Y0376425D01*
X0224223Y0376582D01*
X0224281Y0376738D01*
X0224343Y0376892D01*
X0224408Y0377045D01*
X0224477Y0377196D01*
X0224550Y0377345D01*
X0224627Y0377493D01*
X0224707Y0377638D01*
X0224791Y0377782D01*
X0224878Y0377924D01*
X0224968Y0378063D01*
X0225062Y0378200D01*
X0225160Y0378335D01*
X0225261Y0378467D01*
X0225364Y0378597D01*
X0225471Y0378724D01*
X0225582Y0378848D01*
X0225695Y0378970D01*
X0225811Y0379089D01*
X0225930Y0379205D01*
X0226052Y0379318D01*
X0226176Y0379429D01*
X0226303Y0379536D01*
X0226433Y0379639D01*
X0226565Y0379740D01*
X0226700Y0379838D01*
X0226837Y0379932D01*
X0226976Y0380022D01*
X0227118Y0380109D01*
X0227262Y0380193D01*
X0227407Y0380273D01*
X0227555Y0380350D01*
X0227704Y0380423D01*
X0227855Y0380492D01*
X0228008Y0380557D01*
X0228162Y0380619D01*
X0228318Y0380677D01*
X0228475Y0380731D01*
X0228634Y0380781D01*
X0228794Y0380828D01*
X0228954Y0380870D01*
X0229116Y0380908D01*
X0229279Y0380943D01*
X0229442Y0380973D01*
X0229606Y0381000D01*
X0229771Y0381022D01*
X0229936Y0381040D01*
X0230102Y0381055D01*
X0230268Y0381065D01*
X0230434Y0381071D01*
X0230600Y0381073D01*
X0230766Y0381071D01*
X0230932Y0381065D01*
X0231098Y0381055D01*
X0231264Y0381040D01*
X0231429Y0381022D01*
X0231594Y0381000D01*
X0231758Y0380973D01*
X0231921Y0380943D01*
X0232084Y0380908D01*
X0232246Y0380870D01*
X0232406Y0380828D01*
X0232566Y0380781D01*
X0232725Y0380731D01*
X0232882Y0380677D01*
X0233038Y0380619D01*
X0233192Y0380557D01*
X0233345Y0380492D01*
X0233496Y0380423D01*
X0233645Y0380350D01*
X0233793Y0380273D01*
X0233938Y0380193D01*
X0234082Y0380109D01*
X0234224Y0380022D01*
X0234363Y0379932D01*
X0234500Y0379838D01*
X0234635Y0379740D01*
X0234767Y0379639D01*
X0234897Y0379536D01*
X0235024Y0379429D01*
X0235148Y0379318D01*
X0235270Y0379205D01*
X0235389Y0379089D01*
X0235505Y0378970D01*
X0235618Y0378848D01*
X0235729Y0378724D01*
X0235836Y0378597D01*
X0235939Y0378467D01*
X0236040Y0378335D01*
X0236138Y0378200D01*
X0236232Y0378063D01*
X0236322Y0377924D01*
X0236409Y0377782D01*
X0236493Y0377638D01*
X0236573Y0377493D01*
X0236650Y0377345D01*
X0236723Y0377196D01*
X0236792Y0377045D01*
X0236857Y0376892D01*
X0236919Y0376738D01*
X0236977Y0376582D01*
X0237031Y0376425D01*
X0237081Y0376266D01*
X0237128Y0376106D01*
X0237170Y0375946D01*
X0237208Y0375784D01*
X0237243Y0375621D01*
X0237273Y0375458D01*
X0237300Y0375294D01*
X0237322Y0375129D01*
X0237340Y0374964D01*
X0237355Y0374798D01*
X0237365Y0374632D01*
X0237371Y0374466D01*
X0237373Y0374300D01*
X0237371Y0374134D01*
X0237365Y0373968D01*
X0237355Y0373802D01*
X0237340Y0373636D01*
X0237322Y0373471D01*
X0237300Y0373306D01*
X0237273Y0373142D01*
X0237243Y0372979D01*
X0237208Y0372816D01*
X0237170Y0372654D01*
X0237128Y0372494D01*
X0237081Y0372334D01*
X0237031Y0372175D01*
X0236977Y0372018D01*
X0236919Y0371862D01*
X0236857Y0371708D01*
X0236792Y0371555D01*
X0236723Y0371404D01*
X0236650Y0371255D01*
X0236573Y0371107D01*
X0236493Y0370962D01*
X0236409Y0370818D01*
X0236322Y0370676D01*
X0236232Y0370537D01*
X0236138Y0370400D01*
X0236040Y0370265D01*
X0235939Y0370133D01*
X0235836Y0370003D01*
X0235729Y0369876D01*
X0235618Y0369752D01*
X0235505Y0369630D01*
X0235389Y0369511D01*
X0235270Y0369395D01*
X0235148Y0369282D01*
X0235024Y0369171D01*
X0234897Y0369064D01*
X0234767Y0368961D01*
X0234635Y0368860D01*
X0234500Y0368762D01*
X0234363Y0368668D01*
X0234224Y0368578D01*
X0234082Y0368491D01*
X0233938Y0368407D01*
X0233793Y0368327D01*
X0233645Y0368250D01*
X0233496Y0368177D01*
X0233345Y0368108D01*
X0233192Y0368043D01*
X0233038Y0367981D01*
X0232882Y0367923D01*
X0232725Y0367869D01*
X0232566Y0367819D01*
X0232406Y0367772D01*
X0232246Y0367730D01*
X0232084Y0367692D01*
X0231921Y0367657D01*
X0231758Y0367627D01*
X0231594Y0367600D01*
X0231429Y0367578D01*
X0231264Y0367560D01*
X0231098Y0367545D01*
X0230932Y0367535D01*
X0230766Y0367529D01*
X0230600Y0367527D01*
X0230434Y0367529D01*
X0230268Y0367535D01*
X0230102Y0367545D01*
X0229936Y0367560D01*
X0229771Y0367578D01*
X0229606Y0367600D01*
X0229442Y0367627D01*
X0229279Y0367657D01*
X0229116Y0367692D01*
X0228954Y0367730D01*
X0228794Y0367772D01*
X0228634Y0367819D01*
X0228475Y0367869D01*
X0228318Y0367923D01*
X0228162Y0367981D01*
X0228008Y0368043D01*
X0227855Y0368108D01*
X0227704Y0368177D01*
X0227555Y0368250D01*
X0227407Y0368327D01*
X0227262Y0368407D01*
X0227118Y0368491D01*
X0226976Y0368578D01*
X0226837Y0368668D01*
X0226700Y0368762D01*
X0226565Y0368860D01*
X0226433Y0368961D01*
X0226303Y0369064D01*
X0226176Y0369171D01*
X0226052Y0369282D01*
X0225930Y0369395D01*
X0225811Y0369511D01*
X0225695Y0369630D01*
X0225582Y0369752D01*
X0225471Y0369876D01*
X0225364Y0370003D01*
X0225261Y0370133D01*
X0225160Y0370265D01*
X0225062Y0370400D01*
X0224968Y0370537D01*
X0224878Y0370676D01*
X0224791Y0370818D01*
X0224707Y0370962D01*
X0224627Y0371107D01*
X0224550Y0371255D01*
X0224477Y0371404D01*
X0224408Y0371555D01*
X0224343Y0371708D01*
X0224281Y0371862D01*
X0224223Y0372018D01*
X0224169Y0372175D01*
X0224119Y0372334D01*
X0224072Y0372494D01*
X0224030Y0372654D01*
X0223992Y0372816D01*
X0223957Y0372979D01*
X0223927Y0373142D01*
X0223900Y0373306D01*
X0223878Y0373471D01*
X0223860Y0373636D01*
X0223845Y0373802D01*
X0223835Y0373968D01*
X0223829Y0374134D01*
X0223827Y0374300D01*
X0240165Y0354423D02*
X0240482Y0354423D01*
X0240799Y0354106D01*
X0240799Y0353472D01*
X0240482Y0353155D01*
X0240165Y0353155D01*
X0239848Y0353472D01*
X0239848Y0354106D01*
X0240165Y0354423D01*
X0240799Y0354106D02*
X0241116Y0354423D01*
X0241433Y0354423D01*
X0241750Y0354106D01*
X0241750Y0353472D01*
X0241433Y0353155D01*
X0241116Y0353155D01*
X0240799Y0353472D01*
X0241750Y0352213D02*
X0241750Y0350945D01*
X0241750Y0351579D02*
X0239848Y0351579D01*
X0240482Y0350945D01*
X0240165Y0350003D02*
X0240799Y0350003D01*
X0241116Y0349686D01*
X0241116Y0348735D01*
X0241750Y0348735D02*
X0239848Y0348735D01*
X0239848Y0349686D01*
X0240165Y0350003D01*
X0241116Y0349369D02*
X0241750Y0350003D01*
X0229906Y0337552D02*
X0229272Y0337552D01*
X0228955Y0337235D01*
X0228955Y0336918D01*
X0229272Y0336601D01*
X0230223Y0336601D01*
X0230223Y0337235D02*
X0229906Y0337552D01*
X0230223Y0337235D02*
X0230223Y0335967D01*
X0229906Y0335650D01*
X0229272Y0335650D01*
X0228955Y0335967D01*
X0228013Y0335650D02*
X0226745Y0335650D01*
X0227379Y0335650D02*
X0227379Y0337552D01*
X0226745Y0336918D01*
X0225803Y0337235D02*
X0225803Y0336601D01*
X0225486Y0336284D01*
X0224535Y0336284D01*
X0224535Y0335650D02*
X0224535Y0337552D01*
X0225486Y0337552D01*
X0225803Y0337235D01*
X0225169Y0336284D02*
X0225803Y0335650D01*
X0223470Y0334956D02*
X0223470Y0321570D01*
X0237250Y0321570D01*
X0237250Y0334956D01*
X0223470Y0334956D01*
X0224163Y0333263D02*
X0224165Y0333326D01*
X0224171Y0333388D01*
X0224181Y0333450D01*
X0224194Y0333512D01*
X0224212Y0333572D01*
X0224233Y0333631D01*
X0224258Y0333689D01*
X0224287Y0333745D01*
X0224319Y0333799D01*
X0224354Y0333851D01*
X0224392Y0333900D01*
X0224434Y0333948D01*
X0224478Y0333992D01*
X0224526Y0334034D01*
X0224575Y0334072D01*
X0224627Y0334107D01*
X0224681Y0334139D01*
X0224737Y0334168D01*
X0224795Y0334193D01*
X0224854Y0334214D01*
X0224914Y0334232D01*
X0224976Y0334245D01*
X0225038Y0334255D01*
X0225100Y0334261D01*
X0225163Y0334263D01*
X0225226Y0334261D01*
X0225288Y0334255D01*
X0225350Y0334245D01*
X0225412Y0334232D01*
X0225472Y0334214D01*
X0225531Y0334193D01*
X0225589Y0334168D01*
X0225645Y0334139D01*
X0225699Y0334107D01*
X0225751Y0334072D01*
X0225800Y0334034D01*
X0225848Y0333992D01*
X0225892Y0333948D01*
X0225934Y0333900D01*
X0225972Y0333851D01*
X0226007Y0333799D01*
X0226039Y0333745D01*
X0226068Y0333689D01*
X0226093Y0333631D01*
X0226114Y0333572D01*
X0226132Y0333512D01*
X0226145Y0333450D01*
X0226155Y0333388D01*
X0226161Y0333326D01*
X0226163Y0333263D01*
X0226161Y0333200D01*
X0226155Y0333138D01*
X0226145Y0333076D01*
X0226132Y0333014D01*
X0226114Y0332954D01*
X0226093Y0332895D01*
X0226068Y0332837D01*
X0226039Y0332781D01*
X0226007Y0332727D01*
X0225972Y0332675D01*
X0225934Y0332626D01*
X0225892Y0332578D01*
X0225848Y0332534D01*
X0225800Y0332492D01*
X0225751Y0332454D01*
X0225699Y0332419D01*
X0225645Y0332387D01*
X0225589Y0332358D01*
X0225531Y0332333D01*
X0225472Y0332312D01*
X0225412Y0332294D01*
X0225350Y0332281D01*
X0225288Y0332271D01*
X0225226Y0332265D01*
X0225163Y0332263D01*
X0225100Y0332265D01*
X0225038Y0332271D01*
X0224976Y0332281D01*
X0224914Y0332294D01*
X0224854Y0332312D01*
X0224795Y0332333D01*
X0224737Y0332358D01*
X0224681Y0332387D01*
X0224627Y0332419D01*
X0224575Y0332454D01*
X0224526Y0332492D01*
X0224478Y0332534D01*
X0224434Y0332578D01*
X0224392Y0332626D01*
X0224354Y0332675D01*
X0224319Y0332727D01*
X0224287Y0332781D01*
X0224258Y0332837D01*
X0224233Y0332895D01*
X0224212Y0332954D01*
X0224194Y0333014D01*
X0224181Y0333076D01*
X0224171Y0333138D01*
X0224165Y0333200D01*
X0224163Y0333263D01*
X0227459Y0314929D02*
X0227142Y0314612D01*
X0227142Y0313344D01*
X0227459Y0313027D01*
X0228093Y0313027D01*
X0228410Y0313344D01*
X0229352Y0313027D02*
X0230620Y0313027D01*
X0229986Y0313027D02*
X0229986Y0314929D01*
X0229352Y0314295D01*
X0228410Y0314612D02*
X0228093Y0314929D01*
X0227459Y0314929D01*
X0231562Y0314612D02*
X0231879Y0314929D01*
X0232513Y0314929D01*
X0232830Y0314612D01*
X0231562Y0313344D01*
X0231879Y0313027D01*
X0232513Y0313027D01*
X0232830Y0313344D01*
X0232830Y0314612D01*
X0231562Y0314612D02*
X0231562Y0313344D01*
X0219604Y0256678D02*
X0219604Y0133056D01*
X0051100Y0133056D01*
X0051100Y0256678D01*
X0107643Y0130950D02*
X0106462Y0128981D01*
X0107643Y0128981D01*
X0107643Y0126619D01*
X0108037Y0126619D01*
X0108037Y0128981D01*
X0107643Y0128981D01*
X0108037Y0128981D01*
X0111974Y0128981D01*
X0110793Y0130950D01*
X0107643Y0130950D01*
X0107643Y0128981D02*
X0106462Y0128981D01*
X0104887Y0128981D01*
X0104887Y0126619D02*
X0107643Y0126619D01*
X0113155Y0126619D01*
X0113155Y0128981D02*
X0111974Y0128981D01*
X0108037Y0128981D01*
X0087049Y0119568D02*
X0087049Y0103032D01*
X0068151Y0103032D01*
X0068151Y0119568D01*
X0087049Y0119568D01*
X0083112Y0116024D02*
X0071694Y0116024D01*
X0077600Y0113269D02*
X0076419Y0111300D01*
X0077600Y0110906D02*
X0077600Y0106576D01*
X0083506Y0106576D01*
X0077600Y0106576D02*
X0071694Y0106576D01*
X0077600Y0113269D02*
X0077600Y0115631D01*
X0132651Y0115568D02*
X0132651Y0099032D01*
X0151549Y0099032D01*
X0151549Y0115568D01*
X0132651Y0115568D01*
X0136194Y0112024D02*
X0147612Y0112024D01*
X0142100Y0111631D02*
X0142100Y0109269D01*
X0140919Y0107300D01*
X0142100Y0106906D02*
X0142100Y0102576D01*
X0148006Y0102576D01*
X0142100Y0102576D02*
X0136194Y0102576D01*
X0170387Y0126619D02*
X0173143Y0126619D01*
X0173537Y0126619D01*
X0173537Y0128981D01*
X0173143Y0128981D01*
X0173143Y0126619D01*
X0178655Y0126619D01*
X0178655Y0128981D02*
X0177474Y0128981D01*
X0173537Y0128981D01*
X0177474Y0128981D01*
X0176293Y0130950D01*
X0173143Y0130950D01*
X0171962Y0128981D01*
X0173143Y0128981D01*
X0173537Y0128981D01*
X0173143Y0128981D02*
X0171962Y0128981D01*
X0170387Y0128981D01*
X0197151Y0119568D02*
X0197151Y0103032D01*
X0216049Y0103032D01*
X0216049Y0119568D01*
X0197151Y0119568D01*
X0200694Y0116024D02*
X0212112Y0116024D01*
X0206600Y0115631D02*
X0206600Y0113269D01*
X0205419Y0111300D01*
X0206600Y0110906D02*
X0206600Y0106576D01*
X0212506Y0106576D01*
X0206600Y0106576D02*
X0200694Y0106576D01*
X0220450Y0223603D02*
X0220450Y0251556D01*
X0244072Y0251556D01*
X0244072Y0223603D01*
X0220450Y0223603D01*
X0143557Y0381650D02*
X0140407Y0381650D01*
X0139226Y0383619D01*
X0143163Y0383619D01*
X0143163Y0385981D01*
X0143557Y0385981D01*
X0143557Y0383619D01*
X0144738Y0383619D01*
X0143557Y0381650D01*
X0143557Y0383619D02*
X0143163Y0383619D01*
X0139226Y0383619D01*
X0138045Y0383619D01*
X0138045Y0385981D02*
X0143557Y0385981D01*
X0146313Y0385981D01*
X0146313Y0383619D02*
X0144738Y0383619D01*
X0143557Y0383619D01*
X0143163Y0383619D01*
X0129223Y0387550D02*
X0127955Y0387550D01*
X0129223Y0388818D01*
X0129223Y0389135D01*
X0128906Y0389452D01*
X0128272Y0389452D01*
X0127955Y0389135D01*
X0127013Y0389135D02*
X0126696Y0389452D01*
X0126062Y0389452D01*
X0125745Y0389135D01*
X0124803Y0389135D02*
X0124803Y0388501D01*
X0124486Y0388184D01*
X0123535Y0388184D01*
X0123535Y0387550D02*
X0123535Y0389452D01*
X0124486Y0389452D01*
X0124803Y0389135D01*
X0124169Y0388184D02*
X0124803Y0387550D01*
X0125745Y0387550D02*
X0127013Y0388818D01*
X0127013Y0389135D01*
X0127013Y0387550D02*
X0125745Y0387550D01*
D12*
X0223298Y0359357D02*
X0223298Y0358636D01*
X0223659Y0358275D01*
X0223659Y0357543D02*
X0225102Y0357543D01*
X0225462Y0357182D01*
X0225462Y0356461D01*
X0225102Y0356100D01*
X0223659Y0356100D01*
X0223298Y0356461D01*
X0223298Y0357182D01*
X0223659Y0357543D01*
X0224741Y0356821D02*
X0225462Y0357543D01*
X0225462Y0358275D02*
X0224020Y0359718D01*
X0223659Y0359718D01*
X0223298Y0359357D01*
X0225462Y0359718D02*
X0225462Y0358275D01*
X0225263Y0320165D02*
X0225863Y0319564D01*
X0226464Y0320165D01*
X0226464Y0318363D01*
X0227105Y0318663D02*
X0227405Y0318363D01*
X0228005Y0318363D01*
X0228306Y0318663D01*
X0228306Y0318963D01*
X0228005Y0319264D01*
X0227405Y0319264D01*
X0227105Y0319564D01*
X0227105Y0319864D01*
X0227405Y0320165D01*
X0228005Y0320165D01*
X0228306Y0319864D01*
X0228946Y0320165D02*
X0228946Y0319264D01*
X0229547Y0319564D01*
X0229847Y0319564D01*
X0230147Y0319264D01*
X0230147Y0318663D01*
X0229847Y0318363D01*
X0229246Y0318363D01*
X0228946Y0318663D01*
X0228946Y0320165D02*
X0230147Y0320165D01*
X0230788Y0319264D02*
X0231688Y0319264D01*
X0231989Y0318963D01*
X0231989Y0318663D01*
X0231688Y0318363D01*
X0231088Y0318363D01*
X0230788Y0318663D01*
X0230788Y0319264D01*
X0231388Y0319864D01*
X0231989Y0320165D01*
X0232629Y0319864D02*
X0232930Y0320165D01*
X0233530Y0320165D01*
X0233830Y0319864D01*
X0233830Y0319564D01*
X0233530Y0319264D01*
X0233830Y0318963D01*
X0233830Y0318663D01*
X0233530Y0318363D01*
X0232930Y0318363D01*
X0232629Y0318663D01*
X0233230Y0319264D02*
X0233530Y0319264D01*
X0234471Y0318663D02*
X0234471Y0318363D01*
X0234471Y0318663D02*
X0235672Y0319864D01*
X0235672Y0320165D01*
X0234471Y0320165D01*
X0225263Y0320165D02*
X0225263Y0318363D01*
D13*
X0230213Y0328313D02*
X0230213Y0329214D01*
X0230513Y0328913D01*
X0230813Y0329214D01*
X0230813Y0328313D01*
X0231134Y0328313D02*
X0231734Y0328313D01*
X0232055Y0328313D02*
X0232055Y0328913D01*
X0232355Y0329214D01*
X0232655Y0328913D01*
X0232655Y0328313D01*
X0232975Y0328463D02*
X0233125Y0328313D01*
X0233426Y0328313D01*
X0233576Y0328463D01*
X0233576Y0328613D01*
X0233426Y0328763D01*
X0233125Y0328763D01*
X0232975Y0328913D01*
X0232975Y0329064D01*
X0233125Y0329214D01*
X0233426Y0329214D01*
X0233576Y0329064D01*
X0232655Y0328763D02*
X0232055Y0328763D01*
X0231734Y0329214D02*
X0231134Y0329214D01*
X0231134Y0328313D01*
X0231134Y0328763D02*
X0231434Y0328763D01*
D14*
X0234474Y0313587D02*
X0226600Y0313587D01*
X0226600Y0309257D01*
X0234474Y0309257D01*
X0234474Y0313587D01*
D15*
X0232156Y0311619D02*
X0231893Y0311619D01*
X0231893Y0311422D01*
X0232025Y0311488D01*
X0232091Y0311488D01*
X0232156Y0311422D01*
X0232156Y0311291D01*
X0232091Y0311225D01*
X0231959Y0311225D01*
X0231893Y0311291D01*
X0231794Y0311554D02*
X0231531Y0311291D01*
X0231531Y0311225D01*
X0231431Y0311291D02*
X0231365Y0311225D01*
X0231234Y0311225D01*
X0231168Y0311291D01*
X0231431Y0311554D01*
X0231431Y0311291D01*
X0231168Y0311291D02*
X0231168Y0311554D01*
X0231234Y0311619D01*
X0231365Y0311619D01*
X0231431Y0311554D01*
X0231531Y0311619D02*
X0231794Y0311619D01*
X0231794Y0311554D01*
X0231069Y0311619D02*
X0230937Y0311554D01*
X0230806Y0311422D01*
X0231003Y0311422D01*
X0231069Y0311357D01*
X0231069Y0311291D01*
X0231003Y0311225D01*
X0230872Y0311225D01*
X0230806Y0311291D01*
X0230806Y0311422D01*
X0230706Y0311225D02*
X0230443Y0311225D01*
X0230443Y0311619D01*
X0230344Y0311619D02*
X0230344Y0311225D01*
X0230081Y0311225D02*
X0230081Y0311619D01*
X0230212Y0311488D01*
X0230344Y0311619D01*
X0229981Y0311619D02*
X0229718Y0311619D01*
X0229718Y0311225D01*
X0229981Y0311225D01*
X0229850Y0311422D02*
X0229718Y0311422D01*
X0229619Y0311357D02*
X0229619Y0311619D01*
X0229619Y0311357D02*
X0229487Y0311225D01*
X0229356Y0311357D01*
X0229356Y0311619D01*
X0057747Y0195100D02*
X0057749Y0195208D01*
X0057755Y0195317D01*
X0057765Y0195425D01*
X0057779Y0195532D01*
X0057797Y0195639D01*
X0057818Y0195746D01*
X0057844Y0195851D01*
X0057874Y0195956D01*
X0057907Y0196059D01*
X0057944Y0196161D01*
X0057985Y0196261D01*
X0058029Y0196360D01*
X0058078Y0196458D01*
X0058129Y0196553D01*
X0058184Y0196646D01*
X0058243Y0196738D01*
X0058305Y0196827D01*
X0058370Y0196914D01*
X0058438Y0196998D01*
X0058509Y0197080D01*
X0058583Y0197159D01*
X0058660Y0197235D01*
X0058740Y0197309D01*
X0058823Y0197379D01*
X0058908Y0197447D01*
X0058995Y0197511D01*
X0059085Y0197572D01*
X0059177Y0197630D01*
X0059271Y0197684D01*
X0059367Y0197735D01*
X0059464Y0197782D01*
X0059564Y0197826D01*
X0059665Y0197866D01*
X0059767Y0197902D01*
X0059870Y0197934D01*
X0059975Y0197963D01*
X0060081Y0197987D01*
X0060187Y0198008D01*
X0060294Y0198025D01*
X0060402Y0198038D01*
X0060510Y0198047D01*
X0060619Y0198052D01*
X0060727Y0198053D01*
X0060836Y0198050D01*
X0060944Y0198043D01*
X0061052Y0198032D01*
X0061159Y0198017D01*
X0061266Y0197998D01*
X0061372Y0197975D01*
X0061477Y0197949D01*
X0061582Y0197918D01*
X0061684Y0197884D01*
X0061786Y0197846D01*
X0061886Y0197804D01*
X0061985Y0197759D01*
X0062082Y0197710D01*
X0062176Y0197657D01*
X0062269Y0197601D01*
X0062360Y0197542D01*
X0062449Y0197479D01*
X0062535Y0197414D01*
X0062619Y0197345D01*
X0062700Y0197273D01*
X0062778Y0197198D01*
X0062854Y0197120D01*
X0062927Y0197039D01*
X0062997Y0196956D01*
X0063063Y0196871D01*
X0063127Y0196783D01*
X0063187Y0196692D01*
X0063244Y0196600D01*
X0063297Y0196505D01*
X0063347Y0196409D01*
X0063393Y0196311D01*
X0063436Y0196211D01*
X0063475Y0196110D01*
X0063510Y0196007D01*
X0063542Y0195904D01*
X0063569Y0195799D01*
X0063593Y0195693D01*
X0063613Y0195586D01*
X0063629Y0195479D01*
X0063641Y0195371D01*
X0063649Y0195263D01*
X0063653Y0195154D01*
X0063653Y0195046D01*
X0063649Y0194937D01*
X0063641Y0194829D01*
X0063629Y0194721D01*
X0063613Y0194614D01*
X0063593Y0194507D01*
X0063569Y0194401D01*
X0063542Y0194296D01*
X0063510Y0194193D01*
X0063475Y0194090D01*
X0063436Y0193989D01*
X0063393Y0193889D01*
X0063347Y0193791D01*
X0063297Y0193695D01*
X0063244Y0193600D01*
X0063187Y0193508D01*
X0063127Y0193417D01*
X0063063Y0193329D01*
X0062997Y0193244D01*
X0062927Y0193161D01*
X0062854Y0193080D01*
X0062778Y0193002D01*
X0062700Y0192927D01*
X0062619Y0192855D01*
X0062535Y0192786D01*
X0062449Y0192721D01*
X0062360Y0192658D01*
X0062269Y0192599D01*
X0062177Y0192543D01*
X0062082Y0192490D01*
X0061985Y0192441D01*
X0061886Y0192396D01*
X0061786Y0192354D01*
X0061684Y0192316D01*
X0061582Y0192282D01*
X0061477Y0192251D01*
X0061372Y0192225D01*
X0061266Y0192202D01*
X0061159Y0192183D01*
X0061052Y0192168D01*
X0060944Y0192157D01*
X0060836Y0192150D01*
X0060727Y0192147D01*
X0060619Y0192148D01*
X0060510Y0192153D01*
X0060402Y0192162D01*
X0060294Y0192175D01*
X0060187Y0192192D01*
X0060081Y0192213D01*
X0059975Y0192237D01*
X0059870Y0192266D01*
X0059767Y0192298D01*
X0059665Y0192334D01*
X0059564Y0192374D01*
X0059464Y0192418D01*
X0059367Y0192465D01*
X0059271Y0192516D01*
X0059177Y0192570D01*
X0059085Y0192628D01*
X0058995Y0192689D01*
X0058908Y0192753D01*
X0058823Y0192821D01*
X0058740Y0192891D01*
X0058660Y0192965D01*
X0058583Y0193041D01*
X0058509Y0193120D01*
X0058438Y0193202D01*
X0058370Y0193286D01*
X0058305Y0193373D01*
X0058243Y0193462D01*
X0058184Y0193554D01*
X0058129Y0193647D01*
X0058078Y0193742D01*
X0058029Y0193840D01*
X0057985Y0193939D01*
X0057944Y0194039D01*
X0057907Y0194141D01*
X0057874Y0194244D01*
X0057844Y0194349D01*
X0057818Y0194454D01*
X0057797Y0194561D01*
X0057779Y0194668D01*
X0057765Y0194775D01*
X0057755Y0194883D01*
X0057749Y0194992D01*
X0057747Y0195100D01*
D16*
X0224500Y0373200D02*
X0226435Y0373200D01*
X0227447Y0374651D02*
X0229381Y0374651D01*
X0228898Y0373200D02*
X0228898Y0376102D01*
X0227447Y0374651D01*
X0224500Y0376102D02*
X0224500Y0373200D01*
M02*
