%
M48
M72
T01C0.01200
T02C0.01378
T03C0.03150
T04C0.03543
T05C0.05906
%
T01
X71100Y390000
X75100Y392500
X71100Y385000
X71100Y380000
X71100Y374500
X71100Y370000
X71100Y364500
X75300Y363800
X71100Y359500
X78500Y358600
X84500Y371600
X94900Y361700
X106200Y352100
X106200Y347800
X97900Y343900
X91100Y338400
X82000Y330300
X71100Y311500
X71100Y305500
X71100Y300000
X71100Y294500
X71100Y289000
X71100Y283500
X71100Y277500
X71100Y271000
X71100Y265500
X71100Y260000
X71100Y254500
X64600Y254500
X59100Y254500
X53600Y254500
X58700Y223400
X61100Y211400
X50500Y181000
X60700Y166500
X63900Y140300
X85600Y111800
X107300Y106400
X112600Y123800
X116600Y123800
X124500Y128200
X115600Y135300
X96700Y150600
X114900Y165300
X120900Y184200
X121100Y192000
X129100Y199500
X129100Y203000
X137600Y211200
X144000Y222700
X154200Y230500
X154500Y243100
X161700Y243200
X169600Y254000
X160900Y258800
X167700Y272000
X178300Y266600
X183734Y270150
X190000Y262867
X191100Y255500
X191100Y252000
X188100Y248000
X188100Y237000
X184100Y237000
X180100Y237000
X172100Y237000
X172100Y232000
X167100Y225300
X159200Y218600
X159100Y212600
X159100Y209000
X162100Y206500
X152600Y192300
X152600Y188800
X150000Y182800
X145200Y182400
X143100Y186800
X139600Y186800
X140300Y180700
X144100Y174800
X144100Y171300
X150400Y164800
X156100Y161400
X164100Y158600
X162600Y150800
X162600Y143800
X157600Y143800
X157600Y150800
X158900Y132300
X173100Y142300
X178300Y141200
X177600Y146300
X173100Y149300
X182600Y159000
X179100Y163300
X173200Y165000
X168200Y170300
X163100Y172300
X163100Y175800
X178400Y192800
X176600Y200700
X181400Y207700
X183600Y211000
X179800Y223000
X183800Y227000
X194600Y227300
X198100Y223800
X206600Y228600
X213600Y240800
X217600Y236000
X217600Y232000
X217600Y227500
X224100Y221500
X230100Y221500
X235600Y221500
X241100Y221500
X233100Y211300
X221516Y205316
X204000Y212500
X200600Y202800
X201600Y190000
X201600Y185500
X201600Y181500
X190100Y179800
X196300Y158700
X184700Y139000
X193300Y135800
X184600Y115500
X181100Y115500
X175700Y104700
X149600Y106800
X131100Y166300
X129100Y179300
X129100Y182800
X145700Y196400
X124200Y223974
X109900Y228500
X109600Y238300
X116900Y239400
X116400Y254400
X126000Y270700
X127600Y265300
X127600Y259300
X128100Y244800
X142000Y247000
X149300Y248500
X149600Y255500
X146100Y274000
X146100Y279000
X146100Y284000
X152100Y287500
X157100Y285300
X161100Y287500
X166600Y287500
X168600Y296000
X171600Y299800
X173900Y305000
X176600Y308800
X173500Y310900
X173500Y314000
X167000Y313500
X166300Y325400
X169600Y326600
X183734Y308505
X192100Y309500
X192100Y306000
X189600Y296000
X195600Y295000
X200100Y292000
X192600Y286500
X187600Y288000
X184100Y283300
X176600Y282300
X179600Y296000
X161100Y296500
X153100Y297000
X149600Y300500
X149400Y306700
X156000Y324700
X143300Y328900
X135500Y323800
X116700Y316900
X109700Y332500
X98000Y325600
X91100Y299800
X85700Y299900
X97700Y274100
X95600Y270000
X95300Y238200
X84600Y230800
X84200Y199000
X101300Y188400
X105900Y205700
X83000Y174600
X45700Y215100
X117300Y301200
X121600Y281900
X139500Y278400
X189400Y326400
X197500Y321700
X206200Y324600
X214300Y314800
X222100Y313500
X221100Y331300
X216100Y337800
X222600Y345900
X222600Y348700
X213500Y353000
X205600Y347500
X198400Y342800
X198800Y336500
X193100Y353000
X182600Y358500
X174900Y363300
X175100Y370500
X172600Y377500
X171000Y384600
X166400Y388400
X164600Y375800
X151600Y376800
X141400Y361000
X141500Y354100
X125600Y379300
X114800Y374000
X125600Y389300
X183900Y381400
X189100Y387500
X194600Y384500
X194600Y376500
X201100Y370000
X204300Y376700
X210800Y388200
X208600Y364000
X231100Y361400
X230300Y373800
X231000Y390900
X229600Y336800
X239100Y325800
X237100Y300000
X240100Y296500
X226600Y272000
X222600Y272000
X221100Y275200
X218600Y272000
X222300Y262100
X214300Y261700
X213600Y252500
X218100Y250000
X218100Y245500
X221100Y254000
X226100Y254000
X231100Y254000
X236100Y254000
X241100Y254000
X207100Y285500
X203100Y277500
X202600Y255500
X202600Y251500
X202600Y247500
X234600Y183500
X234600Y179000
X234600Y175000
X233600Y157500
X231600Y145300
X234700Y139200
X224700Y139700
X222600Y151300
X216100Y160500
X212300Y130700
X222300Y127300
X231000Y119100
T02
X169600Y373800
X216100Y367800
X206100Y299800
X191300Y299700
X149600Y262867
X121200Y267967
X154800Y211400
X151100Y205300
X161600Y194800
X134100Y193300
X134100Y188300
X130100Y188300
X130100Y193300
X149100Y127300
X207100Y178300
T03
X232313Y295312
X232313Y266965
T04
X237628Y285863
X237628Y276414
T05
X60700Y195100
M30
