G75*
%MOIN*%
%OFA0B0*%
%FSLAX25Y25*%
%IPPOS*%
%LPD*%
%AMOC8*
5,1,8,0,0,1.08239X$1,22.5*
%
%ADD10C,0.00600*%
%ADD11R,0.04331X0.03937*%
%ADD12C,0.05150*%
%ADD13C,0.05543*%
%ADD14C,0.00394*%
%ADD15R,0.03937X0.03937*%
%ADD16R,0.03543X0.01378*%
%ADD17R,0.03937X0.01378*%
%ADD18R,0.03543X0.05906*%
%ADD19R,0.01800X0.04600*%
%ADD20R,0.03937X0.04331*%
%ADD21R,0.05906X0.03150*%
%ADD22R,0.03346X0.02756*%
%ADD23C,0.00000*%
%ADD24C,0.02400*%
%ADD25C,0.01200*%
%ADD26C,0.02500*%
%ADD27C,0.02578*%
%ADD28C,0.00800*%
%ADD29C,0.00900*%
%ADD30C,0.02000*%
%ADD31C,0.01500*%
%ADD32C,0.03000*%
%ADD33C,0.01000*%
D10*
X0064100Y0090800D02*
X0064100Y0116300D01*
X0039100Y0116300D01*
X0039100Y0231500D01*
X0048100Y0233500D01*
X0048000Y0279400D01*
X0039000Y0280900D01*
X0039100Y0391300D01*
X0039102Y0391433D01*
X0039108Y0391567D01*
X0039118Y0391700D01*
X0039132Y0391832D01*
X0039149Y0391964D01*
X0039171Y0392096D01*
X0039196Y0392227D01*
X0039226Y0392357D01*
X0039259Y0392486D01*
X0039296Y0392614D01*
X0039337Y0392741D01*
X0039382Y0392867D01*
X0039430Y0392991D01*
X0039482Y0393114D01*
X0039537Y0393235D01*
X0039597Y0393355D01*
X0039659Y0393473D01*
X0039725Y0393588D01*
X0039795Y0393702D01*
X0039868Y0393814D01*
X0039944Y0393923D01*
X0040023Y0394031D01*
X0040106Y0394135D01*
X0040191Y0394238D01*
X0040280Y0394337D01*
X0040371Y0394434D01*
X0040466Y0394529D01*
X0040563Y0394620D01*
X0040662Y0394709D01*
X0040765Y0394794D01*
X0040869Y0394877D01*
X0040977Y0394956D01*
X0041086Y0395032D01*
X0041198Y0395105D01*
X0041312Y0395175D01*
X0041427Y0395241D01*
X0041545Y0395303D01*
X0041665Y0395363D01*
X0041786Y0395418D01*
X0041909Y0395470D01*
X0042033Y0395518D01*
X0042159Y0395563D01*
X0042286Y0395604D01*
X0042414Y0395641D01*
X0042543Y0395674D01*
X0042673Y0395704D01*
X0042804Y0395729D01*
X0042936Y0395751D01*
X0043068Y0395768D01*
X0043200Y0395782D01*
X0043333Y0395792D01*
X0043467Y0395798D01*
X0043600Y0395800D01*
X0087600Y0395800D01*
X0087600Y0379300D01*
X0118100Y0379300D01*
X0118100Y0395800D01*
X0239600Y0395800D01*
X0239746Y0395798D01*
X0239893Y0395792D01*
X0240039Y0395782D01*
X0240185Y0395769D01*
X0240330Y0395751D01*
X0240475Y0395730D01*
X0240619Y0395705D01*
X0240763Y0395676D01*
X0240905Y0395643D01*
X0241047Y0395606D01*
X0241188Y0395566D01*
X0241327Y0395522D01*
X0241466Y0395474D01*
X0241603Y0395422D01*
X0241739Y0395367D01*
X0241873Y0395308D01*
X0242005Y0395246D01*
X0242136Y0395180D01*
X0242265Y0395111D01*
X0242392Y0395039D01*
X0242517Y0394963D01*
X0242640Y0394883D01*
X0242761Y0394801D01*
X0242880Y0394715D01*
X0242996Y0394626D01*
X0243110Y0394534D01*
X0243222Y0394439D01*
X0243331Y0394341D01*
X0243437Y0394241D01*
X0243541Y0394137D01*
X0243641Y0394031D01*
X0243739Y0393922D01*
X0243834Y0393810D01*
X0243926Y0393696D01*
X0244015Y0393580D01*
X0244101Y0393461D01*
X0244183Y0393340D01*
X0244263Y0393217D01*
X0244339Y0393092D01*
X0244411Y0392965D01*
X0244480Y0392836D01*
X0244546Y0392705D01*
X0244608Y0392573D01*
X0244667Y0392439D01*
X0244722Y0392303D01*
X0244774Y0392166D01*
X0244822Y0392027D01*
X0244866Y0391888D01*
X0244906Y0391747D01*
X0244943Y0391605D01*
X0244976Y0391463D01*
X0245005Y0391319D01*
X0245030Y0391175D01*
X0245051Y0391030D01*
X0245069Y0390885D01*
X0245082Y0390739D01*
X0245092Y0390593D01*
X0245098Y0390446D01*
X0245100Y0390300D01*
X0245100Y0115800D01*
X0220100Y0115800D01*
X0220100Y0090800D01*
X0064100Y0090800D01*
X0070218Y0104804D02*
X0084982Y0104804D01*
X0084982Y0111182D01*
X0085600Y0111800D01*
X0115600Y0135300D02*
X0117600Y0135300D01*
X0124800Y0142500D01*
X0124800Y0223374D01*
X0124200Y0223974D01*
X0126300Y0223882D02*
X0136300Y0223882D01*
X0136300Y0223300D02*
X0146000Y0213600D01*
X0155900Y0213600D01*
X0156700Y0212800D01*
X0156700Y0208800D01*
X0154249Y0206349D01*
X0154097Y0206500D01*
X0152996Y0206500D01*
X0152007Y0207489D01*
X0150193Y0207489D01*
X0148911Y0206207D01*
X0148911Y0204811D01*
X0137600Y0193500D01*
X0137600Y0189497D01*
X0136900Y0188797D01*
X0136400Y0188297D01*
X0136400Y0186144D01*
X0136319Y0186014D01*
X0136400Y0185663D01*
X0136400Y0185303D01*
X0136508Y0185195D01*
X0136542Y0185046D01*
X0136848Y0184855D01*
X0137103Y0184600D01*
X0137256Y0184600D01*
X0137600Y0184385D01*
X0137600Y0173200D01*
X0140400Y0170400D01*
X0140400Y0169303D01*
X0141103Y0168600D01*
X0141603Y0168100D01*
X0142700Y0168100D01*
X0156800Y0154000D01*
X0163700Y0154000D01*
X0166100Y0151600D01*
X0166100Y0143900D01*
X0163900Y0141700D01*
X0143900Y0141700D01*
X0141000Y0144600D01*
X0141000Y0154600D01*
X0126900Y0168700D01*
X0126900Y0198447D01*
X0128147Y0197200D01*
X0130053Y0197200D01*
X0131400Y0198547D01*
X0131400Y0200453D01*
X0130603Y0201250D01*
X0131400Y0202047D01*
X0131400Y0203953D01*
X0130053Y0205300D01*
X0128147Y0205300D01*
X0126900Y0204053D01*
X0126900Y0223100D01*
X0126300Y0223700D01*
X0126300Y0224844D01*
X0125070Y0226074D01*
X0123926Y0226074D01*
X0120000Y0230000D01*
X0120000Y0265500D01*
X0112000Y0273500D01*
X0112000Y0288500D01*
X0121700Y0298200D01*
X0121700Y0311400D01*
X0125100Y0314800D01*
X0140200Y0314800D01*
X0148100Y0322700D01*
X0148100Y0339900D01*
X0175580Y0368200D01*
X0176053Y0368200D01*
X0177400Y0369547D01*
X0177400Y0370075D01*
X0181600Y0374400D01*
X0181600Y0383600D01*
X0182800Y0384800D01*
X0186000Y0384800D01*
X0192824Y0377976D01*
X0192300Y0377453D01*
X0192300Y0375547D01*
X0193647Y0374200D01*
X0195553Y0374200D01*
X0196076Y0374724D01*
X0199324Y0371476D01*
X0198800Y0370953D01*
X0198800Y0369047D01*
X0200147Y0367700D01*
X0202053Y0367700D01*
X0202576Y0368224D01*
X0206300Y0364500D01*
X0206300Y0363047D01*
X0207647Y0361700D01*
X0209100Y0361700D01*
X0214300Y0356500D01*
X0217400Y0356500D01*
X0224500Y0349400D01*
X0224500Y0344200D01*
X0223400Y0343100D01*
X0223400Y0328100D01*
X0222000Y0326700D01*
X0219897Y0326700D01*
X0217300Y0329297D01*
X0217300Y0336030D01*
X0218200Y0336930D01*
X0218200Y0338670D01*
X0216970Y0339900D01*
X0215230Y0339900D01*
X0214400Y0339070D01*
X0214400Y0343200D01*
X0197600Y0360000D01*
X0184353Y0360000D01*
X0183553Y0360800D01*
X0181647Y0360800D01*
X0180847Y0360000D01*
X0180300Y0360000D01*
X0157100Y0336800D01*
X0157100Y0326570D01*
X0156870Y0326800D01*
X0155130Y0326800D01*
X0153900Y0325570D01*
X0153900Y0323830D01*
X0155130Y0322600D01*
X0155900Y0322600D01*
X0155900Y0317900D01*
X0124500Y0286500D01*
X0124500Y0272453D01*
X0123700Y0271653D01*
X0123700Y0269747D01*
X0125047Y0268400D01*
X0126953Y0268400D01*
X0127026Y0268474D01*
X0130900Y0264600D01*
X0130900Y0240300D01*
X0136300Y0234900D01*
X0136300Y0223300D01*
X0136317Y0223283D02*
X0126717Y0223283D01*
X0126900Y0222685D02*
X0136915Y0222685D01*
X0137514Y0222086D02*
X0126900Y0222086D01*
X0126900Y0221488D02*
X0138112Y0221488D01*
X0138711Y0220889D02*
X0126900Y0220889D01*
X0126900Y0220291D02*
X0139309Y0220291D01*
X0139908Y0219692D02*
X0126900Y0219692D01*
X0126900Y0219094D02*
X0140506Y0219094D01*
X0141105Y0218495D02*
X0126900Y0218495D01*
X0126900Y0217897D02*
X0141703Y0217897D01*
X0142302Y0217298D02*
X0126900Y0217298D01*
X0126900Y0216700D02*
X0142900Y0216700D01*
X0143499Y0216101D02*
X0126900Y0216101D01*
X0126900Y0215503D02*
X0144097Y0215503D01*
X0144696Y0214904D02*
X0126900Y0214904D01*
X0126900Y0214306D02*
X0145294Y0214306D01*
X0145893Y0213707D02*
X0126900Y0213707D01*
X0126900Y0213109D02*
X0136256Y0213109D01*
X0136647Y0213500D02*
X0135300Y0212153D01*
X0135300Y0210247D01*
X0136647Y0208900D01*
X0138553Y0208900D01*
X0139900Y0210247D01*
X0139900Y0212153D01*
X0138553Y0213500D01*
X0136647Y0213500D01*
X0135657Y0212510D02*
X0126900Y0212510D01*
X0126900Y0211912D02*
X0135300Y0211912D01*
X0135300Y0211313D02*
X0126900Y0211313D01*
X0126900Y0210715D02*
X0135300Y0210715D01*
X0135431Y0210116D02*
X0126900Y0210116D01*
X0126900Y0209518D02*
X0136030Y0209518D01*
X0136628Y0208919D02*
X0126900Y0208919D01*
X0126900Y0208321D02*
X0156221Y0208321D01*
X0156700Y0208919D02*
X0138572Y0208919D01*
X0139170Y0209518D02*
X0156700Y0209518D01*
X0156700Y0210116D02*
X0139769Y0210116D01*
X0139900Y0210715D02*
X0156700Y0210715D01*
X0156700Y0211313D02*
X0139900Y0211313D01*
X0139900Y0211912D02*
X0156700Y0211912D01*
X0156700Y0212510D02*
X0139543Y0212510D01*
X0138944Y0213109D02*
X0156391Y0213109D01*
X0155622Y0207722D02*
X0126900Y0207722D01*
X0126900Y0207124D02*
X0149828Y0207124D01*
X0149229Y0206525D02*
X0126900Y0206525D01*
X0126900Y0205927D02*
X0148911Y0205927D01*
X0148911Y0205328D02*
X0126900Y0205328D01*
X0126900Y0204730D02*
X0127577Y0204730D01*
X0126978Y0204131D02*
X0126900Y0204131D01*
X0130623Y0204730D02*
X0148830Y0204730D01*
X0148231Y0204131D02*
X0131222Y0204131D01*
X0131400Y0203532D02*
X0147632Y0203532D01*
X0147034Y0202934D02*
X0131400Y0202934D01*
X0131400Y0202335D02*
X0146435Y0202335D01*
X0145837Y0201737D02*
X0131090Y0201737D01*
X0130714Y0201138D02*
X0145238Y0201138D01*
X0144640Y0200540D02*
X0131313Y0200540D01*
X0131400Y0199941D02*
X0144041Y0199941D01*
X0143443Y0199343D02*
X0131400Y0199343D01*
X0131400Y0198744D02*
X0142844Y0198744D01*
X0142246Y0198146D02*
X0130999Y0198146D01*
X0130400Y0197547D02*
X0141647Y0197547D01*
X0141049Y0196949D02*
X0126900Y0196949D01*
X0126900Y0197547D02*
X0127800Y0197547D01*
X0127201Y0198146D02*
X0126900Y0198146D01*
X0126900Y0196350D02*
X0140450Y0196350D01*
X0139852Y0195752D02*
X0126900Y0195752D01*
X0126900Y0195153D02*
X0139253Y0195153D01*
X0138655Y0194555D02*
X0126900Y0194555D01*
X0126900Y0193956D02*
X0138056Y0193956D01*
X0137600Y0193358D02*
X0126900Y0193358D01*
X0126900Y0192759D02*
X0137600Y0192759D01*
X0137600Y0192161D02*
X0126900Y0192161D01*
X0126900Y0191562D02*
X0137600Y0191562D01*
X0137600Y0190964D02*
X0126900Y0190964D01*
X0126900Y0190365D02*
X0137600Y0190365D01*
X0137600Y0189767D02*
X0126900Y0189767D01*
X0126900Y0189168D02*
X0137271Y0189168D01*
X0136673Y0188570D02*
X0126900Y0188570D01*
X0126900Y0187971D02*
X0136400Y0187971D01*
X0136400Y0187373D02*
X0126900Y0187373D01*
X0126900Y0186774D02*
X0136400Y0186774D01*
X0136400Y0186176D02*
X0126900Y0186176D01*
X0126900Y0185577D02*
X0136400Y0185577D01*
X0136650Y0184979D02*
X0126900Y0184979D01*
X0126900Y0184380D02*
X0137600Y0184380D01*
X0137600Y0183782D02*
X0126900Y0183782D01*
X0126900Y0183183D02*
X0137600Y0183183D01*
X0137600Y0182585D02*
X0126900Y0182585D01*
X0126900Y0181986D02*
X0137600Y0181986D01*
X0137600Y0181388D02*
X0126900Y0181388D01*
X0126900Y0180789D02*
X0137600Y0180789D01*
X0137600Y0180191D02*
X0126900Y0180191D01*
X0126900Y0179592D02*
X0137600Y0179592D01*
X0137600Y0178994D02*
X0126900Y0178994D01*
X0126900Y0178395D02*
X0137600Y0178395D01*
X0137600Y0177797D02*
X0126900Y0177797D01*
X0126900Y0177198D02*
X0137600Y0177198D01*
X0137600Y0176599D02*
X0126900Y0176599D01*
X0126900Y0176001D02*
X0137600Y0176001D01*
X0137600Y0175402D02*
X0126900Y0175402D01*
X0126900Y0174804D02*
X0137600Y0174804D01*
X0137600Y0174205D02*
X0126900Y0174205D01*
X0126900Y0173607D02*
X0137600Y0173607D01*
X0137792Y0173008D02*
X0126900Y0173008D01*
X0126900Y0172410D02*
X0138390Y0172410D01*
X0138989Y0171811D02*
X0126900Y0171811D01*
X0126900Y0171213D02*
X0139587Y0171213D01*
X0140186Y0170614D02*
X0126900Y0170614D01*
X0126900Y0170016D02*
X0140400Y0170016D01*
X0140400Y0169417D02*
X0126900Y0169417D01*
X0126900Y0168819D02*
X0140884Y0168819D01*
X0141483Y0168220D02*
X0127380Y0168220D01*
X0127978Y0167622D02*
X0143178Y0167622D01*
X0143777Y0167023D02*
X0128577Y0167023D01*
X0129175Y0166425D02*
X0144375Y0166425D01*
X0144974Y0165826D02*
X0129774Y0165826D01*
X0130372Y0165228D02*
X0145572Y0165228D01*
X0146171Y0164629D02*
X0130971Y0164629D01*
X0131569Y0164031D02*
X0146769Y0164031D01*
X0147368Y0163432D02*
X0132168Y0163432D01*
X0132766Y0162834D02*
X0147966Y0162834D01*
X0148565Y0162235D02*
X0133365Y0162235D01*
X0133963Y0161637D02*
X0149163Y0161637D01*
X0149762Y0161038D02*
X0134562Y0161038D01*
X0135160Y0160440D02*
X0150360Y0160440D01*
X0150959Y0159841D02*
X0135759Y0159841D01*
X0136357Y0159243D02*
X0151557Y0159243D01*
X0152156Y0158644D02*
X0136956Y0158644D01*
X0137554Y0158046D02*
X0152754Y0158046D01*
X0153353Y0157447D02*
X0138153Y0157447D01*
X0138751Y0156849D02*
X0153951Y0156849D01*
X0154550Y0156250D02*
X0139350Y0156250D01*
X0139948Y0155652D02*
X0155148Y0155652D01*
X0155747Y0155053D02*
X0140547Y0155053D01*
X0141000Y0154455D02*
X0156345Y0154455D01*
X0163844Y0153856D02*
X0141000Y0153856D01*
X0141000Y0153258D02*
X0164442Y0153258D01*
X0165041Y0152659D02*
X0141000Y0152659D01*
X0141000Y0152061D02*
X0165639Y0152061D01*
X0166100Y0151462D02*
X0141000Y0151462D01*
X0141000Y0150863D02*
X0166100Y0150863D01*
X0166100Y0150265D02*
X0141000Y0150265D01*
X0141000Y0149666D02*
X0166100Y0149666D01*
X0166100Y0149068D02*
X0141000Y0149068D01*
X0141000Y0148469D02*
X0166100Y0148469D01*
X0166100Y0147871D02*
X0141000Y0147871D01*
X0141000Y0147272D02*
X0166100Y0147272D01*
X0166100Y0146674D02*
X0141000Y0146674D01*
X0141000Y0146075D02*
X0166100Y0146075D01*
X0166100Y0145477D02*
X0141000Y0145477D01*
X0141000Y0144878D02*
X0166100Y0144878D01*
X0166100Y0144280D02*
X0141320Y0144280D01*
X0141919Y0143681D02*
X0165881Y0143681D01*
X0165283Y0143083D02*
X0142517Y0143083D01*
X0143116Y0142484D02*
X0164684Y0142484D01*
X0164086Y0141886D02*
X0143714Y0141886D01*
X0142100Y0169300D02*
X0141600Y0169800D01*
X0141600Y0179030D01*
X0142400Y0179830D01*
X0142400Y0181570D01*
X0141600Y0182370D01*
X0141600Y0183300D01*
X0137600Y0185800D01*
X0137600Y0187800D01*
X0138100Y0188300D01*
X0146600Y0188300D01*
X0147100Y0187800D01*
X0147100Y0183470D01*
X0146070Y0184500D01*
X0144330Y0184500D01*
X0143100Y0183270D01*
X0143100Y0181530D01*
X0144330Y0180300D01*
X0146070Y0180300D01*
X0147100Y0181330D01*
X0147100Y0169800D01*
X0146600Y0169300D01*
X0142100Y0169300D01*
X0141983Y0169417D02*
X0146717Y0169417D01*
X0147100Y0170016D02*
X0141600Y0170016D01*
X0141600Y0170614D02*
X0147100Y0170614D01*
X0147100Y0171213D02*
X0141600Y0171213D01*
X0141600Y0171811D02*
X0147100Y0171811D01*
X0147100Y0172410D02*
X0141600Y0172410D01*
X0141600Y0173008D02*
X0147100Y0173008D01*
X0147100Y0173607D02*
X0141600Y0173607D01*
X0141600Y0174205D02*
X0147100Y0174205D01*
X0147100Y0174804D02*
X0141600Y0174804D01*
X0141600Y0175402D02*
X0147100Y0175402D01*
X0147100Y0176001D02*
X0141600Y0176001D01*
X0141600Y0176599D02*
X0147100Y0176599D01*
X0147100Y0177198D02*
X0141600Y0177198D01*
X0141600Y0177797D02*
X0147100Y0177797D01*
X0147100Y0178395D02*
X0141600Y0178395D01*
X0141600Y0178994D02*
X0147100Y0178994D01*
X0147100Y0179592D02*
X0142162Y0179592D01*
X0142400Y0180191D02*
X0147100Y0180191D01*
X0147100Y0180789D02*
X0146559Y0180789D01*
X0143841Y0180789D02*
X0142400Y0180789D01*
X0142400Y0181388D02*
X0143243Y0181388D01*
X0143100Y0181986D02*
X0141984Y0181986D01*
X0141600Y0182585D02*
X0143100Y0182585D01*
X0143100Y0183183D02*
X0141600Y0183183D01*
X0140829Y0183782D02*
X0143612Y0183782D01*
X0144210Y0184380D02*
X0139872Y0184380D01*
X0138914Y0184979D02*
X0147100Y0184979D01*
X0147100Y0185577D02*
X0137957Y0185577D01*
X0137600Y0186176D02*
X0147100Y0186176D01*
X0147100Y0186774D02*
X0137600Y0186774D01*
X0137600Y0187373D02*
X0147100Y0187373D01*
X0146929Y0187971D02*
X0137771Y0187971D01*
X0146190Y0184380D02*
X0147100Y0184380D01*
X0147100Y0183782D02*
X0146788Y0183782D01*
X0150600Y0186300D02*
X0159600Y0177300D01*
X0159600Y0170800D01*
X0161100Y0169300D01*
X0165100Y0169300D01*
X0166000Y0170200D01*
X0166000Y0171211D01*
X0166100Y0171311D01*
X0166100Y0176800D01*
X0155600Y0187300D01*
X0155600Y0193300D01*
X0155100Y0193800D01*
X0151600Y0193800D01*
X0150600Y0192800D01*
X0150600Y0186300D01*
X0150724Y0186176D02*
X0156724Y0186176D01*
X0156126Y0186774D02*
X0150600Y0186774D01*
X0150600Y0187373D02*
X0155600Y0187373D01*
X0155600Y0187971D02*
X0150600Y0187971D01*
X0150600Y0188570D02*
X0155600Y0188570D01*
X0155600Y0189168D02*
X0150600Y0189168D01*
X0150600Y0189767D02*
X0155600Y0189767D01*
X0155600Y0190365D02*
X0150600Y0190365D01*
X0150600Y0190964D02*
X0155600Y0190964D01*
X0155600Y0191562D02*
X0150600Y0191562D01*
X0150600Y0192161D02*
X0155600Y0192161D01*
X0155600Y0192759D02*
X0150600Y0192759D01*
X0151158Y0193358D02*
X0155542Y0193358D01*
X0161600Y0194800D02*
X0161600Y0197300D01*
X0153600Y0205300D01*
X0151100Y0205300D01*
X0152372Y0207124D02*
X0155024Y0207124D01*
X0154425Y0206525D02*
X0152971Y0206525D01*
X0151323Y0185577D02*
X0157323Y0185577D01*
X0157921Y0184979D02*
X0151921Y0184979D01*
X0152520Y0184380D02*
X0158520Y0184380D01*
X0159118Y0183782D02*
X0153118Y0183782D01*
X0153717Y0183183D02*
X0159717Y0183183D01*
X0160315Y0182585D02*
X0154315Y0182585D01*
X0154914Y0181986D02*
X0160914Y0181986D01*
X0161512Y0181388D02*
X0155512Y0181388D01*
X0156111Y0180789D02*
X0162111Y0180789D01*
X0162709Y0180191D02*
X0156709Y0180191D01*
X0157308Y0179592D02*
X0163308Y0179592D01*
X0163906Y0178994D02*
X0157906Y0178994D01*
X0158505Y0178395D02*
X0164505Y0178395D01*
X0165103Y0177797D02*
X0159103Y0177797D01*
X0159600Y0177198D02*
X0165702Y0177198D01*
X0166100Y0176599D02*
X0159600Y0176599D01*
X0159600Y0176001D02*
X0166100Y0176001D01*
X0166100Y0175402D02*
X0159600Y0175402D01*
X0159600Y0174804D02*
X0166100Y0174804D01*
X0166100Y0174205D02*
X0159600Y0174205D01*
X0159600Y0173607D02*
X0166100Y0173607D01*
X0166100Y0173008D02*
X0159600Y0173008D01*
X0159600Y0172410D02*
X0166100Y0172410D01*
X0166100Y0171811D02*
X0159600Y0171811D01*
X0159600Y0171213D02*
X0166002Y0171213D01*
X0166000Y0170614D02*
X0159786Y0170614D01*
X0160384Y0170016D02*
X0165816Y0170016D01*
X0165217Y0169417D02*
X0160983Y0169417D01*
X0168200Y0170300D02*
X0168600Y0170300D01*
X0168600Y0223800D01*
X0167100Y0225300D01*
X0171100Y0227300D02*
X0166200Y0232200D01*
X0166200Y0267700D01*
X0145100Y0288800D01*
X0145100Y0302400D01*
X0149400Y0306700D01*
X0146870Y0308870D02*
X0121700Y0308870D01*
X0121700Y0308272D02*
X0146272Y0308272D01*
X0145673Y0307673D02*
X0121700Y0307673D01*
X0121700Y0307075D02*
X0145075Y0307075D01*
X0144476Y0306476D02*
X0121700Y0306476D01*
X0121700Y0305878D02*
X0143878Y0305878D01*
X0143279Y0305279D02*
X0121700Y0305279D01*
X0121700Y0304681D02*
X0142681Y0304681D01*
X0142082Y0304082D02*
X0121700Y0304082D01*
X0121700Y0303484D02*
X0141484Y0303484D01*
X0140885Y0302885D02*
X0121700Y0302885D01*
X0121700Y0302287D02*
X0140287Y0302287D01*
X0139688Y0301688D02*
X0121700Y0301688D01*
X0121700Y0301090D02*
X0139090Y0301090D01*
X0138491Y0300491D02*
X0121700Y0300491D01*
X0121700Y0299893D02*
X0137893Y0299893D01*
X0137294Y0299294D02*
X0121700Y0299294D01*
X0121700Y0298696D02*
X0136696Y0298696D01*
X0136097Y0298097D02*
X0121597Y0298097D01*
X0120999Y0297499D02*
X0135499Y0297499D01*
X0134900Y0296900D02*
X0120400Y0296900D01*
X0119802Y0296302D02*
X0134302Y0296302D01*
X0133703Y0295703D02*
X0119203Y0295703D01*
X0118605Y0295105D02*
X0133105Y0295105D01*
X0132506Y0294506D02*
X0118006Y0294506D01*
X0117408Y0293908D02*
X0131908Y0293908D01*
X0131309Y0293309D02*
X0116809Y0293309D01*
X0116211Y0292711D02*
X0130711Y0292711D01*
X0130112Y0292112D02*
X0115612Y0292112D01*
X0115014Y0291514D02*
X0129514Y0291514D01*
X0128915Y0290915D02*
X0114415Y0290915D01*
X0113817Y0290317D02*
X0128317Y0290317D01*
X0127718Y0289718D02*
X0113218Y0289718D01*
X0112620Y0289120D02*
X0127120Y0289120D01*
X0126521Y0288521D02*
X0112021Y0288521D01*
X0112000Y0287923D02*
X0125923Y0287923D01*
X0125324Y0287324D02*
X0112000Y0287324D01*
X0112000Y0286726D02*
X0124726Y0286726D01*
X0124500Y0286127D02*
X0112000Y0286127D01*
X0112000Y0285529D02*
X0124500Y0285529D01*
X0124500Y0284930D02*
X0112000Y0284930D01*
X0112000Y0284332D02*
X0124500Y0284332D01*
X0124500Y0283733D02*
X0112000Y0283733D01*
X0112000Y0283134D02*
X0124500Y0283134D01*
X0124500Y0282536D02*
X0112000Y0282536D01*
X0112000Y0281937D02*
X0124500Y0281937D01*
X0124500Y0281339D02*
X0112000Y0281339D01*
X0112000Y0280740D02*
X0124500Y0280740D01*
X0124500Y0280142D02*
X0112000Y0280142D01*
X0112000Y0279543D02*
X0124500Y0279543D01*
X0124500Y0278945D02*
X0112000Y0278945D01*
X0112000Y0278346D02*
X0124500Y0278346D01*
X0124500Y0277748D02*
X0112000Y0277748D01*
X0112000Y0277149D02*
X0124500Y0277149D01*
X0124500Y0276551D02*
X0112000Y0276551D01*
X0112000Y0275952D02*
X0124500Y0275952D01*
X0124500Y0275354D02*
X0112000Y0275354D01*
X0112000Y0274755D02*
X0124500Y0274755D01*
X0124500Y0274157D02*
X0112000Y0274157D01*
X0112000Y0273558D02*
X0124500Y0273558D01*
X0124500Y0272960D02*
X0112540Y0272960D01*
X0113139Y0272361D02*
X0124409Y0272361D01*
X0123810Y0271763D02*
X0113737Y0271763D01*
X0114336Y0271164D02*
X0123700Y0271164D01*
X0123700Y0270566D02*
X0114934Y0270566D01*
X0115533Y0269967D02*
X0123700Y0269967D01*
X0124079Y0269369D02*
X0116131Y0269369D01*
X0116730Y0268770D02*
X0124677Y0268770D01*
X0127328Y0268172D02*
X0117328Y0268172D01*
X0117927Y0267573D02*
X0127927Y0267573D01*
X0128525Y0266975D02*
X0118525Y0266975D01*
X0119124Y0266376D02*
X0129124Y0266376D01*
X0129722Y0265778D02*
X0119722Y0265778D01*
X0120000Y0265179D02*
X0130321Y0265179D01*
X0130900Y0264581D02*
X0120000Y0264581D01*
X0120000Y0263982D02*
X0130900Y0263982D01*
X0130900Y0263384D02*
X0120000Y0263384D01*
X0120000Y0262785D02*
X0130900Y0262785D01*
X0130900Y0262187D02*
X0120000Y0262187D01*
X0120000Y0261588D02*
X0130900Y0261588D01*
X0130900Y0260990D02*
X0120000Y0260990D01*
X0120000Y0260391D02*
X0130900Y0260391D01*
X0130900Y0259793D02*
X0120000Y0259793D01*
X0120000Y0259194D02*
X0130900Y0259194D01*
X0130900Y0258596D02*
X0120000Y0258596D01*
X0120000Y0257997D02*
X0130900Y0257997D01*
X0130900Y0257399D02*
X0120000Y0257399D01*
X0120000Y0256800D02*
X0130900Y0256800D01*
X0130900Y0256201D02*
X0120000Y0256201D01*
X0120000Y0255603D02*
X0130900Y0255603D01*
X0130900Y0255004D02*
X0120000Y0255004D01*
X0120000Y0254406D02*
X0130900Y0254406D01*
X0130900Y0253807D02*
X0120000Y0253807D01*
X0120000Y0253209D02*
X0130900Y0253209D01*
X0130900Y0252610D02*
X0120000Y0252610D01*
X0120000Y0252012D02*
X0130900Y0252012D01*
X0130900Y0251413D02*
X0120000Y0251413D01*
X0120000Y0250815D02*
X0130900Y0250815D01*
X0130900Y0250216D02*
X0120000Y0250216D01*
X0120000Y0249618D02*
X0130900Y0249618D01*
X0130900Y0249019D02*
X0120000Y0249019D01*
X0120000Y0248421D02*
X0130900Y0248421D01*
X0130900Y0247822D02*
X0120000Y0247822D01*
X0120000Y0247224D02*
X0130900Y0247224D01*
X0130900Y0246625D02*
X0120000Y0246625D01*
X0120000Y0246027D02*
X0130900Y0246027D01*
X0130900Y0245428D02*
X0120000Y0245428D01*
X0120000Y0244830D02*
X0130900Y0244830D01*
X0130900Y0244231D02*
X0120000Y0244231D01*
X0120000Y0243633D02*
X0130900Y0243633D01*
X0130900Y0243034D02*
X0120000Y0243034D01*
X0120000Y0242436D02*
X0130900Y0242436D01*
X0130900Y0241837D02*
X0120000Y0241837D01*
X0120000Y0241239D02*
X0130900Y0241239D01*
X0130900Y0240640D02*
X0120000Y0240640D01*
X0120000Y0240042D02*
X0131158Y0240042D01*
X0131757Y0239443D02*
X0120000Y0239443D01*
X0120000Y0238845D02*
X0132355Y0238845D01*
X0132954Y0238246D02*
X0120000Y0238246D01*
X0120000Y0237648D02*
X0133552Y0237648D01*
X0134151Y0237049D02*
X0120000Y0237049D01*
X0120000Y0236451D02*
X0134749Y0236451D01*
X0135348Y0235852D02*
X0120000Y0235852D01*
X0120000Y0235254D02*
X0135946Y0235254D01*
X0136300Y0234655D02*
X0120000Y0234655D01*
X0120000Y0234057D02*
X0136300Y0234057D01*
X0136300Y0233458D02*
X0120000Y0233458D01*
X0120000Y0232860D02*
X0136300Y0232860D01*
X0136300Y0232261D02*
X0120000Y0232261D01*
X0120000Y0231663D02*
X0136300Y0231663D01*
X0136300Y0231064D02*
X0120000Y0231064D01*
X0120000Y0230466D02*
X0136300Y0230466D01*
X0136300Y0229867D02*
X0120133Y0229867D01*
X0120732Y0229268D02*
X0136300Y0229268D01*
X0136300Y0228670D02*
X0121330Y0228670D01*
X0121929Y0228071D02*
X0136300Y0228071D01*
X0136300Y0227473D02*
X0122527Y0227473D01*
X0123126Y0226874D02*
X0136300Y0226874D01*
X0136300Y0226276D02*
X0123724Y0226276D01*
X0125466Y0225677D02*
X0136300Y0225677D01*
X0136300Y0225079D02*
X0126065Y0225079D01*
X0126300Y0224480D02*
X0136300Y0224480D01*
X0171100Y0227300D02*
X0171100Y0156800D01*
X0189600Y0138300D01*
X0189600Y0121300D01*
X0199218Y0111682D01*
X0199218Y0104804D01*
X0213982Y0104804D01*
X0206400Y0127300D02*
X0222300Y0127300D01*
X0206400Y0127300D02*
X0197900Y0135800D01*
X0193300Y0135800D01*
X0149600Y0106800D02*
X0149600Y0104922D01*
X0149482Y0100804D01*
X0134718Y0100804D01*
X0200600Y0202800D02*
X0180400Y0223000D01*
X0179800Y0223000D01*
X0194600Y0227300D02*
X0196000Y0228700D01*
X0196000Y0282188D01*
X0221606Y0307794D01*
X0219500Y0309900D01*
X0219500Y0321200D01*
X0222626Y0324326D01*
X0226226Y0324326D01*
X0220574Y0324326D01*
X0221600Y0323300D01*
X0220574Y0324326D02*
X0216100Y0328800D01*
X0216100Y0337800D01*
X0217672Y0336402D02*
X0223400Y0336402D01*
X0223400Y0337001D02*
X0218200Y0337001D01*
X0218200Y0337599D02*
X0223400Y0337599D01*
X0223400Y0338198D02*
X0218200Y0338198D01*
X0218074Y0338796D02*
X0223400Y0338796D01*
X0223400Y0339395D02*
X0217475Y0339395D01*
X0214725Y0339395D02*
X0214400Y0339395D01*
X0214400Y0339993D02*
X0223400Y0339993D01*
X0223400Y0340592D02*
X0214400Y0340592D01*
X0214400Y0341190D02*
X0223400Y0341190D01*
X0223400Y0341789D02*
X0214400Y0341789D01*
X0214400Y0342387D02*
X0223400Y0342387D01*
X0223400Y0342986D02*
X0214400Y0342986D01*
X0214016Y0343584D02*
X0223884Y0343584D01*
X0224483Y0344183D02*
X0213417Y0344183D01*
X0212819Y0344781D02*
X0224500Y0344781D01*
X0224500Y0345380D02*
X0212220Y0345380D01*
X0211622Y0345978D02*
X0224500Y0345978D01*
X0224500Y0346577D02*
X0211023Y0346577D01*
X0210425Y0347175D02*
X0224500Y0347175D01*
X0224500Y0347774D02*
X0209826Y0347774D01*
X0209228Y0348372D02*
X0224500Y0348372D01*
X0224500Y0348971D02*
X0208629Y0348971D01*
X0208031Y0349569D02*
X0224331Y0349569D01*
X0223732Y0350168D02*
X0207432Y0350168D01*
X0206834Y0350766D02*
X0223134Y0350766D01*
X0222535Y0351365D02*
X0206235Y0351365D01*
X0205637Y0351963D02*
X0221937Y0351963D01*
X0221338Y0352562D02*
X0205038Y0352562D01*
X0204440Y0353160D02*
X0220740Y0353160D01*
X0220141Y0353759D02*
X0203841Y0353759D01*
X0203243Y0354357D02*
X0219543Y0354357D01*
X0218944Y0354956D02*
X0202644Y0354956D01*
X0202046Y0355554D02*
X0218346Y0355554D01*
X0217747Y0356153D02*
X0201447Y0356153D01*
X0200849Y0356751D02*
X0214049Y0356751D01*
X0213450Y0357350D02*
X0200250Y0357350D01*
X0199652Y0357948D02*
X0212852Y0357948D01*
X0212253Y0358547D02*
X0199053Y0358547D01*
X0198455Y0359145D02*
X0211655Y0359145D01*
X0211056Y0359744D02*
X0197856Y0359744D01*
X0195361Y0361243D02*
X0195361Y0367491D01*
X0195185Y0367667D01*
X0188936Y0367667D01*
X0188761Y0367491D01*
X0188761Y0361243D01*
X0188936Y0361067D01*
X0195185Y0361067D01*
X0195361Y0361243D01*
X0195361Y0361539D02*
X0209261Y0361539D01*
X0209859Y0360941D02*
X0168531Y0360941D01*
X0167950Y0360342D02*
X0181190Y0360342D01*
X0180044Y0359744D02*
X0167369Y0359744D01*
X0166788Y0359145D02*
X0179445Y0359145D01*
X0178847Y0358547D02*
X0166206Y0358547D01*
X0165625Y0357948D02*
X0178248Y0357948D01*
X0177650Y0357350D02*
X0165044Y0357350D01*
X0164463Y0356751D02*
X0177051Y0356751D01*
X0176453Y0356153D02*
X0163882Y0356153D01*
X0163301Y0355554D02*
X0175854Y0355554D01*
X0175256Y0354956D02*
X0162719Y0354956D01*
X0162138Y0354357D02*
X0174657Y0354357D01*
X0174059Y0353759D02*
X0161557Y0353759D01*
X0160976Y0353160D02*
X0173460Y0353160D01*
X0172862Y0352562D02*
X0160395Y0352562D01*
X0159814Y0351963D02*
X0172263Y0351963D01*
X0171665Y0351365D02*
X0159232Y0351365D01*
X0158651Y0350766D02*
X0171066Y0350766D01*
X0170468Y0350168D02*
X0158070Y0350168D01*
X0157489Y0349569D02*
X0169869Y0349569D01*
X0169271Y0348971D02*
X0156908Y0348971D01*
X0156327Y0348372D02*
X0168672Y0348372D01*
X0168074Y0347774D02*
X0155745Y0347774D01*
X0155164Y0347175D02*
X0167475Y0347175D01*
X0166877Y0346577D02*
X0154583Y0346577D01*
X0154002Y0345978D02*
X0166278Y0345978D01*
X0165680Y0345380D02*
X0153421Y0345380D01*
X0152840Y0344781D02*
X0165081Y0344781D01*
X0164483Y0344183D02*
X0152259Y0344183D01*
X0151677Y0343584D02*
X0163884Y0343584D01*
X0163286Y0342986D02*
X0151096Y0342986D01*
X0150515Y0342387D02*
X0162687Y0342387D01*
X0162089Y0341789D02*
X0149934Y0341789D01*
X0149353Y0341190D02*
X0161490Y0341190D01*
X0160892Y0340592D02*
X0148772Y0340592D01*
X0148190Y0339993D02*
X0160293Y0339993D01*
X0159695Y0339395D02*
X0148100Y0339395D01*
X0148100Y0338796D02*
X0159096Y0338796D01*
X0158498Y0338198D02*
X0148100Y0338198D01*
X0148100Y0337599D02*
X0157899Y0337599D01*
X0157301Y0337001D02*
X0148100Y0337001D01*
X0148100Y0336402D02*
X0157100Y0336402D01*
X0157100Y0335803D02*
X0148100Y0335803D01*
X0148100Y0335205D02*
X0157100Y0335205D01*
X0157100Y0334606D02*
X0148100Y0334606D01*
X0148100Y0334008D02*
X0157100Y0334008D01*
X0157100Y0333409D02*
X0148100Y0333409D01*
X0148100Y0332811D02*
X0157100Y0332811D01*
X0157100Y0332212D02*
X0148100Y0332212D01*
X0148100Y0331614D02*
X0157100Y0331614D01*
X0157100Y0331015D02*
X0148100Y0331015D01*
X0148100Y0330417D02*
X0157100Y0330417D01*
X0157100Y0329818D02*
X0148100Y0329818D01*
X0148100Y0329220D02*
X0157100Y0329220D01*
X0157100Y0328621D02*
X0148100Y0328621D01*
X0148100Y0328023D02*
X0157100Y0328023D01*
X0157100Y0327424D02*
X0148100Y0327424D01*
X0148100Y0326826D02*
X0157100Y0326826D01*
X0156700Y0324700D02*
X0156000Y0324700D01*
X0156700Y0324700D02*
X0157100Y0324300D01*
X0157100Y0285300D01*
X0147469Y0309469D02*
X0121700Y0309469D01*
X0121700Y0310068D02*
X0148068Y0310068D01*
X0148666Y0310666D02*
X0121700Y0310666D01*
X0121700Y0311265D02*
X0149265Y0311265D01*
X0149863Y0311863D02*
X0122163Y0311863D01*
X0122762Y0312462D02*
X0150462Y0312462D01*
X0151060Y0313060D02*
X0123360Y0313060D01*
X0123959Y0313659D02*
X0151659Y0313659D01*
X0152257Y0314257D02*
X0124557Y0314257D01*
X0140256Y0314856D02*
X0152856Y0314856D01*
X0153454Y0315454D02*
X0140854Y0315454D01*
X0141453Y0316053D02*
X0154053Y0316053D01*
X0154651Y0316651D02*
X0142051Y0316651D01*
X0142650Y0317250D02*
X0155250Y0317250D01*
X0155848Y0317848D02*
X0143248Y0317848D01*
X0143847Y0318447D02*
X0155900Y0318447D01*
X0155900Y0319045D02*
X0144445Y0319045D01*
X0145044Y0319644D02*
X0155900Y0319644D01*
X0155900Y0320242D02*
X0145642Y0320242D01*
X0146241Y0320841D02*
X0155900Y0320841D01*
X0155900Y0321439D02*
X0146839Y0321439D01*
X0147438Y0322038D02*
X0155900Y0322038D01*
X0155094Y0322636D02*
X0148036Y0322636D01*
X0148100Y0323235D02*
X0154495Y0323235D01*
X0153900Y0323833D02*
X0148100Y0323833D01*
X0148100Y0324432D02*
X0153900Y0324432D01*
X0153900Y0325030D02*
X0148100Y0325030D01*
X0148100Y0325629D02*
X0153959Y0325629D01*
X0154557Y0326227D02*
X0148100Y0326227D01*
X0166300Y0325400D02*
X0167100Y0325400D01*
X0179700Y0312800D01*
X0179700Y0307370D01*
X0182700Y0304370D01*
X0182700Y0285930D01*
X0181500Y0284730D01*
X0181500Y0271800D01*
X0183150Y0270150D01*
X0183734Y0270150D01*
X0187400Y0265467D02*
X0187400Y0285230D01*
X0185500Y0287130D01*
X0185500Y0305534D01*
X0186500Y0306534D01*
X0186500Y0309700D01*
X0169600Y0326600D01*
X0176600Y0308800D02*
X0176600Y0282300D01*
X0184100Y0283300D02*
X0184100Y0308138D01*
X0197590Y0281890D02*
X0223800Y0308100D01*
X0234300Y0308100D01*
X0235824Y0309624D01*
X0235824Y0309924D01*
X0235705Y0310044D01*
X0234080Y0310044D01*
X0234324Y0310300D01*
X0235824Y0310300D01*
X0235824Y0309924D02*
X0240100Y0314200D01*
X0240100Y0320426D01*
X0239100Y0321426D01*
X0239100Y0325800D01*
X0237626Y0324326D01*
X0234100Y0324326D01*
X0233554Y0318177D02*
X0234277Y0317454D01*
X0226861Y0312864D02*
X0226797Y0312800D01*
X0226797Y0310044D02*
X0223856Y0310044D01*
X0221606Y0307794D01*
X0222126Y0326826D02*
X0219771Y0326826D01*
X0219173Y0327424D02*
X0222724Y0327424D01*
X0223323Y0328023D02*
X0218574Y0328023D01*
X0217976Y0328621D02*
X0223400Y0328621D01*
X0223400Y0329220D02*
X0217377Y0329220D01*
X0217300Y0329818D02*
X0223400Y0329818D01*
X0223400Y0330417D02*
X0217300Y0330417D01*
X0217300Y0331015D02*
X0223400Y0331015D01*
X0223400Y0331614D02*
X0217300Y0331614D01*
X0217300Y0332212D02*
X0223400Y0332212D01*
X0223400Y0332811D02*
X0217300Y0332811D01*
X0217300Y0333409D02*
X0223400Y0333409D01*
X0223400Y0334008D02*
X0217300Y0334008D01*
X0217300Y0334606D02*
X0223400Y0334606D01*
X0223400Y0335205D02*
X0217300Y0335205D01*
X0217300Y0335803D02*
X0223400Y0335803D01*
X0225500Y0342046D02*
X0225500Y0346800D01*
X0225500Y0346900D01*
X0230700Y0347600D02*
X0230700Y0341046D01*
X0230946Y0340800D01*
X0230600Y0341300D01*
X0229600Y0340300D01*
X0229600Y0336800D01*
X0236600Y0348454D02*
X0240668Y0352521D01*
X0240668Y0380374D01*
X0237096Y0383946D01*
X0237096Y0364654D02*
X0237096Y0355643D01*
X0236600Y0355146D01*
X0236454Y0355000D01*
X0228100Y0355000D01*
X0216100Y0367800D02*
X0216100Y0371300D01*
X0197000Y0390400D01*
X0182100Y0390400D01*
X0169600Y0377900D01*
X0169600Y0373800D01*
X0174924Y0367525D02*
X0188794Y0367525D01*
X0188761Y0366926D02*
X0174343Y0366926D01*
X0173762Y0366328D02*
X0188761Y0366328D01*
X0188761Y0365729D02*
X0173180Y0365729D01*
X0172599Y0365131D02*
X0188761Y0365131D01*
X0188761Y0364532D02*
X0172018Y0364532D01*
X0171437Y0363934D02*
X0188761Y0363934D01*
X0188761Y0363335D02*
X0170856Y0363335D01*
X0170275Y0362737D02*
X0188761Y0362737D01*
X0188761Y0362138D02*
X0169693Y0362138D01*
X0169112Y0361539D02*
X0188761Y0361539D01*
X0184010Y0360342D02*
X0210458Y0360342D01*
X0207209Y0362138D02*
X0195361Y0362138D01*
X0195361Y0362737D02*
X0206611Y0362737D01*
X0206300Y0363335D02*
X0195361Y0363335D01*
X0195361Y0363934D02*
X0206300Y0363934D01*
X0206268Y0364532D02*
X0195361Y0364532D01*
X0195361Y0365131D02*
X0205669Y0365131D01*
X0205071Y0365729D02*
X0195361Y0365729D01*
X0195361Y0366328D02*
X0204472Y0366328D01*
X0203874Y0366926D02*
X0195361Y0366926D01*
X0195327Y0367525D02*
X0203275Y0367525D01*
X0202677Y0368123D02*
X0202476Y0368123D01*
X0199724Y0368123D02*
X0175505Y0368123D01*
X0176574Y0368722D02*
X0199126Y0368722D01*
X0198800Y0369320D02*
X0177173Y0369320D01*
X0177400Y0369919D02*
X0198800Y0369919D01*
X0198800Y0370517D02*
X0177830Y0370517D01*
X0178411Y0371116D02*
X0198963Y0371116D01*
X0199086Y0371714D02*
X0178992Y0371714D01*
X0179573Y0372313D02*
X0198487Y0372313D01*
X0197889Y0372911D02*
X0180154Y0372911D01*
X0180736Y0373510D02*
X0197290Y0373510D01*
X0196692Y0374108D02*
X0181317Y0374108D01*
X0181600Y0374707D02*
X0193141Y0374707D01*
X0192542Y0375305D02*
X0181600Y0375305D01*
X0181600Y0375904D02*
X0192300Y0375904D01*
X0192300Y0376502D02*
X0181600Y0376502D01*
X0181600Y0377101D02*
X0192300Y0377101D01*
X0192547Y0377699D02*
X0181600Y0377699D01*
X0181600Y0378298D02*
X0192502Y0378298D01*
X0191904Y0378896D02*
X0181600Y0378896D01*
X0181600Y0379495D02*
X0191305Y0379495D01*
X0190707Y0380093D02*
X0181600Y0380093D01*
X0181600Y0380692D02*
X0190108Y0380692D01*
X0189510Y0381290D02*
X0181600Y0381290D01*
X0181600Y0381889D02*
X0188911Y0381889D01*
X0188313Y0382487D02*
X0181600Y0382487D01*
X0181600Y0383086D02*
X0187714Y0383086D01*
X0187116Y0383684D02*
X0181684Y0383684D01*
X0182283Y0384283D02*
X0186517Y0384283D01*
X0196059Y0374707D02*
X0196093Y0374707D01*
X0197590Y0281890D02*
X0198100Y0223800D01*
X0190000Y0262867D02*
X0187400Y0265467D01*
D11*
X0226861Y0318177D03*
X0233554Y0318177D03*
X0230946Y0340800D03*
X0224254Y0340800D03*
X0129946Y0384300D03*
X0123254Y0384300D03*
D12*
X0232313Y0295312D03*
X0232313Y0266965D03*
D13*
X0237628Y0276414D03*
X0237628Y0285863D03*
D14*
X0239152Y0250571D02*
X0239152Y0247029D01*
X0239152Y0250571D02*
X0242694Y0250571D01*
X0242694Y0247029D01*
X0239152Y0247029D01*
X0239152Y0247403D02*
X0242694Y0247403D01*
X0242694Y0247777D02*
X0239152Y0247777D01*
X0239152Y0248151D02*
X0242694Y0248151D01*
X0242694Y0248525D02*
X0239152Y0248525D01*
X0239152Y0248899D02*
X0242694Y0248899D01*
X0242694Y0249273D02*
X0239152Y0249273D01*
X0239152Y0249647D02*
X0242694Y0249647D01*
X0242694Y0250021D02*
X0239152Y0250021D01*
X0239152Y0250395D02*
X0242694Y0250395D01*
X0239152Y0242697D02*
X0239152Y0239155D01*
X0239152Y0242697D02*
X0242694Y0242697D01*
X0242694Y0239155D01*
X0239152Y0239155D01*
X0239152Y0239529D02*
X0242694Y0239529D01*
X0242694Y0239903D02*
X0239152Y0239903D01*
X0239152Y0240277D02*
X0242694Y0240277D01*
X0242694Y0240651D02*
X0239152Y0240651D01*
X0239152Y0241025D02*
X0242694Y0241025D01*
X0242694Y0241399D02*
X0239152Y0241399D01*
X0239152Y0241773D02*
X0242694Y0241773D01*
X0242694Y0242147D02*
X0239152Y0242147D01*
X0239152Y0242521D02*
X0242694Y0242521D01*
X0239152Y0228524D02*
X0239152Y0224982D01*
X0239152Y0228524D02*
X0242694Y0228524D01*
X0242694Y0224982D01*
X0239152Y0224982D01*
X0239152Y0225356D02*
X0242694Y0225356D01*
X0242694Y0225730D02*
X0239152Y0225730D01*
X0239152Y0226104D02*
X0242694Y0226104D01*
X0242694Y0226478D02*
X0239152Y0226478D01*
X0239152Y0226852D02*
X0242694Y0226852D01*
X0242694Y0227226D02*
X0239152Y0227226D01*
X0239152Y0227600D02*
X0242694Y0227600D01*
X0242694Y0227974D02*
X0239152Y0227974D01*
X0239152Y0228348D02*
X0242694Y0228348D01*
X0221829Y0228524D02*
X0221829Y0224982D01*
X0221829Y0228524D02*
X0225371Y0228524D01*
X0225371Y0224982D01*
X0221829Y0224982D01*
X0221829Y0225356D02*
X0225371Y0225356D01*
X0225371Y0225730D02*
X0221829Y0225730D01*
X0221829Y0226104D02*
X0225371Y0226104D01*
X0225371Y0226478D02*
X0221829Y0226478D01*
X0221829Y0226852D02*
X0225371Y0226852D01*
X0225371Y0227226D02*
X0221829Y0227226D01*
X0221829Y0227600D02*
X0225371Y0227600D01*
X0225371Y0227974D02*
X0221829Y0227974D01*
X0221829Y0228348D02*
X0225371Y0228348D01*
X0221829Y0239155D02*
X0221829Y0242697D01*
X0225371Y0242697D01*
X0225371Y0239155D01*
X0221829Y0239155D01*
X0221829Y0239529D02*
X0225371Y0239529D01*
X0225371Y0239903D02*
X0221829Y0239903D01*
X0221829Y0240277D02*
X0225371Y0240277D01*
X0225371Y0240651D02*
X0221829Y0240651D01*
X0221829Y0241025D02*
X0225371Y0241025D01*
X0225371Y0241399D02*
X0221829Y0241399D01*
X0221829Y0241773D02*
X0225371Y0241773D01*
X0225371Y0242147D02*
X0221829Y0242147D01*
X0221829Y0242521D02*
X0225371Y0242521D01*
X0221829Y0247029D02*
X0221829Y0250571D01*
X0225371Y0250571D01*
X0225371Y0247029D01*
X0221829Y0247029D01*
X0221829Y0247403D02*
X0225371Y0247403D01*
X0225371Y0247777D02*
X0221829Y0247777D01*
X0221829Y0248151D02*
X0225371Y0248151D01*
X0225371Y0248525D02*
X0221829Y0248525D01*
X0221829Y0248899D02*
X0225371Y0248899D01*
X0225371Y0249273D02*
X0221829Y0249273D01*
X0221829Y0249647D02*
X0225371Y0249647D01*
X0225371Y0250021D02*
X0221829Y0250021D01*
X0221829Y0250395D02*
X0225371Y0250395D01*
D15*
X0226226Y0324326D03*
X0226226Y0332200D03*
X0234100Y0332200D03*
X0234100Y0324326D03*
D16*
X0234277Y0312800D03*
X0226797Y0312800D03*
X0226797Y0310044D03*
D17*
X0234080Y0310044D03*
D18*
X0237096Y0364654D03*
X0224104Y0364654D03*
X0224104Y0383946D03*
X0237096Y0383946D03*
D19*
X0228100Y0355000D03*
X0225500Y0347600D03*
X0230700Y0347600D03*
D20*
X0236600Y0348454D03*
X0236600Y0355146D03*
D21*
X0147100Y0384800D03*
X0136864Y0384800D03*
X0114336Y0127800D03*
X0104100Y0127800D03*
X0169600Y0127800D03*
X0179836Y0127800D03*
D22*
X0199218Y0117796D03*
X0199218Y0104804D03*
X0213982Y0104804D03*
X0213982Y0117796D03*
X0149482Y0113796D03*
X0149482Y0100804D03*
X0134718Y0100804D03*
X0134718Y0113796D03*
X0084982Y0117796D03*
X0084982Y0104804D03*
X0070218Y0104804D03*
X0070218Y0117796D03*
D23*
X0057747Y0195100D02*
X0057749Y0195208D01*
X0057755Y0195317D01*
X0057765Y0195425D01*
X0057779Y0195532D01*
X0057797Y0195639D01*
X0057818Y0195746D01*
X0057844Y0195851D01*
X0057874Y0195956D01*
X0057907Y0196059D01*
X0057944Y0196161D01*
X0057985Y0196261D01*
X0058029Y0196360D01*
X0058078Y0196458D01*
X0058129Y0196553D01*
X0058184Y0196646D01*
X0058243Y0196738D01*
X0058305Y0196827D01*
X0058370Y0196914D01*
X0058438Y0196998D01*
X0058509Y0197080D01*
X0058583Y0197159D01*
X0058660Y0197235D01*
X0058740Y0197309D01*
X0058823Y0197379D01*
X0058908Y0197447D01*
X0058995Y0197511D01*
X0059085Y0197572D01*
X0059177Y0197630D01*
X0059271Y0197684D01*
X0059367Y0197735D01*
X0059464Y0197782D01*
X0059564Y0197826D01*
X0059665Y0197866D01*
X0059767Y0197902D01*
X0059870Y0197934D01*
X0059975Y0197963D01*
X0060081Y0197987D01*
X0060187Y0198008D01*
X0060294Y0198025D01*
X0060402Y0198038D01*
X0060510Y0198047D01*
X0060619Y0198052D01*
X0060727Y0198053D01*
X0060836Y0198050D01*
X0060944Y0198043D01*
X0061052Y0198032D01*
X0061159Y0198017D01*
X0061266Y0197998D01*
X0061372Y0197975D01*
X0061477Y0197949D01*
X0061582Y0197918D01*
X0061684Y0197884D01*
X0061786Y0197846D01*
X0061886Y0197804D01*
X0061985Y0197759D01*
X0062082Y0197710D01*
X0062176Y0197657D01*
X0062269Y0197601D01*
X0062360Y0197542D01*
X0062449Y0197479D01*
X0062535Y0197414D01*
X0062619Y0197345D01*
X0062700Y0197273D01*
X0062778Y0197198D01*
X0062854Y0197120D01*
X0062927Y0197039D01*
X0062997Y0196956D01*
X0063063Y0196871D01*
X0063127Y0196783D01*
X0063187Y0196692D01*
X0063244Y0196600D01*
X0063297Y0196505D01*
X0063347Y0196409D01*
X0063393Y0196311D01*
X0063436Y0196211D01*
X0063475Y0196110D01*
X0063510Y0196007D01*
X0063542Y0195904D01*
X0063569Y0195799D01*
X0063593Y0195693D01*
X0063613Y0195586D01*
X0063629Y0195479D01*
X0063641Y0195371D01*
X0063649Y0195263D01*
X0063653Y0195154D01*
X0063653Y0195046D01*
X0063649Y0194937D01*
X0063641Y0194829D01*
X0063629Y0194721D01*
X0063613Y0194614D01*
X0063593Y0194507D01*
X0063569Y0194401D01*
X0063542Y0194296D01*
X0063510Y0194193D01*
X0063475Y0194090D01*
X0063436Y0193989D01*
X0063393Y0193889D01*
X0063347Y0193791D01*
X0063297Y0193695D01*
X0063244Y0193600D01*
X0063187Y0193508D01*
X0063127Y0193417D01*
X0063063Y0193329D01*
X0062997Y0193244D01*
X0062927Y0193161D01*
X0062854Y0193080D01*
X0062778Y0193002D01*
X0062700Y0192927D01*
X0062619Y0192855D01*
X0062535Y0192786D01*
X0062449Y0192721D01*
X0062360Y0192658D01*
X0062269Y0192599D01*
X0062177Y0192543D01*
X0062082Y0192490D01*
X0061985Y0192441D01*
X0061886Y0192396D01*
X0061786Y0192354D01*
X0061684Y0192316D01*
X0061582Y0192282D01*
X0061477Y0192251D01*
X0061372Y0192225D01*
X0061266Y0192202D01*
X0061159Y0192183D01*
X0061052Y0192168D01*
X0060944Y0192157D01*
X0060836Y0192150D01*
X0060727Y0192147D01*
X0060619Y0192148D01*
X0060510Y0192153D01*
X0060402Y0192162D01*
X0060294Y0192175D01*
X0060187Y0192192D01*
X0060081Y0192213D01*
X0059975Y0192237D01*
X0059870Y0192266D01*
X0059767Y0192298D01*
X0059665Y0192334D01*
X0059564Y0192374D01*
X0059464Y0192418D01*
X0059367Y0192465D01*
X0059271Y0192516D01*
X0059177Y0192570D01*
X0059085Y0192628D01*
X0058995Y0192689D01*
X0058908Y0192753D01*
X0058823Y0192821D01*
X0058740Y0192891D01*
X0058660Y0192965D01*
X0058583Y0193041D01*
X0058509Y0193120D01*
X0058438Y0193202D01*
X0058370Y0193286D01*
X0058305Y0193373D01*
X0058243Y0193462D01*
X0058184Y0193554D01*
X0058129Y0193647D01*
X0058078Y0193742D01*
X0058029Y0193840D01*
X0057985Y0193939D01*
X0057944Y0194039D01*
X0057907Y0194141D01*
X0057874Y0194244D01*
X0057844Y0194349D01*
X0057818Y0194454D01*
X0057797Y0194561D01*
X0057779Y0194668D01*
X0057765Y0194775D01*
X0057755Y0194883D01*
X0057749Y0194992D01*
X0057747Y0195100D01*
D24*
X0050500Y0181000D03*
X0060700Y0166500D03*
X0063900Y0140300D03*
X0085600Y0111800D03*
X0107300Y0106400D03*
X0112600Y0123800D03*
X0116600Y0123800D03*
X0124500Y0128200D03*
X0115600Y0135300D03*
X0096700Y0150600D03*
X0114900Y0165300D03*
X0120900Y0184200D03*
X0121100Y0192000D03*
X0129100Y0199500D03*
X0129100Y0203000D03*
X0137600Y0211200D03*
X0144000Y0222700D03*
X0154200Y0230500D03*
X0154500Y0243100D03*
X0161700Y0243200D03*
X0169600Y0254000D03*
X0160900Y0258800D03*
X0167700Y0272000D03*
X0178300Y0266600D03*
X0183734Y0270150D03*
X0190000Y0262867D03*
X0191100Y0255500D03*
X0191100Y0252000D03*
X0188100Y0248000D03*
X0188100Y0237000D03*
X0184100Y0237000D03*
X0180100Y0237000D03*
X0172100Y0237000D03*
X0172100Y0232000D03*
X0167100Y0225300D03*
X0159200Y0218600D03*
X0159100Y0212600D03*
X0159100Y0209000D03*
X0162100Y0206500D03*
X0152600Y0192300D03*
X0152600Y0188800D03*
X0150000Y0182800D03*
X0145200Y0182400D03*
X0143100Y0186800D03*
X0139600Y0186800D03*
X0140300Y0180700D03*
X0144100Y0174800D03*
X0144100Y0171300D03*
X0150400Y0164800D03*
X0156100Y0161400D03*
X0164100Y0158600D03*
X0162600Y0150800D03*
X0162600Y0143800D03*
X0157600Y0143800D03*
X0157600Y0150800D03*
X0158900Y0132300D03*
X0173100Y0142300D03*
X0178300Y0141200D03*
X0177600Y0146300D03*
X0173100Y0149300D03*
X0182600Y0159000D03*
X0179100Y0163300D03*
X0173200Y0165000D03*
X0168200Y0170300D03*
X0163100Y0172300D03*
X0163100Y0175800D03*
X0178400Y0192800D03*
X0176600Y0200700D03*
X0181400Y0207700D03*
X0183600Y0211000D03*
X0179800Y0223000D03*
X0183800Y0227000D03*
X0194600Y0227300D03*
X0198100Y0223800D03*
X0206600Y0228600D03*
X0213600Y0240800D03*
X0217600Y0236000D03*
X0217600Y0232000D03*
X0217600Y0227500D03*
X0224100Y0221500D03*
X0230100Y0221500D03*
X0235600Y0221500D03*
X0241100Y0221500D03*
X0233100Y0211300D03*
X0221516Y0205316D03*
X0204000Y0212500D03*
X0200600Y0202800D03*
X0201600Y0190000D03*
X0201600Y0185500D03*
X0201600Y0181500D03*
X0190100Y0179800D03*
X0196300Y0158700D03*
X0184700Y0139000D03*
X0193300Y0135800D03*
X0184600Y0115500D03*
X0181100Y0115500D03*
X0175700Y0104700D03*
X0149600Y0106800D03*
X0131100Y0166300D03*
X0129100Y0179300D03*
X0129100Y0182800D03*
X0145700Y0196400D03*
X0124200Y0223974D03*
X0109900Y0228500D03*
X0109600Y0238300D03*
X0116900Y0239400D03*
X0116400Y0254400D03*
X0126000Y0270700D03*
X0127600Y0265300D03*
X0127600Y0259300D03*
X0128100Y0244800D03*
X0142000Y0247000D03*
X0149300Y0248500D03*
X0149600Y0255500D03*
X0146100Y0274000D03*
X0146100Y0279000D03*
X0146100Y0284000D03*
X0152100Y0287500D03*
X0157100Y0285300D03*
X0161100Y0287500D03*
X0166600Y0287500D03*
X0168600Y0296000D03*
X0171600Y0299800D03*
X0173900Y0305000D03*
X0176600Y0308800D03*
X0173500Y0310900D03*
X0173500Y0314000D03*
X0167000Y0313500D03*
X0166300Y0325400D03*
X0169600Y0326600D03*
X0183734Y0308505D03*
X0192100Y0309500D03*
X0192100Y0306000D03*
X0189600Y0296000D03*
X0195600Y0295000D03*
X0200100Y0292000D03*
X0192600Y0286500D03*
X0187600Y0288000D03*
X0184100Y0283300D03*
X0176600Y0282300D03*
X0179600Y0296000D03*
X0161100Y0296500D03*
X0153100Y0297000D03*
X0149600Y0300500D03*
X0149400Y0306700D03*
X0156000Y0324700D03*
X0143300Y0328900D03*
X0135500Y0323800D03*
X0116700Y0316900D03*
X0109700Y0332500D03*
X0106200Y0347800D03*
X0106200Y0352100D03*
X0097900Y0343900D03*
X0091100Y0338400D03*
X0082000Y0330300D03*
X0071100Y0311500D03*
X0071100Y0305500D03*
X0071100Y0300000D03*
X0071100Y0294500D03*
X0071100Y0289000D03*
X0071100Y0283500D03*
X0071100Y0277500D03*
X0071100Y0271000D03*
X0071100Y0265500D03*
X0071100Y0260000D03*
X0071100Y0254500D03*
X0064600Y0254500D03*
X0059100Y0254500D03*
X0053600Y0254500D03*
X0058700Y0223400D03*
X0061100Y0211400D03*
X0045700Y0215100D03*
X0084200Y0199000D03*
X0101300Y0188400D03*
X0105900Y0205700D03*
X0084600Y0230800D03*
X0095300Y0238200D03*
X0095600Y0270000D03*
X0097700Y0274100D03*
X0091100Y0299800D03*
X0085700Y0299900D03*
X0098000Y0325600D03*
X0117300Y0301200D03*
X0121600Y0281900D03*
X0139500Y0278400D03*
X0189400Y0326400D03*
X0197500Y0321700D03*
X0206200Y0324600D03*
X0214300Y0314800D03*
X0222100Y0313500D03*
X0221100Y0331300D03*
X0216100Y0337800D03*
X0222600Y0345900D03*
X0222600Y0348700D03*
X0213500Y0353000D03*
X0205600Y0347500D03*
X0198400Y0342800D03*
X0198800Y0336500D03*
X0193100Y0353000D03*
X0182600Y0358500D03*
X0174900Y0363300D03*
X0175100Y0370500D03*
X0172600Y0377500D03*
X0171000Y0384600D03*
X0166400Y0388400D03*
X0164600Y0375800D03*
X0151600Y0376800D03*
X0141400Y0361000D03*
X0141500Y0354100D03*
X0125600Y0379300D03*
X0125600Y0389300D03*
X0114800Y0374000D03*
X0094900Y0361700D03*
X0084500Y0371600D03*
X0078500Y0358600D03*
X0075300Y0363800D03*
X0071100Y0364500D03*
X0071100Y0359500D03*
X0071100Y0370000D03*
X0071100Y0374500D03*
X0071100Y0380000D03*
X0071100Y0385000D03*
X0071100Y0390000D03*
X0075100Y0392500D03*
X0183900Y0381400D03*
X0189100Y0387500D03*
X0194600Y0384500D03*
X0194600Y0376500D03*
X0201100Y0370000D03*
X0204300Y0376700D03*
X0210800Y0388200D03*
X0208600Y0364000D03*
X0231100Y0361400D03*
X0230300Y0373800D03*
X0231000Y0390900D03*
X0229600Y0336800D03*
X0239100Y0325800D03*
X0237100Y0300000D03*
X0240100Y0296500D03*
X0226600Y0272000D03*
X0222600Y0272000D03*
X0221100Y0275200D03*
X0218600Y0272000D03*
X0222300Y0262100D03*
X0214300Y0261700D03*
X0213600Y0252500D03*
X0218100Y0250000D03*
X0218100Y0245500D03*
X0221100Y0254000D03*
X0226100Y0254000D03*
X0231100Y0254000D03*
X0236100Y0254000D03*
X0241100Y0254000D03*
X0207100Y0285500D03*
X0203100Y0277500D03*
X0202600Y0255500D03*
X0202600Y0251500D03*
X0202600Y0247500D03*
X0234600Y0183500D03*
X0234600Y0179000D03*
X0234600Y0175000D03*
X0233600Y0157500D03*
X0231600Y0145300D03*
X0234700Y0139200D03*
X0224700Y0139700D03*
X0222600Y0151300D03*
X0216100Y0160500D03*
X0212300Y0130700D03*
X0222300Y0127300D03*
X0231000Y0119100D03*
X0083000Y0174600D03*
D25*
X0064560Y0192521D02*
X0065253Y0194194D01*
X0065253Y0196006D01*
X0064560Y0197679D01*
X0063279Y0198960D01*
X0061606Y0199653D01*
X0059794Y0199653D01*
X0058121Y0198960D01*
X0056840Y0197679D01*
X0056147Y0196006D01*
X0056147Y0194194D01*
X0056840Y0192521D01*
X0058121Y0191240D01*
X0059794Y0190547D01*
X0061606Y0190547D01*
X0063279Y0191240D01*
X0064560Y0192521D01*
X0064119Y0192080D02*
X0123300Y0192080D01*
X0123300Y0190882D02*
X0062413Y0190882D01*
X0058987Y0190882D02*
X0041000Y0190882D01*
X0041000Y0192080D02*
X0057281Y0192080D01*
X0056526Y0193279D02*
X0041000Y0193279D01*
X0041000Y0194477D02*
X0056147Y0194477D01*
X0056147Y0195676D02*
X0041000Y0195676D01*
X0041000Y0196874D02*
X0056507Y0196874D01*
X0057234Y0198073D02*
X0041000Y0198073D01*
X0041000Y0199271D02*
X0058874Y0199271D01*
X0062526Y0199271D02*
X0123300Y0199271D01*
X0123300Y0198073D02*
X0064166Y0198073D01*
X0064893Y0196874D02*
X0123300Y0196874D01*
X0123300Y0195676D02*
X0065253Y0195676D01*
X0065253Y0194477D02*
X0123300Y0194477D01*
X0123300Y0193279D02*
X0064874Y0193279D01*
X0078566Y0213050D02*
X0079650Y0214134D01*
X0089066Y0223550D01*
X0112966Y0223550D01*
X0118506Y0229090D01*
X0119296Y0228300D01*
X0122214Y0225382D01*
X0122165Y0225334D01*
X0121800Y0224451D01*
X0121800Y0223497D01*
X0122165Y0222615D01*
X0122841Y0221939D01*
X0123300Y0221749D01*
X0123300Y0143121D01*
X0117236Y0137058D01*
X0116959Y0137335D01*
X0116077Y0137700D01*
X0115123Y0137700D01*
X0114241Y0137335D01*
X0113565Y0136659D01*
X0113200Y0135777D01*
X0113200Y0134823D01*
X0113565Y0133941D01*
X0114241Y0133265D01*
X0115123Y0132900D01*
X0116077Y0132900D01*
X0116959Y0133265D01*
X0117494Y0133800D01*
X0117720Y0133800D01*
X0114695Y0130775D01*
X0110804Y0130775D01*
X0109983Y0129955D01*
X0109983Y0125645D01*
X0110384Y0125245D01*
X0110000Y0124317D01*
X0110000Y0123283D01*
X0110396Y0122327D01*
X0111127Y0121596D01*
X0112083Y0121200D01*
X0113117Y0121200D01*
X0114073Y0121596D01*
X0114600Y0122123D01*
X0115127Y0121596D01*
X0116083Y0121200D01*
X0117117Y0121200D01*
X0118073Y0121596D01*
X0118804Y0122327D01*
X0119200Y0123283D01*
X0119200Y0124317D01*
X0118804Y0125273D01*
X0118560Y0125517D01*
X0118689Y0125645D01*
X0118689Y0129536D01*
X0128866Y0139714D01*
X0129950Y0140797D01*
X0129950Y0161834D01*
X0130656Y0162540D01*
X0139300Y0153896D01*
X0139300Y0143896D01*
X0140296Y0142900D01*
X0143196Y0140000D01*
X0152600Y0140000D01*
X0152600Y0137972D01*
X0153772Y0136800D01*
X0155272Y0135300D01*
X0180136Y0135300D01*
X0180136Y0130928D01*
X0179983Y0130775D01*
X0176304Y0130775D01*
X0175483Y0129955D01*
X0175483Y0125645D01*
X0176304Y0124825D01*
X0183369Y0124825D01*
X0184189Y0125645D01*
X0184189Y0129955D01*
X0184136Y0130007D01*
X0184136Y0135300D01*
X0186928Y0135300D01*
X0188100Y0136472D01*
X0188100Y0120679D01*
X0197718Y0111061D01*
X0197718Y0107382D01*
X0197048Y0107382D01*
X0196345Y0106679D01*
X0196345Y0102929D01*
X0197048Y0102226D01*
X0201388Y0102226D01*
X0202091Y0102929D01*
X0202091Y0103304D01*
X0211109Y0103304D01*
X0211109Y0102929D01*
X0211812Y0102226D01*
X0216152Y0102226D01*
X0216855Y0102929D01*
X0216855Y0106679D01*
X0216152Y0107382D01*
X0211812Y0107382D01*
X0211109Y0106679D01*
X0211109Y0106304D01*
X0202091Y0106304D01*
X0202091Y0106679D01*
X0201388Y0107382D01*
X0200718Y0107382D01*
X0200718Y0112303D01*
X0191100Y0121921D01*
X0191100Y0134840D01*
X0191265Y0134441D01*
X0191941Y0133765D01*
X0192823Y0133400D01*
X0193777Y0133400D01*
X0194659Y0133765D01*
X0195194Y0134300D01*
X0197279Y0134300D01*
X0204900Y0126679D01*
X0205779Y0125800D01*
X0220406Y0125800D01*
X0220941Y0125265D01*
X0221823Y0124900D01*
X0222777Y0124900D01*
X0223659Y0125265D01*
X0224335Y0125941D01*
X0224700Y0126823D01*
X0224700Y0127777D01*
X0224335Y0128659D01*
X0223659Y0129335D01*
X0222777Y0129700D01*
X0221823Y0129700D01*
X0220941Y0129335D01*
X0220406Y0128800D01*
X0207021Y0128800D01*
X0198521Y0137300D01*
X0195194Y0137300D01*
X0194659Y0137835D01*
X0193777Y0138200D01*
X0192823Y0138200D01*
X0191941Y0137835D01*
X0191265Y0137159D01*
X0191100Y0136760D01*
X0191100Y0138921D01*
X0190221Y0139800D01*
X0188600Y0141421D01*
X0188600Y0142628D01*
X0187428Y0143800D01*
X0175428Y0155800D01*
X0174221Y0155800D01*
X0172600Y0157421D01*
X0172600Y0162434D01*
X0172683Y0162400D01*
X0173717Y0162400D01*
X0174673Y0162796D01*
X0175404Y0163527D01*
X0175800Y0164483D01*
X0175800Y0165517D01*
X0175404Y0166473D01*
X0174673Y0167204D01*
X0174450Y0167296D01*
X0174450Y0179934D01*
X0183250Y0188734D01*
X0183250Y0205873D01*
X0183604Y0206227D01*
X0184000Y0207183D01*
X0184000Y0208217D01*
X0183604Y0209173D01*
X0182873Y0209904D01*
X0181917Y0210300D01*
X0180883Y0210300D01*
X0179927Y0209904D01*
X0179196Y0209173D01*
X0178800Y0208217D01*
X0178800Y0207183D01*
X0179196Y0206227D01*
X0179550Y0205873D01*
X0179550Y0195138D01*
X0178917Y0195400D01*
X0177883Y0195400D01*
X0176927Y0195004D01*
X0176573Y0194650D01*
X0176566Y0194650D01*
X0175450Y0195766D01*
X0175450Y0198362D01*
X0176083Y0198100D01*
X0177117Y0198100D01*
X0178073Y0198496D01*
X0178804Y0199227D01*
X0179200Y0200183D01*
X0179200Y0201217D01*
X0178804Y0202173D01*
X0178400Y0202577D01*
X0178400Y0221006D01*
X0178441Y0220965D01*
X0179323Y0220600D01*
X0180277Y0220600D01*
X0180561Y0220718D01*
X0198200Y0203079D01*
X0198200Y0202323D01*
X0198565Y0201441D01*
X0199241Y0200765D01*
X0200123Y0200400D01*
X0201077Y0200400D01*
X0201959Y0200765D01*
X0202635Y0201441D01*
X0203000Y0202323D01*
X0203000Y0203277D01*
X0202635Y0204159D01*
X0201959Y0204835D01*
X0201077Y0205200D01*
X0200321Y0205200D01*
X0182200Y0223321D01*
X0182200Y0223477D01*
X0181835Y0224359D01*
X0181159Y0225035D01*
X0180277Y0225400D01*
X0179323Y0225400D01*
X0178441Y0225035D01*
X0178400Y0224994D01*
X0178400Y0256328D01*
X0176100Y0258628D01*
X0176100Y0279909D01*
X0176123Y0279900D01*
X0177077Y0279900D01*
X0177959Y0280265D01*
X0178635Y0280941D01*
X0179000Y0281823D01*
X0179000Y0282777D01*
X0178635Y0283659D01*
X0178100Y0284194D01*
X0178100Y0306906D01*
X0178200Y0307006D01*
X0178200Y0306749D01*
X0181200Y0303749D01*
X0181200Y0286551D01*
X0180000Y0285351D01*
X0180000Y0271179D01*
X0181334Y0269845D01*
X0181334Y0269673D01*
X0181699Y0268791D01*
X0182374Y0268116D01*
X0183256Y0267750D01*
X0184211Y0267750D01*
X0185093Y0268116D01*
X0185768Y0268791D01*
X0185900Y0269108D01*
X0185900Y0264846D01*
X0186779Y0263967D01*
X0187600Y0263146D01*
X0187600Y0262390D01*
X0187965Y0261507D01*
X0188641Y0260832D01*
X0189523Y0260467D01*
X0190477Y0260467D01*
X0191359Y0260832D01*
X0192035Y0261507D01*
X0192400Y0262390D01*
X0192400Y0263344D01*
X0192035Y0264226D01*
X0191359Y0264902D01*
X0190477Y0265267D01*
X0189721Y0265267D01*
X0188900Y0266088D01*
X0188900Y0285851D01*
X0188021Y0286730D01*
X0187000Y0287751D01*
X0187000Y0304913D01*
X0188000Y0305913D01*
X0188000Y0310321D01*
X0187121Y0311200D01*
X0172000Y0326321D01*
X0172000Y0327077D01*
X0171635Y0327959D01*
X0170959Y0328635D01*
X0170077Y0329000D01*
X0169123Y0329000D01*
X0168241Y0328635D01*
X0167565Y0327959D01*
X0167394Y0327545D01*
X0166777Y0327800D01*
X0165823Y0327800D01*
X0164941Y0327435D01*
X0164265Y0326759D01*
X0163900Y0325877D01*
X0163900Y0324923D01*
X0164265Y0324041D01*
X0164941Y0323365D01*
X0165823Y0323000D01*
X0166777Y0323000D01*
X0167203Y0323176D01*
X0178200Y0312179D01*
X0178200Y0310594D01*
X0177959Y0310835D01*
X0177077Y0311200D01*
X0176123Y0311200D01*
X0175241Y0310835D01*
X0174565Y0310159D01*
X0174200Y0309277D01*
X0174200Y0308323D01*
X0174565Y0307441D01*
X0175100Y0306906D01*
X0175100Y0299128D01*
X0174928Y0299300D01*
X0174200Y0300028D01*
X0174200Y0300317D01*
X0173804Y0301273D01*
X0173073Y0302004D01*
X0172117Y0302400D01*
X0171083Y0302400D01*
X0170127Y0302004D01*
X0169396Y0301273D01*
X0169000Y0300317D01*
X0169000Y0299283D01*
X0169396Y0298327D01*
X0170127Y0297596D01*
X0171083Y0297200D01*
X0171372Y0297200D01*
X0172100Y0296472D01*
X0172100Y0256972D01*
X0173272Y0255800D01*
X0174400Y0254672D01*
X0174400Y0233241D01*
X0174304Y0233473D01*
X0173573Y0234204D01*
X0172617Y0234600D01*
X0171583Y0234600D01*
X0170627Y0234204D01*
X0169896Y0233473D01*
X0169500Y0232517D01*
X0169500Y0231483D01*
X0169826Y0230695D01*
X0167700Y0232821D01*
X0167700Y0268321D01*
X0146600Y0289421D01*
X0146600Y0301779D01*
X0149121Y0304300D01*
X0149877Y0304300D01*
X0150759Y0304665D01*
X0151435Y0305341D01*
X0151800Y0306223D01*
X0151800Y0307177D01*
X0151435Y0308059D01*
X0150759Y0308735D01*
X0149877Y0309100D01*
X0149504Y0309100D01*
X0155600Y0315196D01*
X0155600Y0287194D01*
X0155065Y0286659D01*
X0154700Y0285777D01*
X0154700Y0284823D01*
X0155065Y0283941D01*
X0155741Y0283265D01*
X0156623Y0282900D01*
X0157577Y0282900D01*
X0158459Y0283265D01*
X0159135Y0283941D01*
X0159500Y0284823D01*
X0159500Y0285777D01*
X0159135Y0286659D01*
X0158600Y0287194D01*
X0158600Y0318196D01*
X0158800Y0318396D01*
X0158800Y0336096D01*
X0181004Y0358300D01*
X0196896Y0358300D01*
X0212700Y0342496D01*
X0212700Y0329996D01*
X0213696Y0329000D01*
X0217696Y0325000D01*
X0217779Y0325000D01*
X0219074Y0323705D01*
X0219074Y0323705D01*
X0219479Y0323300D01*
X0218000Y0321821D01*
X0218000Y0309279D01*
X0219485Y0307794D01*
X0195379Y0283688D01*
X0194500Y0282810D01*
X0194500Y0229700D01*
X0194123Y0229700D01*
X0193241Y0229335D01*
X0192565Y0228659D01*
X0192200Y0227777D01*
X0192200Y0226823D01*
X0192565Y0225941D01*
X0193241Y0225265D01*
X0194123Y0224900D01*
X0195077Y0224900D01*
X0195959Y0225265D01*
X0196582Y0225888D01*
X0196583Y0225678D01*
X0196065Y0225159D01*
X0195700Y0224277D01*
X0195700Y0223323D01*
X0196065Y0222441D01*
X0196741Y0221765D01*
X0197623Y0221400D01*
X0198577Y0221400D01*
X0199459Y0221765D01*
X0200135Y0222441D01*
X0200500Y0223323D01*
X0200500Y0223927D01*
X0219116Y0205312D01*
X0219116Y0204838D01*
X0219481Y0203956D01*
X0220156Y0203281D01*
X0220900Y0202973D01*
X0220900Y0152994D01*
X0220565Y0152659D01*
X0220200Y0151777D01*
X0220200Y0150823D01*
X0220565Y0149941D01*
X0221241Y0149265D01*
X0222123Y0148900D01*
X0223077Y0148900D01*
X0223959Y0149265D01*
X0224635Y0149941D01*
X0225000Y0150823D01*
X0225000Y0151777D01*
X0224635Y0152659D01*
X0224300Y0152994D01*
X0224300Y0204936D01*
X0223916Y0205320D01*
X0223916Y0205793D01*
X0223550Y0206675D01*
X0222875Y0207350D01*
X0221993Y0207716D01*
X0221520Y0207716D01*
X0201800Y0227436D01*
X0201800Y0281260D01*
X0225107Y0304700D01*
X0236004Y0304700D01*
X0242304Y0311000D01*
X0242304Y0311000D01*
X0243200Y0311896D01*
X0243200Y0251900D01*
X0226019Y0251900D01*
X0225950Y0251968D01*
X0221250Y0251968D01*
X0221181Y0251900D01*
X0220351Y0251900D01*
X0220000Y0251549D01*
X0220000Y0243626D01*
X0213189Y0243626D01*
X0212197Y0243215D01*
X0211437Y0242455D01*
X0211026Y0241463D01*
X0211026Y0240389D01*
X0211437Y0239397D01*
X0212197Y0238637D01*
X0213189Y0238226D01*
X0220000Y0238226D01*
X0220000Y0223551D01*
X0220351Y0223200D01*
X0243200Y0223200D01*
X0243200Y0117700D01*
X0219313Y0117700D01*
X0218200Y0116587D01*
X0218200Y0092700D01*
X0066000Y0092700D01*
X0066000Y0117087D01*
X0064887Y0118200D01*
X0041000Y0118200D01*
X0041000Y0229976D01*
X0048311Y0231600D01*
X0048891Y0231602D01*
X0049054Y0231766D01*
X0049280Y0231816D01*
X0049592Y0232306D01*
X0050002Y0232717D01*
X0050001Y0232949D01*
X0050125Y0233144D01*
X0050000Y0233711D01*
X0049950Y0256300D01*
X0070149Y0256300D01*
X0070500Y0256651D01*
X0070500Y0393900D01*
X0085700Y0393900D01*
X0085700Y0378513D01*
X0086813Y0377400D01*
X0118887Y0377400D01*
X0120000Y0378513D01*
X0120000Y0381440D01*
X0120508Y0380931D01*
X0120681Y0380931D01*
X0121007Y0380145D01*
X0121752Y0379400D01*
X0124099Y0377053D01*
X0125073Y0376650D01*
X0126127Y0376650D01*
X0127101Y0377053D01*
X0127847Y0377799D01*
X0128250Y0378773D01*
X0128250Y0379827D01*
X0127847Y0380801D01*
X0127716Y0380931D01*
X0132692Y0380931D01*
X0133512Y0381752D01*
X0133512Y0381825D01*
X0140396Y0381825D01*
X0141217Y0382645D01*
X0141217Y0386955D01*
X0140721Y0387450D01*
X0143243Y0387450D01*
X0142747Y0386955D01*
X0142747Y0382645D01*
X0143567Y0381825D01*
X0143909Y0381825D01*
X0135830Y0373746D01*
X0119383Y0373786D01*
X0119381Y0373788D01*
X0118619Y0373788D01*
X0117853Y0373790D01*
X0117851Y0373788D01*
X0117848Y0373788D01*
X0117308Y0373248D01*
X0116767Y0372709D01*
X0116767Y0372706D01*
X0102334Y0358273D01*
X0101250Y0357189D01*
X0101250Y0349866D01*
X0100450Y0349066D01*
X0100450Y0338634D01*
X0101250Y0337834D01*
X0101250Y0244334D01*
X0107000Y0238584D01*
X0107000Y0237783D01*
X0107396Y0236827D01*
X0108127Y0236096D01*
X0109083Y0235700D01*
X0110117Y0235700D01*
X0111073Y0236096D01*
X0111804Y0236827D01*
X0112200Y0237783D01*
X0112200Y0238817D01*
X0111804Y0239773D01*
X0111073Y0240504D01*
X0110117Y0240900D01*
X0109916Y0240900D01*
X0104950Y0245866D01*
X0104950Y0334134D01*
X0107100Y0331984D01*
X0107100Y0331983D01*
X0107496Y0331027D01*
X0108227Y0330296D01*
X0109183Y0329900D01*
X0110217Y0329900D01*
X0110579Y0330050D01*
X0146400Y0330050D01*
X0146400Y0323404D01*
X0139496Y0316500D01*
X0124396Y0316500D01*
X0123400Y0315504D01*
X0120996Y0313100D01*
X0120996Y0313100D01*
X0120000Y0312104D01*
X0120000Y0298904D01*
X0110300Y0289204D01*
X0110300Y0272796D01*
X0111296Y0271800D01*
X0118300Y0264796D01*
X0118300Y0234116D01*
X0111434Y0227250D01*
X0087534Y0227250D01*
X0086450Y0226166D01*
X0077034Y0216750D01*
X0047727Y0216750D01*
X0047173Y0217304D01*
X0046217Y0217700D01*
X0045183Y0217700D01*
X0044227Y0217304D01*
X0043496Y0216573D01*
X0043100Y0215617D01*
X0043100Y0214583D01*
X0043496Y0213627D01*
X0044227Y0212896D01*
X0045183Y0212500D01*
X0046217Y0212500D01*
X0047173Y0212896D01*
X0047327Y0213050D01*
X0078566Y0213050D01*
X0079170Y0213654D02*
X0123300Y0213654D01*
X0123300Y0214852D02*
X0080368Y0214852D01*
X0079650Y0214134D02*
X0079650Y0214134D01*
X0081567Y0216051D02*
X0123300Y0216051D01*
X0123300Y0217249D02*
X0082765Y0217249D01*
X0083964Y0218448D02*
X0123300Y0218448D01*
X0123300Y0219646D02*
X0085162Y0219646D01*
X0086361Y0220845D02*
X0123300Y0220845D01*
X0122737Y0222043D02*
X0087559Y0222043D01*
X0088758Y0223242D02*
X0121906Y0223242D01*
X0121800Y0224440D02*
X0113856Y0224440D01*
X0115055Y0225639D02*
X0121957Y0225639D01*
X0120759Y0226837D02*
X0116253Y0226837D01*
X0117452Y0228036D02*
X0119560Y0228036D01*
X0115815Y0231631D02*
X0048921Y0231631D01*
X0050001Y0232830D02*
X0117013Y0232830D01*
X0118212Y0234028D02*
X0049999Y0234028D01*
X0049996Y0235227D02*
X0118300Y0235227D01*
X0118300Y0236425D02*
X0111402Y0236425D01*
X0112134Y0237624D02*
X0118300Y0237624D01*
X0118300Y0238822D02*
X0112198Y0238822D01*
X0111556Y0240021D02*
X0118300Y0240021D01*
X0118300Y0241219D02*
X0109597Y0241219D01*
X0108398Y0242418D02*
X0118300Y0242418D01*
X0118300Y0243616D02*
X0107200Y0243616D01*
X0106001Y0244815D02*
X0118300Y0244815D01*
X0118300Y0246013D02*
X0104950Y0246013D01*
X0104950Y0247212D02*
X0118300Y0247212D01*
X0118300Y0248410D02*
X0104950Y0248410D01*
X0104950Y0249609D02*
X0118300Y0249609D01*
X0118300Y0250807D02*
X0104950Y0250807D01*
X0104950Y0252006D02*
X0118300Y0252006D01*
X0118300Y0253204D02*
X0104950Y0253204D01*
X0104950Y0254403D02*
X0118300Y0254403D01*
X0118300Y0255601D02*
X0104950Y0255601D01*
X0104950Y0256800D02*
X0118300Y0256800D01*
X0118300Y0257999D02*
X0104950Y0257999D01*
X0104950Y0259197D02*
X0118300Y0259197D01*
X0118300Y0260396D02*
X0104950Y0260396D01*
X0104950Y0261594D02*
X0118300Y0261594D01*
X0118300Y0262793D02*
X0104950Y0262793D01*
X0104950Y0263991D02*
X0118300Y0263991D01*
X0117906Y0265190D02*
X0104950Y0265190D01*
X0104950Y0266388D02*
X0116708Y0266388D01*
X0115509Y0267587D02*
X0104950Y0267587D01*
X0104950Y0268785D02*
X0114311Y0268785D01*
X0113112Y0269984D02*
X0104950Y0269984D01*
X0104950Y0271182D02*
X0111914Y0271182D01*
X0110715Y0272381D02*
X0104950Y0272381D01*
X0104950Y0273579D02*
X0110300Y0273579D01*
X0110300Y0274778D02*
X0104950Y0274778D01*
X0104950Y0275976D02*
X0110300Y0275976D01*
X0110300Y0277175D02*
X0104950Y0277175D01*
X0104950Y0278373D02*
X0110300Y0278373D01*
X0110300Y0279572D02*
X0104950Y0279572D01*
X0104950Y0280770D02*
X0110300Y0280770D01*
X0110300Y0281969D02*
X0104950Y0281969D01*
X0104950Y0283167D02*
X0110300Y0283167D01*
X0110300Y0284366D02*
X0104950Y0284366D01*
X0104950Y0285564D02*
X0110300Y0285564D01*
X0110300Y0286763D02*
X0104950Y0286763D01*
X0104950Y0287961D02*
X0110300Y0287961D01*
X0110300Y0289160D02*
X0104950Y0289160D01*
X0104950Y0290358D02*
X0111454Y0290358D01*
X0112653Y0291557D02*
X0104950Y0291557D01*
X0104950Y0292755D02*
X0113851Y0292755D01*
X0115050Y0293954D02*
X0104950Y0293954D01*
X0104950Y0295152D02*
X0116248Y0295152D01*
X0117447Y0296351D02*
X0104950Y0296351D01*
X0104950Y0297549D02*
X0118645Y0297549D01*
X0119844Y0298748D02*
X0104950Y0298748D01*
X0104950Y0299946D02*
X0120000Y0299946D01*
X0120000Y0301145D02*
X0104950Y0301145D01*
X0104950Y0302343D02*
X0120000Y0302343D01*
X0120000Y0303542D02*
X0104950Y0303542D01*
X0104950Y0304740D02*
X0120000Y0304740D01*
X0120000Y0305939D02*
X0104950Y0305939D01*
X0104950Y0307137D02*
X0120000Y0307137D01*
X0120000Y0308336D02*
X0104950Y0308336D01*
X0104950Y0309534D02*
X0120000Y0309534D01*
X0120000Y0310733D02*
X0104950Y0310733D01*
X0104950Y0311932D02*
X0120000Y0311932D01*
X0121026Y0313130D02*
X0104950Y0313130D01*
X0104950Y0314329D02*
X0122224Y0314329D01*
X0123400Y0315504D02*
X0123400Y0315504D01*
X0123423Y0315527D02*
X0104950Y0315527D01*
X0104950Y0316726D02*
X0139721Y0316726D01*
X0140920Y0317924D02*
X0104950Y0317924D01*
X0104950Y0319123D02*
X0142118Y0319123D01*
X0143317Y0320321D02*
X0104950Y0320321D01*
X0104950Y0321520D02*
X0144515Y0321520D01*
X0145714Y0322718D02*
X0104950Y0322718D01*
X0104950Y0323917D02*
X0146400Y0323917D01*
X0146400Y0325115D02*
X0104950Y0325115D01*
X0104950Y0326314D02*
X0146400Y0326314D01*
X0146400Y0327512D02*
X0104950Y0327512D01*
X0104950Y0328711D02*
X0146400Y0328711D01*
X0146400Y0329909D02*
X0110239Y0329909D01*
X0109161Y0329909D02*
X0104950Y0329909D01*
X0104950Y0331108D02*
X0107462Y0331108D01*
X0106777Y0332306D02*
X0104950Y0332306D01*
X0104950Y0333505D02*
X0105579Y0333505D01*
X0101250Y0333505D02*
X0070500Y0333505D01*
X0070500Y0334703D02*
X0101250Y0334703D01*
X0101250Y0335902D02*
X0070500Y0335902D01*
X0070500Y0337100D02*
X0101250Y0337100D01*
X0100785Y0338299D02*
X0070500Y0338299D01*
X0070500Y0339497D02*
X0100450Y0339497D01*
X0100450Y0340696D02*
X0070500Y0340696D01*
X0070500Y0341894D02*
X0100450Y0341894D01*
X0100450Y0343093D02*
X0070500Y0343093D01*
X0070500Y0344291D02*
X0100450Y0344291D01*
X0100450Y0345490D02*
X0070500Y0345490D01*
X0070500Y0346688D02*
X0100450Y0346688D01*
X0100450Y0347887D02*
X0070500Y0347887D01*
X0070500Y0349085D02*
X0100469Y0349085D01*
X0101250Y0350284D02*
X0070500Y0350284D01*
X0070500Y0351482D02*
X0101250Y0351482D01*
X0101250Y0352681D02*
X0070500Y0352681D01*
X0070500Y0353879D02*
X0101250Y0353879D01*
X0101250Y0355078D02*
X0070500Y0355078D01*
X0070500Y0356276D02*
X0101250Y0356276D01*
X0101536Y0357475D02*
X0070500Y0357475D01*
X0070500Y0358673D02*
X0102734Y0358673D01*
X0103933Y0359872D02*
X0070500Y0359872D01*
X0070500Y0361070D02*
X0105131Y0361070D01*
X0106330Y0362269D02*
X0070500Y0362269D01*
X0070500Y0363468D02*
X0107528Y0363468D01*
X0108727Y0364666D02*
X0070500Y0364666D01*
X0070500Y0365865D02*
X0109925Y0365865D01*
X0111124Y0367063D02*
X0070500Y0367063D01*
X0070500Y0368262D02*
X0112322Y0368262D01*
X0113521Y0369460D02*
X0070500Y0369460D01*
X0070500Y0370659D02*
X0114719Y0370659D01*
X0115918Y0371857D02*
X0070500Y0371857D01*
X0070500Y0373056D02*
X0117115Y0373056D01*
X0119379Y0370086D02*
X0104950Y0355657D01*
X0104950Y0351750D01*
X0110766Y0351750D01*
X0111850Y0350666D01*
X0111850Y0350666D01*
X0113166Y0349350D01*
X0146266Y0349350D01*
X0147350Y0348266D01*
X0150650Y0344966D01*
X0166656Y0361450D01*
X0165334Y0361450D01*
X0164250Y0362534D01*
X0158550Y0368234D01*
X0158550Y0369766D01*
X0158650Y0369866D01*
X0158650Y0381234D01*
X0152434Y0387450D01*
X0150957Y0387450D01*
X0151453Y0386955D01*
X0151453Y0382645D01*
X0150633Y0381825D01*
X0148950Y0381825D01*
X0148950Y0381634D01*
X0138442Y0371126D01*
X0138442Y0371123D01*
X0137900Y0370584D01*
X0137360Y0370044D01*
X0137358Y0370044D01*
X0137356Y0370042D01*
X0136590Y0370044D01*
X0135828Y0370044D01*
X0135826Y0370046D01*
X0119379Y0370086D01*
X0118753Y0369460D02*
X0158550Y0369460D01*
X0158550Y0368262D02*
X0117555Y0368262D01*
X0116356Y0367063D02*
X0159721Y0367063D01*
X0160919Y0365865D02*
X0115158Y0365865D01*
X0113959Y0364666D02*
X0162118Y0364666D01*
X0163316Y0363468D02*
X0112761Y0363468D01*
X0111562Y0362269D02*
X0164515Y0362269D01*
X0166287Y0361070D02*
X0110364Y0361070D01*
X0109165Y0359872D02*
X0165124Y0359872D01*
X0163960Y0358673D02*
X0107967Y0358673D01*
X0106768Y0357475D02*
X0162796Y0357475D01*
X0161632Y0356276D02*
X0105570Y0356276D01*
X0104950Y0355078D02*
X0160468Y0355078D01*
X0159305Y0353879D02*
X0104950Y0353879D01*
X0104950Y0352681D02*
X0158141Y0352681D01*
X0156977Y0351482D02*
X0111034Y0351482D01*
X0112232Y0350284D02*
X0155813Y0350284D01*
X0154650Y0349085D02*
X0146531Y0349085D01*
X0147729Y0347887D02*
X0153486Y0347887D01*
X0152322Y0346688D02*
X0148928Y0346688D01*
X0150126Y0345490D02*
X0151158Y0345490D01*
X0158800Y0335902D02*
X0212700Y0335902D01*
X0212700Y0337100D02*
X0159804Y0337100D01*
X0161003Y0338299D02*
X0212700Y0338299D01*
X0212700Y0339497D02*
X0162201Y0339497D01*
X0163400Y0340696D02*
X0212700Y0340696D01*
X0212700Y0341894D02*
X0164598Y0341894D01*
X0165797Y0343093D02*
X0212103Y0343093D01*
X0210905Y0344291D02*
X0166995Y0344291D01*
X0168194Y0345490D02*
X0209706Y0345490D01*
X0208507Y0346688D02*
X0169393Y0346688D01*
X0170591Y0347887D02*
X0207309Y0347887D01*
X0206110Y0349085D02*
X0171790Y0349085D01*
X0172988Y0350284D02*
X0204912Y0350284D01*
X0203713Y0351482D02*
X0174187Y0351482D01*
X0175385Y0352681D02*
X0202515Y0352681D01*
X0201316Y0353879D02*
X0176584Y0353879D01*
X0177782Y0355078D02*
X0200118Y0355078D01*
X0198919Y0356276D02*
X0178981Y0356276D01*
X0180179Y0357475D02*
X0197721Y0357475D01*
X0206141Y0367063D02*
X0213711Y0367063D01*
X0213611Y0367305D02*
X0213990Y0366390D01*
X0214690Y0365690D01*
X0215605Y0365311D01*
X0216595Y0365311D01*
X0217510Y0365690D01*
X0218210Y0366390D01*
X0218589Y0367305D01*
X0218589Y0368295D01*
X0218210Y0369210D01*
X0217600Y0369820D01*
X0217600Y0371921D01*
X0197621Y0391900D01*
X0181479Y0391900D01*
X0168979Y0379400D01*
X0168100Y0378521D01*
X0168100Y0375820D01*
X0167490Y0375210D01*
X0167111Y0374295D01*
X0167111Y0373305D01*
X0167490Y0372390D01*
X0168190Y0371690D01*
X0169105Y0371311D01*
X0170095Y0371311D01*
X0171010Y0371690D01*
X0171710Y0372390D01*
X0172089Y0373305D01*
X0172089Y0374295D01*
X0171710Y0375210D01*
X0171100Y0375820D01*
X0171100Y0377279D01*
X0182721Y0388900D01*
X0196379Y0388900D01*
X0214600Y0370679D01*
X0214600Y0369820D01*
X0213990Y0369210D01*
X0213611Y0368295D01*
X0213611Y0367305D01*
X0213611Y0368262D02*
X0204943Y0368262D01*
X0203744Y0369460D02*
X0214240Y0369460D01*
X0214600Y0370659D02*
X0202546Y0370659D01*
X0201347Y0371857D02*
X0213422Y0371857D01*
X0212223Y0373056D02*
X0200149Y0373056D01*
X0198950Y0374254D02*
X0211025Y0374254D01*
X0209826Y0375453D02*
X0197752Y0375453D01*
X0196553Y0376651D02*
X0208628Y0376651D01*
X0207429Y0377850D02*
X0195355Y0377850D01*
X0194156Y0379048D02*
X0206231Y0379048D01*
X0205032Y0380247D02*
X0192957Y0380247D01*
X0191759Y0381445D02*
X0203833Y0381445D01*
X0202635Y0382644D02*
X0190560Y0382644D01*
X0189362Y0383842D02*
X0201436Y0383842D01*
X0200238Y0385041D02*
X0188163Y0385041D01*
X0186965Y0386239D02*
X0199039Y0386239D01*
X0197841Y0387438D02*
X0181259Y0387438D01*
X0182096Y0386500D02*
X0181100Y0385504D01*
X0179900Y0384304D01*
X0179900Y0375090D01*
X0170249Y0365150D01*
X0166866Y0365150D01*
X0162350Y0369666D01*
X0162350Y0382766D01*
X0161266Y0383850D01*
X0153966Y0391150D01*
X0127498Y0391150D01*
X0127101Y0391547D01*
X0126127Y0391950D01*
X0125073Y0391950D01*
X0124099Y0391547D01*
X0121752Y0389200D01*
X0121007Y0388455D01*
X0120681Y0387668D01*
X0120508Y0387668D01*
X0120000Y0387160D01*
X0120000Y0393900D01*
X0239600Y0393900D01*
X0240302Y0393831D01*
X0241600Y0393293D01*
X0242593Y0392300D01*
X0243131Y0391002D01*
X0243200Y0390300D01*
X0243200Y0344258D01*
X0239768Y0347689D01*
X0239768Y0349501D01*
X0241289Y0351021D01*
X0242168Y0351900D01*
X0242168Y0380995D01*
X0241289Y0381874D01*
X0240068Y0383095D01*
X0240068Y0387395D01*
X0239365Y0388098D01*
X0234827Y0388098D01*
X0234124Y0387395D01*
X0234124Y0380496D01*
X0234827Y0379793D01*
X0239127Y0379793D01*
X0239168Y0379753D01*
X0239168Y0368807D01*
X0234827Y0368807D01*
X0234124Y0368104D01*
X0234124Y0361205D01*
X0234827Y0360502D01*
X0235596Y0360502D01*
X0235596Y0358512D01*
X0234134Y0358512D01*
X0233431Y0357809D01*
X0233431Y0356500D01*
X0230200Y0356500D01*
X0230200Y0357797D01*
X0229497Y0358500D01*
X0226703Y0358500D01*
X0226000Y0357797D01*
X0226000Y0352203D01*
X0226703Y0351500D01*
X0229497Y0351500D01*
X0230200Y0352203D01*
X0230200Y0353500D01*
X0233431Y0353500D01*
X0233431Y0352484D01*
X0234116Y0351800D01*
X0233431Y0351116D01*
X0233431Y0345791D01*
X0234134Y0345088D01*
X0237561Y0345088D01*
X0239900Y0342749D01*
X0239900Y0328066D01*
X0239577Y0328200D01*
X0238623Y0328200D01*
X0237741Y0327835D01*
X0237065Y0327159D01*
X0237017Y0327043D01*
X0236566Y0327494D01*
X0232100Y0327494D01*
X0232100Y0329154D01*
X0230928Y0330326D01*
X0229594Y0331660D01*
X0229594Y0334400D01*
X0230077Y0334400D01*
X0230959Y0334765D01*
X0231635Y0335441D01*
X0232000Y0336323D01*
X0232000Y0337277D01*
X0231853Y0337631D01*
X0233609Y0337631D01*
X0234312Y0338334D01*
X0234312Y0343266D01*
X0233609Y0343968D01*
X0232200Y0343968D01*
X0232200Y0344203D01*
X0232800Y0344803D01*
X0232800Y0350397D01*
X0232097Y0351100D01*
X0229303Y0351100D01*
X0228600Y0350397D01*
X0228600Y0344803D01*
X0229200Y0344203D01*
X0229200Y0343968D01*
X0228284Y0343968D01*
X0227741Y0343426D01*
X0227350Y0343817D01*
X0227350Y0344270D01*
X0227800Y0344720D01*
X0227800Y0350480D01*
X0226980Y0351300D01*
X0225004Y0351300D01*
X0218104Y0358200D01*
X0215004Y0358200D01*
X0186704Y0386500D01*
X0182096Y0386500D01*
X0181835Y0386239D02*
X0180061Y0386239D01*
X0180637Y0385041D02*
X0178862Y0385041D01*
X0179900Y0383842D02*
X0177664Y0383842D01*
X0176465Y0382644D02*
X0179900Y0382644D01*
X0179900Y0381445D02*
X0175266Y0381445D01*
X0174068Y0380247D02*
X0179900Y0380247D01*
X0179900Y0379048D02*
X0172869Y0379048D01*
X0171671Y0377850D02*
X0179900Y0377850D01*
X0179900Y0376651D02*
X0171100Y0376651D01*
X0171467Y0375453D02*
X0179900Y0375453D01*
X0179089Y0374254D02*
X0172089Y0374254D01*
X0171986Y0373056D02*
X0177925Y0373056D01*
X0176761Y0371857D02*
X0171177Y0371857D01*
X0168023Y0371857D02*
X0162350Y0371857D01*
X0162350Y0370659D02*
X0175597Y0370659D01*
X0174434Y0369460D02*
X0162556Y0369460D01*
X0163755Y0368262D02*
X0173270Y0368262D01*
X0172106Y0367063D02*
X0164953Y0367063D01*
X0166152Y0365865D02*
X0170942Y0365865D01*
X0167214Y0373056D02*
X0162350Y0373056D01*
X0162350Y0374254D02*
X0167111Y0374254D01*
X0167733Y0375453D02*
X0162350Y0375453D01*
X0162350Y0376651D02*
X0168100Y0376651D01*
X0168100Y0377850D02*
X0162350Y0377850D01*
X0162350Y0379048D02*
X0168627Y0379048D01*
X0169825Y0380247D02*
X0162350Y0380247D01*
X0162350Y0381445D02*
X0171024Y0381445D01*
X0172222Y0382644D02*
X0162350Y0382644D01*
X0161274Y0383842D02*
X0173421Y0383842D01*
X0174619Y0385041D02*
X0160076Y0385041D01*
X0158877Y0386239D02*
X0175818Y0386239D01*
X0177016Y0387438D02*
X0157679Y0387438D01*
X0156480Y0388636D02*
X0178215Y0388636D01*
X0179413Y0389835D02*
X0155282Y0389835D01*
X0154083Y0391033D02*
X0180612Y0391033D01*
X0182458Y0388636D02*
X0196642Y0388636D01*
X0198488Y0391033D02*
X0243118Y0391033D01*
X0243200Y0389835D02*
X0199687Y0389835D01*
X0200885Y0388636D02*
X0243200Y0388636D01*
X0243200Y0387438D02*
X0240025Y0387438D01*
X0240068Y0386239D02*
X0243200Y0386239D01*
X0243200Y0385041D02*
X0240068Y0385041D01*
X0240068Y0383842D02*
X0243200Y0383842D01*
X0243200Y0382644D02*
X0240519Y0382644D01*
X0241718Y0381445D02*
X0243200Y0381445D01*
X0243200Y0380247D02*
X0242168Y0380247D01*
X0242168Y0379048D02*
X0243200Y0379048D01*
X0243200Y0377850D02*
X0242168Y0377850D01*
X0242168Y0376651D02*
X0243200Y0376651D01*
X0243200Y0375453D02*
X0242168Y0375453D01*
X0242168Y0374254D02*
X0243200Y0374254D01*
X0243200Y0373056D02*
X0242168Y0373056D01*
X0242168Y0371857D02*
X0243200Y0371857D01*
X0243200Y0370659D02*
X0242168Y0370659D01*
X0242168Y0369460D02*
X0243200Y0369460D01*
X0243200Y0368262D02*
X0242168Y0368262D01*
X0242168Y0367063D02*
X0243200Y0367063D01*
X0243200Y0365865D02*
X0242168Y0365865D01*
X0242168Y0364666D02*
X0243200Y0364666D01*
X0243200Y0363468D02*
X0242168Y0363468D01*
X0242168Y0362269D02*
X0243200Y0362269D01*
X0243200Y0361070D02*
X0242168Y0361070D01*
X0242168Y0359872D02*
X0243200Y0359872D01*
X0243200Y0358673D02*
X0242168Y0358673D01*
X0242168Y0357475D02*
X0243200Y0357475D01*
X0243200Y0356276D02*
X0242168Y0356276D01*
X0242168Y0355078D02*
X0243200Y0355078D01*
X0243200Y0353879D02*
X0242168Y0353879D01*
X0242168Y0352681D02*
X0243200Y0352681D01*
X0243200Y0351482D02*
X0241750Y0351482D01*
X0241289Y0351021D02*
X0241289Y0351021D01*
X0240552Y0350284D02*
X0243200Y0350284D01*
X0243200Y0349085D02*
X0239768Y0349085D01*
X0239768Y0347887D02*
X0243200Y0347887D01*
X0243200Y0346688D02*
X0240769Y0346688D01*
X0241968Y0345490D02*
X0243200Y0345490D01*
X0243166Y0344291D02*
X0243200Y0344291D01*
X0239557Y0343093D02*
X0234312Y0343093D01*
X0234312Y0341894D02*
X0239900Y0341894D01*
X0239900Y0340696D02*
X0234312Y0340696D01*
X0234312Y0339497D02*
X0239900Y0339497D01*
X0239900Y0338299D02*
X0234276Y0338299D01*
X0232000Y0337100D02*
X0239900Y0337100D01*
X0239900Y0335902D02*
X0231826Y0335902D01*
X0230809Y0334703D02*
X0239900Y0334703D01*
X0239900Y0333505D02*
X0229594Y0333505D01*
X0229594Y0332306D02*
X0239900Y0332306D01*
X0239900Y0331108D02*
X0230147Y0331108D01*
X0231345Y0329909D02*
X0239900Y0329909D01*
X0239900Y0328711D02*
X0232100Y0328711D01*
X0232100Y0327512D02*
X0237418Y0327512D01*
X0230100Y0328326D02*
X0230100Y0322500D01*
X0233554Y0319046D01*
X0233554Y0318177D01*
X0234277Y0317454D02*
X0234277Y0312800D01*
X0231845Y0314809D02*
X0231106Y0314069D01*
X0231106Y0311531D01*
X0231159Y0311477D01*
X0230912Y0311230D01*
X0230912Y0309600D01*
X0229768Y0309600D01*
X0229768Y0311230D01*
X0229066Y0311933D01*
X0224528Y0311933D01*
X0224139Y0311544D01*
X0223235Y0311544D01*
X0221606Y0309915D01*
X0221000Y0310521D01*
X0221000Y0320579D01*
X0223057Y0322636D01*
X0223057Y0321860D01*
X0223760Y0321157D01*
X0228614Y0321157D01*
X0229988Y0319783D01*
X0229988Y0315629D01*
X0230808Y0314809D01*
X0231845Y0314809D01*
X0231365Y0314329D02*
X0221000Y0314329D01*
X0221000Y0315527D02*
X0230090Y0315527D01*
X0229988Y0316726D02*
X0221000Y0316726D01*
X0221000Y0317924D02*
X0229988Y0317924D01*
X0229988Y0319123D02*
X0221000Y0319123D01*
X0221000Y0320321D02*
X0229450Y0320321D01*
X0226861Y0318177D02*
X0226861Y0312864D01*
X0229067Y0311932D02*
X0231106Y0311932D01*
X0231106Y0313130D02*
X0221000Y0313130D01*
X0221000Y0311932D02*
X0224527Y0311932D01*
X0222424Y0310733D02*
X0221000Y0310733D01*
X0218000Y0310733D02*
X0187588Y0310733D01*
X0188000Y0309534D02*
X0218000Y0309534D01*
X0218943Y0308336D02*
X0188000Y0308336D01*
X0188000Y0307137D02*
X0218828Y0307137D01*
X0217629Y0305939D02*
X0188000Y0305939D01*
X0187000Y0304740D02*
X0216431Y0304740D01*
X0215232Y0303542D02*
X0187000Y0303542D01*
X0187000Y0302343D02*
X0190655Y0302343D01*
X0190765Y0302389D02*
X0189777Y0301980D01*
X0189020Y0301223D01*
X0188611Y0300235D01*
X0188611Y0299165D01*
X0189020Y0298177D01*
X0189777Y0297420D01*
X0190765Y0297011D01*
X0191835Y0297011D01*
X0192533Y0297300D01*
X0205109Y0297300D01*
X0205565Y0297111D01*
X0206635Y0297111D01*
X0207623Y0297520D01*
X0208380Y0298277D01*
X0208789Y0299265D01*
X0208789Y0300335D01*
X0208380Y0301323D01*
X0207623Y0302080D01*
X0206635Y0302489D01*
X0205565Y0302489D01*
X0204626Y0302100D01*
X0192533Y0302100D01*
X0191835Y0302389D01*
X0190765Y0302389D01*
X0191945Y0302343D02*
X0205214Y0302343D01*
X0206986Y0302343D02*
X0214034Y0302343D01*
X0212835Y0301145D02*
X0208453Y0301145D01*
X0208789Y0299946D02*
X0211637Y0299946D01*
X0210438Y0298748D02*
X0208575Y0298748D01*
X0209240Y0297549D02*
X0207652Y0297549D01*
X0208041Y0296351D02*
X0187000Y0296351D01*
X0187000Y0297549D02*
X0189648Y0297549D01*
X0188784Y0298748D02*
X0187000Y0298748D01*
X0187000Y0299946D02*
X0188611Y0299946D01*
X0188988Y0301145D02*
X0187000Y0301145D01*
X0187000Y0295152D02*
X0206843Y0295152D01*
X0205644Y0293954D02*
X0187000Y0293954D01*
X0187000Y0292755D02*
X0204446Y0292755D01*
X0203247Y0291557D02*
X0187000Y0291557D01*
X0187000Y0290358D02*
X0202049Y0290358D01*
X0200850Y0289160D02*
X0187000Y0289160D01*
X0187000Y0287961D02*
X0199652Y0287961D01*
X0198453Y0286763D02*
X0187989Y0286763D01*
X0188900Y0285564D02*
X0197255Y0285564D01*
X0196056Y0284366D02*
X0188900Y0284366D01*
X0188900Y0283167D02*
X0194858Y0283167D01*
X0194500Y0281969D02*
X0188900Y0281969D01*
X0188900Y0280770D02*
X0194500Y0280770D01*
X0194500Y0279572D02*
X0188900Y0279572D01*
X0188900Y0278373D02*
X0194500Y0278373D01*
X0194500Y0277175D02*
X0188900Y0277175D01*
X0188900Y0275976D02*
X0194500Y0275976D01*
X0194500Y0274778D02*
X0188900Y0274778D01*
X0188900Y0273579D02*
X0194500Y0273579D01*
X0194500Y0272381D02*
X0188900Y0272381D01*
X0188900Y0271182D02*
X0194500Y0271182D01*
X0194500Y0269984D02*
X0188900Y0269984D01*
X0188900Y0268785D02*
X0194500Y0268785D01*
X0194500Y0267587D02*
X0188900Y0267587D01*
X0188900Y0266388D02*
X0194500Y0266388D01*
X0194500Y0265190D02*
X0190664Y0265190D01*
X0192132Y0263991D02*
X0194500Y0263991D01*
X0194500Y0262793D02*
X0192400Y0262793D01*
X0192070Y0261594D02*
X0194500Y0261594D01*
X0194500Y0260396D02*
X0176100Y0260396D01*
X0176100Y0261594D02*
X0187929Y0261594D01*
X0187600Y0262793D02*
X0176100Y0262793D01*
X0176100Y0263991D02*
X0186755Y0263991D01*
X0185900Y0265190D02*
X0176100Y0265190D01*
X0176100Y0266388D02*
X0185900Y0266388D01*
X0185900Y0267587D02*
X0176100Y0267587D01*
X0176100Y0268785D02*
X0181705Y0268785D01*
X0181195Y0269984D02*
X0176100Y0269984D01*
X0176100Y0271182D02*
X0180000Y0271182D01*
X0180000Y0272381D02*
X0176100Y0272381D01*
X0176100Y0273579D02*
X0180000Y0273579D01*
X0180000Y0274778D02*
X0176100Y0274778D01*
X0176100Y0275976D02*
X0180000Y0275976D01*
X0180000Y0277175D02*
X0176100Y0277175D01*
X0176100Y0278373D02*
X0180000Y0278373D01*
X0180000Y0279572D02*
X0176100Y0279572D01*
X0178464Y0280770D02*
X0180000Y0280770D01*
X0180000Y0281969D02*
X0179000Y0281969D01*
X0178839Y0283167D02*
X0180000Y0283167D01*
X0180000Y0284366D02*
X0178100Y0284366D01*
X0178100Y0285564D02*
X0180213Y0285564D01*
X0181200Y0286763D02*
X0178100Y0286763D01*
X0178100Y0287961D02*
X0181200Y0287961D01*
X0181200Y0289160D02*
X0178100Y0289160D01*
X0178100Y0290358D02*
X0181200Y0290358D01*
X0181200Y0291557D02*
X0178100Y0291557D01*
X0178100Y0292755D02*
X0181200Y0292755D01*
X0181200Y0293954D02*
X0178100Y0293954D01*
X0178100Y0295152D02*
X0181200Y0295152D01*
X0181200Y0296351D02*
X0178100Y0296351D01*
X0178100Y0297549D02*
X0181200Y0297549D01*
X0181200Y0298748D02*
X0178100Y0298748D01*
X0178100Y0299946D02*
X0181200Y0299946D01*
X0181200Y0301145D02*
X0178100Y0301145D01*
X0178100Y0302343D02*
X0181200Y0302343D01*
X0181200Y0303542D02*
X0178100Y0303542D01*
X0178100Y0304740D02*
X0180208Y0304740D01*
X0179010Y0305939D02*
X0178100Y0305939D01*
X0175100Y0305939D02*
X0158600Y0305939D01*
X0158600Y0307137D02*
X0174868Y0307137D01*
X0174200Y0308336D02*
X0158600Y0308336D01*
X0158600Y0309534D02*
X0174307Y0309534D01*
X0175139Y0310733D02*
X0158600Y0310733D01*
X0158600Y0311932D02*
X0178200Y0311932D01*
X0178200Y0310733D02*
X0178061Y0310733D01*
X0177249Y0313130D02*
X0158600Y0313130D01*
X0158600Y0314329D02*
X0176050Y0314329D01*
X0174852Y0315527D02*
X0158600Y0315527D01*
X0158600Y0316726D02*
X0173653Y0316726D01*
X0172455Y0317924D02*
X0158600Y0317924D01*
X0158800Y0319123D02*
X0171256Y0319123D01*
X0170058Y0320321D02*
X0158800Y0320321D01*
X0158800Y0321520D02*
X0168859Y0321520D01*
X0167661Y0322718D02*
X0158800Y0322718D01*
X0158800Y0323917D02*
X0164389Y0323917D01*
X0163900Y0325115D02*
X0158800Y0325115D01*
X0158800Y0326314D02*
X0164081Y0326314D01*
X0165128Y0327512D02*
X0158800Y0327512D01*
X0158800Y0328711D02*
X0168424Y0328711D01*
X0170776Y0328711D02*
X0213985Y0328711D01*
X0212787Y0329909D02*
X0158800Y0329909D01*
X0158800Y0331108D02*
X0212700Y0331108D01*
X0212700Y0332306D02*
X0158800Y0332306D01*
X0158800Y0333505D02*
X0212700Y0333505D01*
X0212700Y0334703D02*
X0158800Y0334703D01*
X0171820Y0327512D02*
X0215184Y0327512D01*
X0216382Y0326314D02*
X0172008Y0326314D01*
X0173206Y0325115D02*
X0217581Y0325115D01*
X0218862Y0323917D02*
X0174405Y0323917D01*
X0175603Y0322718D02*
X0218897Y0322718D01*
X0218000Y0321520D02*
X0176802Y0321520D01*
X0178000Y0320321D02*
X0218000Y0320321D01*
X0218000Y0319123D02*
X0179199Y0319123D01*
X0180397Y0317924D02*
X0218000Y0317924D01*
X0218000Y0316726D02*
X0181596Y0316726D01*
X0182794Y0315527D02*
X0218000Y0315527D01*
X0218000Y0314329D02*
X0183993Y0314329D01*
X0185191Y0313130D02*
X0218000Y0313130D01*
X0218000Y0311932D02*
X0186390Y0311932D01*
X0175100Y0304740D02*
X0158600Y0304740D01*
X0158600Y0303542D02*
X0175100Y0303542D01*
X0175100Y0302343D02*
X0172254Y0302343D01*
X0170946Y0302343D02*
X0158600Y0302343D01*
X0158600Y0301145D02*
X0169343Y0301145D01*
X0169000Y0299946D02*
X0158600Y0299946D01*
X0158600Y0298748D02*
X0169222Y0298748D01*
X0170239Y0297549D02*
X0158600Y0297549D01*
X0158600Y0296351D02*
X0172100Y0296351D01*
X0172100Y0295152D02*
X0158600Y0295152D01*
X0158600Y0293954D02*
X0172100Y0293954D01*
X0172100Y0292755D02*
X0158600Y0292755D01*
X0158600Y0291557D02*
X0172100Y0291557D01*
X0172100Y0290358D02*
X0158600Y0290358D01*
X0158600Y0289160D02*
X0172100Y0289160D01*
X0172100Y0287961D02*
X0158600Y0287961D01*
X0159031Y0286763D02*
X0172100Y0286763D01*
X0172100Y0285564D02*
X0159500Y0285564D01*
X0159311Y0284366D02*
X0172100Y0284366D01*
X0172100Y0283167D02*
X0158223Y0283167D01*
X0155977Y0283167D02*
X0152854Y0283167D01*
X0154053Y0281969D02*
X0172100Y0281969D01*
X0172100Y0280770D02*
X0155251Y0280770D01*
X0156450Y0279572D02*
X0172100Y0279572D01*
X0172100Y0278373D02*
X0157648Y0278373D01*
X0158847Y0277175D02*
X0172100Y0277175D01*
X0172100Y0275976D02*
X0160045Y0275976D01*
X0161244Y0274778D02*
X0172100Y0274778D01*
X0172100Y0273579D02*
X0162442Y0273579D01*
X0163641Y0272381D02*
X0172100Y0272381D01*
X0172100Y0271182D02*
X0164839Y0271182D01*
X0166038Y0269984D02*
X0172100Y0269984D01*
X0172100Y0268785D02*
X0167236Y0268785D01*
X0167700Y0267587D02*
X0172100Y0267587D01*
X0172100Y0266388D02*
X0167700Y0266388D01*
X0167700Y0265190D02*
X0172100Y0265190D01*
X0172100Y0263991D02*
X0167700Y0263991D01*
X0167700Y0262793D02*
X0172100Y0262793D01*
X0172100Y0261594D02*
X0167700Y0261594D01*
X0167700Y0260396D02*
X0172100Y0260396D01*
X0172100Y0259197D02*
X0167700Y0259197D01*
X0167700Y0257999D02*
X0172100Y0257999D01*
X0172272Y0256800D02*
X0167700Y0256800D01*
X0167700Y0255601D02*
X0173470Y0255601D01*
X0174400Y0254403D02*
X0167700Y0254403D01*
X0167700Y0253204D02*
X0174400Y0253204D01*
X0174400Y0252006D02*
X0167700Y0252006D01*
X0167700Y0250807D02*
X0174400Y0250807D01*
X0174400Y0249609D02*
X0167700Y0249609D01*
X0167700Y0248410D02*
X0174400Y0248410D01*
X0174400Y0247212D02*
X0167700Y0247212D01*
X0167700Y0246013D02*
X0174400Y0246013D01*
X0174400Y0244815D02*
X0167700Y0244815D01*
X0167700Y0243616D02*
X0174400Y0243616D01*
X0174400Y0242418D02*
X0167700Y0242418D01*
X0167700Y0241219D02*
X0174400Y0241219D01*
X0174400Y0240021D02*
X0167700Y0240021D01*
X0167700Y0238822D02*
X0174400Y0238822D01*
X0174400Y0237624D02*
X0167700Y0237624D01*
X0167700Y0236425D02*
X0174400Y0236425D01*
X0174400Y0235227D02*
X0167700Y0235227D01*
X0167700Y0234028D02*
X0170451Y0234028D01*
X0169629Y0232830D02*
X0167700Y0232830D01*
X0168890Y0231631D02*
X0169500Y0231631D01*
X0167044Y0229234D02*
X0138000Y0229234D01*
X0138000Y0228036D02*
X0168243Y0228036D01*
X0168459Y0227335D02*
X0167577Y0227700D01*
X0166623Y0227700D01*
X0165741Y0227335D01*
X0165065Y0226659D01*
X0164700Y0225777D01*
X0164700Y0224823D01*
X0165065Y0223941D01*
X0165741Y0223265D01*
X0166623Y0222900D01*
X0167100Y0222900D01*
X0167100Y0177921D01*
X0157100Y0187921D01*
X0157100Y0193921D01*
X0156600Y0194421D01*
X0155721Y0195300D01*
X0150979Y0195300D01*
X0149100Y0193421D01*
X0149100Y0185679D01*
X0158100Y0176679D01*
X0158100Y0170179D01*
X0159600Y0168679D01*
X0160479Y0167800D01*
X0165721Y0167800D01*
X0166514Y0168592D01*
X0166841Y0168265D01*
X0167723Y0167900D01*
X0168677Y0167900D01*
X0169559Y0168265D01*
X0169600Y0168306D01*
X0169600Y0156179D01*
X0169979Y0155800D01*
X0157404Y0155800D01*
X0145404Y0167800D01*
X0147221Y0167800D01*
X0148100Y0168679D01*
X0148600Y0169179D01*
X0148600Y0188421D01*
X0148100Y0188921D01*
X0148100Y0188921D01*
X0147221Y0189800D01*
X0139300Y0189800D01*
X0139300Y0192796D01*
X0149693Y0203189D01*
X0150605Y0202811D01*
X0151595Y0202811D01*
X0152510Y0203190D01*
X0153049Y0203729D01*
X0160029Y0196749D01*
X0159490Y0196210D01*
X0159111Y0195295D01*
X0159111Y0194305D01*
X0159490Y0193390D01*
X0160190Y0192690D01*
X0161105Y0192311D01*
X0162095Y0192311D01*
X0163010Y0192690D01*
X0163710Y0193390D01*
X0164089Y0194305D01*
X0164089Y0195295D01*
X0163710Y0196210D01*
X0163100Y0196820D01*
X0163100Y0197921D01*
X0162221Y0198800D01*
X0155663Y0205359D01*
X0158400Y0208096D01*
X0158400Y0213504D01*
X0157404Y0214500D01*
X0156604Y0215300D01*
X0146704Y0215300D01*
X0138000Y0224004D01*
X0138000Y0235604D01*
X0137004Y0236600D01*
X0132600Y0241004D01*
X0132600Y0261017D01*
X0147647Y0261017D01*
X0148077Y0260587D01*
X0149065Y0260178D01*
X0150135Y0260178D01*
X0151123Y0260587D01*
X0151880Y0261344D01*
X0152289Y0262332D01*
X0152289Y0263402D01*
X0151880Y0264390D01*
X0151123Y0265147D01*
X0150135Y0265556D01*
X0149065Y0265556D01*
X0148077Y0265147D01*
X0147647Y0264717D01*
X0132600Y0264717D01*
X0132600Y0265304D01*
X0131604Y0266300D01*
X0126200Y0271704D01*
X0126200Y0285796D01*
X0147000Y0306596D01*
X0147000Y0306421D01*
X0143600Y0303021D01*
X0143600Y0288179D01*
X0164700Y0267079D01*
X0164700Y0231579D01*
X0169600Y0226679D01*
X0169600Y0224921D01*
X0169500Y0225021D01*
X0169500Y0225777D01*
X0169135Y0226659D01*
X0168459Y0227335D01*
X0168957Y0226837D02*
X0169441Y0226837D01*
X0169500Y0225639D02*
X0169600Y0225639D01*
X0167100Y0222043D02*
X0139961Y0222043D01*
X0141159Y0220845D02*
X0167100Y0220845D01*
X0167100Y0219646D02*
X0142358Y0219646D01*
X0143557Y0218448D02*
X0167100Y0218448D01*
X0167100Y0217249D02*
X0144755Y0217249D01*
X0145954Y0216051D02*
X0167100Y0216051D01*
X0167100Y0214852D02*
X0157052Y0214852D01*
X0158251Y0213654D02*
X0167100Y0213654D01*
X0167100Y0212455D02*
X0158400Y0212455D01*
X0158400Y0211257D02*
X0167100Y0211257D01*
X0167100Y0210058D02*
X0158400Y0210058D01*
X0158400Y0208860D02*
X0167100Y0208860D01*
X0167100Y0207661D02*
X0157965Y0207661D01*
X0156767Y0206463D02*
X0167100Y0206463D01*
X0167100Y0205264D02*
X0155757Y0205264D01*
X0156956Y0204066D02*
X0167100Y0204066D01*
X0167100Y0202867D02*
X0158154Y0202867D01*
X0159353Y0201668D02*
X0167100Y0201668D01*
X0167100Y0200470D02*
X0160551Y0200470D01*
X0161750Y0199271D02*
X0167100Y0199271D01*
X0167100Y0198073D02*
X0162948Y0198073D01*
X0163100Y0196874D02*
X0167100Y0196874D01*
X0167100Y0195676D02*
X0163931Y0195676D01*
X0164089Y0194477D02*
X0167100Y0194477D01*
X0167100Y0193279D02*
X0163599Y0193279D01*
X0167100Y0192080D02*
X0157100Y0192080D01*
X0157100Y0190882D02*
X0167100Y0190882D01*
X0167100Y0189683D02*
X0157100Y0189683D01*
X0157100Y0188485D02*
X0167100Y0188485D01*
X0167100Y0187286D02*
X0157735Y0187286D01*
X0158933Y0186088D02*
X0167100Y0186088D01*
X0167100Y0184889D02*
X0160132Y0184889D01*
X0161330Y0183691D02*
X0167100Y0183691D01*
X0167100Y0182492D02*
X0162529Y0182492D01*
X0163728Y0181294D02*
X0167100Y0181294D01*
X0167100Y0180095D02*
X0164926Y0180095D01*
X0166125Y0178897D02*
X0167100Y0178897D01*
X0174450Y0178897D02*
X0187660Y0178897D01*
X0187500Y0179283D02*
X0187896Y0178327D01*
X0188627Y0177596D01*
X0189583Y0177200D01*
X0189659Y0177200D01*
X0190709Y0176150D01*
X0204622Y0176150D01*
X0198072Y0169600D01*
X0198072Y0169600D01*
X0196900Y0168428D01*
X0193772Y0165300D01*
X0180777Y0165300D01*
X0180573Y0165504D01*
X0179617Y0165900D01*
X0178583Y0165900D01*
X0177627Y0165504D01*
X0176896Y0164773D01*
X0176500Y0163817D01*
X0176500Y0162783D01*
X0176896Y0161827D01*
X0177627Y0161096D01*
X0178583Y0160700D01*
X0179617Y0160700D01*
X0180573Y0161096D01*
X0180777Y0161300D01*
X0195428Y0161300D01*
X0198900Y0164772D01*
X0213100Y0150572D01*
X0213100Y0148972D01*
X0214272Y0147800D01*
X0216600Y0145472D01*
X0217772Y0144300D01*
X0229200Y0144300D01*
X0229396Y0143827D01*
X0230127Y0143096D01*
X0231083Y0142700D01*
X0232117Y0142700D01*
X0233073Y0143096D01*
X0233804Y0143827D01*
X0234200Y0144783D01*
X0234200Y0145817D01*
X0233804Y0146773D01*
X0233073Y0147504D01*
X0232117Y0147900D01*
X0231828Y0147900D01*
X0231428Y0148300D01*
X0219428Y0148300D01*
X0217100Y0150628D01*
X0217100Y0152228D01*
X0215928Y0153400D01*
X0201728Y0167600D01*
X0207928Y0173800D01*
X0207928Y0173800D01*
X0209100Y0174972D01*
X0209100Y0176497D01*
X0209380Y0176777D01*
X0209789Y0177765D01*
X0209789Y0178835D01*
X0209380Y0179823D01*
X0208623Y0180580D01*
X0207635Y0180989D01*
X0206565Y0180989D01*
X0205577Y0180580D01*
X0205447Y0180450D01*
X0192645Y0180450D01*
X0192304Y0181273D01*
X0191573Y0182004D01*
X0190617Y0182400D01*
X0189583Y0182400D01*
X0188627Y0182004D01*
X0187896Y0181273D01*
X0187500Y0180317D01*
X0187500Y0179283D01*
X0187500Y0180095D02*
X0174612Y0180095D01*
X0175810Y0181294D02*
X0187917Y0181294D01*
X0188525Y0177698D02*
X0174450Y0177698D01*
X0174450Y0176500D02*
X0190360Y0176500D01*
X0192283Y0181294D02*
X0220900Y0181294D01*
X0220900Y0182492D02*
X0177009Y0182492D01*
X0178207Y0183691D02*
X0220900Y0183691D01*
X0220900Y0184889D02*
X0179406Y0184889D01*
X0180604Y0186088D02*
X0220900Y0186088D01*
X0220900Y0187286D02*
X0181803Y0187286D01*
X0183001Y0188485D02*
X0220900Y0188485D01*
X0220900Y0189683D02*
X0183250Y0189683D01*
X0183250Y0190882D02*
X0220900Y0190882D01*
X0220900Y0192080D02*
X0183250Y0192080D01*
X0183250Y0193279D02*
X0220900Y0193279D01*
X0220900Y0194477D02*
X0183250Y0194477D01*
X0183250Y0195676D02*
X0220900Y0195676D01*
X0220900Y0196874D02*
X0183250Y0196874D01*
X0183250Y0198073D02*
X0220900Y0198073D01*
X0220900Y0199271D02*
X0183250Y0199271D01*
X0183250Y0200470D02*
X0199954Y0200470D01*
X0201246Y0200470D02*
X0220900Y0200470D01*
X0220900Y0201668D02*
X0202729Y0201668D01*
X0203000Y0202867D02*
X0220900Y0202867D01*
X0219436Y0204066D02*
X0202674Y0204066D01*
X0200257Y0205264D02*
X0219116Y0205264D01*
X0217965Y0206463D02*
X0199059Y0206463D01*
X0197860Y0207661D02*
X0216766Y0207661D01*
X0215568Y0208860D02*
X0196662Y0208860D01*
X0195463Y0210058D02*
X0214369Y0210058D01*
X0213171Y0211257D02*
X0194265Y0211257D01*
X0193066Y0212455D02*
X0211972Y0212455D01*
X0210774Y0213654D02*
X0191868Y0213654D01*
X0190669Y0214852D02*
X0209575Y0214852D01*
X0208377Y0216051D02*
X0189471Y0216051D01*
X0188272Y0217249D02*
X0207178Y0217249D01*
X0205980Y0218448D02*
X0187074Y0218448D01*
X0185875Y0219646D02*
X0204781Y0219646D01*
X0203583Y0220845D02*
X0184677Y0220845D01*
X0183478Y0222043D02*
X0196463Y0222043D01*
X0195734Y0223242D02*
X0182280Y0223242D01*
X0181754Y0224440D02*
X0195767Y0224440D01*
X0196333Y0225639D02*
X0196545Y0225639D01*
X0192867Y0225639D02*
X0178400Y0225639D01*
X0178400Y0226837D02*
X0192200Y0226837D01*
X0192307Y0228036D02*
X0178400Y0228036D01*
X0178400Y0229234D02*
X0193140Y0229234D01*
X0194500Y0230433D02*
X0178400Y0230433D01*
X0178400Y0231631D02*
X0194500Y0231631D01*
X0194500Y0232830D02*
X0178400Y0232830D01*
X0178400Y0234028D02*
X0194500Y0234028D01*
X0194500Y0235227D02*
X0178400Y0235227D01*
X0178400Y0236425D02*
X0194500Y0236425D01*
X0194500Y0237624D02*
X0178400Y0237624D01*
X0178400Y0238822D02*
X0194500Y0238822D01*
X0194500Y0240021D02*
X0178400Y0240021D01*
X0178400Y0241219D02*
X0194500Y0241219D01*
X0194500Y0242418D02*
X0178400Y0242418D01*
X0178400Y0243616D02*
X0194500Y0243616D01*
X0194500Y0244815D02*
X0178400Y0244815D01*
X0178400Y0246013D02*
X0194500Y0246013D01*
X0194500Y0247212D02*
X0178400Y0247212D01*
X0178400Y0248410D02*
X0194500Y0248410D01*
X0194500Y0249609D02*
X0178400Y0249609D01*
X0178400Y0250807D02*
X0194500Y0250807D01*
X0194500Y0252006D02*
X0178400Y0252006D01*
X0178400Y0253204D02*
X0194500Y0253204D01*
X0194500Y0254403D02*
X0178400Y0254403D01*
X0178400Y0255601D02*
X0194500Y0255601D01*
X0194500Y0256800D02*
X0177928Y0256800D01*
X0176730Y0257999D02*
X0194500Y0257999D01*
X0194500Y0259197D02*
X0176100Y0259197D01*
X0174100Y0257800D02*
X0176400Y0255500D01*
X0176400Y0200900D01*
X0176600Y0200700D01*
X0179013Y0201668D02*
X0179550Y0201668D01*
X0179550Y0200470D02*
X0179200Y0200470D01*
X0179550Y0199271D02*
X0178822Y0199271D01*
X0179550Y0198073D02*
X0175450Y0198073D01*
X0175450Y0196874D02*
X0179550Y0196874D01*
X0179550Y0195676D02*
X0175540Y0195676D01*
X0178400Y0202867D02*
X0179550Y0202867D01*
X0179550Y0204066D02*
X0178400Y0204066D01*
X0178400Y0205264D02*
X0179550Y0205264D01*
X0179098Y0206463D02*
X0178400Y0206463D01*
X0178400Y0207661D02*
X0178800Y0207661D01*
X0179066Y0208860D02*
X0178400Y0208860D01*
X0178400Y0210058D02*
X0180299Y0210058D01*
X0182501Y0210058D02*
X0191221Y0210058D01*
X0192419Y0208860D02*
X0183734Y0208860D01*
X0184000Y0207661D02*
X0193618Y0207661D01*
X0194816Y0206463D02*
X0183702Y0206463D01*
X0183250Y0205264D02*
X0196015Y0205264D01*
X0197213Y0204066D02*
X0183250Y0204066D01*
X0183250Y0202867D02*
X0198200Y0202867D01*
X0198471Y0201668D02*
X0183250Y0201668D01*
X0178400Y0211257D02*
X0190022Y0211257D01*
X0188824Y0212455D02*
X0178400Y0212455D01*
X0178400Y0213654D02*
X0187625Y0213654D01*
X0186427Y0214852D02*
X0178400Y0214852D01*
X0178400Y0216051D02*
X0185228Y0216051D01*
X0184030Y0217249D02*
X0178400Y0217249D01*
X0178400Y0218448D02*
X0182831Y0218448D01*
X0181633Y0219646D02*
X0178400Y0219646D01*
X0178400Y0220845D02*
X0178732Y0220845D01*
X0174400Y0234028D02*
X0173749Y0234028D01*
X0165846Y0230433D02*
X0138000Y0230433D01*
X0138000Y0231631D02*
X0164700Y0231631D01*
X0164700Y0232830D02*
X0138000Y0232830D01*
X0138000Y0234028D02*
X0164700Y0234028D01*
X0164700Y0235227D02*
X0138000Y0235227D01*
X0137179Y0236425D02*
X0164700Y0236425D01*
X0164700Y0237624D02*
X0135980Y0237624D01*
X0134782Y0238822D02*
X0164700Y0238822D01*
X0164700Y0240021D02*
X0133583Y0240021D01*
X0132600Y0241219D02*
X0164700Y0241219D01*
X0164700Y0242418D02*
X0132600Y0242418D01*
X0132600Y0243616D02*
X0164700Y0243616D01*
X0164700Y0244815D02*
X0132600Y0244815D01*
X0132600Y0246013D02*
X0164700Y0246013D01*
X0164700Y0247212D02*
X0132600Y0247212D01*
X0132600Y0248410D02*
X0164700Y0248410D01*
X0164700Y0249609D02*
X0132600Y0249609D01*
X0132600Y0250807D02*
X0164700Y0250807D01*
X0164700Y0252006D02*
X0132600Y0252006D01*
X0132600Y0253204D02*
X0164700Y0253204D01*
X0164700Y0254403D02*
X0132600Y0254403D01*
X0132600Y0255601D02*
X0164700Y0255601D01*
X0164700Y0256800D02*
X0132600Y0256800D01*
X0132600Y0257999D02*
X0164700Y0257999D01*
X0164700Y0259197D02*
X0132600Y0259197D01*
X0132600Y0260396D02*
X0148540Y0260396D01*
X0150660Y0260396D02*
X0164700Y0260396D01*
X0164700Y0261594D02*
X0151983Y0261594D01*
X0152289Y0262793D02*
X0164700Y0262793D01*
X0164700Y0263991D02*
X0152045Y0263991D01*
X0151019Y0265190D02*
X0164700Y0265190D01*
X0164700Y0266388D02*
X0131516Y0266388D01*
X0132600Y0265190D02*
X0148181Y0265190D01*
X0157001Y0274778D02*
X0126200Y0274778D01*
X0126200Y0275976D02*
X0155802Y0275976D01*
X0154604Y0277175D02*
X0126200Y0277175D01*
X0126200Y0278373D02*
X0153405Y0278373D01*
X0152207Y0279572D02*
X0126200Y0279572D01*
X0126200Y0280770D02*
X0151008Y0280770D01*
X0149810Y0281969D02*
X0126200Y0281969D01*
X0126200Y0283167D02*
X0148611Y0283167D01*
X0147413Y0284366D02*
X0126200Y0284366D01*
X0126200Y0285564D02*
X0146214Y0285564D01*
X0145016Y0286763D02*
X0127167Y0286763D01*
X0128365Y0287961D02*
X0143817Y0287961D01*
X0143600Y0289160D02*
X0129564Y0289160D01*
X0130762Y0290358D02*
X0143600Y0290358D01*
X0143600Y0291557D02*
X0131961Y0291557D01*
X0133159Y0292755D02*
X0143600Y0292755D01*
X0143600Y0293954D02*
X0134358Y0293954D01*
X0135557Y0295152D02*
X0143600Y0295152D01*
X0143600Y0296351D02*
X0136755Y0296351D01*
X0137954Y0297549D02*
X0143600Y0297549D01*
X0143600Y0298748D02*
X0139152Y0298748D01*
X0140351Y0299946D02*
X0143600Y0299946D01*
X0143600Y0301145D02*
X0141549Y0301145D01*
X0142748Y0302343D02*
X0143600Y0302343D01*
X0143946Y0303542D02*
X0144121Y0303542D01*
X0145145Y0304740D02*
X0145319Y0304740D01*
X0146343Y0305939D02*
X0146518Y0305939D01*
X0148363Y0303542D02*
X0155600Y0303542D01*
X0155600Y0304740D02*
X0150835Y0304740D01*
X0151682Y0305939D02*
X0155600Y0305939D01*
X0155600Y0307137D02*
X0151800Y0307137D01*
X0151158Y0308336D02*
X0155600Y0308336D01*
X0155600Y0309534D02*
X0149939Y0309534D01*
X0151137Y0310733D02*
X0155600Y0310733D01*
X0155600Y0311932D02*
X0152336Y0311932D01*
X0153534Y0313130D02*
X0155600Y0313130D01*
X0155600Y0314329D02*
X0154733Y0314329D01*
X0155600Y0302343D02*
X0147165Y0302343D01*
X0146600Y0301145D02*
X0155600Y0301145D01*
X0155600Y0299946D02*
X0146600Y0299946D01*
X0146600Y0298748D02*
X0155600Y0298748D01*
X0155600Y0297549D02*
X0146600Y0297549D01*
X0146600Y0296351D02*
X0155600Y0296351D01*
X0155600Y0295152D02*
X0146600Y0295152D01*
X0146600Y0293954D02*
X0155600Y0293954D01*
X0155600Y0292755D02*
X0146600Y0292755D01*
X0146600Y0291557D02*
X0155600Y0291557D01*
X0155600Y0290358D02*
X0146600Y0290358D01*
X0146862Y0289160D02*
X0155600Y0289160D01*
X0155600Y0287961D02*
X0148060Y0287961D01*
X0149259Y0286763D02*
X0155169Y0286763D01*
X0154700Y0285564D02*
X0150457Y0285564D01*
X0151656Y0284366D02*
X0154889Y0284366D01*
X0158200Y0273579D02*
X0126200Y0273579D01*
X0126200Y0272381D02*
X0159398Y0272381D01*
X0160597Y0271182D02*
X0126722Y0271182D01*
X0127921Y0269984D02*
X0161795Y0269984D01*
X0162994Y0268785D02*
X0129119Y0268785D01*
X0130318Y0267587D02*
X0164192Y0267587D01*
X0174100Y0257800D02*
X0174100Y0297300D01*
X0171600Y0299800D01*
X0173857Y0301145D02*
X0175100Y0301145D01*
X0175100Y0299946D02*
X0174282Y0299946D01*
X0185763Y0268785D02*
X0185900Y0268785D01*
X0201800Y0268785D02*
X0243200Y0268785D01*
X0243200Y0267587D02*
X0201800Y0267587D01*
X0201800Y0266388D02*
X0243200Y0266388D01*
X0243200Y0265190D02*
X0201800Y0265190D01*
X0201800Y0263991D02*
X0243200Y0263991D01*
X0243200Y0262793D02*
X0201800Y0262793D01*
X0201800Y0261594D02*
X0243200Y0261594D01*
X0243200Y0260396D02*
X0201800Y0260396D01*
X0201800Y0259197D02*
X0243200Y0259197D01*
X0243200Y0257999D02*
X0201800Y0257999D01*
X0201800Y0256800D02*
X0243200Y0256800D01*
X0243200Y0255601D02*
X0201800Y0255601D01*
X0201800Y0254403D02*
X0243200Y0254403D01*
X0243200Y0253204D02*
X0201800Y0253204D01*
X0201800Y0252006D02*
X0243200Y0252006D01*
X0243200Y0269984D02*
X0201800Y0269984D01*
X0201800Y0271182D02*
X0243200Y0271182D01*
X0243200Y0272381D02*
X0201800Y0272381D01*
X0201800Y0273579D02*
X0243200Y0273579D01*
X0243200Y0274778D02*
X0201800Y0274778D01*
X0201800Y0275976D02*
X0243200Y0275976D01*
X0243200Y0277175D02*
X0201800Y0277175D01*
X0201800Y0278373D02*
X0243200Y0278373D01*
X0243200Y0279572D02*
X0201800Y0279572D01*
X0201800Y0280770D02*
X0243200Y0280770D01*
X0243200Y0281969D02*
X0202505Y0281969D01*
X0203696Y0283167D02*
X0243200Y0283167D01*
X0243200Y0284366D02*
X0204888Y0284366D01*
X0206080Y0285564D02*
X0243200Y0285564D01*
X0243200Y0286763D02*
X0207271Y0286763D01*
X0208463Y0287961D02*
X0243200Y0287961D01*
X0243200Y0289160D02*
X0209655Y0289160D01*
X0210847Y0290358D02*
X0243200Y0290358D01*
X0243200Y0291557D02*
X0212038Y0291557D01*
X0213230Y0292755D02*
X0243200Y0292755D01*
X0243200Y0293954D02*
X0214422Y0293954D01*
X0215613Y0295152D02*
X0243200Y0295152D01*
X0243200Y0296351D02*
X0216805Y0296351D01*
X0217997Y0297549D02*
X0243200Y0297549D01*
X0243200Y0298748D02*
X0219189Y0298748D01*
X0220380Y0299946D02*
X0243200Y0299946D01*
X0243200Y0301145D02*
X0221572Y0301145D01*
X0222764Y0302343D02*
X0243200Y0302343D01*
X0243200Y0303542D02*
X0223955Y0303542D01*
X0229768Y0310733D02*
X0230912Y0310733D01*
X0236045Y0304740D02*
X0243200Y0304740D01*
X0243200Y0305939D02*
X0237243Y0305939D01*
X0238442Y0307137D02*
X0243200Y0307137D01*
X0243200Y0308336D02*
X0239640Y0308336D01*
X0240839Y0309534D02*
X0243200Y0309534D01*
X0243200Y0310733D02*
X0242037Y0310733D01*
X0230100Y0328326D02*
X0226226Y0332200D01*
X0222000Y0332200D01*
X0221100Y0331300D01*
X0221941Y0321520D02*
X0223398Y0321520D01*
X0227371Y0344291D02*
X0229112Y0344291D01*
X0228600Y0345490D02*
X0227800Y0345490D01*
X0227800Y0346688D02*
X0228600Y0346688D01*
X0228600Y0347887D02*
X0227800Y0347887D01*
X0227800Y0349085D02*
X0228600Y0349085D01*
X0228600Y0350284D02*
X0227800Y0350284D01*
X0226000Y0352681D02*
X0223623Y0352681D01*
X0222425Y0353879D02*
X0226000Y0353879D01*
X0226000Y0355078D02*
X0221226Y0355078D01*
X0220028Y0356276D02*
X0226000Y0356276D01*
X0226000Y0357475D02*
X0218829Y0357475D01*
X0214531Y0358673D02*
X0235596Y0358673D01*
X0235596Y0359872D02*
X0213332Y0359872D01*
X0212134Y0361070D02*
X0234258Y0361070D01*
X0234124Y0362269D02*
X0210935Y0362269D01*
X0209737Y0363468D02*
X0234124Y0363468D01*
X0234124Y0364666D02*
X0208538Y0364666D01*
X0207340Y0365865D02*
X0214516Y0365865D01*
X0217684Y0365865D02*
X0234124Y0365865D01*
X0234124Y0367063D02*
X0218489Y0367063D01*
X0218589Y0368262D02*
X0234282Y0368262D01*
X0239168Y0369460D02*
X0217960Y0369460D01*
X0217600Y0370659D02*
X0239168Y0370659D01*
X0239168Y0371857D02*
X0217600Y0371857D01*
X0216466Y0373056D02*
X0239168Y0373056D01*
X0239168Y0374254D02*
X0215267Y0374254D01*
X0214069Y0375453D02*
X0239168Y0375453D01*
X0239168Y0376651D02*
X0212870Y0376651D01*
X0211672Y0377850D02*
X0239168Y0377850D01*
X0239168Y0379048D02*
X0210473Y0379048D01*
X0209275Y0380247D02*
X0221381Y0380247D01*
X0221132Y0380496D02*
X0221835Y0379793D01*
X0226373Y0379793D01*
X0227076Y0380496D01*
X0227076Y0387395D01*
X0226373Y0388098D01*
X0221835Y0388098D01*
X0221132Y0387395D01*
X0221132Y0380496D01*
X0221132Y0381445D02*
X0208076Y0381445D01*
X0206878Y0382644D02*
X0221132Y0382644D01*
X0221132Y0383842D02*
X0205679Y0383842D01*
X0204481Y0385041D02*
X0221132Y0385041D01*
X0221132Y0386239D02*
X0203282Y0386239D01*
X0202084Y0387438D02*
X0221175Y0387438D01*
X0227033Y0387438D02*
X0234167Y0387438D01*
X0234124Y0386239D02*
X0227076Y0386239D01*
X0227076Y0385041D02*
X0234124Y0385041D01*
X0234124Y0383842D02*
X0227076Y0383842D01*
X0227076Y0382644D02*
X0234124Y0382644D01*
X0234124Y0381445D02*
X0227076Y0381445D01*
X0226826Y0380247D02*
X0234374Y0380247D01*
X0242622Y0392232D02*
X0120000Y0392232D01*
X0120000Y0393430D02*
X0241269Y0393430D01*
X0233431Y0357475D02*
X0230200Y0357475D01*
X0230200Y0352681D02*
X0233431Y0352681D01*
X0233798Y0351482D02*
X0224822Y0351482D01*
X0232288Y0344291D02*
X0238358Y0344291D01*
X0233733Y0345490D02*
X0232800Y0345490D01*
X0232800Y0346688D02*
X0233431Y0346688D01*
X0233431Y0347887D02*
X0232800Y0347887D01*
X0232800Y0349085D02*
X0233431Y0349085D01*
X0233431Y0350284D02*
X0232800Y0350284D01*
X0220000Y0250807D02*
X0201800Y0250807D01*
X0201800Y0249609D02*
X0220000Y0249609D01*
X0220000Y0248410D02*
X0201800Y0248410D01*
X0201800Y0247212D02*
X0220000Y0247212D01*
X0220000Y0246013D02*
X0201800Y0246013D01*
X0201800Y0244815D02*
X0220000Y0244815D01*
X0220000Y0237624D02*
X0201800Y0237624D01*
X0201800Y0238822D02*
X0212011Y0238822D01*
X0211178Y0240021D02*
X0201800Y0240021D01*
X0201800Y0241219D02*
X0211026Y0241219D01*
X0211421Y0242418D02*
X0201800Y0242418D01*
X0201800Y0243616D02*
X0213166Y0243616D01*
X0220000Y0236425D02*
X0201800Y0236425D01*
X0201800Y0235227D02*
X0220000Y0235227D01*
X0220000Y0234028D02*
X0201800Y0234028D01*
X0201800Y0232830D02*
X0220000Y0232830D01*
X0220000Y0231631D02*
X0201800Y0231631D01*
X0201800Y0230433D02*
X0220000Y0230433D01*
X0220000Y0229234D02*
X0201800Y0229234D01*
X0201800Y0228036D02*
X0220000Y0228036D01*
X0220000Y0226837D02*
X0202398Y0226837D01*
X0203597Y0225639D02*
X0220000Y0225639D01*
X0220000Y0224440D02*
X0204795Y0224440D01*
X0205994Y0223242D02*
X0220310Y0223242D01*
X0214384Y0214852D02*
X0243200Y0214852D01*
X0243200Y0213654D02*
X0215582Y0213654D01*
X0216781Y0212455D02*
X0243200Y0212455D01*
X0243200Y0211257D02*
X0217979Y0211257D01*
X0219178Y0210058D02*
X0243200Y0210058D01*
X0243200Y0208860D02*
X0220376Y0208860D01*
X0222125Y0207661D02*
X0243200Y0207661D01*
X0243200Y0206463D02*
X0223638Y0206463D01*
X0223972Y0205264D02*
X0243200Y0205264D01*
X0243200Y0204066D02*
X0224300Y0204066D01*
X0224300Y0202867D02*
X0243200Y0202867D01*
X0243200Y0201668D02*
X0224300Y0201668D01*
X0224300Y0200470D02*
X0243200Y0200470D01*
X0243200Y0199271D02*
X0224300Y0199271D01*
X0224300Y0198073D02*
X0243200Y0198073D01*
X0243200Y0196874D02*
X0224300Y0196874D01*
X0224300Y0195676D02*
X0243200Y0195676D01*
X0243200Y0194477D02*
X0224300Y0194477D01*
X0224300Y0193279D02*
X0243200Y0193279D01*
X0243200Y0192080D02*
X0224300Y0192080D01*
X0224300Y0190882D02*
X0243200Y0190882D01*
X0243200Y0189683D02*
X0224300Y0189683D01*
X0224300Y0188485D02*
X0243200Y0188485D01*
X0243200Y0187286D02*
X0224300Y0187286D01*
X0224300Y0186088D02*
X0243200Y0186088D01*
X0243200Y0184889D02*
X0224300Y0184889D01*
X0224300Y0183691D02*
X0243200Y0183691D01*
X0243200Y0182492D02*
X0224300Y0182492D01*
X0224300Y0181294D02*
X0243200Y0181294D01*
X0243200Y0180095D02*
X0224300Y0180095D01*
X0224300Y0178897D02*
X0243200Y0178897D01*
X0243200Y0177698D02*
X0224300Y0177698D01*
X0224300Y0176500D02*
X0243200Y0176500D01*
X0243200Y0175301D02*
X0224300Y0175301D01*
X0224300Y0174103D02*
X0243200Y0174103D01*
X0243200Y0172904D02*
X0224300Y0172904D01*
X0224300Y0171706D02*
X0243200Y0171706D01*
X0243200Y0170507D02*
X0224300Y0170507D01*
X0224300Y0169309D02*
X0243200Y0169309D01*
X0243200Y0168110D02*
X0224300Y0168110D01*
X0224300Y0166912D02*
X0243200Y0166912D01*
X0243200Y0165713D02*
X0224300Y0165713D01*
X0224300Y0164515D02*
X0243200Y0164515D01*
X0243200Y0163316D02*
X0224300Y0163316D01*
X0224300Y0162118D02*
X0243200Y0162118D01*
X0243200Y0160919D02*
X0224300Y0160919D01*
X0224300Y0159721D02*
X0243200Y0159721D01*
X0243200Y0158522D02*
X0224300Y0158522D01*
X0224300Y0157324D02*
X0243200Y0157324D01*
X0243200Y0156125D02*
X0224300Y0156125D01*
X0224300Y0154927D02*
X0243200Y0154927D01*
X0243200Y0153728D02*
X0224300Y0153728D01*
X0224688Y0152530D02*
X0243200Y0152530D01*
X0243200Y0151331D02*
X0225000Y0151331D01*
X0224714Y0150132D02*
X0243200Y0150132D01*
X0243200Y0148934D02*
X0223159Y0148934D01*
X0222041Y0148934D02*
X0218794Y0148934D01*
X0217596Y0150132D02*
X0220486Y0150132D01*
X0220200Y0151331D02*
X0217100Y0151331D01*
X0216799Y0152530D02*
X0220512Y0152530D01*
X0220900Y0153728D02*
X0215600Y0153728D01*
X0214402Y0154927D02*
X0220900Y0154927D01*
X0220900Y0156125D02*
X0213203Y0156125D01*
X0212005Y0157324D02*
X0220900Y0157324D01*
X0220900Y0158522D02*
X0210806Y0158522D01*
X0209608Y0159721D02*
X0220900Y0159721D01*
X0220900Y0160919D02*
X0208409Y0160919D01*
X0207211Y0162118D02*
X0220900Y0162118D01*
X0220900Y0163316D02*
X0206012Y0163316D01*
X0204814Y0164515D02*
X0220900Y0164515D01*
X0220900Y0165713D02*
X0203615Y0165713D01*
X0202417Y0166912D02*
X0220900Y0166912D01*
X0220900Y0168110D02*
X0202239Y0168110D01*
X0203437Y0169309D02*
X0220900Y0169309D01*
X0220900Y0170507D02*
X0204636Y0170507D01*
X0205834Y0171706D02*
X0220900Y0171706D01*
X0220900Y0172904D02*
X0207033Y0172904D01*
X0208231Y0174103D02*
X0220900Y0174103D01*
X0220900Y0175301D02*
X0209100Y0175301D01*
X0209103Y0176500D02*
X0220900Y0176500D01*
X0220900Y0177698D02*
X0209761Y0177698D01*
X0209763Y0178897D02*
X0220900Y0178897D01*
X0220900Y0180095D02*
X0209107Y0180095D01*
X0207100Y0178300D02*
X0207100Y0175800D01*
X0198900Y0167600D01*
X0215100Y0151400D01*
X0215100Y0149800D01*
X0218600Y0146300D01*
X0230600Y0146300D01*
X0231600Y0145300D01*
X0234200Y0145338D02*
X0243200Y0145338D01*
X0243200Y0144140D02*
X0233934Y0144140D01*
X0232700Y0142941D02*
X0243200Y0142941D01*
X0243200Y0141743D02*
X0188600Y0141743D01*
X0188287Y0142941D02*
X0230500Y0142941D01*
X0229266Y0144140D02*
X0187088Y0144140D01*
X0185890Y0145338D02*
X0216733Y0145338D01*
X0215535Y0146537D02*
X0184691Y0146537D01*
X0183493Y0147735D02*
X0214336Y0147735D01*
X0213138Y0148934D02*
X0182294Y0148934D01*
X0181096Y0150132D02*
X0213100Y0150132D01*
X0212341Y0151331D02*
X0179897Y0151331D01*
X0178699Y0152530D02*
X0211142Y0152530D01*
X0209944Y0153728D02*
X0177500Y0153728D01*
X0176302Y0154927D02*
X0208745Y0154927D01*
X0207547Y0156125D02*
X0173896Y0156125D01*
X0172698Y0157324D02*
X0206348Y0157324D01*
X0205149Y0158522D02*
X0172600Y0158522D01*
X0172600Y0159721D02*
X0203951Y0159721D01*
X0202752Y0160919D02*
X0180146Y0160919D01*
X0178054Y0160919D02*
X0172600Y0160919D01*
X0172600Y0162118D02*
X0176776Y0162118D01*
X0176500Y0163316D02*
X0175193Y0163316D01*
X0175800Y0164515D02*
X0176789Y0164515D01*
X0175719Y0165713D02*
X0178132Y0165713D01*
X0180068Y0165713D02*
X0194185Y0165713D01*
X0195383Y0166912D02*
X0174965Y0166912D01*
X0174450Y0168110D02*
X0196582Y0168110D01*
X0197780Y0169309D02*
X0174450Y0169309D01*
X0174450Y0170507D02*
X0198979Y0170507D01*
X0200177Y0171706D02*
X0174450Y0171706D01*
X0174450Y0172904D02*
X0201376Y0172904D01*
X0202574Y0174103D02*
X0174450Y0174103D01*
X0174450Y0175301D02*
X0203773Y0175301D01*
X0198900Y0167600D02*
X0194600Y0163300D01*
X0179100Y0163300D01*
X0173249Y0152530D02*
X0155330Y0152530D01*
X0154600Y0151800D02*
X0156600Y0153800D01*
X0171979Y0153800D01*
X0186600Y0139179D01*
X0186600Y0137800D01*
X0186100Y0137300D01*
X0156100Y0137300D01*
X0154600Y0138800D01*
X0154600Y0151800D01*
X0154600Y0151331D02*
X0174448Y0151331D01*
X0175646Y0150132D02*
X0154600Y0150132D01*
X0154600Y0148934D02*
X0176845Y0148934D01*
X0178043Y0147735D02*
X0154600Y0147735D01*
X0154600Y0146537D02*
X0179242Y0146537D01*
X0180440Y0145338D02*
X0154600Y0145338D01*
X0154600Y0144140D02*
X0181639Y0144140D01*
X0182837Y0142941D02*
X0154600Y0142941D01*
X0154600Y0141743D02*
X0184036Y0141743D01*
X0185234Y0140544D02*
X0154600Y0140544D01*
X0154600Y0139346D02*
X0186433Y0139346D01*
X0186600Y0138147D02*
X0155253Y0138147D01*
X0153623Y0136949D02*
X0126101Y0136949D01*
X0124903Y0135750D02*
X0154821Y0135750D01*
X0152600Y0138147D02*
X0127300Y0138147D01*
X0128498Y0139346D02*
X0152600Y0139346D01*
X0149595Y0129789D02*
X0148605Y0129789D01*
X0147690Y0129410D01*
X0146990Y0128710D01*
X0146737Y0128100D01*
X0130854Y0128100D01*
X0129800Y0127046D01*
X0122854Y0120100D01*
X0110346Y0120100D01*
X0105900Y0124546D01*
X0105900Y0125025D01*
X0107550Y0125025D01*
X0108253Y0125728D01*
X0108253Y0129872D01*
X0107550Y0130575D01*
X0100650Y0130575D01*
X0099947Y0129872D01*
X0099947Y0125728D01*
X0100650Y0125025D01*
X0102300Y0125025D01*
X0102300Y0123054D01*
X0107800Y0117554D01*
X0108854Y0116500D01*
X0124346Y0116500D01*
X0132346Y0124500D01*
X0149346Y0124500D01*
X0149700Y0124855D01*
X0150510Y0125190D01*
X0150820Y0125500D01*
X0165675Y0125500D01*
X0166150Y0125025D01*
X0173050Y0125025D01*
X0173753Y0125728D01*
X0173753Y0129872D01*
X0173050Y0130575D01*
X0166150Y0130575D01*
X0165447Y0129872D01*
X0165447Y0129100D01*
X0150820Y0129100D01*
X0150510Y0129410D01*
X0149595Y0129789D01*
X0149670Y0129758D02*
X0165447Y0129758D01*
X0169100Y0127300D02*
X0149100Y0127300D01*
X0149100Y0126800D01*
X0148600Y0126300D01*
X0131600Y0126300D01*
X0123600Y0118300D01*
X0109600Y0118300D01*
X0104100Y0123800D01*
X0104100Y0127800D01*
X0105900Y0124964D02*
X0110268Y0124964D01*
X0110000Y0123765D02*
X0106680Y0123765D01*
X0107879Y0122567D02*
X0110297Y0122567D01*
X0109077Y0121368D02*
X0111677Y0121368D01*
X0110276Y0120170D02*
X0122924Y0120170D01*
X0124123Y0121368D02*
X0117523Y0121368D01*
X0118903Y0122567D02*
X0125321Y0122567D01*
X0126520Y0123765D02*
X0119200Y0123765D01*
X0118932Y0124964D02*
X0127718Y0124964D01*
X0128917Y0126162D02*
X0118689Y0126162D01*
X0118689Y0127361D02*
X0130115Y0127361D01*
X0131611Y0123765D02*
X0188100Y0123765D01*
X0188100Y0122567D02*
X0130412Y0122567D01*
X0129214Y0121368D02*
X0188100Y0121368D01*
X0188609Y0120170D02*
X0128015Y0120170D01*
X0126817Y0118971D02*
X0189807Y0118971D01*
X0191006Y0117773D02*
X0125618Y0117773D01*
X0124420Y0116574D02*
X0192204Y0116574D01*
X0193403Y0115376D02*
X0066000Y0115376D01*
X0066000Y0116574D02*
X0108780Y0116574D01*
X0107582Y0117773D02*
X0065314Y0117773D01*
X0066000Y0114177D02*
X0085067Y0114177D01*
X0085123Y0114200D02*
X0084241Y0113835D01*
X0083565Y0113159D01*
X0083200Y0112277D01*
X0083200Y0111323D01*
X0083482Y0110642D01*
X0083482Y0107382D01*
X0082812Y0107382D01*
X0082109Y0106679D01*
X0082109Y0106304D01*
X0073091Y0106304D01*
X0073091Y0106679D01*
X0072388Y0107382D01*
X0068048Y0107382D01*
X0067345Y0106679D01*
X0067345Y0102929D01*
X0068048Y0102226D01*
X0072388Y0102226D01*
X0073091Y0102929D01*
X0073091Y0103304D01*
X0082109Y0103304D01*
X0082109Y0102929D01*
X0082812Y0102226D01*
X0087152Y0102226D01*
X0087855Y0102929D01*
X0087855Y0106679D01*
X0087152Y0107382D01*
X0086482Y0107382D01*
X0086482Y0109568D01*
X0086959Y0109765D01*
X0087635Y0110441D01*
X0088000Y0111323D01*
X0088000Y0112277D01*
X0087635Y0113159D01*
X0086959Y0113835D01*
X0086077Y0114200D01*
X0085123Y0114200D01*
X0086133Y0114177D02*
X0194602Y0114177D01*
X0195800Y0112979D02*
X0087710Y0112979D01*
X0088000Y0111780D02*
X0196999Y0111780D01*
X0197718Y0110582D02*
X0087693Y0110582D01*
X0086482Y0109383D02*
X0197718Y0109383D01*
X0197718Y0108185D02*
X0151609Y0108185D01*
X0151635Y0108159D02*
X0150959Y0108835D01*
X0150077Y0109200D01*
X0149123Y0109200D01*
X0148241Y0108835D01*
X0147565Y0108159D01*
X0147200Y0107277D01*
X0147200Y0106323D01*
X0147565Y0105441D01*
X0148099Y0104907D01*
X0148055Y0103382D01*
X0147312Y0103382D01*
X0146609Y0102679D01*
X0146609Y0102304D01*
X0137591Y0102304D01*
X0137591Y0102679D01*
X0136888Y0103382D01*
X0132548Y0103382D01*
X0131845Y0102679D01*
X0131845Y0098929D01*
X0132548Y0098226D01*
X0136888Y0098226D01*
X0137591Y0098929D01*
X0137591Y0099304D01*
X0146609Y0099304D01*
X0146609Y0098929D01*
X0147312Y0098226D01*
X0151652Y0098226D01*
X0152355Y0098929D01*
X0152355Y0102679D01*
X0151652Y0103382D01*
X0151056Y0103382D01*
X0151082Y0104283D01*
X0151100Y0104301D01*
X0151100Y0104900D01*
X0151100Y0104906D01*
X0151635Y0105441D01*
X0152000Y0106323D01*
X0152000Y0107277D01*
X0151635Y0108159D01*
X0152000Y0106986D02*
X0196652Y0106986D01*
X0196345Y0105788D02*
X0151778Y0105788D01*
X0151100Y0104589D02*
X0196345Y0104589D01*
X0196345Y0103391D02*
X0151057Y0103391D01*
X0152355Y0102192D02*
X0218200Y0102192D01*
X0218200Y0100994D02*
X0152355Y0100994D01*
X0152355Y0099795D02*
X0218200Y0099795D01*
X0218200Y0098597D02*
X0152023Y0098597D01*
X0146941Y0098597D02*
X0137259Y0098597D01*
X0132177Y0098597D02*
X0066000Y0098597D01*
X0066000Y0099795D02*
X0131845Y0099795D01*
X0131845Y0100994D02*
X0066000Y0100994D01*
X0066000Y0102192D02*
X0131845Y0102192D01*
X0147422Y0105788D02*
X0087855Y0105788D01*
X0087855Y0104589D02*
X0148090Y0104589D01*
X0148055Y0103391D02*
X0087855Y0103391D01*
X0087548Y0106986D02*
X0147200Y0106986D01*
X0147590Y0108185D02*
X0086482Y0108185D01*
X0083482Y0108185D02*
X0066000Y0108185D01*
X0066000Y0109383D02*
X0083482Y0109383D01*
X0083482Y0110582D02*
X0066000Y0110582D01*
X0066000Y0111780D02*
X0083200Y0111780D01*
X0083490Y0112979D02*
X0066000Y0112979D01*
X0066000Y0106986D02*
X0067652Y0106986D01*
X0067345Y0105788D02*
X0066000Y0105788D01*
X0066000Y0104589D02*
X0067345Y0104589D01*
X0067345Y0103391D02*
X0066000Y0103391D01*
X0066000Y0097398D02*
X0218200Y0097398D01*
X0218200Y0096199D02*
X0066000Y0096199D01*
X0066000Y0095001D02*
X0218200Y0095001D01*
X0218200Y0093802D02*
X0066000Y0093802D01*
X0072784Y0106986D02*
X0082416Y0106986D01*
X0099947Y0126162D02*
X0041000Y0126162D01*
X0041000Y0124964D02*
X0102300Y0124964D01*
X0102300Y0123765D02*
X0041000Y0123765D01*
X0041000Y0122567D02*
X0102788Y0122567D01*
X0103986Y0121368D02*
X0041000Y0121368D01*
X0041000Y0120170D02*
X0105185Y0120170D01*
X0106383Y0118971D02*
X0041000Y0118971D01*
X0041000Y0127361D02*
X0099947Y0127361D01*
X0099947Y0128559D02*
X0041000Y0128559D01*
X0041000Y0129758D02*
X0099947Y0129758D01*
X0108253Y0129758D02*
X0109983Y0129758D01*
X0109983Y0128559D02*
X0108253Y0128559D01*
X0108253Y0127361D02*
X0109983Y0127361D01*
X0109983Y0126162D02*
X0108253Y0126162D01*
X0112600Y0123800D02*
X0114600Y0125800D01*
X0116600Y0123800D01*
X0115677Y0121368D02*
X0113523Y0121368D01*
X0114600Y0125800D02*
X0114600Y0127536D01*
X0114336Y0127800D01*
X0114876Y0130956D02*
X0041000Y0130956D01*
X0041000Y0132155D02*
X0116075Y0132155D01*
X0117047Y0133353D02*
X0117273Y0133353D01*
X0114153Y0133353D02*
X0041000Y0133353D01*
X0041000Y0134552D02*
X0113312Y0134552D01*
X0113200Y0135750D02*
X0041000Y0135750D01*
X0041000Y0136949D02*
X0113855Y0136949D01*
X0118326Y0138147D02*
X0041000Y0138147D01*
X0041000Y0139346D02*
X0119525Y0139346D01*
X0120723Y0140544D02*
X0041000Y0140544D01*
X0041000Y0141743D02*
X0121922Y0141743D01*
X0123120Y0142941D02*
X0041000Y0142941D01*
X0041000Y0144140D02*
X0123300Y0144140D01*
X0123300Y0145338D02*
X0041000Y0145338D01*
X0041000Y0146537D02*
X0123300Y0146537D01*
X0123300Y0147735D02*
X0041000Y0147735D01*
X0041000Y0148934D02*
X0123300Y0148934D01*
X0123300Y0150132D02*
X0041000Y0150132D01*
X0041000Y0151331D02*
X0123300Y0151331D01*
X0123300Y0152530D02*
X0041000Y0152530D01*
X0041000Y0153728D02*
X0123300Y0153728D01*
X0123300Y0154927D02*
X0041000Y0154927D01*
X0041000Y0156125D02*
X0123300Y0156125D01*
X0123300Y0157324D02*
X0041000Y0157324D01*
X0041000Y0158522D02*
X0123300Y0158522D01*
X0123300Y0159721D02*
X0041000Y0159721D01*
X0041000Y0160919D02*
X0123300Y0160919D01*
X0123300Y0162118D02*
X0041000Y0162118D01*
X0041000Y0163316D02*
X0123300Y0163316D01*
X0123300Y0164515D02*
X0041000Y0164515D01*
X0041000Y0165713D02*
X0123300Y0165713D01*
X0123300Y0166912D02*
X0041000Y0166912D01*
X0041000Y0168110D02*
X0123300Y0168110D01*
X0123300Y0169309D02*
X0041000Y0169309D01*
X0041000Y0170507D02*
X0123300Y0170507D01*
X0123300Y0171706D02*
X0041000Y0171706D01*
X0041000Y0172904D02*
X0123300Y0172904D01*
X0123300Y0174103D02*
X0041000Y0174103D01*
X0041000Y0175301D02*
X0123300Y0175301D01*
X0123300Y0176500D02*
X0041000Y0176500D01*
X0041000Y0177698D02*
X0123300Y0177698D01*
X0123300Y0178897D02*
X0041000Y0178897D01*
X0041000Y0180095D02*
X0123300Y0180095D01*
X0123300Y0181294D02*
X0041000Y0181294D01*
X0041000Y0182492D02*
X0123300Y0182492D01*
X0123300Y0183691D02*
X0041000Y0183691D01*
X0041000Y0184889D02*
X0123300Y0184889D01*
X0123300Y0186088D02*
X0041000Y0186088D01*
X0041000Y0187286D02*
X0123300Y0187286D01*
X0123300Y0188485D02*
X0041000Y0188485D01*
X0041000Y0189683D02*
X0123300Y0189683D01*
X0123300Y0200470D02*
X0041000Y0200470D01*
X0041000Y0201668D02*
X0123300Y0201668D01*
X0123300Y0202867D02*
X0041000Y0202867D01*
X0041000Y0204066D02*
X0123300Y0204066D01*
X0123300Y0205264D02*
X0041000Y0205264D01*
X0041000Y0206463D02*
X0123300Y0206463D01*
X0123300Y0207661D02*
X0041000Y0207661D01*
X0041000Y0208860D02*
X0123300Y0208860D01*
X0123300Y0210058D02*
X0041000Y0210058D01*
X0041000Y0211257D02*
X0123300Y0211257D01*
X0123300Y0212455D02*
X0041000Y0212455D01*
X0041000Y0213654D02*
X0043485Y0213654D01*
X0043100Y0214852D02*
X0041000Y0214852D01*
X0041000Y0216051D02*
X0043280Y0216051D01*
X0044172Y0217249D02*
X0041000Y0217249D01*
X0041000Y0218448D02*
X0078731Y0218448D01*
X0077533Y0217249D02*
X0047228Y0217249D01*
X0041000Y0219646D02*
X0079930Y0219646D01*
X0081128Y0220845D02*
X0041000Y0220845D01*
X0041000Y0222043D02*
X0082327Y0222043D01*
X0083525Y0223242D02*
X0041000Y0223242D01*
X0041000Y0224440D02*
X0084724Y0224440D01*
X0085922Y0225639D02*
X0041000Y0225639D01*
X0041000Y0226837D02*
X0087121Y0226837D01*
X0101967Y0243616D02*
X0049978Y0243616D01*
X0049981Y0242418D02*
X0103166Y0242418D01*
X0104364Y0241219D02*
X0049983Y0241219D01*
X0049986Y0240021D02*
X0105563Y0240021D01*
X0106761Y0238822D02*
X0049988Y0238822D01*
X0049991Y0237624D02*
X0107066Y0237624D01*
X0107798Y0236425D02*
X0049994Y0236425D01*
X0049975Y0244815D02*
X0101250Y0244815D01*
X0101250Y0246013D02*
X0049973Y0246013D01*
X0049970Y0247212D02*
X0101250Y0247212D01*
X0101250Y0248410D02*
X0049968Y0248410D01*
X0049965Y0249609D02*
X0101250Y0249609D01*
X0101250Y0250807D02*
X0049962Y0250807D01*
X0049960Y0252006D02*
X0101250Y0252006D01*
X0101250Y0253204D02*
X0049957Y0253204D01*
X0049954Y0254403D02*
X0101250Y0254403D01*
X0101250Y0255601D02*
X0049952Y0255601D01*
X0043056Y0230433D02*
X0114616Y0230433D01*
X0113418Y0229234D02*
X0041000Y0229234D01*
X0041000Y0228036D02*
X0112219Y0228036D01*
X0101250Y0256800D02*
X0070500Y0256800D01*
X0070500Y0257999D02*
X0101250Y0257999D01*
X0101250Y0259197D02*
X0070500Y0259197D01*
X0070500Y0260396D02*
X0101250Y0260396D01*
X0101250Y0261594D02*
X0070500Y0261594D01*
X0070500Y0262793D02*
X0101250Y0262793D01*
X0101250Y0263991D02*
X0070500Y0263991D01*
X0070500Y0265190D02*
X0101250Y0265190D01*
X0101250Y0266388D02*
X0070500Y0266388D01*
X0070500Y0267587D02*
X0101250Y0267587D01*
X0101250Y0268785D02*
X0070500Y0268785D01*
X0070500Y0269984D02*
X0101250Y0269984D01*
X0101250Y0271182D02*
X0070500Y0271182D01*
X0070500Y0272381D02*
X0101250Y0272381D01*
X0101250Y0273579D02*
X0070500Y0273579D01*
X0070500Y0274778D02*
X0101250Y0274778D01*
X0101250Y0275976D02*
X0070500Y0275976D01*
X0070500Y0277175D02*
X0101250Y0277175D01*
X0101250Y0278373D02*
X0070500Y0278373D01*
X0070500Y0279572D02*
X0101250Y0279572D01*
X0101250Y0280770D02*
X0070500Y0280770D01*
X0070500Y0281969D02*
X0101250Y0281969D01*
X0101250Y0283167D02*
X0070500Y0283167D01*
X0070500Y0284366D02*
X0101250Y0284366D01*
X0101250Y0285564D02*
X0070500Y0285564D01*
X0070500Y0286763D02*
X0101250Y0286763D01*
X0101250Y0287961D02*
X0070500Y0287961D01*
X0070500Y0289160D02*
X0101250Y0289160D01*
X0101250Y0290358D02*
X0070500Y0290358D01*
X0070500Y0291557D02*
X0101250Y0291557D01*
X0101250Y0292755D02*
X0070500Y0292755D01*
X0070500Y0293954D02*
X0101250Y0293954D01*
X0101250Y0295152D02*
X0070500Y0295152D01*
X0070500Y0296351D02*
X0101250Y0296351D01*
X0101250Y0297549D02*
X0070500Y0297549D01*
X0070500Y0298748D02*
X0101250Y0298748D01*
X0101250Y0299946D02*
X0070500Y0299946D01*
X0070500Y0301145D02*
X0101250Y0301145D01*
X0101250Y0302343D02*
X0070500Y0302343D01*
X0070500Y0303542D02*
X0101250Y0303542D01*
X0101250Y0304740D02*
X0070500Y0304740D01*
X0070500Y0305939D02*
X0101250Y0305939D01*
X0101250Y0307137D02*
X0070500Y0307137D01*
X0070500Y0308336D02*
X0101250Y0308336D01*
X0101250Y0309534D02*
X0070500Y0309534D01*
X0070500Y0310733D02*
X0101250Y0310733D01*
X0101250Y0311932D02*
X0070500Y0311932D01*
X0070500Y0313130D02*
X0101250Y0313130D01*
X0101250Y0314329D02*
X0070500Y0314329D01*
X0070500Y0315527D02*
X0101250Y0315527D01*
X0101250Y0316726D02*
X0070500Y0316726D01*
X0070500Y0317924D02*
X0101250Y0317924D01*
X0101250Y0319123D02*
X0070500Y0319123D01*
X0070500Y0320321D02*
X0101250Y0320321D01*
X0101250Y0321520D02*
X0070500Y0321520D01*
X0070500Y0322718D02*
X0101250Y0322718D01*
X0101250Y0323917D02*
X0070500Y0323917D01*
X0070500Y0325115D02*
X0101250Y0325115D01*
X0101250Y0326314D02*
X0070500Y0326314D01*
X0070500Y0327512D02*
X0101250Y0327512D01*
X0101250Y0328711D02*
X0070500Y0328711D01*
X0070500Y0329909D02*
X0101250Y0329909D01*
X0101250Y0331108D02*
X0070500Y0331108D01*
X0070500Y0332306D02*
X0101250Y0332306D01*
X0070500Y0374254D02*
X0136338Y0374254D01*
X0137536Y0375453D02*
X0070500Y0375453D01*
X0070500Y0376651D02*
X0125070Y0376651D01*
X0126130Y0376651D02*
X0138735Y0376651D01*
X0139933Y0377850D02*
X0127868Y0377850D01*
X0128250Y0379048D02*
X0141132Y0379048D01*
X0142330Y0380247D02*
X0128076Y0380247D01*
X0129946Y0384300D02*
X0130446Y0384800D01*
X0136864Y0384800D01*
X0133205Y0381445D02*
X0143529Y0381445D01*
X0142749Y0382644D02*
X0141215Y0382644D01*
X0141217Y0383842D02*
X0142747Y0383842D01*
X0142747Y0385041D02*
X0141217Y0385041D01*
X0141217Y0386239D02*
X0142747Y0386239D01*
X0143230Y0387438D02*
X0140733Y0387438D01*
X0147563Y0380247D02*
X0158650Y0380247D01*
X0158650Y0379048D02*
X0146364Y0379048D01*
X0145166Y0377850D02*
X0158650Y0377850D01*
X0158650Y0376651D02*
X0143967Y0376651D01*
X0142769Y0375453D02*
X0158650Y0375453D01*
X0158650Y0374254D02*
X0141570Y0374254D01*
X0140372Y0373056D02*
X0158650Y0373056D01*
X0158650Y0371857D02*
X0139173Y0371857D01*
X0137975Y0370659D02*
X0158650Y0370659D01*
X0158439Y0381445D02*
X0148761Y0381445D01*
X0151451Y0382644D02*
X0157240Y0382644D01*
X0156041Y0383842D02*
X0151453Y0383842D01*
X0151453Y0385041D02*
X0154843Y0385041D01*
X0153644Y0386239D02*
X0151453Y0386239D01*
X0150970Y0387438D02*
X0152446Y0387438D01*
X0123586Y0391033D02*
X0120000Y0391033D01*
X0120000Y0389835D02*
X0122387Y0389835D01*
X0121189Y0388636D02*
X0120000Y0388636D01*
X0120000Y0387438D02*
X0120278Y0387438D01*
X0120000Y0380247D02*
X0120965Y0380247D01*
X0120000Y0379048D02*
X0122104Y0379048D01*
X0123303Y0377850D02*
X0119337Y0377850D01*
X0086363Y0377850D02*
X0070500Y0377850D01*
X0070500Y0379048D02*
X0085700Y0379048D01*
X0085700Y0380247D02*
X0070500Y0380247D01*
X0070500Y0381445D02*
X0085700Y0381445D01*
X0085700Y0382644D02*
X0070500Y0382644D01*
X0070500Y0383842D02*
X0085700Y0383842D01*
X0085700Y0385041D02*
X0070500Y0385041D01*
X0070500Y0386239D02*
X0085700Y0386239D01*
X0085700Y0387438D02*
X0070500Y0387438D01*
X0070500Y0388636D02*
X0085700Y0388636D01*
X0085700Y0389835D02*
X0070500Y0389835D01*
X0070500Y0391033D02*
X0085700Y0391033D01*
X0085700Y0392232D02*
X0070500Y0392232D01*
X0070500Y0393430D02*
X0085700Y0393430D01*
X0138000Y0226837D02*
X0165243Y0226837D01*
X0164700Y0225639D02*
X0138000Y0225639D01*
X0138000Y0224440D02*
X0164858Y0224440D01*
X0165798Y0223242D02*
X0138762Y0223242D01*
X0149371Y0202867D02*
X0150470Y0202867D01*
X0151730Y0202867D02*
X0153912Y0202867D01*
X0155110Y0201668D02*
X0148173Y0201668D01*
X0146974Y0200470D02*
X0156309Y0200470D01*
X0157507Y0199271D02*
X0145776Y0199271D01*
X0144577Y0198073D02*
X0158706Y0198073D01*
X0159904Y0196874D02*
X0143379Y0196874D01*
X0142180Y0195676D02*
X0159269Y0195676D01*
X0159111Y0194477D02*
X0156544Y0194477D01*
X0157100Y0193279D02*
X0159601Y0193279D01*
X0150156Y0194477D02*
X0140982Y0194477D01*
X0139783Y0193279D02*
X0149100Y0193279D01*
X0149100Y0192080D02*
X0139300Y0192080D01*
X0139300Y0190882D02*
X0149100Y0190882D01*
X0149100Y0189683D02*
X0147338Y0189683D01*
X0148536Y0188485D02*
X0149100Y0188485D01*
X0149100Y0187286D02*
X0148600Y0187286D01*
X0148600Y0186088D02*
X0149100Y0186088D01*
X0148600Y0184889D02*
X0149889Y0184889D01*
X0151088Y0183691D02*
X0148600Y0183691D01*
X0148600Y0182492D02*
X0152286Y0182492D01*
X0153485Y0181294D02*
X0148600Y0181294D01*
X0148600Y0180095D02*
X0154683Y0180095D01*
X0155882Y0178897D02*
X0148600Y0178897D01*
X0148600Y0177698D02*
X0157080Y0177698D01*
X0158100Y0176500D02*
X0148600Y0176500D01*
X0148600Y0175301D02*
X0158100Y0175301D01*
X0158100Y0174103D02*
X0148600Y0174103D01*
X0148600Y0172904D02*
X0158100Y0172904D01*
X0158100Y0171706D02*
X0148600Y0171706D01*
X0148600Y0170507D02*
X0158100Y0170507D01*
X0158970Y0169309D02*
X0148600Y0169309D01*
X0147531Y0168110D02*
X0160169Y0168110D01*
X0166031Y0168110D02*
X0167215Y0168110D01*
X0169185Y0168110D02*
X0169600Y0168110D01*
X0169600Y0166912D02*
X0146292Y0166912D01*
X0147491Y0165713D02*
X0169600Y0165713D01*
X0169600Y0164515D02*
X0148690Y0164515D01*
X0149888Y0163316D02*
X0169600Y0163316D01*
X0169600Y0162118D02*
X0151087Y0162118D01*
X0152285Y0160919D02*
X0169600Y0160919D01*
X0169600Y0159721D02*
X0153484Y0159721D01*
X0154682Y0158522D02*
X0169600Y0158522D01*
X0169600Y0157324D02*
X0155881Y0157324D01*
X0157079Y0156125D02*
X0169654Y0156125D01*
X0172051Y0153728D02*
X0156528Y0153728D01*
X0142651Y0140544D02*
X0129697Y0140544D01*
X0129950Y0141743D02*
X0141453Y0141743D01*
X0140254Y0142941D02*
X0129950Y0142941D01*
X0129950Y0144140D02*
X0139300Y0144140D01*
X0139300Y0145338D02*
X0129950Y0145338D01*
X0129950Y0146537D02*
X0139300Y0146537D01*
X0139300Y0147735D02*
X0129950Y0147735D01*
X0129950Y0148934D02*
X0139300Y0148934D01*
X0139300Y0150132D02*
X0129950Y0150132D01*
X0129950Y0151331D02*
X0139300Y0151331D01*
X0139300Y0152530D02*
X0129950Y0152530D01*
X0129950Y0153728D02*
X0139300Y0153728D01*
X0138269Y0154927D02*
X0129950Y0154927D01*
X0129950Y0156125D02*
X0137071Y0156125D01*
X0135872Y0157324D02*
X0129950Y0157324D01*
X0129950Y0158522D02*
X0134674Y0158522D01*
X0133475Y0159721D02*
X0129950Y0159721D01*
X0129950Y0160919D02*
X0132277Y0160919D01*
X0131078Y0162118D02*
X0130234Y0162118D01*
X0123704Y0134552D02*
X0180136Y0134552D01*
X0180136Y0133353D02*
X0122506Y0133353D01*
X0121307Y0132155D02*
X0180136Y0132155D01*
X0180136Y0130956D02*
X0120109Y0130956D01*
X0118910Y0129758D02*
X0148530Y0129758D01*
X0146928Y0128559D02*
X0118689Y0128559D01*
X0149964Y0124964D02*
X0176165Y0124964D01*
X0175483Y0126162D02*
X0173753Y0126162D01*
X0173753Y0127361D02*
X0175483Y0127361D01*
X0175483Y0128559D02*
X0173753Y0128559D01*
X0173753Y0129758D02*
X0175483Y0129758D01*
X0179836Y0127800D02*
X0182136Y0130100D01*
X0182136Y0136436D01*
X0184700Y0139000D01*
X0187379Y0135750D02*
X0188100Y0135750D01*
X0188100Y0136472D02*
X0188100Y0136472D01*
X0188100Y0134552D02*
X0184136Y0134552D01*
X0184136Y0133353D02*
X0188100Y0133353D01*
X0188100Y0132155D02*
X0184136Y0132155D01*
X0184136Y0130956D02*
X0188100Y0130956D01*
X0188100Y0129758D02*
X0184189Y0129758D01*
X0184189Y0128559D02*
X0188100Y0128559D01*
X0188100Y0127361D02*
X0184189Y0127361D01*
X0184189Y0126162D02*
X0188100Y0126162D01*
X0188100Y0124964D02*
X0183507Y0124964D01*
X0191100Y0124964D02*
X0221669Y0124964D01*
X0222931Y0124964D02*
X0243200Y0124964D01*
X0243200Y0126162D02*
X0224426Y0126162D01*
X0224700Y0127361D02*
X0243200Y0127361D01*
X0243200Y0128559D02*
X0224376Y0128559D01*
X0218200Y0116574D02*
X0196447Y0116574D01*
X0197646Y0115376D02*
X0218200Y0115376D01*
X0218200Y0114177D02*
X0198844Y0114177D01*
X0200043Y0112979D02*
X0218200Y0112979D01*
X0218200Y0111780D02*
X0200718Y0111780D01*
X0200718Y0110582D02*
X0218200Y0110582D01*
X0218200Y0109383D02*
X0200718Y0109383D01*
X0200718Y0108185D02*
X0218200Y0108185D01*
X0218200Y0106986D02*
X0216548Y0106986D01*
X0216855Y0105788D02*
X0218200Y0105788D01*
X0218200Y0104589D02*
X0216855Y0104589D01*
X0216855Y0103391D02*
X0218200Y0103391D01*
X0211416Y0106986D02*
X0201784Y0106986D01*
X0195249Y0117773D02*
X0243200Y0117773D01*
X0243200Y0118971D02*
X0194050Y0118971D01*
X0192852Y0120170D02*
X0243200Y0120170D01*
X0243200Y0121368D02*
X0191653Y0121368D01*
X0191100Y0122567D02*
X0243200Y0122567D01*
X0243200Y0123765D02*
X0191100Y0123765D01*
X0191100Y0126162D02*
X0205416Y0126162D01*
X0204218Y0127361D02*
X0191100Y0127361D01*
X0191100Y0128559D02*
X0203019Y0128559D01*
X0201821Y0129758D02*
X0191100Y0129758D01*
X0191100Y0130956D02*
X0200622Y0130956D01*
X0199424Y0132155D02*
X0191100Y0132155D01*
X0191100Y0133353D02*
X0198225Y0133353D01*
X0200071Y0135750D02*
X0243200Y0135750D01*
X0243200Y0134552D02*
X0201269Y0134552D01*
X0202468Y0133353D02*
X0243200Y0133353D01*
X0243200Y0132155D02*
X0203666Y0132155D01*
X0204865Y0130956D02*
X0243200Y0130956D01*
X0243200Y0129758D02*
X0206064Y0129758D01*
X0198872Y0136949D02*
X0243200Y0136949D01*
X0243200Y0138147D02*
X0193904Y0138147D01*
X0192696Y0138147D02*
X0191100Y0138147D01*
X0191100Y0136949D02*
X0191178Y0136949D01*
X0191219Y0134552D02*
X0191100Y0134552D01*
X0190675Y0139346D02*
X0243200Y0139346D01*
X0243200Y0140544D02*
X0189477Y0140544D01*
X0196246Y0162118D02*
X0201554Y0162118D01*
X0200355Y0163316D02*
X0197445Y0163316D01*
X0198643Y0164515D02*
X0199157Y0164515D01*
X0169600Y0127800D02*
X0169100Y0127300D01*
X0232514Y0147735D02*
X0243200Y0147735D01*
X0243200Y0146537D02*
X0233902Y0146537D01*
X0243200Y0216051D02*
X0213185Y0216051D01*
X0211987Y0217249D02*
X0243200Y0217249D01*
X0243200Y0218448D02*
X0210788Y0218448D01*
X0209589Y0219646D02*
X0243200Y0219646D01*
X0243200Y0220845D02*
X0208391Y0220845D01*
X0207192Y0222043D02*
X0243200Y0222043D01*
X0202384Y0222043D02*
X0199737Y0222043D01*
X0200466Y0223242D02*
X0201186Y0223242D01*
D26*
X0213600Y0240800D02*
X0213726Y0240926D01*
X0217600Y0226800D02*
X0217647Y0226753D01*
X0223600Y0226753D01*
X0223600Y0220800D01*
X0240923Y0220977D02*
X0241100Y0220800D01*
X0240923Y0220977D02*
X0240923Y0226753D01*
X0240923Y0248800D02*
X0240600Y0249123D01*
X0240600Y0255300D01*
X0125600Y0379300D02*
X0123254Y0381646D01*
X0123254Y0384300D01*
X0123254Y0386954D01*
X0125600Y0389300D01*
D27*
X0169600Y0373800D03*
X0216100Y0367800D03*
X0206100Y0299800D03*
X0191300Y0299700D03*
X0149600Y0262867D03*
X0121200Y0267967D03*
X0154800Y0211400D03*
X0151100Y0205300D03*
X0161600Y0194800D03*
X0134100Y0193300D03*
X0134100Y0188300D03*
X0130100Y0188300D03*
X0130100Y0193300D03*
X0149100Y0127300D03*
X0207100Y0178300D03*
D28*
X0184100Y0308138D02*
X0183734Y0308505D01*
X0222600Y0345900D02*
X0223600Y0345900D01*
X0224500Y0346800D01*
X0225500Y0346800D01*
D29*
X0225500Y0346900D02*
X0223600Y0346900D01*
X0222600Y0345900D01*
X0222600Y0348700D02*
X0224400Y0348700D01*
X0225500Y0347600D01*
X0225500Y0346900D01*
X0225500Y0342046D01*
X0224254Y0340800D01*
X0174900Y0363300D02*
X0166100Y0363300D01*
X0160400Y0369000D01*
X0160500Y0369100D01*
X0160500Y0382000D01*
X0153200Y0389300D01*
X0125600Y0389300D01*
X0118615Y0371938D02*
X0103100Y0356423D01*
X0103100Y0245100D01*
X0109600Y0238600D01*
X0109600Y0238300D01*
X0112200Y0225400D02*
X0128100Y0241300D01*
X0128100Y0244800D01*
X0130033Y0262867D02*
X0127600Y0265300D01*
X0130033Y0262867D02*
X0149600Y0262867D01*
X0172100Y0232000D02*
X0173600Y0230500D01*
X0173600Y0195000D01*
X0175800Y0192800D01*
X0178400Y0192800D01*
X0181400Y0189500D02*
X0172600Y0180700D01*
X0172600Y0165600D01*
X0173200Y0165000D01*
X0181400Y0189500D02*
X0181400Y0207700D01*
X0131100Y0166300D02*
X0131100Y0165600D01*
X0128100Y0162600D01*
X0128100Y0141564D01*
X0114336Y0127800D01*
X0077800Y0214900D02*
X0045900Y0214900D01*
X0045700Y0215100D01*
X0077800Y0214900D02*
X0088300Y0225400D01*
X0112200Y0225400D01*
X0109800Y0331900D02*
X0104800Y0336900D01*
X0104800Y0349900D01*
X0105109Y0349900D01*
X0105713Y0349650D01*
X0106687Y0349650D01*
X0107291Y0349900D01*
X0110000Y0349900D01*
X0112400Y0347500D01*
X0145500Y0347500D01*
X0151800Y0341200D01*
X0151800Y0331900D01*
X0109800Y0331900D01*
X0109425Y0332275D02*
X0151800Y0332275D01*
X0151800Y0333173D02*
X0108527Y0333173D01*
X0107628Y0334072D02*
X0151800Y0334072D01*
X0151800Y0334970D02*
X0106730Y0334970D01*
X0105831Y0335869D02*
X0151800Y0335869D01*
X0151800Y0336768D02*
X0104932Y0336768D01*
X0104800Y0337666D02*
X0151800Y0337666D01*
X0151800Y0338565D02*
X0104800Y0338565D01*
X0104800Y0339463D02*
X0151800Y0339463D01*
X0151800Y0340362D02*
X0104800Y0340362D01*
X0104800Y0341260D02*
X0151740Y0341260D01*
X0150841Y0342159D02*
X0104800Y0342159D01*
X0104800Y0343057D02*
X0149943Y0343057D01*
X0149044Y0343956D02*
X0104800Y0343956D01*
X0104800Y0344854D02*
X0148146Y0344854D01*
X0147247Y0345753D02*
X0104800Y0345753D01*
X0104800Y0346651D02*
X0146349Y0346651D01*
X0136594Y0371894D02*
X0118615Y0371938D01*
X0136594Y0371894D02*
X0147100Y0382400D01*
X0147100Y0384800D01*
X0112350Y0347550D02*
X0104800Y0347550D01*
X0104800Y0348448D02*
X0111452Y0348448D01*
X0110553Y0349347D02*
X0104800Y0349347D01*
D30*
X0191300Y0299700D02*
X0206000Y0299700D01*
X0206100Y0299800D01*
D31*
X0190100Y0179800D02*
X0191600Y0178300D01*
X0207100Y0178300D01*
D32*
X0213726Y0240926D02*
X0223600Y0240926D01*
D33*
X0200100Y0226731D02*
X0221516Y0205316D01*
X0222600Y0204231D01*
X0222600Y0151300D01*
X0200100Y0226731D02*
X0200100Y0281962D01*
X0224400Y0306400D01*
X0235300Y0306400D01*
X0241600Y0312700D01*
X0241600Y0343454D01*
X0236600Y0348454D01*
M02*
