G75*
%MOIN*%
%OFA0B0*%
%FSLAX25Y25*%
%IPPOS*%
%LPD*%
%AMOC8*
5,1,8,0,0,1.08239X$1,22.5*
%
%ADD10C,0.00600*%
%ADD11C,0.00200*%
%ADD12C,0.00500*%
%ADD13C,0.00400*%
%ADD14C,0.00787*%
%ADD15C,0.00060*%
%ADD16C,0.00800*%
%ADD17C,0.00300*%
%ADD18C,0.00100*%
%ADD19R,0.03937X0.03937*%
%ADD20R,0.01969X0.03150*%
%ADD21C,0.00984*%
%ADD22C,0.01000*%
%ADD23C,0.00000*%
%ADD24C,0.00394*%
D10*
X0064100Y0090800D02*
X0064100Y0116300D01*
X0039100Y0116300D01*
X0039100Y0231500D01*
X0048100Y0233500D01*
X0048000Y0279400D01*
X0039000Y0280900D01*
X0039100Y0391300D01*
X0039102Y0391433D01*
X0039108Y0391567D01*
X0039118Y0391700D01*
X0039132Y0391832D01*
X0039149Y0391964D01*
X0039171Y0392096D01*
X0039196Y0392227D01*
X0039226Y0392357D01*
X0039259Y0392486D01*
X0039296Y0392614D01*
X0039337Y0392741D01*
X0039382Y0392867D01*
X0039430Y0392991D01*
X0039482Y0393114D01*
X0039537Y0393235D01*
X0039597Y0393355D01*
X0039659Y0393473D01*
X0039725Y0393588D01*
X0039795Y0393702D01*
X0039868Y0393814D01*
X0039944Y0393923D01*
X0040023Y0394031D01*
X0040106Y0394135D01*
X0040191Y0394238D01*
X0040280Y0394337D01*
X0040371Y0394434D01*
X0040466Y0394529D01*
X0040563Y0394620D01*
X0040662Y0394709D01*
X0040765Y0394794D01*
X0040869Y0394877D01*
X0040977Y0394956D01*
X0041086Y0395032D01*
X0041198Y0395105D01*
X0041312Y0395175D01*
X0041427Y0395241D01*
X0041545Y0395303D01*
X0041665Y0395363D01*
X0041786Y0395418D01*
X0041909Y0395470D01*
X0042033Y0395518D01*
X0042159Y0395563D01*
X0042286Y0395604D01*
X0042414Y0395641D01*
X0042543Y0395674D01*
X0042673Y0395704D01*
X0042804Y0395729D01*
X0042936Y0395751D01*
X0043068Y0395768D01*
X0043200Y0395782D01*
X0043333Y0395792D01*
X0043467Y0395798D01*
X0043600Y0395800D01*
X0087600Y0395800D01*
X0087600Y0379300D01*
X0118100Y0379300D01*
X0118100Y0395800D01*
X0239600Y0395800D01*
X0239746Y0395798D01*
X0239893Y0395792D01*
X0240039Y0395782D01*
X0240185Y0395769D01*
X0240330Y0395751D01*
X0240475Y0395730D01*
X0240619Y0395705D01*
X0240763Y0395676D01*
X0240905Y0395643D01*
X0241047Y0395606D01*
X0241188Y0395566D01*
X0241327Y0395522D01*
X0241466Y0395474D01*
X0241603Y0395422D01*
X0241739Y0395367D01*
X0241873Y0395308D01*
X0242005Y0395246D01*
X0242136Y0395180D01*
X0242265Y0395111D01*
X0242392Y0395039D01*
X0242517Y0394963D01*
X0242640Y0394883D01*
X0242761Y0394801D01*
X0242880Y0394715D01*
X0242996Y0394626D01*
X0243110Y0394534D01*
X0243222Y0394439D01*
X0243331Y0394341D01*
X0243437Y0394241D01*
X0243541Y0394137D01*
X0243641Y0394031D01*
X0243739Y0393922D01*
X0243834Y0393810D01*
X0243926Y0393696D01*
X0244015Y0393580D01*
X0244101Y0393461D01*
X0244183Y0393340D01*
X0244263Y0393217D01*
X0244339Y0393092D01*
X0244411Y0392965D01*
X0244480Y0392836D01*
X0244546Y0392705D01*
X0244608Y0392573D01*
X0244667Y0392439D01*
X0244722Y0392303D01*
X0244774Y0392166D01*
X0244822Y0392027D01*
X0244866Y0391888D01*
X0244906Y0391747D01*
X0244943Y0391605D01*
X0244976Y0391463D01*
X0245005Y0391319D01*
X0245030Y0391175D01*
X0245051Y0391030D01*
X0245069Y0390885D01*
X0245082Y0390739D01*
X0245092Y0390593D01*
X0245098Y0390446D01*
X0245100Y0390300D01*
X0245100Y0115800D01*
X0220100Y0115800D01*
X0220100Y0090800D01*
X0064100Y0090800D01*
X0163500Y0184200D02*
X0163500Y0186400D01*
X0163500Y0184200D02*
X0166700Y0184200D01*
X0163500Y0193200D02*
X0163500Y0195400D01*
X0166700Y0195400D01*
X0194000Y0147900D02*
X0194000Y0144700D01*
X0196200Y0144700D01*
X0203000Y0144700D02*
X0205200Y0144700D01*
X0205200Y0147900D01*
X0204500Y0156700D02*
X0204500Y0158900D01*
X0204500Y0156700D02*
X0207700Y0156700D01*
X0204500Y0165700D02*
X0204500Y0167900D01*
X0207700Y0167900D01*
X0111758Y0278964D02*
X0094042Y0278964D01*
X0093980Y0278966D01*
X0093919Y0278972D01*
X0093858Y0278981D01*
X0093797Y0278995D01*
X0093738Y0279012D01*
X0093680Y0279033D01*
X0093623Y0279058D01*
X0093568Y0279086D01*
X0093515Y0279117D01*
X0093464Y0279152D01*
X0093415Y0279190D01*
X0093368Y0279231D01*
X0093325Y0279274D01*
X0093284Y0279321D01*
X0093246Y0279370D01*
X0093211Y0279421D01*
X0093180Y0279474D01*
X0093152Y0279529D01*
X0093127Y0279586D01*
X0093106Y0279644D01*
X0093089Y0279703D01*
X0093075Y0279764D01*
X0093066Y0279825D01*
X0093060Y0279886D01*
X0093058Y0279948D01*
X0093057Y0279909D02*
X0093057Y0280499D01*
X0093057Y0282940D02*
X0093057Y0285460D01*
X0093057Y0287940D02*
X0093057Y0290460D01*
X0093057Y0292940D02*
X0093057Y0295460D01*
X0093057Y0297901D02*
X0093057Y0298413D01*
X0094042Y0299436D02*
X0111719Y0299436D01*
X0112743Y0298413D02*
X0112743Y0297901D01*
X0112743Y0295460D02*
X0112743Y0292940D01*
X0112743Y0290499D02*
X0112743Y0287940D01*
X0112743Y0285499D02*
X0112743Y0282940D01*
X0112743Y0280539D02*
X0112743Y0280027D01*
X0186161Y0358467D02*
X0186161Y0360467D01*
X0186161Y0368267D02*
X0186161Y0370267D01*
X0197961Y0370267D02*
X0197961Y0368267D01*
X0197961Y0360467D02*
X0197961Y0358467D01*
D11*
X0182061Y0369724D02*
X0182061Y0370925D01*
X0182061Y0370325D02*
X0180259Y0370325D01*
X0180860Y0370925D01*
X0180259Y0371566D02*
X0181760Y0371566D01*
X0182061Y0371866D01*
X0182061Y0372467D01*
X0181760Y0372767D01*
X0180259Y0372767D01*
X0094321Y0281791D02*
X0094323Y0281879D01*
X0094329Y0281967D01*
X0094339Y0282055D01*
X0094353Y0282143D01*
X0094370Y0282229D01*
X0094392Y0282315D01*
X0094417Y0282399D01*
X0094447Y0282483D01*
X0094479Y0282565D01*
X0094516Y0282645D01*
X0094556Y0282724D01*
X0094600Y0282801D01*
X0094647Y0282876D01*
X0094697Y0282948D01*
X0094751Y0283019D01*
X0094807Y0283086D01*
X0094867Y0283152D01*
X0094929Y0283214D01*
X0094995Y0283274D01*
X0095062Y0283330D01*
X0095133Y0283384D01*
X0095205Y0283434D01*
X0095280Y0283481D01*
X0095357Y0283525D01*
X0095436Y0283565D01*
X0095516Y0283602D01*
X0095598Y0283634D01*
X0095682Y0283664D01*
X0095766Y0283689D01*
X0095852Y0283711D01*
X0095938Y0283728D01*
X0096026Y0283742D01*
X0096114Y0283752D01*
X0096202Y0283758D01*
X0096290Y0283760D01*
X0096378Y0283758D01*
X0096466Y0283752D01*
X0096554Y0283742D01*
X0096642Y0283728D01*
X0096728Y0283711D01*
X0096814Y0283689D01*
X0096898Y0283664D01*
X0096982Y0283634D01*
X0097064Y0283602D01*
X0097144Y0283565D01*
X0097223Y0283525D01*
X0097300Y0283481D01*
X0097375Y0283434D01*
X0097447Y0283384D01*
X0097518Y0283330D01*
X0097585Y0283274D01*
X0097651Y0283214D01*
X0097713Y0283152D01*
X0097773Y0283086D01*
X0097829Y0283019D01*
X0097883Y0282948D01*
X0097933Y0282876D01*
X0097980Y0282801D01*
X0098024Y0282724D01*
X0098064Y0282645D01*
X0098101Y0282565D01*
X0098133Y0282483D01*
X0098163Y0282399D01*
X0098188Y0282315D01*
X0098210Y0282229D01*
X0098227Y0282143D01*
X0098241Y0282055D01*
X0098251Y0281967D01*
X0098257Y0281879D01*
X0098259Y0281791D01*
X0098257Y0281703D01*
X0098251Y0281615D01*
X0098241Y0281527D01*
X0098227Y0281439D01*
X0098210Y0281353D01*
X0098188Y0281267D01*
X0098163Y0281183D01*
X0098133Y0281099D01*
X0098101Y0281017D01*
X0098064Y0280937D01*
X0098024Y0280858D01*
X0097980Y0280781D01*
X0097933Y0280706D01*
X0097883Y0280634D01*
X0097829Y0280563D01*
X0097773Y0280496D01*
X0097713Y0280430D01*
X0097651Y0280368D01*
X0097585Y0280308D01*
X0097518Y0280252D01*
X0097447Y0280198D01*
X0097375Y0280148D01*
X0097300Y0280101D01*
X0097223Y0280057D01*
X0097144Y0280017D01*
X0097064Y0279980D01*
X0096982Y0279948D01*
X0096898Y0279918D01*
X0096814Y0279893D01*
X0096728Y0279871D01*
X0096642Y0279854D01*
X0096554Y0279840D01*
X0096466Y0279830D01*
X0096378Y0279824D01*
X0096290Y0279822D01*
X0096202Y0279824D01*
X0096114Y0279830D01*
X0096026Y0279840D01*
X0095938Y0279854D01*
X0095852Y0279871D01*
X0095766Y0279893D01*
X0095682Y0279918D01*
X0095598Y0279948D01*
X0095516Y0279980D01*
X0095436Y0280017D01*
X0095357Y0280057D01*
X0095280Y0280101D01*
X0095205Y0280148D01*
X0095133Y0280198D01*
X0095062Y0280252D01*
X0094995Y0280308D01*
X0094929Y0280368D01*
X0094867Y0280430D01*
X0094807Y0280496D01*
X0094751Y0280563D01*
X0094697Y0280634D01*
X0094647Y0280706D01*
X0094600Y0280781D01*
X0094556Y0280858D01*
X0094516Y0280937D01*
X0094479Y0281017D01*
X0094447Y0281099D01*
X0094417Y0281183D01*
X0094392Y0281267D01*
X0094370Y0281353D01*
X0094353Y0281439D01*
X0094339Y0281527D01*
X0094329Y0281615D01*
X0094323Y0281703D01*
X0094321Y0281791D01*
X0153377Y0195822D02*
X0153377Y0194642D01*
X0153377Y0195232D02*
X0155147Y0195232D01*
X0154557Y0194642D01*
X0154852Y0194009D02*
X0155147Y0193714D01*
X0155147Y0193124D01*
X0154852Y0192829D01*
X0153672Y0192829D01*
X0153377Y0193124D01*
X0153377Y0193714D01*
X0153672Y0194009D01*
X0153377Y0192211D02*
X0153377Y0191621D01*
X0153377Y0191916D02*
X0155147Y0191916D01*
X0155147Y0191621D02*
X0155147Y0192211D01*
X0215200Y0189984D02*
X0215200Y0189383D01*
X0215500Y0189083D01*
X0216101Y0189083D02*
X0216401Y0189684D01*
X0216401Y0189984D01*
X0216101Y0190284D01*
X0215500Y0190284D01*
X0215200Y0189984D01*
X0216101Y0189083D02*
X0217002Y0189083D01*
X0217002Y0190284D01*
X0217002Y0187842D02*
X0215200Y0187842D01*
X0215200Y0187242D02*
X0215200Y0188443D01*
X0216401Y0187242D02*
X0217002Y0187842D01*
X0216701Y0186601D02*
X0217002Y0186301D01*
X0217002Y0185700D01*
X0216701Y0185400D01*
X0215500Y0185400D01*
X0215200Y0185700D01*
X0215200Y0186301D01*
X0215500Y0186601D01*
X0223116Y0183702D02*
X0223716Y0183401D01*
X0224317Y0182801D01*
X0223416Y0182801D01*
X0223116Y0182501D01*
X0223116Y0182200D01*
X0223416Y0181900D01*
X0224017Y0181900D01*
X0224317Y0182200D01*
X0224317Y0182801D01*
X0224957Y0181900D02*
X0226158Y0181900D01*
X0225558Y0181900D02*
X0225558Y0183702D01*
X0226158Y0183101D01*
X0226799Y0183401D02*
X0227099Y0183702D01*
X0227700Y0183702D01*
X0228000Y0183401D01*
X0228000Y0182200D01*
X0227700Y0181900D01*
X0227099Y0181900D01*
X0226799Y0182200D01*
D12*
X0198175Y0193520D02*
X0198175Y0205331D01*
X0187151Y0205331D01*
X0187151Y0193520D01*
X0198175Y0193520D01*
X0185182Y0204544D02*
X0185184Y0204583D01*
X0185190Y0204622D01*
X0185200Y0204660D01*
X0185213Y0204697D01*
X0185230Y0204732D01*
X0185250Y0204766D01*
X0185274Y0204797D01*
X0185301Y0204826D01*
X0185330Y0204852D01*
X0185362Y0204875D01*
X0185396Y0204895D01*
X0185432Y0204911D01*
X0185469Y0204923D01*
X0185508Y0204932D01*
X0185547Y0204937D01*
X0185586Y0204938D01*
X0185625Y0204935D01*
X0185664Y0204928D01*
X0185701Y0204917D01*
X0185738Y0204903D01*
X0185773Y0204885D01*
X0185806Y0204864D01*
X0185837Y0204839D01*
X0185865Y0204812D01*
X0185890Y0204782D01*
X0185912Y0204749D01*
X0185931Y0204715D01*
X0185946Y0204679D01*
X0185958Y0204641D01*
X0185966Y0204603D01*
X0185970Y0204564D01*
X0185970Y0204524D01*
X0185966Y0204485D01*
X0185958Y0204447D01*
X0185946Y0204409D01*
X0185931Y0204373D01*
X0185912Y0204339D01*
X0185890Y0204306D01*
X0185865Y0204276D01*
X0185837Y0204249D01*
X0185806Y0204224D01*
X0185773Y0204203D01*
X0185738Y0204185D01*
X0185701Y0204171D01*
X0185664Y0204160D01*
X0185625Y0204153D01*
X0185586Y0204150D01*
X0185547Y0204151D01*
X0185508Y0204156D01*
X0185469Y0204165D01*
X0185432Y0204177D01*
X0185396Y0204193D01*
X0185362Y0204213D01*
X0185330Y0204236D01*
X0185301Y0204262D01*
X0185274Y0204291D01*
X0185250Y0204322D01*
X0185230Y0204356D01*
X0185213Y0204391D01*
X0185200Y0204428D01*
X0185190Y0204466D01*
X0185184Y0204505D01*
X0185182Y0204544D01*
X0188065Y0244363D02*
X0188065Y0281765D01*
X0150663Y0281765D01*
X0150663Y0244363D01*
X0188065Y0244363D01*
X0201082Y0244050D02*
X0202350Y0244050D01*
X0201082Y0245318D01*
X0201082Y0245635D01*
X0201399Y0245952D01*
X0202033Y0245952D01*
X0202350Y0245635D01*
X0203292Y0244050D02*
X0204560Y0244050D01*
X0204560Y0245952D01*
X0187743Y0151052D02*
X0188060Y0150735D01*
X0188060Y0149467D01*
X0187743Y0149150D01*
X0187109Y0149150D01*
X0186792Y0149467D01*
X0185850Y0149467D02*
X0185533Y0149150D01*
X0184899Y0149150D01*
X0184582Y0149467D01*
X0184582Y0150101D01*
X0184899Y0150418D01*
X0185216Y0150418D01*
X0185850Y0150101D01*
X0185850Y0151052D01*
X0184582Y0151052D01*
X0186792Y0150735D02*
X0187109Y0151052D01*
X0187743Y0151052D01*
X0179035Y0125318D02*
X0178718Y0125318D01*
X0178401Y0125001D01*
X0178084Y0125318D01*
X0177767Y0125318D01*
X0177450Y0125001D01*
X0177450Y0124367D01*
X0177767Y0124050D01*
X0178401Y0124684D02*
X0178401Y0125001D01*
X0179035Y0125318D02*
X0179352Y0125001D01*
X0179352Y0124367D01*
X0179035Y0124050D01*
X0179035Y0123108D02*
X0179352Y0122791D01*
X0179352Y0122157D01*
X0179035Y0121840D01*
X0177767Y0121840D01*
X0177450Y0122157D01*
X0177450Y0122791D01*
X0177767Y0123108D01*
X0172852Y0122791D02*
X0172852Y0122157D01*
X0172535Y0121840D01*
X0171267Y0121840D01*
X0170950Y0122157D01*
X0170950Y0122791D01*
X0171267Y0123108D01*
X0170950Y0124050D02*
X0170950Y0125318D01*
X0170950Y0124684D02*
X0172852Y0124684D01*
X0172218Y0124050D01*
X0172535Y0123108D02*
X0172852Y0122791D01*
X0154252Y0131235D02*
X0154252Y0132186D01*
X0153935Y0132503D01*
X0153301Y0132503D01*
X0152984Y0132186D01*
X0152984Y0131235D01*
X0152350Y0131235D02*
X0154252Y0131235D01*
X0152984Y0131869D02*
X0152350Y0132503D01*
X0152350Y0133445D02*
X0153618Y0134713D01*
X0153935Y0134713D01*
X0154252Y0134396D01*
X0154252Y0133762D01*
X0153935Y0133445D01*
X0152350Y0133445D02*
X0152350Y0134713D01*
X0152667Y0135655D02*
X0153935Y0136923D01*
X0152667Y0136923D01*
X0152350Y0136606D01*
X0152350Y0135972D01*
X0152667Y0135655D01*
X0153935Y0135655D01*
X0154252Y0135972D01*
X0154252Y0136606D01*
X0153935Y0136923D01*
X0220850Y0138757D02*
X0220850Y0139391D01*
X0221167Y0139708D01*
X0220850Y0138757D02*
X0221167Y0138440D01*
X0222435Y0138440D01*
X0222752Y0138757D01*
X0222752Y0139391D01*
X0222435Y0139708D01*
X0221801Y0140650D02*
X0221801Y0141918D01*
X0222752Y0141601D02*
X0221801Y0140650D01*
X0220850Y0141601D02*
X0222752Y0141601D01*
X0225431Y0128944D02*
X0225431Y0125794D01*
X0236849Y0125794D01*
X0236849Y0128944D01*
X0225431Y0128944D01*
X0122335Y0275235D02*
X0122652Y0275552D01*
X0122652Y0276186D01*
X0122335Y0276503D01*
X0122018Y0277445D02*
X0122652Y0278079D01*
X0120750Y0278079D01*
X0120750Y0277445D02*
X0120750Y0278713D01*
X0121067Y0279655D02*
X0121384Y0279655D01*
X0121701Y0279972D01*
X0121701Y0280606D01*
X0121384Y0280923D01*
X0121067Y0280923D01*
X0120750Y0280606D01*
X0120750Y0279972D01*
X0121067Y0279655D01*
X0121701Y0279972D02*
X0122018Y0279655D01*
X0122335Y0279655D01*
X0122652Y0279972D01*
X0122652Y0280606D01*
X0122335Y0280923D01*
X0122018Y0280923D01*
X0121701Y0280606D01*
X0121067Y0276503D02*
X0120750Y0276186D01*
X0120750Y0275552D01*
X0121067Y0275235D01*
X0122335Y0275235D01*
X0112534Y0270581D02*
X0112217Y0270897D01*
X0111900Y0270897D01*
X0111583Y0270581D01*
X0111267Y0270897D01*
X0110950Y0270897D01*
X0110633Y0270581D01*
X0110633Y0269947D01*
X0110950Y0269630D01*
X0111583Y0270264D02*
X0111583Y0270581D01*
X0112534Y0270581D02*
X0112534Y0269947D01*
X0112217Y0269630D01*
X0112534Y0268054D02*
X0110633Y0268054D01*
X0110633Y0267420D02*
X0110633Y0268688D01*
X0111900Y0267420D02*
X0112534Y0268054D01*
X0112217Y0266478D02*
X0111583Y0266478D01*
X0111267Y0266161D01*
X0111267Y0265210D01*
X0111267Y0265844D02*
X0110633Y0266478D01*
X0110633Y0265210D02*
X0112534Y0265210D01*
X0112534Y0266161D01*
X0112217Y0266478D01*
X0112935Y0265123D02*
X0111667Y0263855D01*
X0111350Y0263855D01*
X0111350Y0262913D02*
X0111350Y0261645D01*
X0111350Y0262279D02*
X0113252Y0262279D01*
X0112618Y0261645D01*
X0112935Y0260703D02*
X0112301Y0260703D01*
X0111984Y0260386D01*
X0111984Y0259435D01*
X0111350Y0259435D02*
X0113252Y0259435D01*
X0113252Y0260386D01*
X0112935Y0260703D01*
X0111984Y0260069D02*
X0111350Y0260703D01*
X0113252Y0263855D02*
X0113252Y0265123D01*
X0112935Y0265123D01*
X0117050Y0261206D02*
X0117050Y0260572D01*
X0117367Y0260255D01*
X0118001Y0260889D02*
X0118001Y0261206D01*
X0117684Y0261523D01*
X0117367Y0261523D01*
X0117050Y0261206D01*
X0118001Y0261206D02*
X0118318Y0261523D01*
X0118635Y0261523D01*
X0118952Y0261206D01*
X0118952Y0260572D01*
X0118635Y0260255D01*
X0118001Y0259313D02*
X0118001Y0258045D01*
X0118952Y0258996D01*
X0117050Y0258996D01*
X0117367Y0257103D02*
X0117050Y0256786D01*
X0117050Y0256152D01*
X0117367Y0255835D01*
X0118635Y0255835D01*
X0118952Y0256152D01*
X0118952Y0256786D01*
X0118635Y0257103D01*
X0116065Y0248052D02*
X0115114Y0248052D01*
X0114797Y0247735D01*
X0114797Y0247101D01*
X0115114Y0246784D01*
X0116065Y0246784D01*
X0116065Y0246150D02*
X0116065Y0248052D01*
X0115431Y0246784D02*
X0114797Y0246150D01*
X0113855Y0246150D02*
X0112587Y0246150D01*
X0113221Y0246150D02*
X0113221Y0248052D01*
X0113855Y0247418D01*
X0111645Y0247101D02*
X0110694Y0247101D01*
X0110377Y0246784D01*
X0110377Y0246467D01*
X0110694Y0246150D01*
X0111328Y0246150D01*
X0111645Y0246467D01*
X0111645Y0247101D01*
X0111011Y0247735D01*
X0110377Y0248052D01*
X0092722Y0244828D02*
X0092722Y0268843D01*
X0081974Y0268843D01*
X0081580Y0268843D01*
X0081580Y0268450D01*
X0081580Y0244828D01*
X0092722Y0244828D01*
X0098940Y0300700D02*
X0101942Y0300700D01*
X0098940Y0303703D01*
X0098940Y0304453D01*
X0099690Y0305204D01*
X0101192Y0305204D01*
X0101942Y0304453D01*
X0103544Y0304453D02*
X0104294Y0305204D01*
X0105795Y0305204D01*
X0106546Y0304453D01*
X0106546Y0303703D01*
X0105795Y0302952D01*
X0104294Y0302952D01*
X0103544Y0302201D01*
X0103544Y0301451D01*
X0104294Y0300700D01*
X0105795Y0300700D01*
X0106546Y0301451D01*
X0108147Y0301451D02*
X0108147Y0305204D01*
X0111150Y0305204D02*
X0111150Y0301451D01*
X0110399Y0300700D01*
X0108898Y0300700D01*
X0108147Y0301451D01*
X0105045Y0299949D02*
X0105045Y0305954D01*
X0121128Y0355740D02*
X0120495Y0356374D01*
X0119544Y0356374D01*
X0120495Y0356374D02*
X0121128Y0357008D01*
X0121445Y0357008D01*
X0121128Y0357950D02*
X0121445Y0358267D01*
X0121445Y0358901D01*
X0121128Y0359218D01*
X0120811Y0359218D01*
X0120495Y0358901D01*
X0120178Y0359218D01*
X0119861Y0359218D01*
X0119544Y0358901D01*
X0119544Y0358267D01*
X0119861Y0357950D01*
X0120495Y0358584D02*
X0120495Y0358901D01*
X0121128Y0355740D02*
X0121445Y0355740D01*
X0178845Y0380718D02*
X0178845Y0381986D01*
X0179162Y0382303D01*
X0179796Y0382303D01*
X0180113Y0381986D01*
X0180113Y0381669D01*
X0179796Y0381352D01*
X0178845Y0381352D01*
X0178845Y0380718D02*
X0179162Y0380401D01*
X0179796Y0380401D01*
X0180113Y0380718D01*
X0181055Y0380718D02*
X0181372Y0380401D01*
X0182006Y0380401D01*
X0182323Y0380718D01*
X0182323Y0381986D01*
X0182006Y0382303D01*
X0181372Y0382303D01*
X0181055Y0381986D01*
X0183276Y0368774D02*
X0182959Y0368458D01*
X0182959Y0367824D01*
X0183276Y0367507D01*
X0183593Y0367507D01*
X0183909Y0367824D01*
X0183909Y0368458D01*
X0183593Y0368774D01*
X0183276Y0368774D01*
X0183909Y0368458D02*
X0184226Y0368774D01*
X0184543Y0368774D01*
X0184860Y0368458D01*
X0184860Y0367824D01*
X0184543Y0367507D01*
X0184226Y0367507D01*
X0183909Y0367824D01*
X0183276Y0366565D02*
X0182959Y0366248D01*
X0182959Y0365614D01*
X0183276Y0365297D01*
X0184543Y0365297D01*
X0184860Y0365614D01*
X0184860Y0366248D01*
X0184543Y0366565D01*
X0193541Y0378343D02*
X0193224Y0378660D01*
X0193224Y0379294D01*
X0193541Y0379611D01*
X0193541Y0380553D02*
X0193224Y0380870D01*
X0193224Y0381504D01*
X0193541Y0381821D01*
X0193858Y0381821D01*
X0194175Y0381504D01*
X0194175Y0380553D01*
X0193541Y0380553D01*
X0194175Y0380553D02*
X0194809Y0381187D01*
X0195126Y0381821D01*
X0194809Y0379611D02*
X0195126Y0379294D01*
X0195126Y0378660D01*
X0194809Y0378343D01*
X0193541Y0378343D01*
X0210281Y0356828D02*
X0209013Y0355560D01*
X0208696Y0355560D01*
X0209013Y0354618D02*
X0208696Y0354301D01*
X0208696Y0353667D01*
X0209013Y0353350D01*
X0210281Y0353350D01*
X0210598Y0353667D01*
X0210598Y0354301D01*
X0210281Y0354618D01*
X0210598Y0355560D02*
X0210598Y0356828D01*
X0210281Y0356828D01*
D13*
X0210037Y0346965D02*
X0206967Y0346965D01*
X0206200Y0346198D01*
X0206200Y0344663D01*
X0206967Y0343896D01*
X0210037Y0346965D01*
X0210804Y0346198D01*
X0210804Y0344663D01*
X0210037Y0343896D01*
X0206967Y0343896D01*
X0206967Y0342361D02*
X0206200Y0341594D01*
X0206200Y0340059D01*
X0206967Y0339292D01*
X0206200Y0337757D02*
X0207735Y0336223D01*
X0207735Y0336990D02*
X0207735Y0334688D01*
X0206200Y0334688D02*
X0210804Y0334688D01*
X0210804Y0336990D01*
X0210037Y0337757D01*
X0208502Y0337757D01*
X0207735Y0336990D01*
X0210037Y0339292D02*
X0210804Y0340059D01*
X0210804Y0341594D01*
X0210037Y0342361D01*
X0209269Y0342361D01*
X0208502Y0341594D01*
X0207735Y0342361D01*
X0206967Y0342361D01*
X0208502Y0341594D02*
X0208502Y0340827D01*
X0205533Y0325904D02*
X0206300Y0325137D01*
X0206300Y0322067D01*
X0205533Y0321300D01*
X0203998Y0321300D01*
X0203231Y0322067D01*
X0201696Y0321300D02*
X0198627Y0321300D01*
X0200161Y0321300D02*
X0200161Y0325904D01*
X0201696Y0324369D01*
X0203231Y0325137D02*
X0203998Y0325904D01*
X0205533Y0325904D01*
X0205633Y0317604D02*
X0206400Y0316837D01*
X0206400Y0313767D01*
X0205633Y0313000D01*
X0204098Y0313000D01*
X0203331Y0313767D01*
X0201796Y0313000D02*
X0198727Y0316069D01*
X0198727Y0316837D01*
X0199494Y0317604D01*
X0201029Y0317604D01*
X0201796Y0316837D01*
X0203331Y0316837D02*
X0204098Y0317604D01*
X0205633Y0317604D01*
X0201796Y0313000D02*
X0198727Y0313000D01*
X0197192Y0313000D02*
X0194123Y0313000D01*
X0195658Y0313000D02*
X0195658Y0317604D01*
X0197192Y0316069D01*
X0196325Y0321300D02*
X0194790Y0321300D01*
X0194023Y0322067D01*
X0194023Y0325137D01*
X0194790Y0325904D01*
X0196325Y0325904D01*
X0197092Y0325137D01*
X0197092Y0324369D01*
X0196325Y0323602D01*
X0194023Y0323602D01*
X0196325Y0321300D02*
X0197092Y0322067D01*
X0209809Y0292167D02*
X0211344Y0292167D01*
X0212111Y0291400D01*
X0213646Y0291400D02*
X0213646Y0289865D01*
X0214413Y0289098D01*
X0216715Y0289098D01*
X0215180Y0289098D02*
X0213646Y0287563D01*
X0214413Y0286474D02*
X0213646Y0285707D01*
X0213646Y0284172D01*
X0214413Y0283405D01*
X0216715Y0283405D01*
X0215180Y0283405D02*
X0213646Y0281870D01*
X0212111Y0281870D02*
X0209042Y0281870D01*
X0210576Y0281870D02*
X0210576Y0286474D01*
X0212111Y0284939D01*
X0212111Y0287563D02*
X0209042Y0290632D01*
X0209042Y0291400D01*
X0209809Y0292167D01*
X0209042Y0287563D02*
X0212111Y0287563D01*
X0214413Y0286474D02*
X0216715Y0286474D01*
X0216715Y0281870D01*
X0216715Y0287563D02*
X0216715Y0292167D01*
X0214413Y0292167D01*
X0213646Y0291400D01*
X0207444Y0268104D02*
X0205910Y0268104D01*
X0205143Y0267337D01*
X0203608Y0265802D02*
X0200539Y0265802D01*
X0199004Y0264267D02*
X0199004Y0267337D01*
X0198237Y0268104D01*
X0196702Y0268104D01*
X0195935Y0267337D01*
X0199004Y0264267D01*
X0198237Y0263500D01*
X0196702Y0263500D01*
X0195935Y0264267D01*
X0195935Y0267337D01*
X0201306Y0268104D02*
X0203608Y0265802D01*
X0205143Y0264267D02*
X0205910Y0263500D01*
X0207444Y0263500D01*
X0208212Y0264267D01*
X0208212Y0267337D01*
X0207444Y0268104D01*
X0201306Y0268104D02*
X0201306Y0263500D01*
X0201306Y0259104D02*
X0203608Y0256802D01*
X0200539Y0256802D01*
X0199004Y0257569D02*
X0197469Y0259104D01*
X0197469Y0254500D01*
X0197869Y0254277D02*
X0197102Y0253510D01*
X0197102Y0251975D01*
X0197869Y0251208D01*
X0198637Y0251208D01*
X0199404Y0251975D01*
X0199404Y0253510D01*
X0198637Y0254277D01*
X0197869Y0254277D01*
X0197102Y0253510D02*
X0196335Y0254277D01*
X0195567Y0254277D01*
X0194800Y0253510D01*
X0194800Y0251975D01*
X0195567Y0251208D01*
X0196335Y0251208D01*
X0197102Y0251975D01*
X0197869Y0249673D02*
X0197102Y0248906D01*
X0196335Y0249673D01*
X0195567Y0249673D01*
X0194800Y0248906D01*
X0194800Y0247371D01*
X0195567Y0246604D01*
X0195567Y0245069D02*
X0194800Y0244302D01*
X0194800Y0242767D01*
X0195567Y0242000D01*
X0198637Y0242000D01*
X0199404Y0242767D01*
X0199404Y0244302D01*
X0198637Y0245069D01*
X0198637Y0246604D02*
X0199404Y0247371D01*
X0199404Y0248906D01*
X0198637Y0249673D01*
X0197869Y0249673D01*
X0197102Y0248906D02*
X0197102Y0248139D01*
X0195935Y0254500D02*
X0199004Y0254500D01*
X0201306Y0254500D02*
X0201306Y0259104D01*
X0205143Y0258337D02*
X0205910Y0259104D01*
X0207444Y0259104D01*
X0208212Y0258337D01*
X0208212Y0255267D01*
X0207444Y0254500D01*
X0205910Y0254500D01*
X0205143Y0255267D01*
X0216300Y0253510D02*
X0216300Y0251975D01*
X0217067Y0251208D01*
X0217067Y0249673D02*
X0216300Y0248906D01*
X0216300Y0247371D01*
X0217067Y0246604D01*
X0217067Y0245069D02*
X0216300Y0244302D01*
X0216300Y0242767D01*
X0217067Y0242000D01*
X0220137Y0242000D01*
X0220904Y0242767D01*
X0220904Y0244302D01*
X0220137Y0245069D01*
X0220137Y0246604D02*
X0220904Y0247371D01*
X0220904Y0248906D01*
X0220137Y0249673D01*
X0219369Y0249673D01*
X0218602Y0248906D01*
X0217835Y0249673D01*
X0217067Y0249673D01*
X0218602Y0248906D02*
X0218602Y0248139D01*
X0219369Y0251208D02*
X0218602Y0251975D01*
X0218602Y0254277D01*
X0217067Y0254277D02*
X0220137Y0254277D01*
X0220904Y0253510D01*
X0220904Y0251975D01*
X0220137Y0251208D01*
X0219369Y0251208D01*
X0216300Y0253510D02*
X0217067Y0254277D01*
X0189400Y0222604D02*
X0189400Y0218000D01*
X0189400Y0219535D02*
X0187098Y0219535D01*
X0186331Y0220302D01*
X0186331Y0221837D01*
X0187098Y0222604D01*
X0189400Y0222604D01*
X0187865Y0219535D02*
X0186331Y0218000D01*
X0184796Y0218000D02*
X0181727Y0221069D01*
X0181727Y0221837D01*
X0182494Y0222604D01*
X0184029Y0222604D01*
X0184796Y0221837D01*
X0184796Y0218000D02*
X0181727Y0218000D01*
X0180192Y0218000D02*
X0177123Y0218000D01*
X0178658Y0218000D02*
X0178658Y0222604D01*
X0180192Y0221069D01*
X0164904Y0211510D02*
X0162602Y0209208D01*
X0162602Y0212277D01*
X0160300Y0211510D02*
X0164904Y0211510D01*
X0160300Y0207673D02*
X0160300Y0204604D01*
X0160300Y0206139D02*
X0164904Y0206139D01*
X0163369Y0204604D01*
X0162602Y0203069D02*
X0161835Y0202302D01*
X0161835Y0200000D01*
X0161835Y0201535D02*
X0160300Y0203069D01*
X0162602Y0203069D02*
X0164137Y0203069D01*
X0164904Y0202302D01*
X0164904Y0200000D01*
X0160300Y0200000D01*
X0157637Y0195965D02*
X0156869Y0195965D01*
X0156102Y0195198D01*
X0155335Y0195965D01*
X0154567Y0195965D01*
X0153800Y0195198D01*
X0153800Y0193663D01*
X0154567Y0192896D01*
X0154567Y0191361D02*
X0157637Y0191361D01*
X0158404Y0190594D01*
X0158404Y0188292D01*
X0153800Y0188292D01*
X0153800Y0190594D01*
X0154567Y0191361D01*
X0157637Y0192896D02*
X0158404Y0193663D01*
X0158404Y0195198D01*
X0157637Y0195965D01*
X0156102Y0195198D02*
X0156102Y0194431D01*
X0167735Y0196802D02*
X0170804Y0196802D01*
X0168502Y0199104D01*
X0168502Y0194500D01*
X0172339Y0194500D02*
X0173873Y0196035D01*
X0173106Y0196035D02*
X0175408Y0196035D01*
X0175408Y0194500D02*
X0175408Y0199104D01*
X0173106Y0199104D01*
X0172339Y0198337D01*
X0172339Y0196802D01*
X0173106Y0196035D01*
X0187123Y0183104D02*
X0190192Y0183104D01*
X0190192Y0180802D01*
X0188658Y0181569D01*
X0187890Y0181569D01*
X0187123Y0180802D01*
X0187123Y0179267D01*
X0187890Y0178500D01*
X0189425Y0178500D01*
X0190192Y0179267D01*
X0191102Y0178604D02*
X0191102Y0181673D01*
X0191869Y0181673D02*
X0188800Y0181673D01*
X0188800Y0178604D02*
X0191869Y0178604D01*
X0193404Y0180139D01*
X0191869Y0181673D01*
X0193202Y0181104D02*
X0195504Y0178802D01*
X0192435Y0178802D01*
X0191727Y0178500D02*
X0194796Y0178500D01*
X0193261Y0178500D02*
X0193261Y0183104D01*
X0194796Y0181569D01*
X0193202Y0181104D02*
X0193202Y0176500D01*
X0193404Y0176302D02*
X0192637Y0177069D01*
X0191869Y0177069D01*
X0191102Y0176302D01*
X0191102Y0174000D01*
X0188800Y0174000D02*
X0193404Y0174000D01*
X0193404Y0176302D01*
X0191102Y0176302D02*
X0190335Y0177069D01*
X0189567Y0177069D01*
X0188800Y0176302D01*
X0188800Y0174000D01*
X0197039Y0176500D02*
X0200108Y0176500D01*
X0198573Y0176500D02*
X0198573Y0181104D01*
X0200108Y0179569D01*
X0199400Y0180035D02*
X0197098Y0180035D01*
X0196331Y0180802D01*
X0196331Y0182337D01*
X0197098Y0183104D01*
X0199400Y0183104D01*
X0199400Y0178500D01*
X0197865Y0180035D02*
X0196331Y0178500D01*
X0193404Y0183208D02*
X0193404Y0186277D01*
X0193404Y0184742D02*
X0188800Y0184742D01*
X0188800Y0189346D02*
X0193404Y0189346D01*
X0193404Y0187812D02*
X0193404Y0190881D01*
X0202410Y0181104D02*
X0203944Y0181104D01*
X0204712Y0180337D01*
X0204712Y0177267D01*
X0203944Y0176500D01*
X0202410Y0176500D01*
X0201643Y0177267D01*
X0201643Y0180337D02*
X0202410Y0181104D01*
X0204390Y0158604D02*
X0203623Y0157837D01*
X0206692Y0154767D01*
X0205925Y0154000D01*
X0204390Y0154000D01*
X0203623Y0154767D01*
X0203623Y0157837D01*
X0204390Y0158604D02*
X0205925Y0158604D01*
X0206692Y0157837D01*
X0206692Y0154767D01*
X0208227Y0154000D02*
X0211296Y0154000D01*
X0209761Y0154000D02*
X0209761Y0158604D01*
X0211296Y0157069D01*
X0212831Y0156302D02*
X0213598Y0155535D01*
X0215900Y0155535D01*
X0214365Y0155535D02*
X0212831Y0154000D01*
X0212831Y0156302D02*
X0212831Y0157837D01*
X0213598Y0158604D01*
X0215900Y0158604D01*
X0215900Y0154000D01*
X0222702Y0160500D02*
X0221935Y0161267D01*
X0221935Y0162802D01*
X0222702Y0163569D01*
X0223469Y0163569D01*
X0225004Y0162802D01*
X0225004Y0165104D01*
X0221935Y0165104D01*
X0222702Y0160500D02*
X0224237Y0160500D01*
X0225004Y0161267D01*
X0226539Y0160500D02*
X0229608Y0160500D01*
X0226539Y0163569D01*
X0226539Y0164337D01*
X0227306Y0165104D01*
X0228841Y0165104D01*
X0229608Y0164337D01*
X0231143Y0164337D02*
X0231143Y0162802D01*
X0231910Y0162035D01*
X0234212Y0162035D01*
X0232677Y0162035D02*
X0231143Y0160500D01*
X0234212Y0160500D02*
X0234212Y0165104D01*
X0231910Y0165104D01*
X0231143Y0164337D01*
X0236300Y0163000D02*
X0240904Y0163000D01*
X0240904Y0165302D01*
X0240137Y0166069D01*
X0238602Y0166069D01*
X0237835Y0165302D01*
X0237835Y0163000D01*
X0237835Y0164535D02*
X0236300Y0166069D01*
X0236300Y0167604D02*
X0239369Y0170673D01*
X0240137Y0170673D01*
X0240904Y0169906D01*
X0240904Y0168371D01*
X0240137Y0167604D01*
X0236300Y0167604D02*
X0236300Y0170673D01*
X0237067Y0172208D02*
X0236300Y0172975D01*
X0236300Y0174510D01*
X0237067Y0175277D01*
X0237835Y0175277D01*
X0238602Y0174510D01*
X0238602Y0172208D01*
X0237067Y0172208D01*
X0238602Y0172208D02*
X0240137Y0173742D01*
X0240904Y0175277D01*
X0241904Y0189000D02*
X0237300Y0189000D01*
X0238835Y0189000D02*
X0238835Y0191302D01*
X0239602Y0192069D01*
X0241137Y0192069D01*
X0241904Y0191302D01*
X0241904Y0189000D01*
X0238835Y0190535D02*
X0237300Y0192069D01*
X0237300Y0193604D02*
X0240369Y0196673D01*
X0241137Y0196673D01*
X0241904Y0195906D01*
X0241904Y0194371D01*
X0241137Y0193604D01*
X0237300Y0193604D02*
X0237300Y0196673D01*
X0237300Y0198208D02*
X0238067Y0198208D01*
X0241137Y0201277D01*
X0241904Y0201277D01*
X0241904Y0198208D01*
X0207904Y0139931D02*
X0203300Y0139931D01*
X0203300Y0141465D02*
X0203300Y0138396D01*
X0203300Y0136861D02*
X0203300Y0133792D01*
X0203300Y0132257D02*
X0204835Y0130723D01*
X0204835Y0131490D02*
X0204835Y0129188D01*
X0203300Y0129188D02*
X0207904Y0129188D01*
X0207904Y0131490D01*
X0207137Y0132257D01*
X0205602Y0132257D01*
X0204835Y0131490D01*
X0206369Y0133792D02*
X0207904Y0135327D01*
X0203300Y0135327D01*
X0201108Y0135000D02*
X0198806Y0135000D01*
X0198039Y0135767D01*
X0198039Y0138837D01*
X0198806Y0139604D01*
X0201108Y0139604D01*
X0201108Y0135000D01*
X0206369Y0138396D02*
X0207904Y0139931D01*
X0196504Y0138069D02*
X0194969Y0139604D01*
X0194969Y0135000D01*
X0193435Y0135000D02*
X0196504Y0135000D01*
X0188400Y0149000D02*
X0188400Y0153604D01*
X0186098Y0153604D01*
X0185331Y0152837D01*
X0185331Y0151302D01*
X0186098Y0150535D01*
X0188400Y0150535D01*
X0186865Y0150535D02*
X0185331Y0149000D01*
X0183796Y0149767D02*
X0183029Y0149000D01*
X0181494Y0149000D01*
X0180727Y0149767D01*
X0180727Y0152837D01*
X0181494Y0153604D01*
X0183029Y0153604D01*
X0183796Y0152837D01*
X0183796Y0152069D01*
X0183029Y0151302D01*
X0180727Y0151302D01*
X0174400Y0142104D02*
X0172098Y0142104D01*
X0171331Y0141337D01*
X0171331Y0139802D01*
X0172098Y0139035D01*
X0174400Y0139035D01*
X0172865Y0139035D02*
X0171331Y0137500D01*
X0169796Y0138267D02*
X0169029Y0137500D01*
X0167494Y0137500D01*
X0166727Y0138267D01*
X0166727Y0139035D01*
X0167494Y0139802D01*
X0169029Y0139802D01*
X0169796Y0140569D01*
X0169796Y0141337D01*
X0169029Y0142104D01*
X0167494Y0142104D01*
X0166727Y0141337D01*
X0166727Y0140569D01*
X0167494Y0139802D01*
X0169029Y0139802D02*
X0169796Y0139035D01*
X0169796Y0138267D01*
X0174400Y0137500D02*
X0174400Y0142104D01*
X0174369Y0129173D02*
X0173602Y0128406D01*
X0172835Y0129173D01*
X0172067Y0129173D01*
X0171300Y0128406D01*
X0171300Y0126871D01*
X0172067Y0126104D01*
X0171300Y0124569D02*
X0172835Y0123035D01*
X0172835Y0123802D02*
X0172835Y0121500D01*
X0171300Y0121500D02*
X0175904Y0121500D01*
X0175904Y0123802D01*
X0175137Y0124569D01*
X0173602Y0124569D01*
X0172835Y0123802D01*
X0175137Y0126104D02*
X0175904Y0126871D01*
X0175904Y0128406D01*
X0175137Y0129173D01*
X0174369Y0129173D01*
X0173602Y0128406D02*
X0173602Y0127639D01*
X0158004Y0171000D02*
X0154935Y0171000D01*
X0153400Y0171000D02*
X0150331Y0171000D01*
X0151865Y0171000D02*
X0151865Y0175604D01*
X0153400Y0174069D01*
X0153504Y0173500D02*
X0150435Y0173500D01*
X0151969Y0173500D02*
X0151969Y0178104D01*
X0153504Y0176569D01*
X0155039Y0173500D02*
X0158108Y0173500D01*
X0156573Y0173500D02*
X0156573Y0178104D01*
X0158108Y0176569D01*
X0158004Y0175604D02*
X0158004Y0171000D01*
X0160410Y0173500D02*
X0159643Y0174267D01*
X0160410Y0173500D02*
X0161944Y0173500D01*
X0162712Y0174267D01*
X0162712Y0177337D01*
X0161944Y0178104D01*
X0160410Y0178104D01*
X0159643Y0177337D01*
X0142400Y0186767D02*
X0141633Y0186000D01*
X0140098Y0186000D01*
X0139331Y0186767D01*
X0137796Y0186000D02*
X0134727Y0186000D01*
X0136261Y0186000D02*
X0136261Y0190604D01*
X0137796Y0189069D01*
X0139331Y0189837D02*
X0140098Y0190604D01*
X0141633Y0190604D01*
X0142400Y0189837D01*
X0142400Y0186767D01*
X0133192Y0186000D02*
X0130123Y0189069D01*
X0130123Y0189837D01*
X0130890Y0190604D01*
X0132425Y0190604D01*
X0133192Y0189837D01*
X0133192Y0186000D02*
X0130123Y0186000D01*
X0131110Y0182804D02*
X0130343Y0182037D01*
X0131110Y0182804D02*
X0132644Y0182804D01*
X0133412Y0182037D01*
X0133412Y0178967D01*
X0132644Y0178200D01*
X0131110Y0178200D01*
X0130343Y0178967D01*
X0128808Y0180502D02*
X0125739Y0180502D01*
X0124204Y0180502D02*
X0121135Y0180502D01*
X0121902Y0182804D02*
X0124204Y0180502D01*
X0126506Y0178200D02*
X0126506Y0182804D01*
X0128808Y0180502D01*
X0121902Y0178200D02*
X0121902Y0182804D01*
X0121835Y0163604D02*
X0121835Y0162837D01*
X0124904Y0159767D01*
X0124904Y0159000D01*
X0126439Y0159767D02*
X0127206Y0159000D01*
X0128741Y0159000D01*
X0129508Y0159767D01*
X0131043Y0159767D02*
X0131810Y0159000D01*
X0133344Y0159000D01*
X0134112Y0159767D01*
X0134112Y0162837D01*
X0133344Y0163604D01*
X0131810Y0163604D01*
X0131043Y0162837D01*
X0129508Y0162837D02*
X0128741Y0163604D01*
X0127206Y0163604D01*
X0126439Y0162837D01*
X0126439Y0162069D01*
X0127206Y0161302D01*
X0126439Y0160535D01*
X0126439Y0159767D01*
X0127206Y0161302D02*
X0127973Y0161302D01*
X0124904Y0163604D02*
X0121835Y0163604D01*
X0137067Y0200000D02*
X0136300Y0200767D01*
X0136300Y0202302D01*
X0137067Y0203069D01*
X0136300Y0204604D02*
X0136300Y0207673D01*
X0136300Y0206139D02*
X0140904Y0206139D01*
X0139369Y0204604D01*
X0140137Y0203069D02*
X0140904Y0202302D01*
X0140904Y0200767D01*
X0140137Y0200000D01*
X0137067Y0200000D01*
X0137067Y0209208D02*
X0136300Y0209975D01*
X0136300Y0211510D01*
X0137067Y0212277D01*
X0137835Y0212277D01*
X0138602Y0211510D01*
X0138602Y0210742D01*
X0138602Y0211510D02*
X0139369Y0212277D01*
X0140137Y0212277D01*
X0140904Y0211510D01*
X0140904Y0209975D01*
X0140137Y0209208D01*
X0140192Y0213000D02*
X0137123Y0216069D01*
X0137123Y0216837D01*
X0137890Y0217604D01*
X0139425Y0217604D01*
X0140192Y0216837D01*
X0143261Y0217604D02*
X0143261Y0213000D01*
X0141727Y0213000D02*
X0144796Y0213000D01*
X0146331Y0213000D02*
X0147865Y0214535D01*
X0147098Y0214535D02*
X0149400Y0214535D01*
X0149400Y0213000D02*
X0149400Y0217604D01*
X0147098Y0217604D01*
X0146331Y0216837D01*
X0146331Y0215302D01*
X0147098Y0214535D01*
X0144796Y0216069D02*
X0143261Y0217604D01*
X0140192Y0213000D02*
X0137123Y0213000D01*
X0148567Y0257000D02*
X0147800Y0257767D01*
X0147800Y0259302D01*
X0148567Y0260069D01*
X0148567Y0261604D02*
X0147800Y0262371D01*
X0147800Y0263906D01*
X0148567Y0264673D01*
X0149335Y0264673D01*
X0150102Y0263906D01*
X0150102Y0263139D01*
X0150102Y0263906D02*
X0150869Y0264673D01*
X0151637Y0264673D01*
X0152404Y0263906D01*
X0152404Y0262371D01*
X0151637Y0261604D01*
X0151637Y0260069D02*
X0152404Y0259302D01*
X0152404Y0257767D01*
X0151637Y0257000D01*
X0148567Y0257000D01*
X0148567Y0266208D02*
X0147800Y0266975D01*
X0147800Y0268510D01*
X0148567Y0269277D01*
X0149335Y0269277D01*
X0150102Y0268510D01*
X0150102Y0266208D01*
X0148567Y0266208D01*
X0150102Y0266208D02*
X0151637Y0267742D01*
X0152404Y0269277D01*
X0088713Y0333581D02*
X0087179Y0333581D01*
X0087946Y0333581D02*
X0087946Y0338185D01*
X0088713Y0338185D02*
X0087179Y0338185D01*
X0085644Y0337418D02*
X0085644Y0334348D01*
X0084877Y0333581D01*
X0083342Y0333581D01*
X0082575Y0334348D01*
X0081040Y0333581D02*
X0077971Y0336650D01*
X0077971Y0337418D01*
X0078738Y0338185D01*
X0080273Y0338185D01*
X0081040Y0337418D01*
X0082575Y0337418D02*
X0083342Y0338185D01*
X0084877Y0338185D01*
X0085644Y0337418D01*
X0081040Y0333581D02*
X0077971Y0333581D01*
X0116223Y0377700D02*
X0119292Y0377700D01*
X0117758Y0377700D02*
X0117758Y0382304D01*
X0119292Y0380769D01*
X0120827Y0380769D02*
X0121594Y0380002D01*
X0120827Y0379235D01*
X0120827Y0378467D01*
X0121594Y0377700D01*
X0123129Y0377700D01*
X0123896Y0378467D01*
X0125431Y0377700D02*
X0126965Y0379235D01*
X0126198Y0379235D02*
X0128500Y0379235D01*
X0128500Y0377700D02*
X0128500Y0382304D01*
X0126198Y0382304D01*
X0125431Y0381537D01*
X0125431Y0380002D01*
X0126198Y0379235D01*
X0123896Y0381537D02*
X0123129Y0382304D01*
X0121594Y0382304D01*
X0120827Y0381537D01*
X0120827Y0380769D01*
X0121594Y0380002D02*
X0122361Y0380002D01*
D14*
X0071948Y0356747D02*
X0071948Y0356747D01*
X0071946Y0356786D01*
X0071940Y0356824D01*
X0071931Y0356861D01*
X0071918Y0356898D01*
X0071901Y0356933D01*
X0071882Y0356966D01*
X0071859Y0356997D01*
X0071833Y0357026D01*
X0071804Y0357052D01*
X0071773Y0357075D01*
X0071740Y0357094D01*
X0071705Y0357111D01*
X0071668Y0357124D01*
X0071631Y0357133D01*
X0071593Y0357139D01*
X0071554Y0357141D01*
X0071515Y0357139D01*
X0071477Y0357133D01*
X0071440Y0357124D01*
X0071403Y0357111D01*
X0071368Y0357094D01*
X0071335Y0357075D01*
X0071304Y0357052D01*
X0071275Y0357026D01*
X0071249Y0356997D01*
X0071226Y0356966D01*
X0071207Y0356933D01*
X0071190Y0356898D01*
X0071177Y0356861D01*
X0071168Y0356824D01*
X0071162Y0356786D01*
X0071160Y0356747D01*
X0071161Y0356747D02*
X0071161Y0356747D01*
X0071160Y0356747D02*
X0071162Y0356708D01*
X0071168Y0356670D01*
X0071177Y0356633D01*
X0071190Y0356596D01*
X0071207Y0356561D01*
X0071226Y0356528D01*
X0071249Y0356497D01*
X0071275Y0356468D01*
X0071304Y0356442D01*
X0071335Y0356419D01*
X0071368Y0356400D01*
X0071403Y0356383D01*
X0071440Y0356370D01*
X0071477Y0356361D01*
X0071515Y0356355D01*
X0071554Y0356353D01*
X0071593Y0356355D01*
X0071631Y0356361D01*
X0071668Y0356370D01*
X0071705Y0356383D01*
X0071740Y0356400D01*
X0071773Y0356419D01*
X0071804Y0356442D01*
X0071833Y0356468D01*
X0071859Y0356497D01*
X0071882Y0356528D01*
X0071901Y0356561D01*
X0071918Y0356596D01*
X0071931Y0356633D01*
X0071940Y0356670D01*
X0071946Y0356708D01*
X0071948Y0356747D01*
X0153600Y0176843D02*
X0153600Y0169757D01*
X0226407Y0267359D02*
X0236250Y0267359D01*
X0237824Y0268934D01*
X0237824Y0293343D01*
X0236250Y0294918D01*
X0226407Y0294918D01*
X0226407Y0267359D01*
D15*
X0111787Y0278695D02*
X0111787Y0279235D01*
X0111788Y0279235D02*
X0111841Y0279239D01*
X0111893Y0279247D01*
X0111945Y0279259D01*
X0111996Y0279275D01*
X0112045Y0279294D01*
X0112093Y0279317D01*
X0112139Y0279344D01*
X0112183Y0279374D01*
X0112224Y0279407D01*
X0112263Y0279443D01*
X0112299Y0279482D01*
X0112332Y0279523D01*
X0112362Y0279567D01*
X0112389Y0279613D01*
X0112412Y0279661D01*
X0112431Y0279710D01*
X0112447Y0279761D01*
X0112459Y0279813D01*
X0112467Y0279865D01*
X0112471Y0279918D01*
X0113011Y0279919D01*
X0113012Y0279918D01*
X0113008Y0279850D01*
X0113001Y0279782D01*
X0112990Y0279715D01*
X0112976Y0279648D01*
X0112958Y0279582D01*
X0112936Y0279518D01*
X0112911Y0279454D01*
X0112882Y0279392D01*
X0112850Y0279332D01*
X0112815Y0279274D01*
X0112777Y0279217D01*
X0112736Y0279163D01*
X0112692Y0279111D01*
X0112645Y0279061D01*
X0112595Y0279014D01*
X0112543Y0278970D01*
X0112489Y0278929D01*
X0112432Y0278891D01*
X0112374Y0278856D01*
X0112314Y0278824D01*
X0112252Y0278795D01*
X0112188Y0278770D01*
X0112124Y0278748D01*
X0112058Y0278730D01*
X0111991Y0278716D01*
X0111924Y0278705D01*
X0111856Y0278698D01*
X0111788Y0278694D01*
X0111788Y0278750D01*
X0111855Y0278754D01*
X0111922Y0278761D01*
X0111989Y0278772D01*
X0112055Y0278787D01*
X0112120Y0278806D01*
X0112183Y0278828D01*
X0112246Y0278854D01*
X0112307Y0278883D01*
X0112366Y0278916D01*
X0112423Y0278951D01*
X0112478Y0278990D01*
X0112531Y0279032D01*
X0112581Y0279077D01*
X0112629Y0279125D01*
X0112674Y0279175D01*
X0112716Y0279228D01*
X0112755Y0279283D01*
X0112790Y0279340D01*
X0112823Y0279399D01*
X0112852Y0279460D01*
X0112878Y0279523D01*
X0112900Y0279586D01*
X0112919Y0279651D01*
X0112934Y0279717D01*
X0112945Y0279784D01*
X0112952Y0279851D01*
X0112956Y0279918D01*
X0112900Y0279918D01*
X0112896Y0279851D01*
X0112888Y0279785D01*
X0112877Y0279719D01*
X0112862Y0279655D01*
X0112843Y0279591D01*
X0112820Y0279528D01*
X0112794Y0279467D01*
X0112764Y0279407D01*
X0112730Y0279349D01*
X0112694Y0279294D01*
X0112654Y0279240D01*
X0112611Y0279189D01*
X0112566Y0279140D01*
X0112517Y0279095D01*
X0112466Y0279052D01*
X0112412Y0279012D01*
X0112357Y0278976D01*
X0112299Y0278942D01*
X0112239Y0278912D01*
X0112178Y0278886D01*
X0112115Y0278863D01*
X0112051Y0278844D01*
X0111987Y0278829D01*
X0111921Y0278818D01*
X0111855Y0278810D01*
X0111788Y0278806D01*
X0111788Y0278862D01*
X0111851Y0278866D01*
X0111914Y0278873D01*
X0111976Y0278884D01*
X0112038Y0278899D01*
X0112099Y0278917D01*
X0112158Y0278938D01*
X0112216Y0278963D01*
X0112273Y0278992D01*
X0112328Y0279023D01*
X0112381Y0279058D01*
X0112431Y0279096D01*
X0112480Y0279137D01*
X0112526Y0279180D01*
X0112569Y0279226D01*
X0112610Y0279275D01*
X0112648Y0279325D01*
X0112683Y0279378D01*
X0112714Y0279433D01*
X0112743Y0279490D01*
X0112768Y0279548D01*
X0112789Y0279607D01*
X0112807Y0279668D01*
X0112822Y0279730D01*
X0112833Y0279792D01*
X0112840Y0279855D01*
X0112844Y0279918D01*
X0112788Y0279918D01*
X0112784Y0279856D01*
X0112776Y0279794D01*
X0112765Y0279733D01*
X0112750Y0279672D01*
X0112732Y0279613D01*
X0112710Y0279554D01*
X0112684Y0279498D01*
X0112655Y0279442D01*
X0112623Y0279389D01*
X0112588Y0279338D01*
X0112549Y0279289D01*
X0112508Y0279242D01*
X0112464Y0279198D01*
X0112417Y0279157D01*
X0112368Y0279118D01*
X0112317Y0279083D01*
X0112264Y0279051D01*
X0112208Y0279022D01*
X0112152Y0278996D01*
X0112093Y0278974D01*
X0112034Y0278956D01*
X0111973Y0278941D01*
X0111912Y0278930D01*
X0111850Y0278922D01*
X0111788Y0278918D01*
X0111788Y0278974D01*
X0111849Y0278978D01*
X0111910Y0278986D01*
X0111970Y0278997D01*
X0112029Y0279013D01*
X0112088Y0279031D01*
X0112145Y0279054D01*
X0112200Y0279080D01*
X0112254Y0279110D01*
X0112305Y0279142D01*
X0112355Y0279178D01*
X0112402Y0279217D01*
X0112447Y0279259D01*
X0112489Y0279304D01*
X0112528Y0279351D01*
X0112564Y0279401D01*
X0112596Y0279452D01*
X0112626Y0279506D01*
X0112652Y0279561D01*
X0112675Y0279618D01*
X0112693Y0279677D01*
X0112709Y0279736D01*
X0112720Y0279796D01*
X0112728Y0279857D01*
X0112732Y0279918D01*
X0112676Y0279918D01*
X0112672Y0279861D01*
X0112665Y0279803D01*
X0112654Y0279747D01*
X0112639Y0279691D01*
X0112621Y0279636D01*
X0112600Y0279583D01*
X0112576Y0279531D01*
X0112548Y0279480D01*
X0112517Y0279432D01*
X0112483Y0279385D01*
X0112447Y0279341D01*
X0112407Y0279299D01*
X0112365Y0279259D01*
X0112321Y0279223D01*
X0112274Y0279189D01*
X0112226Y0279158D01*
X0112175Y0279130D01*
X0112123Y0279106D01*
X0112070Y0279085D01*
X0112015Y0279067D01*
X0111959Y0279052D01*
X0111903Y0279041D01*
X0111845Y0279034D01*
X0111788Y0279030D01*
X0111788Y0279087D01*
X0111844Y0279090D01*
X0111900Y0279098D01*
X0111955Y0279109D01*
X0112009Y0279123D01*
X0112063Y0279142D01*
X0112115Y0279163D01*
X0112165Y0279188D01*
X0112214Y0279216D01*
X0112260Y0279248D01*
X0112305Y0279282D01*
X0112347Y0279319D01*
X0112387Y0279359D01*
X0112424Y0279401D01*
X0112458Y0279446D01*
X0112490Y0279492D01*
X0112518Y0279541D01*
X0112543Y0279591D01*
X0112564Y0279643D01*
X0112583Y0279697D01*
X0112597Y0279751D01*
X0112608Y0279806D01*
X0112616Y0279862D01*
X0112619Y0279918D01*
X0112563Y0279918D01*
X0112560Y0279863D01*
X0112552Y0279809D01*
X0112541Y0279755D01*
X0112526Y0279703D01*
X0112507Y0279651D01*
X0112485Y0279601D01*
X0112460Y0279552D01*
X0112432Y0279505D01*
X0112400Y0279461D01*
X0112365Y0279418D01*
X0112328Y0279378D01*
X0112288Y0279341D01*
X0112245Y0279306D01*
X0112201Y0279274D01*
X0112154Y0279246D01*
X0112105Y0279221D01*
X0112055Y0279199D01*
X0112003Y0279180D01*
X0111951Y0279165D01*
X0111897Y0279154D01*
X0111843Y0279146D01*
X0111788Y0279143D01*
X0111788Y0279199D01*
X0111841Y0279203D01*
X0111894Y0279210D01*
X0111946Y0279222D01*
X0111997Y0279237D01*
X0112047Y0279256D01*
X0112095Y0279278D01*
X0112142Y0279304D01*
X0112186Y0279332D01*
X0112229Y0279364D01*
X0112269Y0279399D01*
X0112307Y0279437D01*
X0112342Y0279477D01*
X0112374Y0279520D01*
X0112402Y0279564D01*
X0112428Y0279611D01*
X0112450Y0279659D01*
X0112469Y0279709D01*
X0112484Y0279760D01*
X0112496Y0279812D01*
X0112503Y0279865D01*
X0112507Y0279918D01*
X0113011Y0298481D02*
X0112471Y0298481D01*
X0112471Y0298482D02*
X0112467Y0298535D01*
X0112459Y0298587D01*
X0112447Y0298639D01*
X0112431Y0298690D01*
X0112412Y0298739D01*
X0112389Y0298787D01*
X0112362Y0298833D01*
X0112332Y0298877D01*
X0112299Y0298918D01*
X0112263Y0298957D01*
X0112224Y0298993D01*
X0112183Y0299026D01*
X0112139Y0299056D01*
X0112093Y0299083D01*
X0112045Y0299106D01*
X0111996Y0299125D01*
X0111945Y0299141D01*
X0111893Y0299153D01*
X0111841Y0299161D01*
X0111788Y0299165D01*
X0111787Y0299705D01*
X0111788Y0299706D01*
X0111856Y0299702D01*
X0111924Y0299695D01*
X0111991Y0299684D01*
X0112058Y0299670D01*
X0112124Y0299652D01*
X0112188Y0299630D01*
X0112252Y0299605D01*
X0112314Y0299576D01*
X0112374Y0299544D01*
X0112432Y0299509D01*
X0112489Y0299471D01*
X0112543Y0299430D01*
X0112595Y0299386D01*
X0112645Y0299339D01*
X0112692Y0299289D01*
X0112736Y0299237D01*
X0112777Y0299183D01*
X0112815Y0299126D01*
X0112850Y0299068D01*
X0112882Y0299008D01*
X0112911Y0298946D01*
X0112936Y0298882D01*
X0112958Y0298818D01*
X0112976Y0298752D01*
X0112990Y0298685D01*
X0113001Y0298618D01*
X0113008Y0298550D01*
X0113012Y0298482D01*
X0112956Y0298482D01*
X0112952Y0298549D01*
X0112945Y0298616D01*
X0112934Y0298683D01*
X0112919Y0298749D01*
X0112900Y0298814D01*
X0112878Y0298877D01*
X0112852Y0298940D01*
X0112823Y0299001D01*
X0112790Y0299060D01*
X0112755Y0299117D01*
X0112716Y0299172D01*
X0112674Y0299225D01*
X0112629Y0299275D01*
X0112581Y0299323D01*
X0112531Y0299368D01*
X0112478Y0299410D01*
X0112423Y0299449D01*
X0112366Y0299484D01*
X0112307Y0299517D01*
X0112246Y0299546D01*
X0112183Y0299572D01*
X0112120Y0299594D01*
X0112055Y0299613D01*
X0111989Y0299628D01*
X0111922Y0299639D01*
X0111855Y0299646D01*
X0111788Y0299650D01*
X0111788Y0299594D01*
X0111855Y0299590D01*
X0111921Y0299582D01*
X0111987Y0299571D01*
X0112051Y0299556D01*
X0112115Y0299537D01*
X0112178Y0299514D01*
X0112239Y0299488D01*
X0112299Y0299458D01*
X0112357Y0299424D01*
X0112412Y0299388D01*
X0112466Y0299348D01*
X0112517Y0299305D01*
X0112566Y0299260D01*
X0112611Y0299211D01*
X0112654Y0299160D01*
X0112694Y0299106D01*
X0112730Y0299051D01*
X0112764Y0298993D01*
X0112794Y0298933D01*
X0112820Y0298872D01*
X0112843Y0298809D01*
X0112862Y0298745D01*
X0112877Y0298681D01*
X0112888Y0298615D01*
X0112896Y0298549D01*
X0112900Y0298482D01*
X0112844Y0298482D01*
X0112840Y0298545D01*
X0112833Y0298608D01*
X0112822Y0298670D01*
X0112807Y0298732D01*
X0112789Y0298793D01*
X0112768Y0298852D01*
X0112743Y0298910D01*
X0112714Y0298967D01*
X0112683Y0299022D01*
X0112648Y0299075D01*
X0112610Y0299125D01*
X0112569Y0299174D01*
X0112526Y0299220D01*
X0112480Y0299263D01*
X0112431Y0299304D01*
X0112381Y0299342D01*
X0112328Y0299377D01*
X0112273Y0299408D01*
X0112216Y0299437D01*
X0112158Y0299462D01*
X0112099Y0299483D01*
X0112038Y0299501D01*
X0111976Y0299516D01*
X0111914Y0299527D01*
X0111851Y0299534D01*
X0111788Y0299538D01*
X0111788Y0299482D01*
X0111850Y0299478D01*
X0111912Y0299470D01*
X0111973Y0299459D01*
X0112034Y0299444D01*
X0112093Y0299426D01*
X0112152Y0299404D01*
X0112208Y0299378D01*
X0112264Y0299349D01*
X0112317Y0299317D01*
X0112368Y0299282D01*
X0112417Y0299243D01*
X0112464Y0299202D01*
X0112508Y0299158D01*
X0112549Y0299111D01*
X0112588Y0299062D01*
X0112623Y0299011D01*
X0112655Y0298958D01*
X0112684Y0298902D01*
X0112710Y0298846D01*
X0112732Y0298787D01*
X0112750Y0298728D01*
X0112765Y0298667D01*
X0112776Y0298606D01*
X0112784Y0298544D01*
X0112788Y0298482D01*
X0112732Y0298482D01*
X0112728Y0298543D01*
X0112720Y0298604D01*
X0112709Y0298664D01*
X0112693Y0298723D01*
X0112675Y0298782D01*
X0112652Y0298839D01*
X0112626Y0298894D01*
X0112596Y0298948D01*
X0112564Y0298999D01*
X0112528Y0299049D01*
X0112489Y0299096D01*
X0112447Y0299141D01*
X0112402Y0299183D01*
X0112355Y0299222D01*
X0112305Y0299258D01*
X0112254Y0299290D01*
X0112200Y0299320D01*
X0112145Y0299346D01*
X0112088Y0299369D01*
X0112029Y0299387D01*
X0111970Y0299403D01*
X0111910Y0299414D01*
X0111849Y0299422D01*
X0111788Y0299426D01*
X0111788Y0299370D01*
X0111845Y0299366D01*
X0111903Y0299359D01*
X0111959Y0299348D01*
X0112015Y0299333D01*
X0112070Y0299315D01*
X0112123Y0299294D01*
X0112175Y0299270D01*
X0112226Y0299242D01*
X0112274Y0299211D01*
X0112321Y0299177D01*
X0112365Y0299141D01*
X0112407Y0299101D01*
X0112447Y0299059D01*
X0112483Y0299015D01*
X0112517Y0298968D01*
X0112548Y0298920D01*
X0112576Y0298869D01*
X0112600Y0298817D01*
X0112621Y0298764D01*
X0112639Y0298709D01*
X0112654Y0298653D01*
X0112665Y0298597D01*
X0112672Y0298539D01*
X0112676Y0298482D01*
X0112619Y0298482D01*
X0112616Y0298538D01*
X0112608Y0298594D01*
X0112597Y0298649D01*
X0112583Y0298703D01*
X0112564Y0298757D01*
X0112543Y0298809D01*
X0112518Y0298859D01*
X0112490Y0298908D01*
X0112458Y0298954D01*
X0112424Y0298999D01*
X0112387Y0299041D01*
X0112347Y0299081D01*
X0112305Y0299118D01*
X0112260Y0299152D01*
X0112214Y0299184D01*
X0112165Y0299212D01*
X0112115Y0299237D01*
X0112063Y0299258D01*
X0112009Y0299277D01*
X0111955Y0299291D01*
X0111900Y0299302D01*
X0111844Y0299310D01*
X0111788Y0299313D01*
X0111788Y0299257D01*
X0111843Y0299254D01*
X0111897Y0299246D01*
X0111951Y0299235D01*
X0112003Y0299220D01*
X0112055Y0299201D01*
X0112105Y0299179D01*
X0112154Y0299154D01*
X0112201Y0299126D01*
X0112245Y0299094D01*
X0112288Y0299059D01*
X0112328Y0299022D01*
X0112365Y0298982D01*
X0112400Y0298939D01*
X0112432Y0298895D01*
X0112460Y0298848D01*
X0112485Y0298799D01*
X0112507Y0298749D01*
X0112526Y0298697D01*
X0112541Y0298645D01*
X0112552Y0298591D01*
X0112560Y0298537D01*
X0112563Y0298482D01*
X0112507Y0298482D01*
X0112503Y0298535D01*
X0112496Y0298588D01*
X0112484Y0298640D01*
X0112469Y0298691D01*
X0112450Y0298741D01*
X0112428Y0298789D01*
X0112402Y0298836D01*
X0112374Y0298880D01*
X0112342Y0298923D01*
X0112307Y0298963D01*
X0112269Y0299001D01*
X0112229Y0299036D01*
X0112186Y0299068D01*
X0112142Y0299096D01*
X0112095Y0299122D01*
X0112047Y0299144D01*
X0111997Y0299163D01*
X0111946Y0299178D01*
X0111894Y0299190D01*
X0111841Y0299197D01*
X0111788Y0299201D01*
X0094013Y0299705D02*
X0094013Y0299165D01*
X0094012Y0299165D02*
X0093959Y0299161D01*
X0093907Y0299153D01*
X0093855Y0299141D01*
X0093804Y0299125D01*
X0093755Y0299106D01*
X0093707Y0299083D01*
X0093661Y0299056D01*
X0093617Y0299026D01*
X0093576Y0298993D01*
X0093537Y0298957D01*
X0093501Y0298918D01*
X0093468Y0298877D01*
X0093438Y0298833D01*
X0093411Y0298787D01*
X0093388Y0298739D01*
X0093369Y0298690D01*
X0093353Y0298639D01*
X0093341Y0298587D01*
X0093333Y0298535D01*
X0093329Y0298482D01*
X0092789Y0298481D01*
X0092788Y0298482D01*
X0092792Y0298550D01*
X0092799Y0298618D01*
X0092810Y0298685D01*
X0092824Y0298752D01*
X0092842Y0298818D01*
X0092864Y0298882D01*
X0092889Y0298946D01*
X0092918Y0299008D01*
X0092950Y0299068D01*
X0092985Y0299126D01*
X0093023Y0299183D01*
X0093064Y0299237D01*
X0093108Y0299289D01*
X0093155Y0299339D01*
X0093205Y0299386D01*
X0093257Y0299430D01*
X0093311Y0299471D01*
X0093368Y0299509D01*
X0093426Y0299544D01*
X0093486Y0299576D01*
X0093548Y0299605D01*
X0093612Y0299630D01*
X0093676Y0299652D01*
X0093742Y0299670D01*
X0093809Y0299684D01*
X0093876Y0299695D01*
X0093944Y0299702D01*
X0094012Y0299706D01*
X0094012Y0299650D01*
X0093945Y0299646D01*
X0093878Y0299639D01*
X0093811Y0299628D01*
X0093745Y0299613D01*
X0093680Y0299594D01*
X0093617Y0299572D01*
X0093554Y0299546D01*
X0093493Y0299517D01*
X0093434Y0299484D01*
X0093377Y0299449D01*
X0093322Y0299410D01*
X0093269Y0299368D01*
X0093219Y0299323D01*
X0093171Y0299275D01*
X0093126Y0299225D01*
X0093084Y0299172D01*
X0093045Y0299117D01*
X0093010Y0299060D01*
X0092977Y0299001D01*
X0092948Y0298940D01*
X0092922Y0298877D01*
X0092900Y0298814D01*
X0092881Y0298749D01*
X0092866Y0298683D01*
X0092855Y0298616D01*
X0092848Y0298549D01*
X0092844Y0298482D01*
X0092900Y0298482D01*
X0092904Y0298549D01*
X0092912Y0298615D01*
X0092923Y0298681D01*
X0092938Y0298745D01*
X0092957Y0298809D01*
X0092980Y0298872D01*
X0093006Y0298933D01*
X0093036Y0298993D01*
X0093070Y0299051D01*
X0093106Y0299106D01*
X0093146Y0299160D01*
X0093189Y0299211D01*
X0093234Y0299260D01*
X0093283Y0299305D01*
X0093334Y0299348D01*
X0093388Y0299388D01*
X0093443Y0299424D01*
X0093501Y0299458D01*
X0093561Y0299488D01*
X0093622Y0299514D01*
X0093685Y0299537D01*
X0093749Y0299556D01*
X0093813Y0299571D01*
X0093879Y0299582D01*
X0093945Y0299590D01*
X0094012Y0299594D01*
X0094012Y0299538D01*
X0093949Y0299534D01*
X0093886Y0299527D01*
X0093824Y0299516D01*
X0093762Y0299501D01*
X0093701Y0299483D01*
X0093642Y0299462D01*
X0093584Y0299437D01*
X0093527Y0299408D01*
X0093472Y0299377D01*
X0093419Y0299342D01*
X0093369Y0299304D01*
X0093320Y0299263D01*
X0093274Y0299220D01*
X0093231Y0299174D01*
X0093190Y0299125D01*
X0093152Y0299075D01*
X0093117Y0299022D01*
X0093086Y0298967D01*
X0093057Y0298910D01*
X0093032Y0298852D01*
X0093011Y0298793D01*
X0092993Y0298732D01*
X0092978Y0298670D01*
X0092967Y0298608D01*
X0092960Y0298545D01*
X0092956Y0298482D01*
X0093012Y0298482D01*
X0093016Y0298544D01*
X0093024Y0298606D01*
X0093035Y0298667D01*
X0093050Y0298728D01*
X0093068Y0298787D01*
X0093090Y0298846D01*
X0093116Y0298902D01*
X0093145Y0298958D01*
X0093177Y0299011D01*
X0093212Y0299062D01*
X0093251Y0299111D01*
X0093292Y0299158D01*
X0093336Y0299202D01*
X0093383Y0299243D01*
X0093432Y0299282D01*
X0093483Y0299317D01*
X0093536Y0299349D01*
X0093592Y0299378D01*
X0093648Y0299404D01*
X0093707Y0299426D01*
X0093766Y0299444D01*
X0093827Y0299459D01*
X0093888Y0299470D01*
X0093950Y0299478D01*
X0094012Y0299482D01*
X0094012Y0299426D01*
X0093951Y0299422D01*
X0093890Y0299414D01*
X0093830Y0299403D01*
X0093771Y0299387D01*
X0093712Y0299369D01*
X0093655Y0299346D01*
X0093600Y0299320D01*
X0093546Y0299290D01*
X0093495Y0299258D01*
X0093445Y0299222D01*
X0093398Y0299183D01*
X0093353Y0299141D01*
X0093311Y0299096D01*
X0093272Y0299049D01*
X0093236Y0298999D01*
X0093204Y0298948D01*
X0093174Y0298894D01*
X0093148Y0298839D01*
X0093125Y0298782D01*
X0093107Y0298723D01*
X0093091Y0298664D01*
X0093080Y0298604D01*
X0093072Y0298543D01*
X0093068Y0298482D01*
X0093124Y0298482D01*
X0093128Y0298539D01*
X0093135Y0298597D01*
X0093146Y0298653D01*
X0093161Y0298709D01*
X0093179Y0298764D01*
X0093200Y0298817D01*
X0093224Y0298869D01*
X0093252Y0298920D01*
X0093283Y0298968D01*
X0093317Y0299015D01*
X0093353Y0299059D01*
X0093393Y0299101D01*
X0093435Y0299141D01*
X0093479Y0299177D01*
X0093526Y0299211D01*
X0093574Y0299242D01*
X0093625Y0299270D01*
X0093677Y0299294D01*
X0093730Y0299315D01*
X0093785Y0299333D01*
X0093841Y0299348D01*
X0093897Y0299359D01*
X0093955Y0299366D01*
X0094012Y0299370D01*
X0094012Y0299313D01*
X0093956Y0299310D01*
X0093900Y0299302D01*
X0093845Y0299291D01*
X0093791Y0299277D01*
X0093737Y0299258D01*
X0093685Y0299237D01*
X0093635Y0299212D01*
X0093586Y0299184D01*
X0093540Y0299152D01*
X0093495Y0299118D01*
X0093453Y0299081D01*
X0093413Y0299041D01*
X0093376Y0298999D01*
X0093342Y0298954D01*
X0093310Y0298908D01*
X0093282Y0298859D01*
X0093257Y0298809D01*
X0093236Y0298757D01*
X0093217Y0298703D01*
X0093203Y0298649D01*
X0093192Y0298594D01*
X0093184Y0298538D01*
X0093181Y0298482D01*
X0093237Y0298482D01*
X0093240Y0298537D01*
X0093248Y0298591D01*
X0093259Y0298645D01*
X0093274Y0298697D01*
X0093293Y0298749D01*
X0093315Y0298799D01*
X0093340Y0298848D01*
X0093368Y0298895D01*
X0093400Y0298939D01*
X0093435Y0298982D01*
X0093472Y0299022D01*
X0093512Y0299059D01*
X0093555Y0299094D01*
X0093599Y0299126D01*
X0093646Y0299154D01*
X0093695Y0299179D01*
X0093745Y0299201D01*
X0093797Y0299220D01*
X0093849Y0299235D01*
X0093903Y0299246D01*
X0093957Y0299254D01*
X0094012Y0299257D01*
X0094012Y0299201D01*
X0093959Y0299197D01*
X0093906Y0299190D01*
X0093854Y0299178D01*
X0093803Y0299163D01*
X0093753Y0299144D01*
X0093705Y0299122D01*
X0093658Y0299096D01*
X0093614Y0299068D01*
X0093571Y0299036D01*
X0093531Y0299001D01*
X0093493Y0298963D01*
X0093458Y0298923D01*
X0093426Y0298880D01*
X0093398Y0298836D01*
X0093372Y0298789D01*
X0093350Y0298741D01*
X0093331Y0298691D01*
X0093316Y0298640D01*
X0093304Y0298588D01*
X0093297Y0298535D01*
X0093293Y0298482D01*
D16*
X0122454Y0355731D02*
X0122454Y0359669D01*
X0129146Y0359669D02*
X0129146Y0355731D01*
X0217600Y0191491D02*
X0217600Y0188109D01*
X0221543Y0192591D02*
X0223657Y0192591D01*
X0227600Y0191491D02*
X0227600Y0188109D01*
D17*
X0229100Y0180300D02*
X0229100Y0174300D01*
X0216100Y0174300D01*
X0216100Y0180300D01*
X0229100Y0180300D01*
X0213600Y0184300D02*
X0207600Y0184300D01*
X0207600Y0197300D01*
X0213600Y0197300D01*
X0213600Y0184300D01*
X0204417Y0151409D02*
X0203811Y0151409D01*
X0201384Y0148982D01*
X0201384Y0151409D01*
X0204417Y0151409D02*
X0205024Y0150802D01*
X0205024Y0149589D01*
X0204417Y0148982D01*
X0205024Y0147784D02*
X0205024Y0145357D01*
X0205024Y0146571D02*
X0201384Y0146571D01*
X0142500Y0350800D02*
X0131500Y0350800D01*
X0131500Y0354800D01*
X0142500Y0354800D01*
X0142500Y0350800D01*
X0142200Y0359900D02*
X0142200Y0363900D01*
X0131200Y0363900D01*
X0131200Y0359900D01*
X0142200Y0359900D01*
D18*
X0140716Y0356751D02*
X0140950Y0356518D01*
X0140950Y0355584D01*
X0140716Y0355350D01*
X0140249Y0355350D01*
X0140016Y0355584D01*
X0139569Y0355584D02*
X0139335Y0355350D01*
X0138868Y0355350D01*
X0138635Y0355584D01*
X0138635Y0355817D01*
X0138868Y0356051D01*
X0139102Y0356051D01*
X0138868Y0356051D02*
X0138635Y0356284D01*
X0138635Y0356518D01*
X0138868Y0356751D01*
X0139335Y0356751D01*
X0139569Y0356518D01*
X0140016Y0356518D02*
X0140249Y0356751D01*
X0140716Y0356751D01*
X0138188Y0356518D02*
X0137954Y0356751D01*
X0137487Y0356751D01*
X0137254Y0356518D01*
X0137254Y0356284D01*
X0138188Y0355350D01*
X0137254Y0355350D01*
X0137187Y0364450D02*
X0136954Y0364684D01*
X0136954Y0364917D01*
X0137187Y0365151D01*
X0137421Y0365151D01*
X0137187Y0365151D02*
X0136954Y0365384D01*
X0136954Y0365618D01*
X0137187Y0365851D01*
X0137654Y0365851D01*
X0137888Y0365618D01*
X0138335Y0365618D02*
X0138335Y0365384D01*
X0138568Y0365151D01*
X0138335Y0364917D01*
X0138335Y0364684D01*
X0138568Y0364450D01*
X0139035Y0364450D01*
X0139269Y0364684D01*
X0139716Y0364684D02*
X0139949Y0364450D01*
X0140416Y0364450D01*
X0140650Y0364684D01*
X0140650Y0365618D01*
X0140416Y0365851D01*
X0139949Y0365851D01*
X0139716Y0365618D01*
X0139269Y0365618D02*
X0139035Y0365851D01*
X0138568Y0365851D01*
X0138335Y0365618D01*
X0138568Y0365151D02*
X0138802Y0365151D01*
X0137888Y0364684D02*
X0137654Y0364450D01*
X0137187Y0364450D01*
X0199586Y0205015D02*
X0199406Y0204835D01*
X0199406Y0204474D01*
X0199586Y0204294D01*
X0200308Y0205015D01*
X0199586Y0205015D01*
X0199586Y0204294D02*
X0200308Y0204294D01*
X0200488Y0204474D01*
X0200488Y0204835D01*
X0200308Y0205015D01*
X0200308Y0203928D02*
X0199586Y0203206D01*
X0199406Y0203387D01*
X0199406Y0203747D01*
X0199586Y0203928D01*
X0200308Y0203928D01*
X0200488Y0203747D01*
X0200488Y0203387D01*
X0200308Y0203206D01*
X0199586Y0203206D01*
X0199406Y0202840D02*
X0199406Y0202119D01*
X0199406Y0202480D02*
X0200488Y0202480D01*
X0200127Y0202119D01*
X0200127Y0201753D02*
X0199947Y0201572D01*
X0199767Y0201753D01*
X0199586Y0201753D01*
X0199406Y0201572D01*
X0199406Y0201212D01*
X0199586Y0201031D01*
X0199586Y0200665D02*
X0199406Y0200485D01*
X0199406Y0200124D01*
X0199586Y0199944D01*
X0200308Y0199944D01*
X0200488Y0200124D01*
X0200488Y0200485D01*
X0200308Y0200665D01*
X0200308Y0201031D02*
X0200488Y0201212D01*
X0200488Y0201572D01*
X0200308Y0201753D01*
X0200127Y0201753D01*
X0199947Y0201572D02*
X0199947Y0201392D01*
X0200488Y0199578D02*
X0200488Y0198856D01*
X0200488Y0199217D02*
X0199406Y0199217D01*
X0199586Y0198490D02*
X0199406Y0198310D01*
X0199406Y0197949D01*
X0199586Y0197769D01*
X0199947Y0197949D02*
X0199947Y0198310D01*
X0199767Y0198490D01*
X0199586Y0198490D01*
X0199947Y0197949D02*
X0200127Y0197769D01*
X0200308Y0197769D01*
X0200488Y0197949D01*
X0200488Y0198310D01*
X0200308Y0198490D01*
X0223576Y0198350D02*
X0224577Y0198350D01*
X0223576Y0199351D01*
X0223576Y0199601D01*
X0223826Y0199851D01*
X0224327Y0199851D01*
X0224577Y0199601D01*
X0225049Y0199851D02*
X0225049Y0198600D01*
X0225299Y0198350D01*
X0225800Y0198350D01*
X0226050Y0198600D01*
X0226050Y0199851D01*
X0223119Y0128922D02*
X0223119Y0127938D01*
X0223119Y0128430D02*
X0224595Y0128430D01*
X0224103Y0127938D01*
X0224349Y0127472D02*
X0224595Y0127226D01*
X0224595Y0126734D01*
X0224349Y0126488D01*
X0224103Y0126488D01*
X0223857Y0126734D01*
X0223857Y0127226D01*
X0223611Y0127472D01*
X0223365Y0127472D01*
X0223119Y0127226D01*
X0223119Y0126734D01*
X0223365Y0126488D01*
X0223365Y0126022D02*
X0224595Y0126022D01*
X0224595Y0125038D02*
X0223365Y0125038D01*
X0223119Y0125284D01*
X0223119Y0125776D01*
X0223365Y0126022D01*
X0222873Y0126980D02*
X0224841Y0126980D01*
X0237686Y0127226D02*
X0237686Y0126734D01*
X0237932Y0126488D01*
X0238916Y0127472D01*
X0237932Y0127472D01*
X0237686Y0127226D01*
X0237686Y0127938D02*
X0238670Y0128922D01*
X0238916Y0128922D01*
X0239162Y0128676D01*
X0239162Y0128184D01*
X0238916Y0127938D01*
X0238916Y0127472D02*
X0239162Y0127226D01*
X0239162Y0126734D01*
X0238916Y0126488D01*
X0237932Y0126488D01*
X0237932Y0126022D02*
X0238178Y0126022D01*
X0238424Y0125776D01*
X0238424Y0125038D01*
X0237932Y0125038D01*
X0237686Y0125284D01*
X0237686Y0125776D01*
X0237932Y0126022D01*
X0238916Y0125530D02*
X0238424Y0125038D01*
X0238178Y0124572D02*
X0238424Y0124326D01*
X0238424Y0123588D01*
X0237932Y0123588D01*
X0237686Y0123834D01*
X0237686Y0124326D01*
X0237932Y0124572D01*
X0238178Y0124572D01*
X0238916Y0124080D02*
X0238424Y0123588D01*
X0238424Y0123122D02*
X0238424Y0122630D01*
X0238424Y0123122D02*
X0237932Y0123122D01*
X0237686Y0122876D01*
X0237686Y0122383D01*
X0237932Y0122137D01*
X0238916Y0122137D01*
X0239162Y0122383D01*
X0239162Y0122876D01*
X0238916Y0123122D01*
X0238916Y0124080D02*
X0239162Y0124572D01*
X0238916Y0125530D02*
X0239162Y0126022D01*
X0237686Y0127938D02*
X0237686Y0128922D01*
X0237686Y0121671D02*
X0239162Y0121671D01*
X0238670Y0121179D01*
X0239162Y0120687D01*
X0237686Y0120687D01*
X0237932Y0120221D02*
X0238916Y0120221D01*
X0239162Y0119975D01*
X0239162Y0119237D01*
X0237686Y0119237D01*
X0237686Y0119975D01*
X0237932Y0120221D01*
D19*
X0150663Y0244363D03*
D20*
X0226416Y0127369D03*
D21*
X0151014Y0189902D02*
X0151016Y0189946D01*
X0151022Y0189990D01*
X0151032Y0190033D01*
X0151045Y0190075D01*
X0151063Y0190115D01*
X0151084Y0190154D01*
X0151108Y0190191D01*
X0151135Y0190226D01*
X0151166Y0190258D01*
X0151199Y0190287D01*
X0151235Y0190313D01*
X0151273Y0190335D01*
X0151313Y0190354D01*
X0151354Y0190370D01*
X0151397Y0190382D01*
X0151440Y0190390D01*
X0151484Y0190394D01*
X0151528Y0190394D01*
X0151572Y0190390D01*
X0151615Y0190382D01*
X0151658Y0190370D01*
X0151699Y0190354D01*
X0151739Y0190335D01*
X0151777Y0190313D01*
X0151813Y0190287D01*
X0151846Y0190258D01*
X0151877Y0190226D01*
X0151904Y0190191D01*
X0151928Y0190154D01*
X0151949Y0190115D01*
X0151967Y0190075D01*
X0151980Y0190033D01*
X0151990Y0189990D01*
X0151996Y0189946D01*
X0151998Y0189902D01*
X0151996Y0189858D01*
X0151990Y0189814D01*
X0151980Y0189771D01*
X0151967Y0189729D01*
X0151949Y0189689D01*
X0151928Y0189650D01*
X0151904Y0189613D01*
X0151877Y0189578D01*
X0151846Y0189546D01*
X0151813Y0189517D01*
X0151777Y0189491D01*
X0151739Y0189469D01*
X0151699Y0189450D01*
X0151658Y0189434D01*
X0151615Y0189422D01*
X0151572Y0189414D01*
X0151528Y0189410D01*
X0151484Y0189410D01*
X0151440Y0189414D01*
X0151397Y0189422D01*
X0151354Y0189434D01*
X0151313Y0189450D01*
X0151273Y0189469D01*
X0151235Y0189491D01*
X0151199Y0189517D01*
X0151166Y0189546D01*
X0151135Y0189578D01*
X0151108Y0189613D01*
X0151084Y0189650D01*
X0151063Y0189689D01*
X0151045Y0189729D01*
X0151032Y0189771D01*
X0151022Y0189814D01*
X0151016Y0189858D01*
X0151014Y0189902D01*
D22*
X0228900Y0185800D03*
D23*
X0057747Y0195100D02*
X0057749Y0195208D01*
X0057755Y0195317D01*
X0057765Y0195425D01*
X0057779Y0195532D01*
X0057797Y0195639D01*
X0057818Y0195746D01*
X0057844Y0195851D01*
X0057874Y0195956D01*
X0057907Y0196059D01*
X0057944Y0196161D01*
X0057985Y0196261D01*
X0058029Y0196360D01*
X0058078Y0196458D01*
X0058129Y0196553D01*
X0058184Y0196646D01*
X0058243Y0196738D01*
X0058305Y0196827D01*
X0058370Y0196914D01*
X0058438Y0196998D01*
X0058509Y0197080D01*
X0058583Y0197159D01*
X0058660Y0197235D01*
X0058740Y0197309D01*
X0058823Y0197379D01*
X0058908Y0197447D01*
X0058995Y0197511D01*
X0059085Y0197572D01*
X0059177Y0197630D01*
X0059271Y0197684D01*
X0059367Y0197735D01*
X0059464Y0197782D01*
X0059564Y0197826D01*
X0059665Y0197866D01*
X0059767Y0197902D01*
X0059870Y0197934D01*
X0059975Y0197963D01*
X0060081Y0197987D01*
X0060187Y0198008D01*
X0060294Y0198025D01*
X0060402Y0198038D01*
X0060510Y0198047D01*
X0060619Y0198052D01*
X0060727Y0198053D01*
X0060836Y0198050D01*
X0060944Y0198043D01*
X0061052Y0198032D01*
X0061159Y0198017D01*
X0061266Y0197998D01*
X0061372Y0197975D01*
X0061477Y0197949D01*
X0061582Y0197918D01*
X0061684Y0197884D01*
X0061786Y0197846D01*
X0061886Y0197804D01*
X0061985Y0197759D01*
X0062082Y0197710D01*
X0062176Y0197657D01*
X0062269Y0197601D01*
X0062360Y0197542D01*
X0062449Y0197479D01*
X0062535Y0197414D01*
X0062619Y0197345D01*
X0062700Y0197273D01*
X0062778Y0197198D01*
X0062854Y0197120D01*
X0062927Y0197039D01*
X0062997Y0196956D01*
X0063063Y0196871D01*
X0063127Y0196783D01*
X0063187Y0196692D01*
X0063244Y0196600D01*
X0063297Y0196505D01*
X0063347Y0196409D01*
X0063393Y0196311D01*
X0063436Y0196211D01*
X0063475Y0196110D01*
X0063510Y0196007D01*
X0063542Y0195904D01*
X0063569Y0195799D01*
X0063593Y0195693D01*
X0063613Y0195586D01*
X0063629Y0195479D01*
X0063641Y0195371D01*
X0063649Y0195263D01*
X0063653Y0195154D01*
X0063653Y0195046D01*
X0063649Y0194937D01*
X0063641Y0194829D01*
X0063629Y0194721D01*
X0063613Y0194614D01*
X0063593Y0194507D01*
X0063569Y0194401D01*
X0063542Y0194296D01*
X0063510Y0194193D01*
X0063475Y0194090D01*
X0063436Y0193989D01*
X0063393Y0193889D01*
X0063347Y0193791D01*
X0063297Y0193695D01*
X0063244Y0193600D01*
X0063187Y0193508D01*
X0063127Y0193417D01*
X0063063Y0193329D01*
X0062997Y0193244D01*
X0062927Y0193161D01*
X0062854Y0193080D01*
X0062778Y0193002D01*
X0062700Y0192927D01*
X0062619Y0192855D01*
X0062535Y0192786D01*
X0062449Y0192721D01*
X0062360Y0192658D01*
X0062269Y0192599D01*
X0062177Y0192543D01*
X0062082Y0192490D01*
X0061985Y0192441D01*
X0061886Y0192396D01*
X0061786Y0192354D01*
X0061684Y0192316D01*
X0061582Y0192282D01*
X0061477Y0192251D01*
X0061372Y0192225D01*
X0061266Y0192202D01*
X0061159Y0192183D01*
X0061052Y0192168D01*
X0060944Y0192157D01*
X0060836Y0192150D01*
X0060727Y0192147D01*
X0060619Y0192148D01*
X0060510Y0192153D01*
X0060402Y0192162D01*
X0060294Y0192175D01*
X0060187Y0192192D01*
X0060081Y0192213D01*
X0059975Y0192237D01*
X0059870Y0192266D01*
X0059767Y0192298D01*
X0059665Y0192334D01*
X0059564Y0192374D01*
X0059464Y0192418D01*
X0059367Y0192465D01*
X0059271Y0192516D01*
X0059177Y0192570D01*
X0059085Y0192628D01*
X0058995Y0192689D01*
X0058908Y0192753D01*
X0058823Y0192821D01*
X0058740Y0192891D01*
X0058660Y0192965D01*
X0058583Y0193041D01*
X0058509Y0193120D01*
X0058438Y0193202D01*
X0058370Y0193286D01*
X0058305Y0193373D01*
X0058243Y0193462D01*
X0058184Y0193554D01*
X0058129Y0193647D01*
X0058078Y0193742D01*
X0058029Y0193840D01*
X0057985Y0193939D01*
X0057944Y0194039D01*
X0057907Y0194141D01*
X0057874Y0194244D01*
X0057844Y0194349D01*
X0057818Y0194454D01*
X0057797Y0194561D01*
X0057779Y0194668D01*
X0057765Y0194775D01*
X0057755Y0194883D01*
X0057749Y0194992D01*
X0057747Y0195100D01*
D24*
X0053247Y0314621D02*
X0053247Y0354779D01*
X0112302Y0354779D01*
X0112302Y0314621D01*
X0053247Y0314621D01*
M02*
